%TF.GenerationSoftware,KiCad,Pcbnew,9.0.2*%
%TF.CreationDate,2025-10-08T20:37:42-05:00*%
%TF.ProjectId,cc-led-driver,63632d6c-6564-42d6-9472-697665722e6b,V1.0*%
%TF.SameCoordinates,Original*%
%TF.FileFunction,Drillmap*%
%TF.FilePolarity,Positive*%
%FSLAX45Y45*%
G04 Gerber Fmt 4.5, Leading zero omitted, Abs format (unit mm)*
G04 Created by KiCad (PCBNEW 9.0.2) date 2025-10-08 20:37:42*
%MOMM*%
%LPD*%
G01*
G04 APERTURE LIST*
%ADD10C,0.050000*%
%ADD11C,0.200000*%
%ADD12C,0.100000*%
%ADD13C,0.120000*%
%ADD14C,0.220000*%
G04 APERTURE END LIST*
D10*
X7300000Y-8800000D02*
G75*
G02*
X7000000Y-8500000I0J300000D01*
G01*
X11700000Y-8500000D02*
G75*
G02*
X11400000Y-8800000I-300000J0D01*
G01*
X11400000Y-4100000D02*
G75*
G02*
X11700000Y-4400000I0J-300000D01*
G01*
X7000000Y-4400000D02*
G75*
G02*
X7300000Y-4100000I300000J0D01*
G01*
X11400000Y-8800000D02*
X7300000Y-8800000D01*
X11700000Y-4400000D02*
X11700000Y-8500000D01*
X7300000Y-4100000D02*
X11400000Y-4100000D01*
X7000000Y-8500000D02*
X7000000Y-4400000D01*
D11*
D12*
X7393000Y-4732175D02*
X7423000Y-4762175D01*
X7423000Y-4732175D02*
X7393000Y-4762175D01*
X7393000Y-6002175D02*
X7423000Y-6032175D01*
X7423000Y-6002175D02*
X7393000Y-6032175D01*
X7393000Y-6256175D02*
X7423000Y-6286175D01*
X7423000Y-6256175D02*
X7393000Y-6286175D01*
X7393000Y-6510175D02*
X7423000Y-6540175D01*
X7423000Y-6510175D02*
X7393000Y-6540175D01*
X7393000Y-7018175D02*
X7423000Y-7048175D01*
X7423000Y-7018175D02*
X7393000Y-7048175D01*
X7393000Y-7272175D02*
X7423000Y-7302175D01*
X7423000Y-7272175D02*
X7393000Y-7302175D01*
X7393000Y-7526175D02*
X7423000Y-7556175D01*
X7423000Y-7526175D02*
X7393000Y-7556175D01*
X7393000Y-8034175D02*
X7423000Y-8064175D01*
X7423000Y-8034175D02*
X7393000Y-8064175D01*
X7445000Y-5085000D02*
X7475000Y-5115000D01*
X7475000Y-5085000D02*
X7445000Y-5115000D01*
X7445000Y-5185000D02*
X7475000Y-5215000D01*
X7475000Y-5185000D02*
X7445000Y-5215000D01*
X7445000Y-5285000D02*
X7475000Y-5315000D01*
X7475000Y-5285000D02*
X7445000Y-5315000D01*
X7647000Y-6002175D02*
X7677000Y-6032175D01*
X7677000Y-6002175D02*
X7647000Y-6032175D01*
X7647000Y-6256175D02*
X7677000Y-6286175D01*
X7677000Y-6256175D02*
X7647000Y-6286175D01*
X7647000Y-7272175D02*
X7677000Y-7302175D01*
X7677000Y-7272175D02*
X7647000Y-7302175D01*
X7647000Y-8034175D02*
X7677000Y-8064175D01*
X7677000Y-8034175D02*
X7647000Y-8064175D01*
X7647000Y-8288175D02*
X7677000Y-8318175D01*
X7677000Y-8288175D02*
X7647000Y-8318175D01*
X7647000Y-8542175D02*
X7677000Y-8572175D01*
X7677000Y-8542175D02*
X7647000Y-8572175D01*
X7665000Y-4935000D02*
X7695000Y-4965000D01*
X7695000Y-4935000D02*
X7665000Y-4965000D01*
X7750000Y-4620000D02*
X7780000Y-4650000D01*
X7780000Y-4620000D02*
X7750000Y-4650000D01*
X7835000Y-4735000D02*
X7865000Y-4765000D01*
X7865000Y-4735000D02*
X7835000Y-4765000D01*
X7835000Y-4835000D02*
X7865000Y-4865000D01*
X7865000Y-4835000D02*
X7835000Y-4865000D01*
X7835000Y-4925000D02*
X7865000Y-4955000D01*
X7865000Y-4925000D02*
X7835000Y-4955000D01*
X7865000Y-5105000D02*
X7895000Y-5135000D01*
X7895000Y-5105000D02*
X7865000Y-5135000D01*
X7885000Y-7025000D02*
X7915000Y-7055000D01*
X7915000Y-7025000D02*
X7885000Y-7055000D01*
X7901000Y-6002175D02*
X7931000Y-6032175D01*
X7931000Y-6002175D02*
X7901000Y-6032175D01*
X7901000Y-6256175D02*
X7931000Y-6286175D01*
X7931000Y-6256175D02*
X7901000Y-6286175D01*
X7901000Y-6510175D02*
X7931000Y-6540175D01*
X7931000Y-6510175D02*
X7901000Y-6540175D01*
X7901000Y-7272175D02*
X7931000Y-7302175D01*
X7931000Y-7272175D02*
X7901000Y-7302175D01*
X7901000Y-8034175D02*
X7931000Y-8064175D01*
X7931000Y-8034175D02*
X7901000Y-8064175D01*
X7901000Y-8288175D02*
X7931000Y-8318175D01*
X7931000Y-8288175D02*
X7901000Y-8318175D01*
X7901000Y-8542175D02*
X7931000Y-8572175D01*
X7931000Y-8542175D02*
X7901000Y-8572175D01*
X7905000Y-5295000D02*
X7935000Y-5325000D01*
X7935000Y-5295000D02*
X7905000Y-5325000D01*
X7905000Y-5375000D02*
X7935000Y-5405000D01*
X7935000Y-5375000D02*
X7905000Y-5405000D01*
X7905000Y-5455000D02*
X7935000Y-5485000D01*
X7935000Y-5455000D02*
X7905000Y-5485000D01*
X7935000Y-4735000D02*
X7965000Y-4765000D01*
X7965000Y-4735000D02*
X7935000Y-4765000D01*
X7935000Y-4835000D02*
X7965000Y-4865000D01*
X7965000Y-4835000D02*
X7935000Y-4865000D01*
X7935000Y-4925000D02*
X7965000Y-4955000D01*
X7965000Y-4925000D02*
X7935000Y-4955000D01*
X8155000Y-4797500D02*
X8185000Y-4827500D01*
X8185000Y-4797500D02*
X8155000Y-4827500D01*
X8155000Y-4985000D02*
X8185000Y-5015000D01*
X8185000Y-4985000D02*
X8155000Y-5015000D01*
X8155000Y-5095000D02*
X8185000Y-5125000D01*
X8185000Y-5095000D02*
X8155000Y-5125000D01*
X8155000Y-6002175D02*
X8185000Y-6032175D01*
X8185000Y-6002175D02*
X8155000Y-6032175D01*
X8155000Y-7018175D02*
X8185000Y-7048175D01*
X8185000Y-7018175D02*
X8155000Y-7048175D01*
X8155000Y-7272175D02*
X8185000Y-7302175D01*
X8185000Y-7272175D02*
X8155000Y-7302175D01*
X8155000Y-7526175D02*
X8185000Y-7556175D01*
X8185000Y-7526175D02*
X8155000Y-7556175D01*
X8155000Y-7780175D02*
X8185000Y-7810175D01*
X8185000Y-7780175D02*
X8155000Y-7810175D01*
X8155000Y-8034175D02*
X8185000Y-8064175D01*
X8185000Y-8034175D02*
X8155000Y-8064175D01*
X8155000Y-8288175D02*
X8185000Y-8318175D01*
X8185000Y-8288175D02*
X8155000Y-8318175D01*
X8155000Y-8542175D02*
X8185000Y-8572175D01*
X8185000Y-8542175D02*
X8155000Y-8572175D01*
X8195000Y-5295000D02*
X8225000Y-5325000D01*
X8225000Y-5295000D02*
X8195000Y-5325000D01*
X8195000Y-5375000D02*
X8225000Y-5405000D01*
X8225000Y-5375000D02*
X8195000Y-5405000D01*
X8195000Y-5455000D02*
X8225000Y-5485000D01*
X8225000Y-5455000D02*
X8195000Y-5485000D01*
X8210000Y-6221250D02*
X8240000Y-6251250D01*
X8240000Y-6221250D02*
X8210000Y-6251250D01*
X8235000Y-4797500D02*
X8265000Y-4827500D01*
X8265000Y-4797500D02*
X8235000Y-4827500D01*
X8235000Y-4985000D02*
X8265000Y-5015000D01*
X8265000Y-4985000D02*
X8235000Y-5015000D01*
X8235000Y-5095000D02*
X8265000Y-5125000D01*
X8265000Y-5095000D02*
X8235000Y-5125000D01*
X8315000Y-4797500D02*
X8345000Y-4827500D01*
X8345000Y-4797500D02*
X8315000Y-4827500D01*
X8315000Y-4985000D02*
X8345000Y-5015000D01*
X8345000Y-4985000D02*
X8315000Y-5015000D01*
X8315000Y-5095000D02*
X8345000Y-5125000D01*
X8345000Y-5095000D02*
X8315000Y-5125000D01*
X8409000Y-4478175D02*
X8439000Y-4508175D01*
X8439000Y-4478175D02*
X8409000Y-4508175D01*
X8409000Y-7780175D02*
X8439000Y-7810175D01*
X8439000Y-7780175D02*
X8409000Y-7810175D01*
X8409000Y-8034175D02*
X8439000Y-8064175D01*
X8439000Y-8034175D02*
X8409000Y-8064175D01*
X8409000Y-8288175D02*
X8439000Y-8318175D01*
X8439000Y-8288175D02*
X8409000Y-8318175D01*
X8409000Y-8542175D02*
X8439000Y-8572175D01*
X8439000Y-8542175D02*
X8409000Y-8572175D01*
X8495000Y-4797500D02*
X8525000Y-4827500D01*
X8525000Y-4797500D02*
X8495000Y-4827500D01*
X8495000Y-4985000D02*
X8525000Y-5015000D01*
X8525000Y-4985000D02*
X8495000Y-5015000D01*
X8495000Y-5095000D02*
X8525000Y-5125000D01*
X8525000Y-5095000D02*
X8495000Y-5125000D01*
X8535000Y-5725000D02*
X8565000Y-5755000D01*
X8565000Y-5725000D02*
X8535000Y-5755000D01*
X8545000Y-6245000D02*
X8575000Y-6275000D01*
X8575000Y-6245000D02*
X8545000Y-6275000D01*
X8545000Y-6475000D02*
X8575000Y-6505000D01*
X8575000Y-6475000D02*
X8545000Y-6505000D01*
X8565000Y-5205000D02*
X8595000Y-5235000D01*
X8595000Y-5205000D02*
X8565000Y-5235000D01*
X8575000Y-4797500D02*
X8605000Y-4827500D01*
X8605000Y-4797500D02*
X8575000Y-4827500D01*
X8575000Y-4985000D02*
X8605000Y-5015000D01*
X8605000Y-4985000D02*
X8575000Y-5015000D01*
X8575000Y-5095000D02*
X8605000Y-5125000D01*
X8605000Y-5095000D02*
X8575000Y-5125000D01*
X8595000Y-5565000D02*
X8625000Y-5595000D01*
X8625000Y-5565000D02*
X8595000Y-5595000D01*
X8630000Y-7905000D02*
X8660000Y-7935000D01*
X8660000Y-7905000D02*
X8630000Y-7935000D01*
X8655000Y-4797500D02*
X8685000Y-4827500D01*
X8685000Y-4797500D02*
X8655000Y-4827500D01*
X8655000Y-4985000D02*
X8685000Y-5015000D01*
X8685000Y-4985000D02*
X8655000Y-5015000D01*
X8655000Y-5095000D02*
X8685000Y-5125000D01*
X8685000Y-5095000D02*
X8655000Y-5125000D01*
X8663000Y-8288175D02*
X8693000Y-8318175D01*
X8693000Y-8288175D02*
X8663000Y-8318175D01*
X8663000Y-8542175D02*
X8693000Y-8572175D01*
X8693000Y-8542175D02*
X8663000Y-8572175D01*
X8665000Y-5855000D02*
X8695000Y-5885000D01*
X8695000Y-5855000D02*
X8665000Y-5885000D01*
X8695000Y-5665000D02*
X8725000Y-5695000D01*
X8725000Y-5665000D02*
X8695000Y-5695000D01*
X8735000Y-5205000D02*
X8765000Y-5235000D01*
X8765000Y-5205000D02*
X8735000Y-5235000D01*
X8765000Y-8075000D02*
X8795000Y-8105000D01*
X8795000Y-8075000D02*
X8765000Y-8105000D01*
X8800000Y-7050000D02*
X8830000Y-7080000D01*
X8830000Y-7050000D02*
X8800000Y-7080000D01*
X8835000Y-4797500D02*
X8865000Y-4827500D01*
X8865000Y-4797500D02*
X8835000Y-4827500D01*
X8835000Y-4985000D02*
X8865000Y-5015000D01*
X8865000Y-4985000D02*
X8835000Y-5015000D01*
X8835000Y-5095000D02*
X8865000Y-5125000D01*
X8865000Y-5095000D02*
X8835000Y-5125000D01*
X8845000Y-7755000D02*
X8875000Y-7785000D01*
X8875000Y-7755000D02*
X8845000Y-7785000D01*
X8855000Y-6525000D02*
X8885000Y-6555000D01*
X8885000Y-6525000D02*
X8855000Y-6555000D01*
X8885000Y-5835000D02*
X8915000Y-5865000D01*
X8915000Y-5835000D02*
X8885000Y-5865000D01*
X8885000Y-6085000D02*
X8915000Y-6115000D01*
X8915000Y-6085000D02*
X8885000Y-6115000D01*
X8885000Y-6255000D02*
X8915000Y-6285000D01*
X8915000Y-6255000D02*
X8885000Y-6285000D01*
X8915000Y-4797500D02*
X8945000Y-4827500D01*
X8945000Y-4797500D02*
X8915000Y-4827500D01*
X8915000Y-4985000D02*
X8945000Y-5015000D01*
X8945000Y-4985000D02*
X8915000Y-5015000D01*
X8915000Y-5095000D02*
X8945000Y-5125000D01*
X8945000Y-5095000D02*
X8915000Y-5125000D01*
X8917000Y-4478175D02*
X8947000Y-4508175D01*
X8947000Y-4478175D02*
X8917000Y-4508175D01*
X8917000Y-8288175D02*
X8947000Y-8318175D01*
X8947000Y-8288175D02*
X8917000Y-8318175D01*
X8917000Y-8542175D02*
X8947000Y-8572175D01*
X8947000Y-8542175D02*
X8917000Y-8572175D01*
X8975000Y-5935000D02*
X9005000Y-5965000D01*
X9005000Y-5935000D02*
X8975000Y-5965000D01*
X8995000Y-4797500D02*
X9025000Y-4827500D01*
X9025000Y-4797500D02*
X8995000Y-4827500D01*
X8995000Y-4985000D02*
X9025000Y-5015000D01*
X9025000Y-4985000D02*
X8995000Y-5015000D01*
X8995000Y-5095000D02*
X9025000Y-5125000D01*
X9025000Y-5095000D02*
X8995000Y-5125000D01*
X9025000Y-5835000D02*
X9055000Y-5865000D01*
X9055000Y-5835000D02*
X9025000Y-5865000D01*
X9115000Y-7885000D02*
X9145000Y-7915000D01*
X9145000Y-7885000D02*
X9115000Y-7915000D01*
X9171000Y-4478175D02*
X9201000Y-4508175D01*
X9201000Y-4478175D02*
X9171000Y-4508175D01*
X9171000Y-8288175D02*
X9201000Y-8318175D01*
X9201000Y-8288175D02*
X9171000Y-8318175D01*
X9171000Y-8542175D02*
X9201000Y-8572175D01*
X9201000Y-8542175D02*
X9171000Y-8572175D01*
X9175000Y-4797500D02*
X9205000Y-4827500D01*
X9205000Y-4797500D02*
X9175000Y-4827500D01*
X9175000Y-4985000D02*
X9205000Y-5015000D01*
X9205000Y-4985000D02*
X9175000Y-5015000D01*
X9175000Y-5095000D02*
X9205000Y-5125000D01*
X9205000Y-5095000D02*
X9175000Y-5125000D01*
X9255000Y-4797500D02*
X9285000Y-4827500D01*
X9285000Y-4797500D02*
X9255000Y-4827500D01*
X9255000Y-4985000D02*
X9285000Y-5015000D01*
X9285000Y-4985000D02*
X9255000Y-5015000D01*
X9255000Y-5095000D02*
X9285000Y-5125000D01*
X9285000Y-5095000D02*
X9255000Y-5125000D01*
X9265000Y-7145000D02*
X9295000Y-7175000D01*
X9295000Y-7145000D02*
X9265000Y-7175000D01*
X9295000Y-7885000D02*
X9325000Y-7915000D01*
X9325000Y-7885000D02*
X9295000Y-7915000D01*
X9302500Y-5785000D02*
X9332500Y-5815000D01*
X9332500Y-5785000D02*
X9302500Y-5815000D01*
X9302500Y-6055000D02*
X9332500Y-6085000D01*
X9332500Y-6055000D02*
X9302500Y-6085000D01*
X9335000Y-4797500D02*
X9365000Y-4827500D01*
X9365000Y-4797500D02*
X9335000Y-4827500D01*
X9335000Y-4985000D02*
X9365000Y-5015000D01*
X9365000Y-4985000D02*
X9335000Y-5015000D01*
X9335000Y-5095000D02*
X9365000Y-5125000D01*
X9365000Y-5095000D02*
X9335000Y-5125000D01*
X9355000Y-7035000D02*
X9385000Y-7065000D01*
X9385000Y-7035000D02*
X9355000Y-7065000D01*
X9415000Y-7225000D02*
X9445000Y-7255000D01*
X9445000Y-7225000D02*
X9415000Y-7255000D01*
X9425000Y-4478175D02*
X9455000Y-4508175D01*
X9455000Y-4478175D02*
X9425000Y-4508175D01*
X9425000Y-8034175D02*
X9455000Y-8064175D01*
X9455000Y-8034175D02*
X9425000Y-8064175D01*
X9425000Y-8542175D02*
X9455000Y-8572175D01*
X9455000Y-8542175D02*
X9425000Y-8572175D01*
X9475000Y-6645000D02*
X9505000Y-6675000D01*
X9505000Y-6645000D02*
X9475000Y-6675000D01*
X9512500Y-7474500D02*
X9542500Y-7504500D01*
X9542500Y-7474500D02*
X9512500Y-7504500D01*
X9512500Y-7554500D02*
X9542500Y-7584500D01*
X9542500Y-7554500D02*
X9512500Y-7584500D01*
X9515000Y-4797500D02*
X9545000Y-4827500D01*
X9545000Y-4797500D02*
X9515000Y-4827500D01*
X9515000Y-4985000D02*
X9545000Y-5015000D01*
X9545000Y-4985000D02*
X9515000Y-5015000D01*
X9515000Y-5095000D02*
X9545000Y-5125000D01*
X9545000Y-5095000D02*
X9515000Y-5125000D01*
X9515000Y-7035000D02*
X9545000Y-7065000D01*
X9545000Y-7035000D02*
X9515000Y-7065000D01*
X9595000Y-4797500D02*
X9625000Y-4827500D01*
X9625000Y-4797500D02*
X9595000Y-4827500D01*
X9595000Y-4985000D02*
X9625000Y-5015000D01*
X9625000Y-4985000D02*
X9595000Y-5015000D01*
X9595000Y-5095000D02*
X9625000Y-5125000D01*
X9625000Y-5095000D02*
X9595000Y-5125000D01*
X9675000Y-4797500D02*
X9705000Y-4827500D01*
X9705000Y-4797500D02*
X9675000Y-4827500D01*
X9675000Y-4985000D02*
X9705000Y-5015000D01*
X9705000Y-4985000D02*
X9675000Y-5015000D01*
X9675000Y-5095000D02*
X9705000Y-5125000D01*
X9705000Y-5095000D02*
X9675000Y-5125000D01*
X9679000Y-4478175D02*
X9709000Y-4508175D01*
X9709000Y-4478175D02*
X9679000Y-4508175D01*
X9679000Y-6256175D02*
X9709000Y-6286175D01*
X9709000Y-6256175D02*
X9679000Y-6286175D01*
X9679000Y-8542175D02*
X9709000Y-8572175D01*
X9709000Y-8542175D02*
X9679000Y-8572175D01*
X9685000Y-5875000D02*
X9715000Y-5905000D01*
X9715000Y-5875000D02*
X9685000Y-5905000D01*
X9685000Y-6005000D02*
X9715000Y-6035000D01*
X9715000Y-6005000D02*
X9685000Y-6035000D01*
X9745000Y-6645000D02*
X9775000Y-6675000D01*
X9775000Y-6645000D02*
X9745000Y-6675000D01*
X9895000Y-7855000D02*
X9925000Y-7885000D01*
X9925000Y-7855000D02*
X9895000Y-7885000D01*
X9933000Y-4986175D02*
X9963000Y-5016175D01*
X9963000Y-4986175D02*
X9933000Y-5016175D01*
X9933000Y-5748175D02*
X9963000Y-5778175D01*
X9963000Y-5748175D02*
X9933000Y-5778175D01*
X9933000Y-6002175D02*
X9963000Y-6032175D01*
X9963000Y-6002175D02*
X9933000Y-6032175D01*
X9933000Y-6256175D02*
X9963000Y-6286175D01*
X9963000Y-6256175D02*
X9933000Y-6286175D01*
X10187000Y-4986175D02*
X10217000Y-5016175D01*
X10217000Y-4986175D02*
X10187000Y-5016175D01*
X10187000Y-6002175D02*
X10217000Y-6032175D01*
X10217000Y-6002175D02*
X10187000Y-6032175D01*
X10187000Y-6256175D02*
X10217000Y-6286175D01*
X10217000Y-6256175D02*
X10187000Y-6286175D01*
X10187000Y-6510175D02*
X10217000Y-6540175D01*
X10217000Y-6510175D02*
X10187000Y-6540175D01*
X10187000Y-6764175D02*
X10217000Y-6794175D01*
X10217000Y-6764175D02*
X10187000Y-6794175D01*
X10187000Y-7018175D02*
X10217000Y-7048175D01*
X10217000Y-7018175D02*
X10187000Y-7048175D01*
X10187000Y-7526175D02*
X10217000Y-7556175D01*
X10217000Y-7526175D02*
X10187000Y-7556175D01*
X10242500Y-7874500D02*
X10272500Y-7904500D01*
X10272500Y-7874500D02*
X10242500Y-7904500D01*
X10242500Y-8032000D02*
X10272500Y-8062000D01*
X10272500Y-8032000D02*
X10242500Y-8062000D01*
X10255000Y-8515000D02*
X10285000Y-8545000D01*
X10285000Y-8515000D02*
X10255000Y-8545000D01*
X10435000Y-8165000D02*
X10465000Y-8195000D01*
X10465000Y-8165000D02*
X10435000Y-8195000D01*
X10435000Y-8515000D02*
X10465000Y-8545000D01*
X10465000Y-8515000D02*
X10435000Y-8545000D01*
X10441000Y-4986175D02*
X10471000Y-5016175D01*
X10471000Y-4986175D02*
X10441000Y-5016175D01*
X10441000Y-6002175D02*
X10471000Y-6032175D01*
X10471000Y-6002175D02*
X10441000Y-6032175D01*
X10441000Y-6256175D02*
X10471000Y-6286175D01*
X10471000Y-6256175D02*
X10441000Y-6286175D01*
X10441000Y-6510175D02*
X10471000Y-6540175D01*
X10471000Y-6510175D02*
X10441000Y-6540175D01*
X10441000Y-6764175D02*
X10471000Y-6794175D01*
X10471000Y-6764175D02*
X10441000Y-6794175D01*
X10441000Y-7018175D02*
X10471000Y-7048175D01*
X10471000Y-7018175D02*
X10441000Y-7048175D01*
X10441000Y-7272175D02*
X10471000Y-7302175D01*
X10471000Y-7272175D02*
X10441000Y-7302175D01*
X10441000Y-7526175D02*
X10471000Y-7556175D01*
X10471000Y-7526175D02*
X10441000Y-7556175D01*
X10441000Y-7780175D02*
X10471000Y-7810175D01*
X10471000Y-7780175D02*
X10441000Y-7810175D01*
X10695000Y-4986175D02*
X10725000Y-5016175D01*
X10725000Y-4986175D02*
X10695000Y-5016175D01*
X10695000Y-6002175D02*
X10725000Y-6032175D01*
X10725000Y-6002175D02*
X10695000Y-6032175D01*
X10695000Y-6256175D02*
X10725000Y-6286175D01*
X10725000Y-6256175D02*
X10695000Y-6286175D01*
X10695000Y-6510175D02*
X10725000Y-6540175D01*
X10725000Y-6510175D02*
X10695000Y-6540175D01*
X10695000Y-6764175D02*
X10725000Y-6794175D01*
X10725000Y-6764175D02*
X10695000Y-6794175D01*
X10695000Y-7018175D02*
X10725000Y-7048175D01*
X10725000Y-7018175D02*
X10695000Y-7048175D01*
X10695000Y-7272175D02*
X10725000Y-7302175D01*
X10725000Y-7272175D02*
X10695000Y-7302175D01*
X10695000Y-7526175D02*
X10725000Y-7556175D01*
X10725000Y-7526175D02*
X10695000Y-7556175D01*
X10695000Y-7780175D02*
X10725000Y-7810175D01*
X10725000Y-7780175D02*
X10695000Y-7810175D01*
X10695000Y-8034175D02*
X10725000Y-8064175D01*
X10725000Y-8034175D02*
X10695000Y-8064175D01*
X10695000Y-8288175D02*
X10725000Y-8318175D01*
X10725000Y-8288175D02*
X10695000Y-8318175D01*
X10695000Y-8542175D02*
X10725000Y-8572175D01*
X10725000Y-8542175D02*
X10695000Y-8572175D01*
X10949000Y-4478175D02*
X10979000Y-4508175D01*
X10979000Y-4478175D02*
X10949000Y-4508175D01*
X10949000Y-4732175D02*
X10979000Y-4762175D01*
X10979000Y-4732175D02*
X10949000Y-4762175D01*
X10949000Y-4986175D02*
X10979000Y-5016175D01*
X10979000Y-4986175D02*
X10949000Y-5016175D01*
X10949000Y-5240175D02*
X10979000Y-5270175D01*
X10979000Y-5240175D02*
X10949000Y-5270175D01*
X10949000Y-5494175D02*
X10979000Y-5524175D01*
X10979000Y-5494175D02*
X10949000Y-5524175D01*
X10949000Y-5748175D02*
X10979000Y-5778175D01*
X10979000Y-5748175D02*
X10949000Y-5778175D01*
X10949000Y-6002175D02*
X10979000Y-6032175D01*
X10979000Y-6002175D02*
X10949000Y-6032175D01*
X10949000Y-6256175D02*
X10979000Y-6286175D01*
X10979000Y-6256175D02*
X10949000Y-6286175D01*
X10949000Y-6510175D02*
X10979000Y-6540175D01*
X10979000Y-6510175D02*
X10949000Y-6540175D01*
X10949000Y-6764175D02*
X10979000Y-6794175D01*
X10979000Y-6764175D02*
X10949000Y-6794175D01*
X10949000Y-7018175D02*
X10979000Y-7048175D01*
X10979000Y-7018175D02*
X10949000Y-7048175D01*
X10949000Y-7272175D02*
X10979000Y-7302175D01*
X10979000Y-7272175D02*
X10949000Y-7302175D01*
X10949000Y-7526175D02*
X10979000Y-7556175D01*
X10979000Y-7526175D02*
X10949000Y-7556175D01*
X10949000Y-7780175D02*
X10979000Y-7810175D01*
X10979000Y-7780175D02*
X10949000Y-7810175D01*
X10949000Y-8034175D02*
X10979000Y-8064175D01*
X10979000Y-8034175D02*
X10949000Y-8064175D01*
X10949000Y-8288175D02*
X10979000Y-8318175D01*
X10979000Y-8288175D02*
X10949000Y-8318175D01*
X10949000Y-8542175D02*
X10979000Y-8572175D01*
X10979000Y-8542175D02*
X10949000Y-8572175D01*
X11203000Y-4732175D02*
X11233000Y-4762175D01*
X11233000Y-4732175D02*
X11203000Y-4762175D01*
X11203000Y-4986175D02*
X11233000Y-5016175D01*
X11233000Y-4986175D02*
X11203000Y-5016175D01*
X11203000Y-5240175D02*
X11233000Y-5270175D01*
X11233000Y-5240175D02*
X11203000Y-5270175D01*
X11203000Y-5494175D02*
X11233000Y-5524175D01*
X11233000Y-5494175D02*
X11203000Y-5524175D01*
X11203000Y-5748175D02*
X11233000Y-5778175D01*
X11233000Y-5748175D02*
X11203000Y-5778175D01*
X11203000Y-6002175D02*
X11233000Y-6032175D01*
X11233000Y-6002175D02*
X11203000Y-6032175D01*
X11203000Y-7780175D02*
X11233000Y-7810175D01*
X11233000Y-7780175D02*
X11203000Y-7810175D01*
X11203000Y-8034175D02*
X11233000Y-8064175D01*
X11233000Y-8034175D02*
X11203000Y-8064175D01*
X11457000Y-4732175D02*
X11487000Y-4762175D01*
X11487000Y-4732175D02*
X11457000Y-4762175D01*
X11457000Y-4986175D02*
X11487000Y-5016175D01*
X11487000Y-4986175D02*
X11457000Y-5016175D01*
X11457000Y-5240175D02*
X11487000Y-5270175D01*
X11487000Y-5240175D02*
X11457000Y-5270175D01*
X11457000Y-5494175D02*
X11487000Y-5524175D01*
X11487000Y-5494175D02*
X11457000Y-5524175D01*
X11457000Y-5748175D02*
X11487000Y-5778175D01*
X11487000Y-5748175D02*
X11457000Y-5778175D01*
X11457000Y-6002175D02*
X11487000Y-6032175D01*
X11487000Y-6002175D02*
X11457000Y-6032175D01*
X11457000Y-7780175D02*
X11487000Y-7810175D01*
X11487000Y-7780175D02*
X11457000Y-7810175D01*
X11457000Y-8034175D02*
X11487000Y-8064175D01*
X11487000Y-8034175D02*
X11457000Y-8064175D01*
X9180000Y-5315000D02*
G75*
G02*
X9150000Y-5315000I-15000J0D01*
G01*
X9150000Y-5315000D02*
G75*
G02*
X9180000Y-5315000I15000J0D01*
G01*
X9180000Y-5445000D02*
G75*
G02*
X9150000Y-5445000I-15000J0D01*
G01*
X9150000Y-5445000D02*
G75*
G02*
X9180000Y-5445000I15000J0D01*
G01*
X9180000Y-5575000D02*
G75*
G02*
X9150000Y-5575000I-15000J0D01*
G01*
X9150000Y-5575000D02*
G75*
G02*
X9180000Y-5575000I15000J0D01*
G01*
X9180000Y-5705000D02*
G75*
G02*
X9150000Y-5705000I-15000J0D01*
G01*
X9150000Y-5705000D02*
G75*
G02*
X9180000Y-5705000I15000J0D01*
G01*
X9310000Y-5315000D02*
G75*
G02*
X9280000Y-5315000I-15000J0D01*
G01*
X9280000Y-5315000D02*
G75*
G02*
X9310000Y-5315000I15000J0D01*
G01*
X9310000Y-5445000D02*
G75*
G02*
X9280000Y-5445000I-15000J0D01*
G01*
X9280000Y-5445000D02*
G75*
G02*
X9310000Y-5445000I15000J0D01*
G01*
X9310000Y-5575000D02*
G75*
G02*
X9280000Y-5575000I-15000J0D01*
G01*
X9280000Y-5575000D02*
G75*
G02*
X9310000Y-5575000I15000J0D01*
G01*
X9310000Y-5705000D02*
G75*
G02*
X9280000Y-5705000I-15000J0D01*
G01*
X9280000Y-5705000D02*
G75*
G02*
X9310000Y-5705000I15000J0D01*
G01*
X8400000Y-6950000D02*
X8400000Y-7050000D01*
X8350000Y-7000000D02*
X8450000Y-7000000D01*
X8400000Y-7200000D02*
X8400000Y-7300000D01*
X8350000Y-7250000D02*
X8450000Y-7250000D01*
X8400000Y-7450000D02*
X8400000Y-7550000D01*
X8350000Y-7500000D02*
X8450000Y-7500000D01*
D13*
X7342427Y-5242427D02*
X7342427Y-5157573D01*
X7257573Y-5157573D01*
X7257573Y-5242427D01*
X7342427Y-5242427D01*
X7342427Y-5742427D02*
X7342427Y-5657573D01*
X7257573Y-5657573D01*
X7257573Y-5742427D01*
X7342427Y-5742427D01*
X8242427Y-4442427D02*
X8242427Y-4357573D01*
X8157573Y-4357573D01*
X8157573Y-4442427D01*
X8242427Y-4442427D01*
X8742427Y-4442427D02*
X8742427Y-4357573D01*
X8657573Y-4357573D01*
X8657573Y-4442427D01*
X8742427Y-4442427D01*
D14*
X7300000Y-4510000D02*
X7410000Y-4400000D01*
X7300000Y-4290000D01*
X7190000Y-4400000D01*
X7300000Y-4510000D01*
X7300000Y-8610000D02*
X7410000Y-8500000D01*
X7300000Y-8390000D01*
X7190000Y-8500000D01*
X7300000Y-8610000D01*
X7700000Y-6920000D02*
X7810000Y-6810000D01*
X7700000Y-6700000D01*
X7590000Y-6810000D01*
X7700000Y-6920000D01*
X7700000Y-7800000D02*
X7810000Y-7690000D01*
X7700000Y-7580000D01*
X7590000Y-7690000D01*
X7700000Y-7800000D01*
X11400000Y-4510000D02*
X11510000Y-4400000D01*
X11400000Y-4290000D01*
X11290000Y-4400000D01*
X11400000Y-4510000D01*
X11400000Y-8610000D02*
X11510000Y-8500000D01*
X11400000Y-8390000D01*
X11290000Y-8500000D01*
X11400000Y-8610000D01*
D11*
X7258277Y-9113984D02*
X7258277Y-8913984D01*
X7258277Y-8913984D02*
X7305896Y-8913984D01*
X7305896Y-8913984D02*
X7334467Y-8923508D01*
X7334467Y-8923508D02*
X7353515Y-8942555D01*
X7353515Y-8942555D02*
X7363039Y-8961603D01*
X7363039Y-8961603D02*
X7372562Y-8999698D01*
X7372562Y-8999698D02*
X7372562Y-9028270D01*
X7372562Y-9028270D02*
X7363039Y-9066365D01*
X7363039Y-9066365D02*
X7353515Y-9085412D01*
X7353515Y-9085412D02*
X7334467Y-9104460D01*
X7334467Y-9104460D02*
X7305896Y-9113984D01*
X7305896Y-9113984D02*
X7258277Y-9113984D01*
X7458277Y-9113984D02*
X7458277Y-8980650D01*
X7458277Y-9018746D02*
X7467801Y-8999698D01*
X7467801Y-8999698D02*
X7477324Y-8990174D01*
X7477324Y-8990174D02*
X7496372Y-8980650D01*
X7496372Y-8980650D02*
X7515420Y-8980650D01*
X7582086Y-9113984D02*
X7582086Y-8980650D01*
X7582086Y-8913984D02*
X7572562Y-8923508D01*
X7572562Y-8923508D02*
X7582086Y-8933031D01*
X7582086Y-8933031D02*
X7591610Y-8923508D01*
X7591610Y-8923508D02*
X7582086Y-8913984D01*
X7582086Y-8913984D02*
X7582086Y-8933031D01*
X7705896Y-9113984D02*
X7686848Y-9104460D01*
X7686848Y-9104460D02*
X7677324Y-9085412D01*
X7677324Y-9085412D02*
X7677324Y-8913984D01*
X7810658Y-9113984D02*
X7791610Y-9104460D01*
X7791610Y-9104460D02*
X7782086Y-9085412D01*
X7782086Y-9085412D02*
X7782086Y-8913984D01*
X8039229Y-9113984D02*
X8039229Y-8913984D01*
X8039229Y-8913984D02*
X8105896Y-9056841D01*
X8105896Y-9056841D02*
X8172562Y-8913984D01*
X8172562Y-8913984D02*
X8172562Y-9113984D01*
X8353515Y-9113984D02*
X8353515Y-9009222D01*
X8353515Y-9009222D02*
X8343991Y-8990174D01*
X8343991Y-8990174D02*
X8324943Y-8980650D01*
X8324943Y-8980650D02*
X8286848Y-8980650D01*
X8286848Y-8980650D02*
X8267801Y-8990174D01*
X8353515Y-9104460D02*
X8334467Y-9113984D01*
X8334467Y-9113984D02*
X8286848Y-9113984D01*
X8286848Y-9113984D02*
X8267801Y-9104460D01*
X8267801Y-9104460D02*
X8258277Y-9085412D01*
X8258277Y-9085412D02*
X8258277Y-9066365D01*
X8258277Y-9066365D02*
X8267801Y-9047317D01*
X8267801Y-9047317D02*
X8286848Y-9037793D01*
X8286848Y-9037793D02*
X8334467Y-9037793D01*
X8334467Y-9037793D02*
X8353515Y-9028270D01*
X8448753Y-8980650D02*
X8448753Y-9180650D01*
X8448753Y-8990174D02*
X8467801Y-8980650D01*
X8467801Y-8980650D02*
X8505896Y-8980650D01*
X8505896Y-8980650D02*
X8524944Y-8990174D01*
X8524944Y-8990174D02*
X8534467Y-8999698D01*
X8534467Y-8999698D02*
X8543991Y-9018746D01*
X8543991Y-9018746D02*
X8543991Y-9075889D01*
X8543991Y-9075889D02*
X8534467Y-9094936D01*
X8534467Y-9094936D02*
X8524944Y-9104460D01*
X8524944Y-9104460D02*
X8505896Y-9113984D01*
X8505896Y-9113984D02*
X8467801Y-9113984D01*
X8467801Y-9113984D02*
X8448753Y-9104460D01*
X8629705Y-9094936D02*
X8639229Y-9104460D01*
X8639229Y-9104460D02*
X8629705Y-9113984D01*
X8629705Y-9113984D02*
X8620182Y-9104460D01*
X8620182Y-9104460D02*
X8629705Y-9094936D01*
X8629705Y-9094936D02*
X8629705Y-9113984D01*
X8629705Y-8990174D02*
X8639229Y-8999698D01*
X8639229Y-8999698D02*
X8629705Y-9009222D01*
X8629705Y-9009222D02*
X8620182Y-8999698D01*
X8620182Y-8999698D02*
X8629705Y-8990174D01*
X8629705Y-8990174D02*
X8629705Y-9009222D01*
D12*
X6967500Y-9427500D02*
X6997500Y-9457500D01*
X6997500Y-9427500D02*
X6967500Y-9457500D01*
D11*
X7296372Y-9333984D02*
X7315420Y-9333984D01*
X7315420Y-9333984D02*
X7334467Y-9343508D01*
X7334467Y-9343508D02*
X7343991Y-9353031D01*
X7343991Y-9353031D02*
X7353515Y-9372079D01*
X7353515Y-9372079D02*
X7363039Y-9410174D01*
X7363039Y-9410174D02*
X7363039Y-9457793D01*
X7363039Y-9457793D02*
X7353515Y-9495889D01*
X7353515Y-9495889D02*
X7343991Y-9514936D01*
X7343991Y-9514936D02*
X7334467Y-9524460D01*
X7334467Y-9524460D02*
X7315420Y-9533984D01*
X7315420Y-9533984D02*
X7296372Y-9533984D01*
X7296372Y-9533984D02*
X7277324Y-9524460D01*
X7277324Y-9524460D02*
X7267801Y-9514936D01*
X7267801Y-9514936D02*
X7258277Y-9495889D01*
X7258277Y-9495889D02*
X7248753Y-9457793D01*
X7248753Y-9457793D02*
X7248753Y-9410174D01*
X7248753Y-9410174D02*
X7258277Y-9372079D01*
X7258277Y-9372079D02*
X7267801Y-9353031D01*
X7267801Y-9353031D02*
X7277324Y-9343508D01*
X7277324Y-9343508D02*
X7296372Y-9333984D01*
X7448753Y-9514936D02*
X7458277Y-9524460D01*
X7458277Y-9524460D02*
X7448753Y-9533984D01*
X7448753Y-9533984D02*
X7439229Y-9524460D01*
X7439229Y-9524460D02*
X7448753Y-9514936D01*
X7448753Y-9514936D02*
X7448753Y-9533984D01*
X7524943Y-9333984D02*
X7648753Y-9333984D01*
X7648753Y-9333984D02*
X7582086Y-9410174D01*
X7582086Y-9410174D02*
X7610658Y-9410174D01*
X7610658Y-9410174D02*
X7629705Y-9419698D01*
X7629705Y-9419698D02*
X7639229Y-9429222D01*
X7639229Y-9429222D02*
X7648753Y-9448270D01*
X7648753Y-9448270D02*
X7648753Y-9495889D01*
X7648753Y-9495889D02*
X7639229Y-9514936D01*
X7639229Y-9514936D02*
X7629705Y-9524460D01*
X7629705Y-9524460D02*
X7610658Y-9533984D01*
X7610658Y-9533984D02*
X7553515Y-9533984D01*
X7553515Y-9533984D02*
X7534467Y-9524460D01*
X7534467Y-9524460D02*
X7524943Y-9514936D01*
X7772562Y-9333984D02*
X7791610Y-9333984D01*
X7791610Y-9333984D02*
X7810658Y-9343508D01*
X7810658Y-9343508D02*
X7820182Y-9353031D01*
X7820182Y-9353031D02*
X7829705Y-9372079D01*
X7829705Y-9372079D02*
X7839229Y-9410174D01*
X7839229Y-9410174D02*
X7839229Y-9457793D01*
X7839229Y-9457793D02*
X7829705Y-9495889D01*
X7829705Y-9495889D02*
X7820182Y-9514936D01*
X7820182Y-9514936D02*
X7810658Y-9524460D01*
X7810658Y-9524460D02*
X7791610Y-9533984D01*
X7791610Y-9533984D02*
X7772562Y-9533984D01*
X7772562Y-9533984D02*
X7753515Y-9524460D01*
X7753515Y-9524460D02*
X7743991Y-9514936D01*
X7743991Y-9514936D02*
X7734467Y-9495889D01*
X7734467Y-9495889D02*
X7724943Y-9457793D01*
X7724943Y-9457793D02*
X7724943Y-9410174D01*
X7724943Y-9410174D02*
X7734467Y-9372079D01*
X7734467Y-9372079D02*
X7743991Y-9353031D01*
X7743991Y-9353031D02*
X7753515Y-9343508D01*
X7753515Y-9343508D02*
X7772562Y-9333984D01*
X7963039Y-9333984D02*
X7982086Y-9333984D01*
X7982086Y-9333984D02*
X8001134Y-9343508D01*
X8001134Y-9343508D02*
X8010658Y-9353031D01*
X8010658Y-9353031D02*
X8020182Y-9372079D01*
X8020182Y-9372079D02*
X8029705Y-9410174D01*
X8029705Y-9410174D02*
X8029705Y-9457793D01*
X8029705Y-9457793D02*
X8020182Y-9495889D01*
X8020182Y-9495889D02*
X8010658Y-9514936D01*
X8010658Y-9514936D02*
X8001134Y-9524460D01*
X8001134Y-9524460D02*
X7982086Y-9533984D01*
X7982086Y-9533984D02*
X7963039Y-9533984D01*
X7963039Y-9533984D02*
X7943991Y-9524460D01*
X7943991Y-9524460D02*
X7934467Y-9514936D01*
X7934467Y-9514936D02*
X7924943Y-9495889D01*
X7924943Y-9495889D02*
X7915420Y-9457793D01*
X7915420Y-9457793D02*
X7915420Y-9410174D01*
X7915420Y-9410174D02*
X7924943Y-9372079D01*
X7924943Y-9372079D02*
X7934467Y-9353031D01*
X7934467Y-9353031D02*
X7943991Y-9343508D01*
X7943991Y-9343508D02*
X7963039Y-9333984D01*
X8115420Y-9533984D02*
X8115420Y-9400650D01*
X8115420Y-9419698D02*
X8124943Y-9410174D01*
X8124943Y-9410174D02*
X8143991Y-9400650D01*
X8143991Y-9400650D02*
X8172563Y-9400650D01*
X8172563Y-9400650D02*
X8191610Y-9410174D01*
X8191610Y-9410174D02*
X8201134Y-9429222D01*
X8201134Y-9429222D02*
X8201134Y-9533984D01*
X8201134Y-9429222D02*
X8210658Y-9410174D01*
X8210658Y-9410174D02*
X8229705Y-9400650D01*
X8229705Y-9400650D02*
X8258277Y-9400650D01*
X8258277Y-9400650D02*
X8277324Y-9410174D01*
X8277324Y-9410174D02*
X8286848Y-9429222D01*
X8286848Y-9429222D02*
X8286848Y-9533984D01*
X8382086Y-9533984D02*
X8382086Y-9400650D01*
X8382086Y-9419698D02*
X8391610Y-9410174D01*
X8391610Y-9410174D02*
X8410658Y-9400650D01*
X8410658Y-9400650D02*
X8439229Y-9400650D01*
X8439229Y-9400650D02*
X8458277Y-9410174D01*
X8458277Y-9410174D02*
X8467801Y-9429222D01*
X8467801Y-9429222D02*
X8467801Y-9533984D01*
X8467801Y-9429222D02*
X8477325Y-9410174D01*
X8477325Y-9410174D02*
X8496372Y-9400650D01*
X8496372Y-9400650D02*
X8524944Y-9400650D01*
X8524944Y-9400650D02*
X8543991Y-9410174D01*
X8543991Y-9410174D02*
X8553515Y-9429222D01*
X8553515Y-9429222D02*
X8553515Y-9533984D01*
X8943991Y-9324460D02*
X8772563Y-9581603D01*
X9201134Y-9333984D02*
X9220182Y-9333984D01*
X9220182Y-9333984D02*
X9239229Y-9343508D01*
X9239229Y-9343508D02*
X9248753Y-9353031D01*
X9248753Y-9353031D02*
X9258277Y-9372079D01*
X9258277Y-9372079D02*
X9267801Y-9410174D01*
X9267801Y-9410174D02*
X9267801Y-9457793D01*
X9267801Y-9457793D02*
X9258277Y-9495889D01*
X9258277Y-9495889D02*
X9248753Y-9514936D01*
X9248753Y-9514936D02*
X9239229Y-9524460D01*
X9239229Y-9524460D02*
X9220182Y-9533984D01*
X9220182Y-9533984D02*
X9201134Y-9533984D01*
X9201134Y-9533984D02*
X9182087Y-9524460D01*
X9182087Y-9524460D02*
X9172563Y-9514936D01*
X9172563Y-9514936D02*
X9163039Y-9495889D01*
X9163039Y-9495889D02*
X9153515Y-9457793D01*
X9153515Y-9457793D02*
X9153515Y-9410174D01*
X9153515Y-9410174D02*
X9163039Y-9372079D01*
X9163039Y-9372079D02*
X9172563Y-9353031D01*
X9172563Y-9353031D02*
X9182087Y-9343508D01*
X9182087Y-9343508D02*
X9201134Y-9333984D01*
X9353515Y-9514936D02*
X9363039Y-9524460D01*
X9363039Y-9524460D02*
X9353515Y-9533984D01*
X9353515Y-9533984D02*
X9343991Y-9524460D01*
X9343991Y-9524460D02*
X9353515Y-9514936D01*
X9353515Y-9514936D02*
X9353515Y-9533984D01*
X9486848Y-9333984D02*
X9505896Y-9333984D01*
X9505896Y-9333984D02*
X9524944Y-9343508D01*
X9524944Y-9343508D02*
X9534468Y-9353031D01*
X9534468Y-9353031D02*
X9543991Y-9372079D01*
X9543991Y-9372079D02*
X9553515Y-9410174D01*
X9553515Y-9410174D02*
X9553515Y-9457793D01*
X9553515Y-9457793D02*
X9543991Y-9495889D01*
X9543991Y-9495889D02*
X9534468Y-9514936D01*
X9534468Y-9514936D02*
X9524944Y-9524460D01*
X9524944Y-9524460D02*
X9505896Y-9533984D01*
X9505896Y-9533984D02*
X9486848Y-9533984D01*
X9486848Y-9533984D02*
X9467801Y-9524460D01*
X9467801Y-9524460D02*
X9458277Y-9514936D01*
X9458277Y-9514936D02*
X9448753Y-9495889D01*
X9448753Y-9495889D02*
X9439229Y-9457793D01*
X9439229Y-9457793D02*
X9439229Y-9410174D01*
X9439229Y-9410174D02*
X9448753Y-9372079D01*
X9448753Y-9372079D02*
X9458277Y-9353031D01*
X9458277Y-9353031D02*
X9467801Y-9343508D01*
X9467801Y-9343508D02*
X9486848Y-9333984D01*
X9743991Y-9533984D02*
X9629706Y-9533984D01*
X9686848Y-9533984D02*
X9686848Y-9333984D01*
X9686848Y-9333984D02*
X9667801Y-9362555D01*
X9667801Y-9362555D02*
X9648753Y-9381603D01*
X9648753Y-9381603D02*
X9629706Y-9391127D01*
X9934468Y-9533984D02*
X9820182Y-9533984D01*
X9877325Y-9533984D02*
X9877325Y-9333984D01*
X9877325Y-9333984D02*
X9858277Y-9362555D01*
X9858277Y-9362555D02*
X9839229Y-9381603D01*
X9839229Y-9381603D02*
X9820182Y-9391127D01*
X10048753Y-9419698D02*
X10029706Y-9410174D01*
X10029706Y-9410174D02*
X10020182Y-9400650D01*
X10020182Y-9400650D02*
X10010658Y-9381603D01*
X10010658Y-9381603D02*
X10010658Y-9372079D01*
X10010658Y-9372079D02*
X10020182Y-9353031D01*
X10020182Y-9353031D02*
X10029706Y-9343508D01*
X10029706Y-9343508D02*
X10048753Y-9333984D01*
X10048753Y-9333984D02*
X10086849Y-9333984D01*
X10086849Y-9333984D02*
X10105896Y-9343508D01*
X10105896Y-9343508D02*
X10115420Y-9353031D01*
X10115420Y-9353031D02*
X10124944Y-9372079D01*
X10124944Y-9372079D02*
X10124944Y-9381603D01*
X10124944Y-9381603D02*
X10115420Y-9400650D01*
X10115420Y-9400650D02*
X10105896Y-9410174D01*
X10105896Y-9410174D02*
X10086849Y-9419698D01*
X10086849Y-9419698D02*
X10048753Y-9419698D01*
X10048753Y-9419698D02*
X10029706Y-9429222D01*
X10029706Y-9429222D02*
X10020182Y-9438746D01*
X10020182Y-9438746D02*
X10010658Y-9457793D01*
X10010658Y-9457793D02*
X10010658Y-9495889D01*
X10010658Y-9495889D02*
X10020182Y-9514936D01*
X10020182Y-9514936D02*
X10029706Y-9524460D01*
X10029706Y-9524460D02*
X10048753Y-9533984D01*
X10048753Y-9533984D02*
X10086849Y-9533984D01*
X10086849Y-9533984D02*
X10105896Y-9524460D01*
X10105896Y-9524460D02*
X10115420Y-9514936D01*
X10115420Y-9514936D02*
X10124944Y-9495889D01*
X10124944Y-9495889D02*
X10124944Y-9457793D01*
X10124944Y-9457793D02*
X10115420Y-9438746D01*
X10115420Y-9438746D02*
X10105896Y-9429222D01*
X10105896Y-9429222D02*
X10086849Y-9419698D01*
X10201134Y-9333984D02*
X10201134Y-9372079D01*
X10277325Y-9333984D02*
X10277325Y-9372079D01*
X10572563Y-9610174D02*
X10563039Y-9600650D01*
X10563039Y-9600650D02*
X10543991Y-9572079D01*
X10543991Y-9572079D02*
X10534468Y-9553031D01*
X10534468Y-9553031D02*
X10524944Y-9524460D01*
X10524944Y-9524460D02*
X10515420Y-9476841D01*
X10515420Y-9476841D02*
X10515420Y-9438746D01*
X10515420Y-9438746D02*
X10524944Y-9391127D01*
X10524944Y-9391127D02*
X10534468Y-9362555D01*
X10534468Y-9362555D02*
X10543991Y-9343508D01*
X10543991Y-9343508D02*
X10563039Y-9314936D01*
X10563039Y-9314936D02*
X10572563Y-9305412D01*
X10639230Y-9353031D02*
X10648753Y-9343508D01*
X10648753Y-9343508D02*
X10667801Y-9333984D01*
X10667801Y-9333984D02*
X10715420Y-9333984D01*
X10715420Y-9333984D02*
X10734468Y-9343508D01*
X10734468Y-9343508D02*
X10743991Y-9353031D01*
X10743991Y-9353031D02*
X10753515Y-9372079D01*
X10753515Y-9372079D02*
X10753515Y-9391127D01*
X10753515Y-9391127D02*
X10743991Y-9419698D01*
X10743991Y-9419698D02*
X10629706Y-9533984D01*
X10629706Y-9533984D02*
X10753515Y-9533984D01*
X10943991Y-9533984D02*
X10829706Y-9533984D01*
X10886849Y-9533984D02*
X10886849Y-9333984D01*
X10886849Y-9333984D02*
X10867801Y-9362555D01*
X10867801Y-9362555D02*
X10848753Y-9381603D01*
X10848753Y-9381603D02*
X10829706Y-9391127D01*
X11115420Y-9333984D02*
X11077325Y-9333984D01*
X11077325Y-9333984D02*
X11058277Y-9343508D01*
X11058277Y-9343508D02*
X11048753Y-9353031D01*
X11048753Y-9353031D02*
X11029706Y-9381603D01*
X11029706Y-9381603D02*
X11020182Y-9419698D01*
X11020182Y-9419698D02*
X11020182Y-9495889D01*
X11020182Y-9495889D02*
X11029706Y-9514936D01*
X11029706Y-9514936D02*
X11039230Y-9524460D01*
X11039230Y-9524460D02*
X11058277Y-9533984D01*
X11058277Y-9533984D02*
X11096372Y-9533984D01*
X11096372Y-9533984D02*
X11115420Y-9524460D01*
X11115420Y-9524460D02*
X11124944Y-9514936D01*
X11124944Y-9514936D02*
X11134468Y-9495889D01*
X11134468Y-9495889D02*
X11134468Y-9448270D01*
X11134468Y-9448270D02*
X11124944Y-9429222D01*
X11124944Y-9429222D02*
X11115420Y-9419698D01*
X11115420Y-9419698D02*
X11096372Y-9410174D01*
X11096372Y-9410174D02*
X11058277Y-9410174D01*
X11058277Y-9410174D02*
X11039230Y-9419698D01*
X11039230Y-9419698D02*
X11029706Y-9429222D01*
X11029706Y-9429222D02*
X11020182Y-9448270D01*
X11372563Y-9533984D02*
X11372563Y-9333984D01*
X11458277Y-9533984D02*
X11458277Y-9429222D01*
X11458277Y-9429222D02*
X11448753Y-9410174D01*
X11448753Y-9410174D02*
X11429706Y-9400650D01*
X11429706Y-9400650D02*
X11401134Y-9400650D01*
X11401134Y-9400650D02*
X11382087Y-9410174D01*
X11382087Y-9410174D02*
X11372563Y-9419698D01*
X11582087Y-9533984D02*
X11563039Y-9524460D01*
X11563039Y-9524460D02*
X11553515Y-9514936D01*
X11553515Y-9514936D02*
X11543991Y-9495889D01*
X11543991Y-9495889D02*
X11543991Y-9438746D01*
X11543991Y-9438746D02*
X11553515Y-9419698D01*
X11553515Y-9419698D02*
X11563039Y-9410174D01*
X11563039Y-9410174D02*
X11582087Y-9400650D01*
X11582087Y-9400650D02*
X11610658Y-9400650D01*
X11610658Y-9400650D02*
X11629706Y-9410174D01*
X11629706Y-9410174D02*
X11639230Y-9419698D01*
X11639230Y-9419698D02*
X11648753Y-9438746D01*
X11648753Y-9438746D02*
X11648753Y-9495889D01*
X11648753Y-9495889D02*
X11639230Y-9514936D01*
X11639230Y-9514936D02*
X11629706Y-9524460D01*
X11629706Y-9524460D02*
X11610658Y-9533984D01*
X11610658Y-9533984D02*
X11582087Y-9533984D01*
X11763039Y-9533984D02*
X11743991Y-9524460D01*
X11743991Y-9524460D02*
X11734468Y-9505412D01*
X11734468Y-9505412D02*
X11734468Y-9333984D01*
X11915420Y-9524460D02*
X11896372Y-9533984D01*
X11896372Y-9533984D02*
X11858277Y-9533984D01*
X11858277Y-9533984D02*
X11839230Y-9524460D01*
X11839230Y-9524460D02*
X11829706Y-9505412D01*
X11829706Y-9505412D02*
X11829706Y-9429222D01*
X11829706Y-9429222D02*
X11839230Y-9410174D01*
X11839230Y-9410174D02*
X11858277Y-9400650D01*
X11858277Y-9400650D02*
X11896372Y-9400650D01*
X11896372Y-9400650D02*
X11915420Y-9410174D01*
X11915420Y-9410174D02*
X11924944Y-9429222D01*
X11924944Y-9429222D02*
X11924944Y-9448270D01*
X11924944Y-9448270D02*
X11829706Y-9467317D01*
X12001134Y-9524460D02*
X12020182Y-9533984D01*
X12020182Y-9533984D02*
X12058277Y-9533984D01*
X12058277Y-9533984D02*
X12077325Y-9524460D01*
X12077325Y-9524460D02*
X12086849Y-9505412D01*
X12086849Y-9505412D02*
X12086849Y-9495889D01*
X12086849Y-9495889D02*
X12077325Y-9476841D01*
X12077325Y-9476841D02*
X12058277Y-9467317D01*
X12058277Y-9467317D02*
X12029706Y-9467317D01*
X12029706Y-9467317D02*
X12010658Y-9457793D01*
X12010658Y-9457793D02*
X12001134Y-9438746D01*
X12001134Y-9438746D02*
X12001134Y-9429222D01*
X12001134Y-9429222D02*
X12010658Y-9410174D01*
X12010658Y-9410174D02*
X12029706Y-9400650D01*
X12029706Y-9400650D02*
X12058277Y-9400650D01*
X12058277Y-9400650D02*
X12077325Y-9410174D01*
X12153515Y-9610174D02*
X12163039Y-9600650D01*
X12163039Y-9600650D02*
X12182087Y-9572079D01*
X12182087Y-9572079D02*
X12191611Y-9553031D01*
X12191611Y-9553031D02*
X12201134Y-9524460D01*
X12201134Y-9524460D02*
X12210658Y-9476841D01*
X12210658Y-9476841D02*
X12210658Y-9438746D01*
X12210658Y-9438746D02*
X12201134Y-9391127D01*
X12201134Y-9391127D02*
X12191611Y-9362555D01*
X12191611Y-9362555D02*
X12182087Y-9343508D01*
X12182087Y-9343508D02*
X12163039Y-9314936D01*
X12163039Y-9314936D02*
X12153515Y-9305412D01*
D12*
X6997500Y-9706500D02*
G75*
G02*
X6967500Y-9706500I-15000J0D01*
G01*
X6967500Y-9706500D02*
G75*
G02*
X6997500Y-9706500I15000J0D01*
G01*
D11*
X7296372Y-9597984D02*
X7315420Y-9597984D01*
X7315420Y-9597984D02*
X7334467Y-9607508D01*
X7334467Y-9607508D02*
X7343991Y-9617031D01*
X7343991Y-9617031D02*
X7353515Y-9636079D01*
X7353515Y-9636079D02*
X7363039Y-9674174D01*
X7363039Y-9674174D02*
X7363039Y-9721793D01*
X7363039Y-9721793D02*
X7353515Y-9759889D01*
X7353515Y-9759889D02*
X7343991Y-9778936D01*
X7343991Y-9778936D02*
X7334467Y-9788460D01*
X7334467Y-9788460D02*
X7315420Y-9797984D01*
X7315420Y-9797984D02*
X7296372Y-9797984D01*
X7296372Y-9797984D02*
X7277324Y-9788460D01*
X7277324Y-9788460D02*
X7267801Y-9778936D01*
X7267801Y-9778936D02*
X7258277Y-9759889D01*
X7258277Y-9759889D02*
X7248753Y-9721793D01*
X7248753Y-9721793D02*
X7248753Y-9674174D01*
X7248753Y-9674174D02*
X7258277Y-9636079D01*
X7258277Y-9636079D02*
X7267801Y-9617031D01*
X7267801Y-9617031D02*
X7277324Y-9607508D01*
X7277324Y-9607508D02*
X7296372Y-9597984D01*
X7448753Y-9778936D02*
X7458277Y-9788460D01*
X7458277Y-9788460D02*
X7448753Y-9797984D01*
X7448753Y-9797984D02*
X7439229Y-9788460D01*
X7439229Y-9788460D02*
X7448753Y-9778936D01*
X7448753Y-9778936D02*
X7448753Y-9797984D01*
X7524943Y-9597984D02*
X7648753Y-9597984D01*
X7648753Y-9597984D02*
X7582086Y-9674174D01*
X7582086Y-9674174D02*
X7610658Y-9674174D01*
X7610658Y-9674174D02*
X7629705Y-9683698D01*
X7629705Y-9683698D02*
X7639229Y-9693222D01*
X7639229Y-9693222D02*
X7648753Y-9712270D01*
X7648753Y-9712270D02*
X7648753Y-9759889D01*
X7648753Y-9759889D02*
X7639229Y-9778936D01*
X7639229Y-9778936D02*
X7629705Y-9788460D01*
X7629705Y-9788460D02*
X7610658Y-9797984D01*
X7610658Y-9797984D02*
X7553515Y-9797984D01*
X7553515Y-9797984D02*
X7534467Y-9788460D01*
X7534467Y-9788460D02*
X7524943Y-9778936D01*
X7772562Y-9597984D02*
X7791610Y-9597984D01*
X7791610Y-9597984D02*
X7810658Y-9607508D01*
X7810658Y-9607508D02*
X7820182Y-9617031D01*
X7820182Y-9617031D02*
X7829705Y-9636079D01*
X7829705Y-9636079D02*
X7839229Y-9674174D01*
X7839229Y-9674174D02*
X7839229Y-9721793D01*
X7839229Y-9721793D02*
X7829705Y-9759889D01*
X7829705Y-9759889D02*
X7820182Y-9778936D01*
X7820182Y-9778936D02*
X7810658Y-9788460D01*
X7810658Y-9788460D02*
X7791610Y-9797984D01*
X7791610Y-9797984D02*
X7772562Y-9797984D01*
X7772562Y-9797984D02*
X7753515Y-9788460D01*
X7753515Y-9788460D02*
X7743991Y-9778936D01*
X7743991Y-9778936D02*
X7734467Y-9759889D01*
X7734467Y-9759889D02*
X7724943Y-9721793D01*
X7724943Y-9721793D02*
X7724943Y-9674174D01*
X7724943Y-9674174D02*
X7734467Y-9636079D01*
X7734467Y-9636079D02*
X7743991Y-9617031D01*
X7743991Y-9617031D02*
X7753515Y-9607508D01*
X7753515Y-9607508D02*
X7772562Y-9597984D01*
X7963039Y-9597984D02*
X7982086Y-9597984D01*
X7982086Y-9597984D02*
X8001134Y-9607508D01*
X8001134Y-9607508D02*
X8010658Y-9617031D01*
X8010658Y-9617031D02*
X8020182Y-9636079D01*
X8020182Y-9636079D02*
X8029705Y-9674174D01*
X8029705Y-9674174D02*
X8029705Y-9721793D01*
X8029705Y-9721793D02*
X8020182Y-9759889D01*
X8020182Y-9759889D02*
X8010658Y-9778936D01*
X8010658Y-9778936D02*
X8001134Y-9788460D01*
X8001134Y-9788460D02*
X7982086Y-9797984D01*
X7982086Y-9797984D02*
X7963039Y-9797984D01*
X7963039Y-9797984D02*
X7943991Y-9788460D01*
X7943991Y-9788460D02*
X7934467Y-9778936D01*
X7934467Y-9778936D02*
X7924943Y-9759889D01*
X7924943Y-9759889D02*
X7915420Y-9721793D01*
X7915420Y-9721793D02*
X7915420Y-9674174D01*
X7915420Y-9674174D02*
X7924943Y-9636079D01*
X7924943Y-9636079D02*
X7934467Y-9617031D01*
X7934467Y-9617031D02*
X7943991Y-9607508D01*
X7943991Y-9607508D02*
X7963039Y-9597984D01*
X8115420Y-9797984D02*
X8115420Y-9664650D01*
X8115420Y-9683698D02*
X8124943Y-9674174D01*
X8124943Y-9674174D02*
X8143991Y-9664650D01*
X8143991Y-9664650D02*
X8172563Y-9664650D01*
X8172563Y-9664650D02*
X8191610Y-9674174D01*
X8191610Y-9674174D02*
X8201134Y-9693222D01*
X8201134Y-9693222D02*
X8201134Y-9797984D01*
X8201134Y-9693222D02*
X8210658Y-9674174D01*
X8210658Y-9674174D02*
X8229705Y-9664650D01*
X8229705Y-9664650D02*
X8258277Y-9664650D01*
X8258277Y-9664650D02*
X8277324Y-9674174D01*
X8277324Y-9674174D02*
X8286848Y-9693222D01*
X8286848Y-9693222D02*
X8286848Y-9797984D01*
X8382086Y-9797984D02*
X8382086Y-9664650D01*
X8382086Y-9683698D02*
X8391610Y-9674174D01*
X8391610Y-9674174D02*
X8410658Y-9664650D01*
X8410658Y-9664650D02*
X8439229Y-9664650D01*
X8439229Y-9664650D02*
X8458277Y-9674174D01*
X8458277Y-9674174D02*
X8467801Y-9693222D01*
X8467801Y-9693222D02*
X8467801Y-9797984D01*
X8467801Y-9693222D02*
X8477325Y-9674174D01*
X8477325Y-9674174D02*
X8496372Y-9664650D01*
X8496372Y-9664650D02*
X8524944Y-9664650D01*
X8524944Y-9664650D02*
X8543991Y-9674174D01*
X8543991Y-9674174D02*
X8553515Y-9693222D01*
X8553515Y-9693222D02*
X8553515Y-9797984D01*
X8943991Y-9588460D02*
X8772563Y-9845603D01*
X9201134Y-9597984D02*
X9220182Y-9597984D01*
X9220182Y-9597984D02*
X9239229Y-9607508D01*
X9239229Y-9607508D02*
X9248753Y-9617031D01*
X9248753Y-9617031D02*
X9258277Y-9636079D01*
X9258277Y-9636079D02*
X9267801Y-9674174D01*
X9267801Y-9674174D02*
X9267801Y-9721793D01*
X9267801Y-9721793D02*
X9258277Y-9759889D01*
X9258277Y-9759889D02*
X9248753Y-9778936D01*
X9248753Y-9778936D02*
X9239229Y-9788460D01*
X9239229Y-9788460D02*
X9220182Y-9797984D01*
X9220182Y-9797984D02*
X9201134Y-9797984D01*
X9201134Y-9797984D02*
X9182087Y-9788460D01*
X9182087Y-9788460D02*
X9172563Y-9778936D01*
X9172563Y-9778936D02*
X9163039Y-9759889D01*
X9163039Y-9759889D02*
X9153515Y-9721793D01*
X9153515Y-9721793D02*
X9153515Y-9674174D01*
X9153515Y-9674174D02*
X9163039Y-9636079D01*
X9163039Y-9636079D02*
X9172563Y-9617031D01*
X9172563Y-9617031D02*
X9182087Y-9607508D01*
X9182087Y-9607508D02*
X9201134Y-9597984D01*
X9353515Y-9778936D02*
X9363039Y-9788460D01*
X9363039Y-9788460D02*
X9353515Y-9797984D01*
X9353515Y-9797984D02*
X9343991Y-9788460D01*
X9343991Y-9788460D02*
X9353515Y-9778936D01*
X9353515Y-9778936D02*
X9353515Y-9797984D01*
X9486848Y-9597984D02*
X9505896Y-9597984D01*
X9505896Y-9597984D02*
X9524944Y-9607508D01*
X9524944Y-9607508D02*
X9534468Y-9617031D01*
X9534468Y-9617031D02*
X9543991Y-9636079D01*
X9543991Y-9636079D02*
X9553515Y-9674174D01*
X9553515Y-9674174D02*
X9553515Y-9721793D01*
X9553515Y-9721793D02*
X9543991Y-9759889D01*
X9543991Y-9759889D02*
X9534468Y-9778936D01*
X9534468Y-9778936D02*
X9524944Y-9788460D01*
X9524944Y-9788460D02*
X9505896Y-9797984D01*
X9505896Y-9797984D02*
X9486848Y-9797984D01*
X9486848Y-9797984D02*
X9467801Y-9788460D01*
X9467801Y-9788460D02*
X9458277Y-9778936D01*
X9458277Y-9778936D02*
X9448753Y-9759889D01*
X9448753Y-9759889D02*
X9439229Y-9721793D01*
X9439229Y-9721793D02*
X9439229Y-9674174D01*
X9439229Y-9674174D02*
X9448753Y-9636079D01*
X9448753Y-9636079D02*
X9458277Y-9617031D01*
X9458277Y-9617031D02*
X9467801Y-9607508D01*
X9467801Y-9607508D02*
X9486848Y-9597984D01*
X9743991Y-9797984D02*
X9629706Y-9797984D01*
X9686848Y-9797984D02*
X9686848Y-9597984D01*
X9686848Y-9597984D02*
X9667801Y-9626555D01*
X9667801Y-9626555D02*
X9648753Y-9645603D01*
X9648753Y-9645603D02*
X9629706Y-9655127D01*
X9934468Y-9797984D02*
X9820182Y-9797984D01*
X9877325Y-9797984D02*
X9877325Y-9597984D01*
X9877325Y-9597984D02*
X9858277Y-9626555D01*
X9858277Y-9626555D02*
X9839229Y-9645603D01*
X9839229Y-9645603D02*
X9820182Y-9655127D01*
X10048753Y-9683698D02*
X10029706Y-9674174D01*
X10029706Y-9674174D02*
X10020182Y-9664650D01*
X10020182Y-9664650D02*
X10010658Y-9645603D01*
X10010658Y-9645603D02*
X10010658Y-9636079D01*
X10010658Y-9636079D02*
X10020182Y-9617031D01*
X10020182Y-9617031D02*
X10029706Y-9607508D01*
X10029706Y-9607508D02*
X10048753Y-9597984D01*
X10048753Y-9597984D02*
X10086849Y-9597984D01*
X10086849Y-9597984D02*
X10105896Y-9607508D01*
X10105896Y-9607508D02*
X10115420Y-9617031D01*
X10115420Y-9617031D02*
X10124944Y-9636079D01*
X10124944Y-9636079D02*
X10124944Y-9645603D01*
X10124944Y-9645603D02*
X10115420Y-9664650D01*
X10115420Y-9664650D02*
X10105896Y-9674174D01*
X10105896Y-9674174D02*
X10086849Y-9683698D01*
X10086849Y-9683698D02*
X10048753Y-9683698D01*
X10048753Y-9683698D02*
X10029706Y-9693222D01*
X10029706Y-9693222D02*
X10020182Y-9702746D01*
X10020182Y-9702746D02*
X10010658Y-9721793D01*
X10010658Y-9721793D02*
X10010658Y-9759889D01*
X10010658Y-9759889D02*
X10020182Y-9778936D01*
X10020182Y-9778936D02*
X10029706Y-9788460D01*
X10029706Y-9788460D02*
X10048753Y-9797984D01*
X10048753Y-9797984D02*
X10086849Y-9797984D01*
X10086849Y-9797984D02*
X10105896Y-9788460D01*
X10105896Y-9788460D02*
X10115420Y-9778936D01*
X10115420Y-9778936D02*
X10124944Y-9759889D01*
X10124944Y-9759889D02*
X10124944Y-9721793D01*
X10124944Y-9721793D02*
X10115420Y-9702746D01*
X10115420Y-9702746D02*
X10105896Y-9693222D01*
X10105896Y-9693222D02*
X10086849Y-9683698D01*
X10201134Y-9597984D02*
X10201134Y-9636079D01*
X10277325Y-9597984D02*
X10277325Y-9636079D01*
X10572563Y-9874174D02*
X10563039Y-9864650D01*
X10563039Y-9864650D02*
X10543991Y-9836079D01*
X10543991Y-9836079D02*
X10534468Y-9817031D01*
X10534468Y-9817031D02*
X10524944Y-9788460D01*
X10524944Y-9788460D02*
X10515420Y-9740841D01*
X10515420Y-9740841D02*
X10515420Y-9702746D01*
X10515420Y-9702746D02*
X10524944Y-9655127D01*
X10524944Y-9655127D02*
X10534468Y-9626555D01*
X10534468Y-9626555D02*
X10543991Y-9607508D01*
X10543991Y-9607508D02*
X10563039Y-9578936D01*
X10563039Y-9578936D02*
X10572563Y-9569412D01*
X10677325Y-9683698D02*
X10658277Y-9674174D01*
X10658277Y-9674174D02*
X10648753Y-9664650D01*
X10648753Y-9664650D02*
X10639230Y-9645603D01*
X10639230Y-9645603D02*
X10639230Y-9636079D01*
X10639230Y-9636079D02*
X10648753Y-9617031D01*
X10648753Y-9617031D02*
X10658277Y-9607508D01*
X10658277Y-9607508D02*
X10677325Y-9597984D01*
X10677325Y-9597984D02*
X10715420Y-9597984D01*
X10715420Y-9597984D02*
X10734468Y-9607508D01*
X10734468Y-9607508D02*
X10743991Y-9617031D01*
X10743991Y-9617031D02*
X10753515Y-9636079D01*
X10753515Y-9636079D02*
X10753515Y-9645603D01*
X10753515Y-9645603D02*
X10743991Y-9664650D01*
X10743991Y-9664650D02*
X10734468Y-9674174D01*
X10734468Y-9674174D02*
X10715420Y-9683698D01*
X10715420Y-9683698D02*
X10677325Y-9683698D01*
X10677325Y-9683698D02*
X10658277Y-9693222D01*
X10658277Y-9693222D02*
X10648753Y-9702746D01*
X10648753Y-9702746D02*
X10639230Y-9721793D01*
X10639230Y-9721793D02*
X10639230Y-9759889D01*
X10639230Y-9759889D02*
X10648753Y-9778936D01*
X10648753Y-9778936D02*
X10658277Y-9788460D01*
X10658277Y-9788460D02*
X10677325Y-9797984D01*
X10677325Y-9797984D02*
X10715420Y-9797984D01*
X10715420Y-9797984D02*
X10734468Y-9788460D01*
X10734468Y-9788460D02*
X10743991Y-9778936D01*
X10743991Y-9778936D02*
X10753515Y-9759889D01*
X10753515Y-9759889D02*
X10753515Y-9721793D01*
X10753515Y-9721793D02*
X10743991Y-9702746D01*
X10743991Y-9702746D02*
X10734468Y-9693222D01*
X10734468Y-9693222D02*
X10715420Y-9683698D01*
X10991611Y-9797984D02*
X10991611Y-9597984D01*
X11077325Y-9797984D02*
X11077325Y-9693222D01*
X11077325Y-9693222D02*
X11067801Y-9674174D01*
X11067801Y-9674174D02*
X11048753Y-9664650D01*
X11048753Y-9664650D02*
X11020182Y-9664650D01*
X11020182Y-9664650D02*
X11001134Y-9674174D01*
X11001134Y-9674174D02*
X10991611Y-9683698D01*
X11201134Y-9797984D02*
X11182087Y-9788460D01*
X11182087Y-9788460D02*
X11172563Y-9778936D01*
X11172563Y-9778936D02*
X11163039Y-9759889D01*
X11163039Y-9759889D02*
X11163039Y-9702746D01*
X11163039Y-9702746D02*
X11172563Y-9683698D01*
X11172563Y-9683698D02*
X11182087Y-9674174D01*
X11182087Y-9674174D02*
X11201134Y-9664650D01*
X11201134Y-9664650D02*
X11229706Y-9664650D01*
X11229706Y-9664650D02*
X11248753Y-9674174D01*
X11248753Y-9674174D02*
X11258277Y-9683698D01*
X11258277Y-9683698D02*
X11267801Y-9702746D01*
X11267801Y-9702746D02*
X11267801Y-9759889D01*
X11267801Y-9759889D02*
X11258277Y-9778936D01*
X11258277Y-9778936D02*
X11248753Y-9788460D01*
X11248753Y-9788460D02*
X11229706Y-9797984D01*
X11229706Y-9797984D02*
X11201134Y-9797984D01*
X11382087Y-9797984D02*
X11363039Y-9788460D01*
X11363039Y-9788460D02*
X11353515Y-9769412D01*
X11353515Y-9769412D02*
X11353515Y-9597984D01*
X11534468Y-9788460D02*
X11515420Y-9797984D01*
X11515420Y-9797984D02*
X11477325Y-9797984D01*
X11477325Y-9797984D02*
X11458277Y-9788460D01*
X11458277Y-9788460D02*
X11448753Y-9769412D01*
X11448753Y-9769412D02*
X11448753Y-9693222D01*
X11448753Y-9693222D02*
X11458277Y-9674174D01*
X11458277Y-9674174D02*
X11477325Y-9664650D01*
X11477325Y-9664650D02*
X11515420Y-9664650D01*
X11515420Y-9664650D02*
X11534468Y-9674174D01*
X11534468Y-9674174D02*
X11543991Y-9693222D01*
X11543991Y-9693222D02*
X11543991Y-9712270D01*
X11543991Y-9712270D02*
X11448753Y-9731317D01*
X11620182Y-9788460D02*
X11639230Y-9797984D01*
X11639230Y-9797984D02*
X11677325Y-9797984D01*
X11677325Y-9797984D02*
X11696372Y-9788460D01*
X11696372Y-9788460D02*
X11705896Y-9769412D01*
X11705896Y-9769412D02*
X11705896Y-9759889D01*
X11705896Y-9759889D02*
X11696372Y-9740841D01*
X11696372Y-9740841D02*
X11677325Y-9731317D01*
X11677325Y-9731317D02*
X11648753Y-9731317D01*
X11648753Y-9731317D02*
X11629706Y-9721793D01*
X11629706Y-9721793D02*
X11620182Y-9702746D01*
X11620182Y-9702746D02*
X11620182Y-9693222D01*
X11620182Y-9693222D02*
X11629706Y-9674174D01*
X11629706Y-9674174D02*
X11648753Y-9664650D01*
X11648753Y-9664650D02*
X11677325Y-9664650D01*
X11677325Y-9664650D02*
X11696372Y-9674174D01*
X11772563Y-9874174D02*
X11782087Y-9864650D01*
X11782087Y-9864650D02*
X11801134Y-9836079D01*
X11801134Y-9836079D02*
X11810658Y-9817031D01*
X11810658Y-9817031D02*
X11820182Y-9788460D01*
X11820182Y-9788460D02*
X11829706Y-9740841D01*
X11829706Y-9740841D02*
X11829706Y-9702746D01*
X11829706Y-9702746D02*
X11820182Y-9655127D01*
X11820182Y-9655127D02*
X11810658Y-9626555D01*
X11810658Y-9626555D02*
X11801134Y-9607508D01*
X11801134Y-9607508D02*
X11782087Y-9578936D01*
X11782087Y-9578936D02*
X11772563Y-9569412D01*
D12*
X6947500Y-9920500D02*
X6947500Y-10020500D01*
X6897500Y-9970500D02*
X6997500Y-9970500D01*
D11*
X7363039Y-10061984D02*
X7248753Y-10061984D01*
X7305896Y-10061984D02*
X7305896Y-9861984D01*
X7305896Y-9861984D02*
X7286848Y-9890555D01*
X7286848Y-9890555D02*
X7267801Y-9909603D01*
X7267801Y-9909603D02*
X7248753Y-9919127D01*
X7448753Y-10042936D02*
X7458277Y-10052460D01*
X7458277Y-10052460D02*
X7448753Y-10061984D01*
X7448753Y-10061984D02*
X7439229Y-10052460D01*
X7439229Y-10052460D02*
X7448753Y-10042936D01*
X7448753Y-10042936D02*
X7448753Y-10061984D01*
X7582086Y-9861984D02*
X7601134Y-9861984D01*
X7601134Y-9861984D02*
X7620182Y-9871508D01*
X7620182Y-9871508D02*
X7629705Y-9881031D01*
X7629705Y-9881031D02*
X7639229Y-9900079D01*
X7639229Y-9900079D02*
X7648753Y-9938174D01*
X7648753Y-9938174D02*
X7648753Y-9985793D01*
X7648753Y-9985793D02*
X7639229Y-10023889D01*
X7639229Y-10023889D02*
X7629705Y-10042936D01*
X7629705Y-10042936D02*
X7620182Y-10052460D01*
X7620182Y-10052460D02*
X7601134Y-10061984D01*
X7601134Y-10061984D02*
X7582086Y-10061984D01*
X7582086Y-10061984D02*
X7563039Y-10052460D01*
X7563039Y-10052460D02*
X7553515Y-10042936D01*
X7553515Y-10042936D02*
X7543991Y-10023889D01*
X7543991Y-10023889D02*
X7534467Y-9985793D01*
X7534467Y-9985793D02*
X7534467Y-9938174D01*
X7534467Y-9938174D02*
X7543991Y-9900079D01*
X7543991Y-9900079D02*
X7553515Y-9881031D01*
X7553515Y-9881031D02*
X7563039Y-9871508D01*
X7563039Y-9871508D02*
X7582086Y-9861984D01*
X7772562Y-9861984D02*
X7791610Y-9861984D01*
X7791610Y-9861984D02*
X7810658Y-9871508D01*
X7810658Y-9871508D02*
X7820182Y-9881031D01*
X7820182Y-9881031D02*
X7829705Y-9900079D01*
X7829705Y-9900079D02*
X7839229Y-9938174D01*
X7839229Y-9938174D02*
X7839229Y-9985793D01*
X7839229Y-9985793D02*
X7829705Y-10023889D01*
X7829705Y-10023889D02*
X7820182Y-10042936D01*
X7820182Y-10042936D02*
X7810658Y-10052460D01*
X7810658Y-10052460D02*
X7791610Y-10061984D01*
X7791610Y-10061984D02*
X7772562Y-10061984D01*
X7772562Y-10061984D02*
X7753515Y-10052460D01*
X7753515Y-10052460D02*
X7743991Y-10042936D01*
X7743991Y-10042936D02*
X7734467Y-10023889D01*
X7734467Y-10023889D02*
X7724943Y-9985793D01*
X7724943Y-9985793D02*
X7724943Y-9938174D01*
X7724943Y-9938174D02*
X7734467Y-9900079D01*
X7734467Y-9900079D02*
X7743991Y-9881031D01*
X7743991Y-9881031D02*
X7753515Y-9871508D01*
X7753515Y-9871508D02*
X7772562Y-9861984D01*
X7963039Y-9861984D02*
X7982086Y-9861984D01*
X7982086Y-9861984D02*
X8001134Y-9871508D01*
X8001134Y-9871508D02*
X8010658Y-9881031D01*
X8010658Y-9881031D02*
X8020182Y-9900079D01*
X8020182Y-9900079D02*
X8029705Y-9938174D01*
X8029705Y-9938174D02*
X8029705Y-9985793D01*
X8029705Y-9985793D02*
X8020182Y-10023889D01*
X8020182Y-10023889D02*
X8010658Y-10042936D01*
X8010658Y-10042936D02*
X8001134Y-10052460D01*
X8001134Y-10052460D02*
X7982086Y-10061984D01*
X7982086Y-10061984D02*
X7963039Y-10061984D01*
X7963039Y-10061984D02*
X7943991Y-10052460D01*
X7943991Y-10052460D02*
X7934467Y-10042936D01*
X7934467Y-10042936D02*
X7924943Y-10023889D01*
X7924943Y-10023889D02*
X7915420Y-9985793D01*
X7915420Y-9985793D02*
X7915420Y-9938174D01*
X7915420Y-9938174D02*
X7924943Y-9900079D01*
X7924943Y-9900079D02*
X7934467Y-9881031D01*
X7934467Y-9881031D02*
X7943991Y-9871508D01*
X7943991Y-9871508D02*
X7963039Y-9861984D01*
X8115420Y-10061984D02*
X8115420Y-9928650D01*
X8115420Y-9947698D02*
X8124943Y-9938174D01*
X8124943Y-9938174D02*
X8143991Y-9928650D01*
X8143991Y-9928650D02*
X8172563Y-9928650D01*
X8172563Y-9928650D02*
X8191610Y-9938174D01*
X8191610Y-9938174D02*
X8201134Y-9957222D01*
X8201134Y-9957222D02*
X8201134Y-10061984D01*
X8201134Y-9957222D02*
X8210658Y-9938174D01*
X8210658Y-9938174D02*
X8229705Y-9928650D01*
X8229705Y-9928650D02*
X8258277Y-9928650D01*
X8258277Y-9928650D02*
X8277324Y-9938174D01*
X8277324Y-9938174D02*
X8286848Y-9957222D01*
X8286848Y-9957222D02*
X8286848Y-10061984D01*
X8382086Y-10061984D02*
X8382086Y-9928650D01*
X8382086Y-9947698D02*
X8391610Y-9938174D01*
X8391610Y-9938174D02*
X8410658Y-9928650D01*
X8410658Y-9928650D02*
X8439229Y-9928650D01*
X8439229Y-9928650D02*
X8458277Y-9938174D01*
X8458277Y-9938174D02*
X8467801Y-9957222D01*
X8467801Y-9957222D02*
X8467801Y-10061984D01*
X8467801Y-9957222D02*
X8477325Y-9938174D01*
X8477325Y-9938174D02*
X8496372Y-9928650D01*
X8496372Y-9928650D02*
X8524944Y-9928650D01*
X8524944Y-9928650D02*
X8543991Y-9938174D01*
X8543991Y-9938174D02*
X8553515Y-9957222D01*
X8553515Y-9957222D02*
X8553515Y-10061984D01*
X8943991Y-9852460D02*
X8772563Y-10109603D01*
X9201134Y-9861984D02*
X9220182Y-9861984D01*
X9220182Y-9861984D02*
X9239229Y-9871508D01*
X9239229Y-9871508D02*
X9248753Y-9881031D01*
X9248753Y-9881031D02*
X9258277Y-9900079D01*
X9258277Y-9900079D02*
X9267801Y-9938174D01*
X9267801Y-9938174D02*
X9267801Y-9985793D01*
X9267801Y-9985793D02*
X9258277Y-10023889D01*
X9258277Y-10023889D02*
X9248753Y-10042936D01*
X9248753Y-10042936D02*
X9239229Y-10052460D01*
X9239229Y-10052460D02*
X9220182Y-10061984D01*
X9220182Y-10061984D02*
X9201134Y-10061984D01*
X9201134Y-10061984D02*
X9182087Y-10052460D01*
X9182087Y-10052460D02*
X9172563Y-10042936D01*
X9172563Y-10042936D02*
X9163039Y-10023889D01*
X9163039Y-10023889D02*
X9153515Y-9985793D01*
X9153515Y-9985793D02*
X9153515Y-9938174D01*
X9153515Y-9938174D02*
X9163039Y-9900079D01*
X9163039Y-9900079D02*
X9172563Y-9881031D01*
X9172563Y-9881031D02*
X9182087Y-9871508D01*
X9182087Y-9871508D02*
X9201134Y-9861984D01*
X9353515Y-10042936D02*
X9363039Y-10052460D01*
X9363039Y-10052460D02*
X9353515Y-10061984D01*
X9353515Y-10061984D02*
X9343991Y-10052460D01*
X9343991Y-10052460D02*
X9353515Y-10042936D01*
X9353515Y-10042936D02*
X9353515Y-10061984D01*
X9486848Y-9861984D02*
X9505896Y-9861984D01*
X9505896Y-9861984D02*
X9524944Y-9871508D01*
X9524944Y-9871508D02*
X9534468Y-9881031D01*
X9534468Y-9881031D02*
X9543991Y-9900079D01*
X9543991Y-9900079D02*
X9553515Y-9938174D01*
X9553515Y-9938174D02*
X9553515Y-9985793D01*
X9553515Y-9985793D02*
X9543991Y-10023889D01*
X9543991Y-10023889D02*
X9534468Y-10042936D01*
X9534468Y-10042936D02*
X9524944Y-10052460D01*
X9524944Y-10052460D02*
X9505896Y-10061984D01*
X9505896Y-10061984D02*
X9486848Y-10061984D01*
X9486848Y-10061984D02*
X9467801Y-10052460D01*
X9467801Y-10052460D02*
X9458277Y-10042936D01*
X9458277Y-10042936D02*
X9448753Y-10023889D01*
X9448753Y-10023889D02*
X9439229Y-9985793D01*
X9439229Y-9985793D02*
X9439229Y-9938174D01*
X9439229Y-9938174D02*
X9448753Y-9900079D01*
X9448753Y-9900079D02*
X9458277Y-9881031D01*
X9458277Y-9881031D02*
X9467801Y-9871508D01*
X9467801Y-9871508D02*
X9486848Y-9861984D01*
X9620182Y-9861984D02*
X9743991Y-9861984D01*
X9743991Y-9861984D02*
X9677325Y-9938174D01*
X9677325Y-9938174D02*
X9705896Y-9938174D01*
X9705896Y-9938174D02*
X9724944Y-9947698D01*
X9724944Y-9947698D02*
X9734468Y-9957222D01*
X9734468Y-9957222D02*
X9743991Y-9976270D01*
X9743991Y-9976270D02*
X9743991Y-10023889D01*
X9743991Y-10023889D02*
X9734468Y-10042936D01*
X9734468Y-10042936D02*
X9724944Y-10052460D01*
X9724944Y-10052460D02*
X9705896Y-10061984D01*
X9705896Y-10061984D02*
X9648753Y-10061984D01*
X9648753Y-10061984D02*
X9629706Y-10052460D01*
X9629706Y-10052460D02*
X9620182Y-10042936D01*
X9839229Y-10061984D02*
X9877325Y-10061984D01*
X9877325Y-10061984D02*
X9896372Y-10052460D01*
X9896372Y-10052460D02*
X9905896Y-10042936D01*
X9905896Y-10042936D02*
X9924944Y-10014365D01*
X9924944Y-10014365D02*
X9934468Y-9976270D01*
X9934468Y-9976270D02*
X9934468Y-9900079D01*
X9934468Y-9900079D02*
X9924944Y-9881031D01*
X9924944Y-9881031D02*
X9915420Y-9871508D01*
X9915420Y-9871508D02*
X9896372Y-9861984D01*
X9896372Y-9861984D02*
X9858277Y-9861984D01*
X9858277Y-9861984D02*
X9839229Y-9871508D01*
X9839229Y-9871508D02*
X9829706Y-9881031D01*
X9829706Y-9881031D02*
X9820182Y-9900079D01*
X9820182Y-9900079D02*
X9820182Y-9947698D01*
X9820182Y-9947698D02*
X9829706Y-9966746D01*
X9829706Y-9966746D02*
X9839229Y-9976270D01*
X9839229Y-9976270D02*
X9858277Y-9985793D01*
X9858277Y-9985793D02*
X9896372Y-9985793D01*
X9896372Y-9985793D02*
X9915420Y-9976270D01*
X9915420Y-9976270D02*
X9924944Y-9966746D01*
X9924944Y-9966746D02*
X9934468Y-9947698D01*
X10105896Y-9928650D02*
X10105896Y-10061984D01*
X10058277Y-9852460D02*
X10010658Y-9995317D01*
X10010658Y-9995317D02*
X10134468Y-9995317D01*
X10201134Y-9861984D02*
X10201134Y-9900079D01*
X10277325Y-9861984D02*
X10277325Y-9900079D01*
X10572563Y-10138174D02*
X10563039Y-10128650D01*
X10563039Y-10128650D02*
X10543991Y-10100079D01*
X10543991Y-10100079D02*
X10534468Y-10081031D01*
X10534468Y-10081031D02*
X10524944Y-10052460D01*
X10524944Y-10052460D02*
X10515420Y-10004841D01*
X10515420Y-10004841D02*
X10515420Y-9966746D01*
X10515420Y-9966746D02*
X10524944Y-9919127D01*
X10524944Y-9919127D02*
X10534468Y-9890555D01*
X10534468Y-9890555D02*
X10543991Y-9871508D01*
X10543991Y-9871508D02*
X10563039Y-9842936D01*
X10563039Y-9842936D02*
X10572563Y-9833412D01*
X10629706Y-9861984D02*
X10753515Y-9861984D01*
X10753515Y-9861984D02*
X10686849Y-9938174D01*
X10686849Y-9938174D02*
X10715420Y-9938174D01*
X10715420Y-9938174D02*
X10734468Y-9947698D01*
X10734468Y-9947698D02*
X10743991Y-9957222D01*
X10743991Y-9957222D02*
X10753515Y-9976270D01*
X10753515Y-9976270D02*
X10753515Y-10023889D01*
X10753515Y-10023889D02*
X10743991Y-10042936D01*
X10743991Y-10042936D02*
X10734468Y-10052460D01*
X10734468Y-10052460D02*
X10715420Y-10061984D01*
X10715420Y-10061984D02*
X10658277Y-10061984D01*
X10658277Y-10061984D02*
X10639230Y-10052460D01*
X10639230Y-10052460D02*
X10629706Y-10042936D01*
X10991611Y-10061984D02*
X10991611Y-9861984D01*
X11077325Y-10061984D02*
X11077325Y-9957222D01*
X11077325Y-9957222D02*
X11067801Y-9938174D01*
X11067801Y-9938174D02*
X11048753Y-9928650D01*
X11048753Y-9928650D02*
X11020182Y-9928650D01*
X11020182Y-9928650D02*
X11001134Y-9938174D01*
X11001134Y-9938174D02*
X10991611Y-9947698D01*
X11201134Y-10061984D02*
X11182087Y-10052460D01*
X11182087Y-10052460D02*
X11172563Y-10042936D01*
X11172563Y-10042936D02*
X11163039Y-10023889D01*
X11163039Y-10023889D02*
X11163039Y-9966746D01*
X11163039Y-9966746D02*
X11172563Y-9947698D01*
X11172563Y-9947698D02*
X11182087Y-9938174D01*
X11182087Y-9938174D02*
X11201134Y-9928650D01*
X11201134Y-9928650D02*
X11229706Y-9928650D01*
X11229706Y-9928650D02*
X11248753Y-9938174D01*
X11248753Y-9938174D02*
X11258277Y-9947698D01*
X11258277Y-9947698D02*
X11267801Y-9966746D01*
X11267801Y-9966746D02*
X11267801Y-10023889D01*
X11267801Y-10023889D02*
X11258277Y-10042936D01*
X11258277Y-10042936D02*
X11248753Y-10052460D01*
X11248753Y-10052460D02*
X11229706Y-10061984D01*
X11229706Y-10061984D02*
X11201134Y-10061984D01*
X11382087Y-10061984D02*
X11363039Y-10052460D01*
X11363039Y-10052460D02*
X11353515Y-10033412D01*
X11353515Y-10033412D02*
X11353515Y-9861984D01*
X11534468Y-10052460D02*
X11515420Y-10061984D01*
X11515420Y-10061984D02*
X11477325Y-10061984D01*
X11477325Y-10061984D02*
X11458277Y-10052460D01*
X11458277Y-10052460D02*
X11448753Y-10033412D01*
X11448753Y-10033412D02*
X11448753Y-9957222D01*
X11448753Y-9957222D02*
X11458277Y-9938174D01*
X11458277Y-9938174D02*
X11477325Y-9928650D01*
X11477325Y-9928650D02*
X11515420Y-9928650D01*
X11515420Y-9928650D02*
X11534468Y-9938174D01*
X11534468Y-9938174D02*
X11543991Y-9957222D01*
X11543991Y-9957222D02*
X11543991Y-9976270D01*
X11543991Y-9976270D02*
X11448753Y-9995317D01*
X11620182Y-10052460D02*
X11639230Y-10061984D01*
X11639230Y-10061984D02*
X11677325Y-10061984D01*
X11677325Y-10061984D02*
X11696372Y-10052460D01*
X11696372Y-10052460D02*
X11705896Y-10033412D01*
X11705896Y-10033412D02*
X11705896Y-10023889D01*
X11705896Y-10023889D02*
X11696372Y-10004841D01*
X11696372Y-10004841D02*
X11677325Y-9995317D01*
X11677325Y-9995317D02*
X11648753Y-9995317D01*
X11648753Y-9995317D02*
X11629706Y-9985793D01*
X11629706Y-9985793D02*
X11620182Y-9966746D01*
X11620182Y-9966746D02*
X11620182Y-9957222D01*
X11620182Y-9957222D02*
X11629706Y-9938174D01*
X11629706Y-9938174D02*
X11648753Y-9928650D01*
X11648753Y-9928650D02*
X11677325Y-9928650D01*
X11677325Y-9928650D02*
X11696372Y-9938174D01*
X11772563Y-10138174D02*
X11782087Y-10128650D01*
X11782087Y-10128650D02*
X11801134Y-10100079D01*
X11801134Y-10100079D02*
X11810658Y-10081031D01*
X11810658Y-10081031D02*
X11820182Y-10052460D01*
X11820182Y-10052460D02*
X11829706Y-10004841D01*
X11829706Y-10004841D02*
X11829706Y-9966746D01*
X11829706Y-9966746D02*
X11820182Y-9919127D01*
X11820182Y-9919127D02*
X11810658Y-9890555D01*
X11810658Y-9890555D02*
X11801134Y-9871508D01*
X11801134Y-9871508D02*
X11782087Y-9842936D01*
X11782087Y-9842936D02*
X11772563Y-9833412D01*
D13*
X6979927Y-10276927D02*
X6979927Y-10192073D01*
X6895073Y-10192073D01*
X6895073Y-10276927D01*
X6979927Y-10276927D01*
D11*
X7363039Y-10325984D02*
X7248753Y-10325984D01*
X7305896Y-10325984D02*
X7305896Y-10125984D01*
X7305896Y-10125984D02*
X7286848Y-10154555D01*
X7286848Y-10154555D02*
X7267801Y-10173603D01*
X7267801Y-10173603D02*
X7248753Y-10183127D01*
X7448753Y-10306936D02*
X7458277Y-10316460D01*
X7458277Y-10316460D02*
X7448753Y-10325984D01*
X7448753Y-10325984D02*
X7439229Y-10316460D01*
X7439229Y-10316460D02*
X7448753Y-10306936D01*
X7448753Y-10306936D02*
X7448753Y-10325984D01*
X7534467Y-10145031D02*
X7543991Y-10135508D01*
X7543991Y-10135508D02*
X7563039Y-10125984D01*
X7563039Y-10125984D02*
X7610658Y-10125984D01*
X7610658Y-10125984D02*
X7629705Y-10135508D01*
X7629705Y-10135508D02*
X7639229Y-10145031D01*
X7639229Y-10145031D02*
X7648753Y-10164079D01*
X7648753Y-10164079D02*
X7648753Y-10183127D01*
X7648753Y-10183127D02*
X7639229Y-10211698D01*
X7639229Y-10211698D02*
X7524943Y-10325984D01*
X7524943Y-10325984D02*
X7648753Y-10325984D01*
X7772562Y-10125984D02*
X7791610Y-10125984D01*
X7791610Y-10125984D02*
X7810658Y-10135508D01*
X7810658Y-10135508D02*
X7820182Y-10145031D01*
X7820182Y-10145031D02*
X7829705Y-10164079D01*
X7829705Y-10164079D02*
X7839229Y-10202174D01*
X7839229Y-10202174D02*
X7839229Y-10249793D01*
X7839229Y-10249793D02*
X7829705Y-10287889D01*
X7829705Y-10287889D02*
X7820182Y-10306936D01*
X7820182Y-10306936D02*
X7810658Y-10316460D01*
X7810658Y-10316460D02*
X7791610Y-10325984D01*
X7791610Y-10325984D02*
X7772562Y-10325984D01*
X7772562Y-10325984D02*
X7753515Y-10316460D01*
X7753515Y-10316460D02*
X7743991Y-10306936D01*
X7743991Y-10306936D02*
X7734467Y-10287889D01*
X7734467Y-10287889D02*
X7724943Y-10249793D01*
X7724943Y-10249793D02*
X7724943Y-10202174D01*
X7724943Y-10202174D02*
X7734467Y-10164079D01*
X7734467Y-10164079D02*
X7743991Y-10145031D01*
X7743991Y-10145031D02*
X7753515Y-10135508D01*
X7753515Y-10135508D02*
X7772562Y-10125984D01*
X7963039Y-10125984D02*
X7982086Y-10125984D01*
X7982086Y-10125984D02*
X8001134Y-10135508D01*
X8001134Y-10135508D02*
X8010658Y-10145031D01*
X8010658Y-10145031D02*
X8020182Y-10164079D01*
X8020182Y-10164079D02*
X8029705Y-10202174D01*
X8029705Y-10202174D02*
X8029705Y-10249793D01*
X8029705Y-10249793D02*
X8020182Y-10287889D01*
X8020182Y-10287889D02*
X8010658Y-10306936D01*
X8010658Y-10306936D02*
X8001134Y-10316460D01*
X8001134Y-10316460D02*
X7982086Y-10325984D01*
X7982086Y-10325984D02*
X7963039Y-10325984D01*
X7963039Y-10325984D02*
X7943991Y-10316460D01*
X7943991Y-10316460D02*
X7934467Y-10306936D01*
X7934467Y-10306936D02*
X7924943Y-10287889D01*
X7924943Y-10287889D02*
X7915420Y-10249793D01*
X7915420Y-10249793D02*
X7915420Y-10202174D01*
X7915420Y-10202174D02*
X7924943Y-10164079D01*
X7924943Y-10164079D02*
X7934467Y-10145031D01*
X7934467Y-10145031D02*
X7943991Y-10135508D01*
X7943991Y-10135508D02*
X7963039Y-10125984D01*
X8115420Y-10325984D02*
X8115420Y-10192650D01*
X8115420Y-10211698D02*
X8124943Y-10202174D01*
X8124943Y-10202174D02*
X8143991Y-10192650D01*
X8143991Y-10192650D02*
X8172563Y-10192650D01*
X8172563Y-10192650D02*
X8191610Y-10202174D01*
X8191610Y-10202174D02*
X8201134Y-10221222D01*
X8201134Y-10221222D02*
X8201134Y-10325984D01*
X8201134Y-10221222D02*
X8210658Y-10202174D01*
X8210658Y-10202174D02*
X8229705Y-10192650D01*
X8229705Y-10192650D02*
X8258277Y-10192650D01*
X8258277Y-10192650D02*
X8277324Y-10202174D01*
X8277324Y-10202174D02*
X8286848Y-10221222D01*
X8286848Y-10221222D02*
X8286848Y-10325984D01*
X8382086Y-10325984D02*
X8382086Y-10192650D01*
X8382086Y-10211698D02*
X8391610Y-10202174D01*
X8391610Y-10202174D02*
X8410658Y-10192650D01*
X8410658Y-10192650D02*
X8439229Y-10192650D01*
X8439229Y-10192650D02*
X8458277Y-10202174D01*
X8458277Y-10202174D02*
X8467801Y-10221222D01*
X8467801Y-10221222D02*
X8467801Y-10325984D01*
X8467801Y-10221222D02*
X8477325Y-10202174D01*
X8477325Y-10202174D02*
X8496372Y-10192650D01*
X8496372Y-10192650D02*
X8524944Y-10192650D01*
X8524944Y-10192650D02*
X8543991Y-10202174D01*
X8543991Y-10202174D02*
X8553515Y-10221222D01*
X8553515Y-10221222D02*
X8553515Y-10325984D01*
X8943991Y-10116460D02*
X8772563Y-10373603D01*
X9201134Y-10125984D02*
X9220182Y-10125984D01*
X9220182Y-10125984D02*
X9239229Y-10135508D01*
X9239229Y-10135508D02*
X9248753Y-10145031D01*
X9248753Y-10145031D02*
X9258277Y-10164079D01*
X9258277Y-10164079D02*
X9267801Y-10202174D01*
X9267801Y-10202174D02*
X9267801Y-10249793D01*
X9267801Y-10249793D02*
X9258277Y-10287889D01*
X9258277Y-10287889D02*
X9248753Y-10306936D01*
X9248753Y-10306936D02*
X9239229Y-10316460D01*
X9239229Y-10316460D02*
X9220182Y-10325984D01*
X9220182Y-10325984D02*
X9201134Y-10325984D01*
X9201134Y-10325984D02*
X9182087Y-10316460D01*
X9182087Y-10316460D02*
X9172563Y-10306936D01*
X9172563Y-10306936D02*
X9163039Y-10287889D01*
X9163039Y-10287889D02*
X9153515Y-10249793D01*
X9153515Y-10249793D02*
X9153515Y-10202174D01*
X9153515Y-10202174D02*
X9163039Y-10164079D01*
X9163039Y-10164079D02*
X9172563Y-10145031D01*
X9172563Y-10145031D02*
X9182087Y-10135508D01*
X9182087Y-10135508D02*
X9201134Y-10125984D01*
X9353515Y-10306936D02*
X9363039Y-10316460D01*
X9363039Y-10316460D02*
X9353515Y-10325984D01*
X9353515Y-10325984D02*
X9343991Y-10316460D01*
X9343991Y-10316460D02*
X9353515Y-10306936D01*
X9353515Y-10306936D02*
X9353515Y-10325984D01*
X9486848Y-10125984D02*
X9505896Y-10125984D01*
X9505896Y-10125984D02*
X9524944Y-10135508D01*
X9524944Y-10135508D02*
X9534468Y-10145031D01*
X9534468Y-10145031D02*
X9543991Y-10164079D01*
X9543991Y-10164079D02*
X9553515Y-10202174D01*
X9553515Y-10202174D02*
X9553515Y-10249793D01*
X9553515Y-10249793D02*
X9543991Y-10287889D01*
X9543991Y-10287889D02*
X9534468Y-10306936D01*
X9534468Y-10306936D02*
X9524944Y-10316460D01*
X9524944Y-10316460D02*
X9505896Y-10325984D01*
X9505896Y-10325984D02*
X9486848Y-10325984D01*
X9486848Y-10325984D02*
X9467801Y-10316460D01*
X9467801Y-10316460D02*
X9458277Y-10306936D01*
X9458277Y-10306936D02*
X9448753Y-10287889D01*
X9448753Y-10287889D02*
X9439229Y-10249793D01*
X9439229Y-10249793D02*
X9439229Y-10202174D01*
X9439229Y-10202174D02*
X9448753Y-10164079D01*
X9448753Y-10164079D02*
X9458277Y-10145031D01*
X9458277Y-10145031D02*
X9467801Y-10135508D01*
X9467801Y-10135508D02*
X9486848Y-10125984D01*
X9724944Y-10192650D02*
X9724944Y-10325984D01*
X9677325Y-10116460D02*
X9629706Y-10259317D01*
X9629706Y-10259317D02*
X9753515Y-10259317D01*
X9810658Y-10125984D02*
X9943991Y-10125984D01*
X9943991Y-10125984D02*
X9858277Y-10325984D01*
X10010658Y-10145031D02*
X10020182Y-10135508D01*
X10020182Y-10135508D02*
X10039229Y-10125984D01*
X10039229Y-10125984D02*
X10086849Y-10125984D01*
X10086849Y-10125984D02*
X10105896Y-10135508D01*
X10105896Y-10135508D02*
X10115420Y-10145031D01*
X10115420Y-10145031D02*
X10124944Y-10164079D01*
X10124944Y-10164079D02*
X10124944Y-10183127D01*
X10124944Y-10183127D02*
X10115420Y-10211698D01*
X10115420Y-10211698D02*
X10001134Y-10325984D01*
X10001134Y-10325984D02*
X10124944Y-10325984D01*
X10201134Y-10125984D02*
X10201134Y-10164079D01*
X10277325Y-10125984D02*
X10277325Y-10164079D01*
X10572563Y-10402174D02*
X10563039Y-10392650D01*
X10563039Y-10392650D02*
X10543991Y-10364079D01*
X10543991Y-10364079D02*
X10534468Y-10345031D01*
X10534468Y-10345031D02*
X10524944Y-10316460D01*
X10524944Y-10316460D02*
X10515420Y-10268841D01*
X10515420Y-10268841D02*
X10515420Y-10230746D01*
X10515420Y-10230746D02*
X10524944Y-10183127D01*
X10524944Y-10183127D02*
X10534468Y-10154555D01*
X10534468Y-10154555D02*
X10543991Y-10135508D01*
X10543991Y-10135508D02*
X10563039Y-10106936D01*
X10563039Y-10106936D02*
X10572563Y-10097412D01*
X10734468Y-10192650D02*
X10734468Y-10325984D01*
X10686849Y-10116460D02*
X10639230Y-10259317D01*
X10639230Y-10259317D02*
X10763039Y-10259317D01*
X10991611Y-10325984D02*
X10991611Y-10125984D01*
X11077325Y-10325984D02*
X11077325Y-10221222D01*
X11077325Y-10221222D02*
X11067801Y-10202174D01*
X11067801Y-10202174D02*
X11048753Y-10192650D01*
X11048753Y-10192650D02*
X11020182Y-10192650D01*
X11020182Y-10192650D02*
X11001134Y-10202174D01*
X11001134Y-10202174D02*
X10991611Y-10211698D01*
X11201134Y-10325984D02*
X11182087Y-10316460D01*
X11182087Y-10316460D02*
X11172563Y-10306936D01*
X11172563Y-10306936D02*
X11163039Y-10287889D01*
X11163039Y-10287889D02*
X11163039Y-10230746D01*
X11163039Y-10230746D02*
X11172563Y-10211698D01*
X11172563Y-10211698D02*
X11182087Y-10202174D01*
X11182087Y-10202174D02*
X11201134Y-10192650D01*
X11201134Y-10192650D02*
X11229706Y-10192650D01*
X11229706Y-10192650D02*
X11248753Y-10202174D01*
X11248753Y-10202174D02*
X11258277Y-10211698D01*
X11258277Y-10211698D02*
X11267801Y-10230746D01*
X11267801Y-10230746D02*
X11267801Y-10287889D01*
X11267801Y-10287889D02*
X11258277Y-10306936D01*
X11258277Y-10306936D02*
X11248753Y-10316460D01*
X11248753Y-10316460D02*
X11229706Y-10325984D01*
X11229706Y-10325984D02*
X11201134Y-10325984D01*
X11382087Y-10325984D02*
X11363039Y-10316460D01*
X11363039Y-10316460D02*
X11353515Y-10297412D01*
X11353515Y-10297412D02*
X11353515Y-10125984D01*
X11534468Y-10316460D02*
X11515420Y-10325984D01*
X11515420Y-10325984D02*
X11477325Y-10325984D01*
X11477325Y-10325984D02*
X11458277Y-10316460D01*
X11458277Y-10316460D02*
X11448753Y-10297412D01*
X11448753Y-10297412D02*
X11448753Y-10221222D01*
X11448753Y-10221222D02*
X11458277Y-10202174D01*
X11458277Y-10202174D02*
X11477325Y-10192650D01*
X11477325Y-10192650D02*
X11515420Y-10192650D01*
X11515420Y-10192650D02*
X11534468Y-10202174D01*
X11534468Y-10202174D02*
X11543991Y-10221222D01*
X11543991Y-10221222D02*
X11543991Y-10240270D01*
X11543991Y-10240270D02*
X11448753Y-10259317D01*
X11620182Y-10316460D02*
X11639230Y-10325984D01*
X11639230Y-10325984D02*
X11677325Y-10325984D01*
X11677325Y-10325984D02*
X11696372Y-10316460D01*
X11696372Y-10316460D02*
X11705896Y-10297412D01*
X11705896Y-10297412D02*
X11705896Y-10287889D01*
X11705896Y-10287889D02*
X11696372Y-10268841D01*
X11696372Y-10268841D02*
X11677325Y-10259317D01*
X11677325Y-10259317D02*
X11648753Y-10259317D01*
X11648753Y-10259317D02*
X11629706Y-10249793D01*
X11629706Y-10249793D02*
X11620182Y-10230746D01*
X11620182Y-10230746D02*
X11620182Y-10221222D01*
X11620182Y-10221222D02*
X11629706Y-10202174D01*
X11629706Y-10202174D02*
X11648753Y-10192650D01*
X11648753Y-10192650D02*
X11677325Y-10192650D01*
X11677325Y-10192650D02*
X11696372Y-10202174D01*
X11772563Y-10402174D02*
X11782087Y-10392650D01*
X11782087Y-10392650D02*
X11801134Y-10364079D01*
X11801134Y-10364079D02*
X11810658Y-10345031D01*
X11810658Y-10345031D02*
X11820182Y-10316460D01*
X11820182Y-10316460D02*
X11829706Y-10268841D01*
X11829706Y-10268841D02*
X11829706Y-10230746D01*
X11829706Y-10230746D02*
X11820182Y-10183127D01*
X11820182Y-10183127D02*
X11810658Y-10154555D01*
X11810658Y-10154555D02*
X11801134Y-10135508D01*
X11801134Y-10135508D02*
X11782087Y-10106936D01*
X11782087Y-10106936D02*
X11772563Y-10097412D01*
X6897500Y-10598500D02*
X6997500Y-10498500D01*
X6897500Y-10398500D01*
X6797500Y-10498500D01*
X6897500Y-10598500D01*
X7248753Y-10409031D02*
X7258277Y-10399508D01*
X7258277Y-10399508D02*
X7277324Y-10389984D01*
X7277324Y-10389984D02*
X7324943Y-10389984D01*
X7324943Y-10389984D02*
X7343991Y-10399508D01*
X7343991Y-10399508D02*
X7353515Y-10409031D01*
X7353515Y-10409031D02*
X7363039Y-10428079D01*
X7363039Y-10428079D02*
X7363039Y-10447127D01*
X7363039Y-10447127D02*
X7353515Y-10475698D01*
X7353515Y-10475698D02*
X7239229Y-10589984D01*
X7239229Y-10589984D02*
X7363039Y-10589984D01*
X7448753Y-10570936D02*
X7458277Y-10580460D01*
X7458277Y-10580460D02*
X7448753Y-10589984D01*
X7448753Y-10589984D02*
X7439229Y-10580460D01*
X7439229Y-10580460D02*
X7448753Y-10570936D01*
X7448753Y-10570936D02*
X7448753Y-10589984D01*
X7534467Y-10409031D02*
X7543991Y-10399508D01*
X7543991Y-10399508D02*
X7563039Y-10389984D01*
X7563039Y-10389984D02*
X7610658Y-10389984D01*
X7610658Y-10389984D02*
X7629705Y-10399508D01*
X7629705Y-10399508D02*
X7639229Y-10409031D01*
X7639229Y-10409031D02*
X7648753Y-10428079D01*
X7648753Y-10428079D02*
X7648753Y-10447127D01*
X7648753Y-10447127D02*
X7639229Y-10475698D01*
X7639229Y-10475698D02*
X7524943Y-10589984D01*
X7524943Y-10589984D02*
X7648753Y-10589984D01*
X7772562Y-10389984D02*
X7791610Y-10389984D01*
X7791610Y-10389984D02*
X7810658Y-10399508D01*
X7810658Y-10399508D02*
X7820182Y-10409031D01*
X7820182Y-10409031D02*
X7829705Y-10428079D01*
X7829705Y-10428079D02*
X7839229Y-10466174D01*
X7839229Y-10466174D02*
X7839229Y-10513793D01*
X7839229Y-10513793D02*
X7829705Y-10551889D01*
X7829705Y-10551889D02*
X7820182Y-10570936D01*
X7820182Y-10570936D02*
X7810658Y-10580460D01*
X7810658Y-10580460D02*
X7791610Y-10589984D01*
X7791610Y-10589984D02*
X7772562Y-10589984D01*
X7772562Y-10589984D02*
X7753515Y-10580460D01*
X7753515Y-10580460D02*
X7743991Y-10570936D01*
X7743991Y-10570936D02*
X7734467Y-10551889D01*
X7734467Y-10551889D02*
X7724943Y-10513793D01*
X7724943Y-10513793D02*
X7724943Y-10466174D01*
X7724943Y-10466174D02*
X7734467Y-10428079D01*
X7734467Y-10428079D02*
X7743991Y-10409031D01*
X7743991Y-10409031D02*
X7753515Y-10399508D01*
X7753515Y-10399508D02*
X7772562Y-10389984D01*
X7963039Y-10389984D02*
X7982086Y-10389984D01*
X7982086Y-10389984D02*
X8001134Y-10399508D01*
X8001134Y-10399508D02*
X8010658Y-10409031D01*
X8010658Y-10409031D02*
X8020182Y-10428079D01*
X8020182Y-10428079D02*
X8029705Y-10466174D01*
X8029705Y-10466174D02*
X8029705Y-10513793D01*
X8029705Y-10513793D02*
X8020182Y-10551889D01*
X8020182Y-10551889D02*
X8010658Y-10570936D01*
X8010658Y-10570936D02*
X8001134Y-10580460D01*
X8001134Y-10580460D02*
X7982086Y-10589984D01*
X7982086Y-10589984D02*
X7963039Y-10589984D01*
X7963039Y-10589984D02*
X7943991Y-10580460D01*
X7943991Y-10580460D02*
X7934467Y-10570936D01*
X7934467Y-10570936D02*
X7924943Y-10551889D01*
X7924943Y-10551889D02*
X7915420Y-10513793D01*
X7915420Y-10513793D02*
X7915420Y-10466174D01*
X7915420Y-10466174D02*
X7924943Y-10428079D01*
X7924943Y-10428079D02*
X7934467Y-10409031D01*
X7934467Y-10409031D02*
X7943991Y-10399508D01*
X7943991Y-10399508D02*
X7963039Y-10389984D01*
X8115420Y-10589984D02*
X8115420Y-10456650D01*
X8115420Y-10475698D02*
X8124943Y-10466174D01*
X8124943Y-10466174D02*
X8143991Y-10456650D01*
X8143991Y-10456650D02*
X8172563Y-10456650D01*
X8172563Y-10456650D02*
X8191610Y-10466174D01*
X8191610Y-10466174D02*
X8201134Y-10485222D01*
X8201134Y-10485222D02*
X8201134Y-10589984D01*
X8201134Y-10485222D02*
X8210658Y-10466174D01*
X8210658Y-10466174D02*
X8229705Y-10456650D01*
X8229705Y-10456650D02*
X8258277Y-10456650D01*
X8258277Y-10456650D02*
X8277324Y-10466174D01*
X8277324Y-10466174D02*
X8286848Y-10485222D01*
X8286848Y-10485222D02*
X8286848Y-10589984D01*
X8382086Y-10589984D02*
X8382086Y-10456650D01*
X8382086Y-10475698D02*
X8391610Y-10466174D01*
X8391610Y-10466174D02*
X8410658Y-10456650D01*
X8410658Y-10456650D02*
X8439229Y-10456650D01*
X8439229Y-10456650D02*
X8458277Y-10466174D01*
X8458277Y-10466174D02*
X8467801Y-10485222D01*
X8467801Y-10485222D02*
X8467801Y-10589984D01*
X8467801Y-10485222D02*
X8477325Y-10466174D01*
X8477325Y-10466174D02*
X8496372Y-10456650D01*
X8496372Y-10456650D02*
X8524944Y-10456650D01*
X8524944Y-10456650D02*
X8543991Y-10466174D01*
X8543991Y-10466174D02*
X8553515Y-10485222D01*
X8553515Y-10485222D02*
X8553515Y-10589984D01*
X8943991Y-10380460D02*
X8772563Y-10637603D01*
X9201134Y-10389984D02*
X9220182Y-10389984D01*
X9220182Y-10389984D02*
X9239229Y-10399508D01*
X9239229Y-10399508D02*
X9248753Y-10409031D01*
X9248753Y-10409031D02*
X9258277Y-10428079D01*
X9258277Y-10428079D02*
X9267801Y-10466174D01*
X9267801Y-10466174D02*
X9267801Y-10513793D01*
X9267801Y-10513793D02*
X9258277Y-10551889D01*
X9258277Y-10551889D02*
X9248753Y-10570936D01*
X9248753Y-10570936D02*
X9239229Y-10580460D01*
X9239229Y-10580460D02*
X9220182Y-10589984D01*
X9220182Y-10589984D02*
X9201134Y-10589984D01*
X9201134Y-10589984D02*
X9182087Y-10580460D01*
X9182087Y-10580460D02*
X9172563Y-10570936D01*
X9172563Y-10570936D02*
X9163039Y-10551889D01*
X9163039Y-10551889D02*
X9153515Y-10513793D01*
X9153515Y-10513793D02*
X9153515Y-10466174D01*
X9153515Y-10466174D02*
X9163039Y-10428079D01*
X9163039Y-10428079D02*
X9172563Y-10409031D01*
X9172563Y-10409031D02*
X9182087Y-10399508D01*
X9182087Y-10399508D02*
X9201134Y-10389984D01*
X9353515Y-10570936D02*
X9363039Y-10580460D01*
X9363039Y-10580460D02*
X9353515Y-10589984D01*
X9353515Y-10589984D02*
X9343991Y-10580460D01*
X9343991Y-10580460D02*
X9353515Y-10570936D01*
X9353515Y-10570936D02*
X9353515Y-10589984D01*
X9486848Y-10389984D02*
X9505896Y-10389984D01*
X9505896Y-10389984D02*
X9524944Y-10399508D01*
X9524944Y-10399508D02*
X9534468Y-10409031D01*
X9534468Y-10409031D02*
X9543991Y-10428079D01*
X9543991Y-10428079D02*
X9553515Y-10466174D01*
X9553515Y-10466174D02*
X9553515Y-10513793D01*
X9553515Y-10513793D02*
X9543991Y-10551889D01*
X9543991Y-10551889D02*
X9534468Y-10570936D01*
X9534468Y-10570936D02*
X9524944Y-10580460D01*
X9524944Y-10580460D02*
X9505896Y-10589984D01*
X9505896Y-10589984D02*
X9486848Y-10589984D01*
X9486848Y-10589984D02*
X9467801Y-10580460D01*
X9467801Y-10580460D02*
X9458277Y-10570936D01*
X9458277Y-10570936D02*
X9448753Y-10551889D01*
X9448753Y-10551889D02*
X9439229Y-10513793D01*
X9439229Y-10513793D02*
X9439229Y-10466174D01*
X9439229Y-10466174D02*
X9448753Y-10428079D01*
X9448753Y-10428079D02*
X9458277Y-10409031D01*
X9458277Y-10409031D02*
X9467801Y-10399508D01*
X9467801Y-10399508D02*
X9486848Y-10389984D01*
X9667801Y-10475698D02*
X9648753Y-10466174D01*
X9648753Y-10466174D02*
X9639229Y-10456650D01*
X9639229Y-10456650D02*
X9629706Y-10437603D01*
X9629706Y-10437603D02*
X9629706Y-10428079D01*
X9629706Y-10428079D02*
X9639229Y-10409031D01*
X9639229Y-10409031D02*
X9648753Y-10399508D01*
X9648753Y-10399508D02*
X9667801Y-10389984D01*
X9667801Y-10389984D02*
X9705896Y-10389984D01*
X9705896Y-10389984D02*
X9724944Y-10399508D01*
X9724944Y-10399508D02*
X9734468Y-10409031D01*
X9734468Y-10409031D02*
X9743991Y-10428079D01*
X9743991Y-10428079D02*
X9743991Y-10437603D01*
X9743991Y-10437603D02*
X9734468Y-10456650D01*
X9734468Y-10456650D02*
X9724944Y-10466174D01*
X9724944Y-10466174D02*
X9705896Y-10475698D01*
X9705896Y-10475698D02*
X9667801Y-10475698D01*
X9667801Y-10475698D02*
X9648753Y-10485222D01*
X9648753Y-10485222D02*
X9639229Y-10494746D01*
X9639229Y-10494746D02*
X9629706Y-10513793D01*
X9629706Y-10513793D02*
X9629706Y-10551889D01*
X9629706Y-10551889D02*
X9639229Y-10570936D01*
X9639229Y-10570936D02*
X9648753Y-10580460D01*
X9648753Y-10580460D02*
X9667801Y-10589984D01*
X9667801Y-10589984D02*
X9705896Y-10589984D01*
X9705896Y-10589984D02*
X9724944Y-10580460D01*
X9724944Y-10580460D02*
X9734468Y-10570936D01*
X9734468Y-10570936D02*
X9743991Y-10551889D01*
X9743991Y-10551889D02*
X9743991Y-10513793D01*
X9743991Y-10513793D02*
X9734468Y-10494746D01*
X9734468Y-10494746D02*
X9724944Y-10485222D01*
X9724944Y-10485222D02*
X9705896Y-10475698D01*
X9915420Y-10389984D02*
X9877325Y-10389984D01*
X9877325Y-10389984D02*
X9858277Y-10399508D01*
X9858277Y-10399508D02*
X9848753Y-10409031D01*
X9848753Y-10409031D02*
X9829706Y-10437603D01*
X9829706Y-10437603D02*
X9820182Y-10475698D01*
X9820182Y-10475698D02*
X9820182Y-10551889D01*
X9820182Y-10551889D02*
X9829706Y-10570936D01*
X9829706Y-10570936D02*
X9839229Y-10580460D01*
X9839229Y-10580460D02*
X9858277Y-10589984D01*
X9858277Y-10589984D02*
X9896372Y-10589984D01*
X9896372Y-10589984D02*
X9915420Y-10580460D01*
X9915420Y-10580460D02*
X9924944Y-10570936D01*
X9924944Y-10570936D02*
X9934468Y-10551889D01*
X9934468Y-10551889D02*
X9934468Y-10504270D01*
X9934468Y-10504270D02*
X9924944Y-10485222D01*
X9924944Y-10485222D02*
X9915420Y-10475698D01*
X9915420Y-10475698D02*
X9896372Y-10466174D01*
X9896372Y-10466174D02*
X9858277Y-10466174D01*
X9858277Y-10466174D02*
X9839229Y-10475698D01*
X9839229Y-10475698D02*
X9829706Y-10485222D01*
X9829706Y-10485222D02*
X9820182Y-10504270D01*
X10105896Y-10389984D02*
X10067801Y-10389984D01*
X10067801Y-10389984D02*
X10048753Y-10399508D01*
X10048753Y-10399508D02*
X10039229Y-10409031D01*
X10039229Y-10409031D02*
X10020182Y-10437603D01*
X10020182Y-10437603D02*
X10010658Y-10475698D01*
X10010658Y-10475698D02*
X10010658Y-10551889D01*
X10010658Y-10551889D02*
X10020182Y-10570936D01*
X10020182Y-10570936D02*
X10029706Y-10580460D01*
X10029706Y-10580460D02*
X10048753Y-10589984D01*
X10048753Y-10589984D02*
X10086849Y-10589984D01*
X10086849Y-10589984D02*
X10105896Y-10580460D01*
X10105896Y-10580460D02*
X10115420Y-10570936D01*
X10115420Y-10570936D02*
X10124944Y-10551889D01*
X10124944Y-10551889D02*
X10124944Y-10504270D01*
X10124944Y-10504270D02*
X10115420Y-10485222D01*
X10115420Y-10485222D02*
X10105896Y-10475698D01*
X10105896Y-10475698D02*
X10086849Y-10466174D01*
X10086849Y-10466174D02*
X10048753Y-10466174D01*
X10048753Y-10466174D02*
X10029706Y-10475698D01*
X10029706Y-10475698D02*
X10020182Y-10485222D01*
X10020182Y-10485222D02*
X10010658Y-10504270D01*
X10201134Y-10389984D02*
X10201134Y-10428079D01*
X10277325Y-10389984D02*
X10277325Y-10428079D01*
X10572563Y-10666174D02*
X10563039Y-10656650D01*
X10563039Y-10656650D02*
X10543991Y-10628079D01*
X10543991Y-10628079D02*
X10534468Y-10609031D01*
X10534468Y-10609031D02*
X10524944Y-10580460D01*
X10524944Y-10580460D02*
X10515420Y-10532841D01*
X10515420Y-10532841D02*
X10515420Y-10494746D01*
X10515420Y-10494746D02*
X10524944Y-10447127D01*
X10524944Y-10447127D02*
X10534468Y-10418555D01*
X10534468Y-10418555D02*
X10543991Y-10399508D01*
X10543991Y-10399508D02*
X10563039Y-10370936D01*
X10563039Y-10370936D02*
X10572563Y-10361412D01*
X10734468Y-10389984D02*
X10696372Y-10389984D01*
X10696372Y-10389984D02*
X10677325Y-10399508D01*
X10677325Y-10399508D02*
X10667801Y-10409031D01*
X10667801Y-10409031D02*
X10648753Y-10437603D01*
X10648753Y-10437603D02*
X10639230Y-10475698D01*
X10639230Y-10475698D02*
X10639230Y-10551889D01*
X10639230Y-10551889D02*
X10648753Y-10570936D01*
X10648753Y-10570936D02*
X10658277Y-10580460D01*
X10658277Y-10580460D02*
X10677325Y-10589984D01*
X10677325Y-10589984D02*
X10715420Y-10589984D01*
X10715420Y-10589984D02*
X10734468Y-10580460D01*
X10734468Y-10580460D02*
X10743991Y-10570936D01*
X10743991Y-10570936D02*
X10753515Y-10551889D01*
X10753515Y-10551889D02*
X10753515Y-10504270D01*
X10753515Y-10504270D02*
X10743991Y-10485222D01*
X10743991Y-10485222D02*
X10734468Y-10475698D01*
X10734468Y-10475698D02*
X10715420Y-10466174D01*
X10715420Y-10466174D02*
X10677325Y-10466174D01*
X10677325Y-10466174D02*
X10658277Y-10475698D01*
X10658277Y-10475698D02*
X10648753Y-10485222D01*
X10648753Y-10485222D02*
X10639230Y-10504270D01*
X10991611Y-10589984D02*
X10991611Y-10389984D01*
X11077325Y-10589984D02*
X11077325Y-10485222D01*
X11077325Y-10485222D02*
X11067801Y-10466174D01*
X11067801Y-10466174D02*
X11048753Y-10456650D01*
X11048753Y-10456650D02*
X11020182Y-10456650D01*
X11020182Y-10456650D02*
X11001134Y-10466174D01*
X11001134Y-10466174D02*
X10991611Y-10475698D01*
X11201134Y-10589984D02*
X11182087Y-10580460D01*
X11182087Y-10580460D02*
X11172563Y-10570936D01*
X11172563Y-10570936D02*
X11163039Y-10551889D01*
X11163039Y-10551889D02*
X11163039Y-10494746D01*
X11163039Y-10494746D02*
X11172563Y-10475698D01*
X11172563Y-10475698D02*
X11182087Y-10466174D01*
X11182087Y-10466174D02*
X11201134Y-10456650D01*
X11201134Y-10456650D02*
X11229706Y-10456650D01*
X11229706Y-10456650D02*
X11248753Y-10466174D01*
X11248753Y-10466174D02*
X11258277Y-10475698D01*
X11258277Y-10475698D02*
X11267801Y-10494746D01*
X11267801Y-10494746D02*
X11267801Y-10551889D01*
X11267801Y-10551889D02*
X11258277Y-10570936D01*
X11258277Y-10570936D02*
X11248753Y-10580460D01*
X11248753Y-10580460D02*
X11229706Y-10589984D01*
X11229706Y-10589984D02*
X11201134Y-10589984D01*
X11382087Y-10589984D02*
X11363039Y-10580460D01*
X11363039Y-10580460D02*
X11353515Y-10561412D01*
X11353515Y-10561412D02*
X11353515Y-10389984D01*
X11534468Y-10580460D02*
X11515420Y-10589984D01*
X11515420Y-10589984D02*
X11477325Y-10589984D01*
X11477325Y-10589984D02*
X11458277Y-10580460D01*
X11458277Y-10580460D02*
X11448753Y-10561412D01*
X11448753Y-10561412D02*
X11448753Y-10485222D01*
X11448753Y-10485222D02*
X11458277Y-10466174D01*
X11458277Y-10466174D02*
X11477325Y-10456650D01*
X11477325Y-10456650D02*
X11515420Y-10456650D01*
X11515420Y-10456650D02*
X11534468Y-10466174D01*
X11534468Y-10466174D02*
X11543991Y-10485222D01*
X11543991Y-10485222D02*
X11543991Y-10504270D01*
X11543991Y-10504270D02*
X11448753Y-10523317D01*
X11620182Y-10580460D02*
X11639230Y-10589984D01*
X11639230Y-10589984D02*
X11677325Y-10589984D01*
X11677325Y-10589984D02*
X11696372Y-10580460D01*
X11696372Y-10580460D02*
X11705896Y-10561412D01*
X11705896Y-10561412D02*
X11705896Y-10551889D01*
X11705896Y-10551889D02*
X11696372Y-10532841D01*
X11696372Y-10532841D02*
X11677325Y-10523317D01*
X11677325Y-10523317D02*
X11648753Y-10523317D01*
X11648753Y-10523317D02*
X11629706Y-10513793D01*
X11629706Y-10513793D02*
X11620182Y-10494746D01*
X11620182Y-10494746D02*
X11620182Y-10485222D01*
X11620182Y-10485222D02*
X11629706Y-10466174D01*
X11629706Y-10466174D02*
X11648753Y-10456650D01*
X11648753Y-10456650D02*
X11677325Y-10456650D01*
X11677325Y-10456650D02*
X11696372Y-10466174D01*
X11772563Y-10666174D02*
X11782087Y-10656650D01*
X11782087Y-10656650D02*
X11801134Y-10628079D01*
X11801134Y-10628079D02*
X11810658Y-10609031D01*
X11810658Y-10609031D02*
X11820182Y-10580460D01*
X11820182Y-10580460D02*
X11829706Y-10532841D01*
X11829706Y-10532841D02*
X11829706Y-10494746D01*
X11829706Y-10494746D02*
X11820182Y-10447127D01*
X11820182Y-10447127D02*
X11810658Y-10418555D01*
X11810658Y-10418555D02*
X11801134Y-10399508D01*
X11801134Y-10399508D02*
X11782087Y-10370936D01*
X11782087Y-10370936D02*
X11772563Y-10361412D01*
M02*
