M48
; DRILL file {KiCad 9.0.2} date 2025-10-08T20:37:42-0500
; FORMAT={-:-/ absolute / metric / decimal}
; #@! TF.CreationDate,2025-10-08T20:37:42-05:00
; #@! TF.GenerationSoftware,Kicad,Pcbnew,9.0.2
; #@! TF.FileFunction,Plated,1,4,PTH
FMAT,2
METRIC
; #@! TA.AperFunction,Plated,PTH,ViaDrill
T1C0.300
; #@! TA.AperFunction,Plated,PTH,ComponentDrill
T2C0.300
; #@! TA.AperFunction,Plated,PTH,ComponentDrill
T3C1.000
; #@! TA.AperFunction,Plated,PTH,ComponentDrill
T4C1.200
; #@! TA.AperFunction,Plated,PTH,ComponentDrill
T5C2.200
%
G90
G05
T1
X74.08Y-47.472
X74.08Y-60.172
X74.08Y-62.712
X74.08Y-65.252
X74.08Y-70.332
X74.08Y-72.872
X74.08Y-75.412
X74.08Y-80.492
X74.6Y-51.0
X74.6Y-52.0
X74.6Y-53.0
X76.62Y-60.172
X76.62Y-62.712
X76.62Y-72.872
X76.62Y-80.492
X76.62Y-83.032
X76.62Y-85.572
X76.8Y-49.5
X77.65Y-46.35
X78.5Y-47.5
X78.5Y-48.5
X78.5Y-49.4
X78.8Y-51.2
X79.0Y-70.4
X79.16Y-60.172
X79.16Y-62.712
X79.16Y-65.252
X79.16Y-72.872
X79.16Y-80.492
X79.16Y-83.032
X79.16Y-85.572
X79.2Y-53.1
X79.2Y-53.9
X79.2Y-54.7
X79.5Y-47.5
X79.5Y-48.5
X79.5Y-49.4
X81.7Y-48.125
X81.7Y-50.0
X81.7Y-51.1
X81.7Y-60.172
X81.7Y-70.332
X81.7Y-72.872
X81.7Y-75.412
X81.7Y-77.952
X81.7Y-80.492
X81.7Y-83.032
X81.7Y-85.572
X82.1Y-53.1
X82.1Y-53.9
X82.1Y-54.7
X82.25Y-62.362
X82.5Y-48.125
X82.5Y-50.0
X82.5Y-51.1
X83.3Y-48.125
X83.3Y-50.0
X83.3Y-51.1
X84.24Y-44.932
X84.24Y-77.952
X84.24Y-80.492
X84.24Y-83.032
X84.24Y-85.572
X85.1Y-48.125
X85.1Y-50.0
X85.1Y-51.1
X85.5Y-57.4
X85.6Y-62.6
X85.6Y-64.9
X85.8Y-52.2
X85.9Y-48.125
X85.9Y-50.0
X85.9Y-51.1
X86.1Y-55.8
X86.45Y-79.2
X86.7Y-48.125
X86.7Y-50.0
X86.7Y-51.1
X86.78Y-83.032
X86.78Y-85.572
X86.8Y-58.7
X87.1Y-56.8
X87.5Y-52.2
X87.8Y-80.9
X88.15Y-70.65
X88.5Y-48.125
X88.5Y-50.0
X88.5Y-51.1
X88.6Y-77.7
X88.7Y-65.4
X89.0Y-58.5
X89.0Y-61.0
X89.0Y-62.7
X89.3Y-48.125
X89.3Y-50.0
X89.3Y-51.1
X89.32Y-44.932
X89.32Y-83.032
X89.32Y-85.572
X89.9Y-59.5
X90.1Y-48.125
X90.1Y-50.0
X90.1Y-51.1
X90.4Y-58.5
X91.3Y-79.0
X91.86Y-44.932
X91.86Y-83.032
X91.86Y-85.572
X91.9Y-48.125
X91.9Y-50.0
X91.9Y-51.1
X92.7Y-48.125
X92.7Y-50.0
X92.7Y-51.1
X92.8Y-71.6
X93.1Y-79.0
X93.175Y-58.0
X93.175Y-60.7
X93.5Y-48.125
X93.5Y-50.0
X93.5Y-51.1
X93.7Y-70.5
X94.3Y-72.4
X94.4Y-44.932
X94.4Y-80.492
X94.4Y-85.572
X94.9Y-66.6
X95.275Y-74.895
X95.275Y-75.695
X95.3Y-48.125
X95.3Y-50.0
X95.3Y-51.1
X95.3Y-70.5
X96.1Y-48.125
X96.1Y-50.0
X96.1Y-51.1
X96.9Y-48.125
X96.9Y-50.0
X96.9Y-51.1
X96.94Y-44.932
X96.94Y-62.712
X96.94Y-85.572
X97.0Y-58.9
X97.0Y-60.2
X97.6Y-66.6
X99.1Y-78.7
X99.48Y-50.012
X99.48Y-57.632
X99.48Y-60.172
X99.48Y-62.712
X102.02Y-50.012
X102.02Y-60.172
X102.02Y-62.712
X102.02Y-65.252
X102.02Y-67.792
X102.02Y-70.332
X102.02Y-75.412
X102.575Y-78.895
X102.575Y-80.47
X102.7Y-85.3
X104.5Y-81.8
X104.5Y-85.3
X104.56Y-50.012
X104.56Y-60.172
X104.56Y-62.712
X104.56Y-65.252
X104.56Y-67.792
X104.56Y-70.332
X104.56Y-72.872
X104.56Y-75.412
X104.56Y-77.952
X107.1Y-50.012
X107.1Y-60.172
X107.1Y-62.712
X107.1Y-65.252
X107.1Y-67.792
X107.1Y-70.332
X107.1Y-72.872
X107.1Y-75.412
X107.1Y-77.952
X107.1Y-80.492
X107.1Y-83.032
X107.1Y-85.572
X109.64Y-44.932
X109.64Y-47.472
X109.64Y-50.012
X109.64Y-52.552
X109.64Y-55.092
X109.64Y-57.632
X109.64Y-60.172
X109.64Y-62.712
X109.64Y-65.252
X109.64Y-67.792
X109.64Y-70.332
X109.64Y-72.872
X109.64Y-75.412
X109.64Y-77.952
X109.64Y-80.492
X109.64Y-83.032
X109.64Y-85.572
X112.18Y-47.472
X112.18Y-50.012
X112.18Y-52.552
X112.18Y-55.092
X112.18Y-57.632
X112.18Y-60.172
X112.18Y-77.952
X112.18Y-80.492
X114.72Y-47.472
X114.72Y-50.012
X114.72Y-52.552
X114.72Y-55.092
X114.72Y-57.632
X114.72Y-60.172
X114.72Y-77.952
X114.72Y-80.492
T2
X91.65Y-53.15
X91.65Y-54.45
X91.65Y-55.75
X91.65Y-57.05
X92.95Y-53.15
X92.95Y-54.45
X92.95Y-55.75
X92.95Y-57.05
T3
X84.0Y-70.0
X84.0Y-72.5
X84.0Y-75.0
T4
X73.0Y-52.0
X73.0Y-57.0
X82.0Y-44.0
X87.0Y-44.0
T5
X73.0Y-44.0
X73.0Y-85.0
X77.0Y-68.1
X77.0Y-76.9
X114.0Y-44.0
X114.0Y-85.0
M30
