G04 #@! TF.GenerationSoftware,KiCad,Pcbnew,9.0.2*
G04 #@! TF.CreationDate,2025-10-08T20:36:55-05:00*
G04 #@! TF.ProjectId,cc-led-driver,63632d6c-6564-42d6-9472-697665722e6b,V1.0*
G04 #@! TF.SameCoordinates,Original*
G04 #@! TF.FileFunction,Legend,Bot*
G04 #@! TF.FilePolarity,Positive*
%FSLAX46Y46*%
G04 Gerber Fmt 4.6, Leading zero omitted, Abs format (unit mm)*
G04 Created by KiCad (PCBNEW 9.0.2) date 2025-10-08 20:36:55*
%MOMM*%
%LPD*%
G01*
G04 APERTURE LIST*
G04 Aperture macros list*
%AMRoundRect*
0 Rectangle with rounded corners*
0 $1 Rounding radius*
0 $2 $3 $4 $5 $6 $7 $8 $9 X,Y pos of 4 corners*
0 Add a 4 corners polygon primitive as box body*
4,1,4,$2,$3,$4,$5,$6,$7,$8,$9,$2,$3,0*
0 Add four circle primitives for the rounded corners*
1,1,$1+$1,$2,$3*
1,1,$1+$1,$4,$5*
1,1,$1+$1,$6,$7*
1,1,$1+$1,$8,$9*
0 Add four rect primitives between the rounded corners*
20,1,$1+$1,$2,$3,$4,$5,0*
20,1,$1+$1,$4,$5,$6,$7,0*
20,1,$1+$1,$6,$7,$8,$9,0*
20,1,$1+$1,$8,$9,$2,$3,0*%
G04 Aperture macros list end*
%ADD10C,0.150000*%
%ADD11C,0.120000*%
%ADD12C,3.800000*%
%ADD13RoundRect,0.250000X-1.100000X0.325000X-1.100000X-0.325000X1.100000X-0.325000X1.100000X0.325000X0*%
%ADD14C,1.800000*%
%ADD15C,4.400000*%
%ADD16C,2.200000*%
%ADD17RoundRect,0.250000X0.325000X1.100000X-0.325000X1.100000X-0.325000X-1.100000X0.325000X-1.100000X0*%
G04 APERTURE END LIST*
D10*
X89942857Y-46859580D02*
X89990476Y-46907200D01*
X89990476Y-46907200D02*
X90133333Y-46954819D01*
X90133333Y-46954819D02*
X90228571Y-46954819D01*
X90228571Y-46954819D02*
X90371428Y-46907200D01*
X90371428Y-46907200D02*
X90466666Y-46811961D01*
X90466666Y-46811961D02*
X90514285Y-46716723D01*
X90514285Y-46716723D02*
X90561904Y-46526247D01*
X90561904Y-46526247D02*
X90561904Y-46383390D01*
X90561904Y-46383390D02*
X90514285Y-46192914D01*
X90514285Y-46192914D02*
X90466666Y-46097676D01*
X90466666Y-46097676D02*
X90371428Y-46002438D01*
X90371428Y-46002438D02*
X90228571Y-45954819D01*
X90228571Y-45954819D02*
X90133333Y-45954819D01*
X90133333Y-45954819D02*
X89990476Y-46002438D01*
X89990476Y-46002438D02*
X89942857Y-46050057D01*
X89561904Y-46050057D02*
X89514285Y-46002438D01*
X89514285Y-46002438D02*
X89419047Y-45954819D01*
X89419047Y-45954819D02*
X89180952Y-45954819D01*
X89180952Y-45954819D02*
X89085714Y-46002438D01*
X89085714Y-46002438D02*
X89038095Y-46050057D01*
X89038095Y-46050057D02*
X88990476Y-46145295D01*
X88990476Y-46145295D02*
X88990476Y-46240533D01*
X88990476Y-46240533D02*
X89038095Y-46383390D01*
X89038095Y-46383390D02*
X89609523Y-46954819D01*
X89609523Y-46954819D02*
X88990476Y-46954819D01*
X88038095Y-46954819D02*
X88609523Y-46954819D01*
X88323809Y-46954819D02*
X88323809Y-45954819D01*
X88323809Y-45954819D02*
X88419047Y-46097676D01*
X88419047Y-46097676D02*
X88514285Y-46192914D01*
X88514285Y-46192914D02*
X88609523Y-46240533D01*
X96742857Y-46759580D02*
X96790476Y-46807200D01*
X96790476Y-46807200D02*
X96933333Y-46854819D01*
X96933333Y-46854819D02*
X97028571Y-46854819D01*
X97028571Y-46854819D02*
X97171428Y-46807200D01*
X97171428Y-46807200D02*
X97266666Y-46711961D01*
X97266666Y-46711961D02*
X97314285Y-46616723D01*
X97314285Y-46616723D02*
X97361904Y-46426247D01*
X97361904Y-46426247D02*
X97361904Y-46283390D01*
X97361904Y-46283390D02*
X97314285Y-46092914D01*
X97314285Y-46092914D02*
X97266666Y-45997676D01*
X97266666Y-45997676D02*
X97171428Y-45902438D01*
X97171428Y-45902438D02*
X97028571Y-45854819D01*
X97028571Y-45854819D02*
X96933333Y-45854819D01*
X96933333Y-45854819D02*
X96790476Y-45902438D01*
X96790476Y-45902438D02*
X96742857Y-45950057D01*
X96361904Y-45950057D02*
X96314285Y-45902438D01*
X96314285Y-45902438D02*
X96219047Y-45854819D01*
X96219047Y-45854819D02*
X95980952Y-45854819D01*
X95980952Y-45854819D02*
X95885714Y-45902438D01*
X95885714Y-45902438D02*
X95838095Y-45950057D01*
X95838095Y-45950057D02*
X95790476Y-46045295D01*
X95790476Y-46045295D02*
X95790476Y-46140533D01*
X95790476Y-46140533D02*
X95838095Y-46283390D01*
X95838095Y-46283390D02*
X96409523Y-46854819D01*
X96409523Y-46854819D02*
X95790476Y-46854819D01*
X95457142Y-45854819D02*
X94838095Y-45854819D01*
X94838095Y-45854819D02*
X95171428Y-46235771D01*
X95171428Y-46235771D02*
X95028571Y-46235771D01*
X95028571Y-46235771D02*
X94933333Y-46283390D01*
X94933333Y-46283390D02*
X94885714Y-46331009D01*
X94885714Y-46331009D02*
X94838095Y-46426247D01*
X94838095Y-46426247D02*
X94838095Y-46664342D01*
X94838095Y-46664342D02*
X94885714Y-46759580D01*
X94885714Y-46759580D02*
X94933333Y-46807200D01*
X94933333Y-46807200D02*
X95028571Y-46854819D01*
X95028571Y-46854819D02*
X95314285Y-46854819D01*
X95314285Y-46854819D02*
X95409523Y-46807200D01*
X95409523Y-46807200D02*
X95457142Y-46759580D01*
X93342857Y-46759580D02*
X93390476Y-46807200D01*
X93390476Y-46807200D02*
X93533333Y-46854819D01*
X93533333Y-46854819D02*
X93628571Y-46854819D01*
X93628571Y-46854819D02*
X93771428Y-46807200D01*
X93771428Y-46807200D02*
X93866666Y-46711961D01*
X93866666Y-46711961D02*
X93914285Y-46616723D01*
X93914285Y-46616723D02*
X93961904Y-46426247D01*
X93961904Y-46426247D02*
X93961904Y-46283390D01*
X93961904Y-46283390D02*
X93914285Y-46092914D01*
X93914285Y-46092914D02*
X93866666Y-45997676D01*
X93866666Y-45997676D02*
X93771428Y-45902438D01*
X93771428Y-45902438D02*
X93628571Y-45854819D01*
X93628571Y-45854819D02*
X93533333Y-45854819D01*
X93533333Y-45854819D02*
X93390476Y-45902438D01*
X93390476Y-45902438D02*
X93342857Y-45950057D01*
X92961904Y-45950057D02*
X92914285Y-45902438D01*
X92914285Y-45902438D02*
X92819047Y-45854819D01*
X92819047Y-45854819D02*
X92580952Y-45854819D01*
X92580952Y-45854819D02*
X92485714Y-45902438D01*
X92485714Y-45902438D02*
X92438095Y-45950057D01*
X92438095Y-45950057D02*
X92390476Y-46045295D01*
X92390476Y-46045295D02*
X92390476Y-46140533D01*
X92390476Y-46140533D02*
X92438095Y-46283390D01*
X92438095Y-46283390D02*
X93009523Y-46854819D01*
X93009523Y-46854819D02*
X92390476Y-46854819D01*
X92009523Y-45950057D02*
X91961904Y-45902438D01*
X91961904Y-45902438D02*
X91866666Y-45854819D01*
X91866666Y-45854819D02*
X91628571Y-45854819D01*
X91628571Y-45854819D02*
X91533333Y-45902438D01*
X91533333Y-45902438D02*
X91485714Y-45950057D01*
X91485714Y-45950057D02*
X91438095Y-46045295D01*
X91438095Y-46045295D02*
X91438095Y-46140533D01*
X91438095Y-46140533D02*
X91485714Y-46283390D01*
X91485714Y-46283390D02*
X92057142Y-46854819D01*
X92057142Y-46854819D02*
X91438095Y-46854819D01*
X86542857Y-46859580D02*
X86590476Y-46907200D01*
X86590476Y-46907200D02*
X86733333Y-46954819D01*
X86733333Y-46954819D02*
X86828571Y-46954819D01*
X86828571Y-46954819D02*
X86971428Y-46907200D01*
X86971428Y-46907200D02*
X87066666Y-46811961D01*
X87066666Y-46811961D02*
X87114285Y-46716723D01*
X87114285Y-46716723D02*
X87161904Y-46526247D01*
X87161904Y-46526247D02*
X87161904Y-46383390D01*
X87161904Y-46383390D02*
X87114285Y-46192914D01*
X87114285Y-46192914D02*
X87066666Y-46097676D01*
X87066666Y-46097676D02*
X86971428Y-46002438D01*
X86971428Y-46002438D02*
X86828571Y-45954819D01*
X86828571Y-45954819D02*
X86733333Y-45954819D01*
X86733333Y-45954819D02*
X86590476Y-46002438D01*
X86590476Y-46002438D02*
X86542857Y-46050057D01*
X86161904Y-46050057D02*
X86114285Y-46002438D01*
X86114285Y-46002438D02*
X86019047Y-45954819D01*
X86019047Y-45954819D02*
X85780952Y-45954819D01*
X85780952Y-45954819D02*
X85685714Y-46002438D01*
X85685714Y-46002438D02*
X85638095Y-46050057D01*
X85638095Y-46050057D02*
X85590476Y-46145295D01*
X85590476Y-46145295D02*
X85590476Y-46240533D01*
X85590476Y-46240533D02*
X85638095Y-46383390D01*
X85638095Y-46383390D02*
X86209523Y-46954819D01*
X86209523Y-46954819D02*
X85590476Y-46954819D01*
X84971428Y-45954819D02*
X84876190Y-45954819D01*
X84876190Y-45954819D02*
X84780952Y-46002438D01*
X84780952Y-46002438D02*
X84733333Y-46050057D01*
X84733333Y-46050057D02*
X84685714Y-46145295D01*
X84685714Y-46145295D02*
X84638095Y-46335771D01*
X84638095Y-46335771D02*
X84638095Y-46573866D01*
X84638095Y-46573866D02*
X84685714Y-46764342D01*
X84685714Y-46764342D02*
X84733333Y-46859580D01*
X84733333Y-46859580D02*
X84780952Y-46907200D01*
X84780952Y-46907200D02*
X84876190Y-46954819D01*
X84876190Y-46954819D02*
X84971428Y-46954819D01*
X84971428Y-46954819D02*
X85066666Y-46907200D01*
X85066666Y-46907200D02*
X85114285Y-46859580D01*
X85114285Y-46859580D02*
X85161904Y-46764342D01*
X85161904Y-46764342D02*
X85209523Y-46573866D01*
X85209523Y-46573866D02*
X85209523Y-46335771D01*
X85209523Y-46335771D02*
X85161904Y-46145295D01*
X85161904Y-46145295D02*
X85114285Y-46050057D01*
X85114285Y-46050057D02*
X85066666Y-46002438D01*
X85066666Y-46002438D02*
X84971428Y-45954819D01*
X83142857Y-46859580D02*
X83190476Y-46907200D01*
X83190476Y-46907200D02*
X83333333Y-46954819D01*
X83333333Y-46954819D02*
X83428571Y-46954819D01*
X83428571Y-46954819D02*
X83571428Y-46907200D01*
X83571428Y-46907200D02*
X83666666Y-46811961D01*
X83666666Y-46811961D02*
X83714285Y-46716723D01*
X83714285Y-46716723D02*
X83761904Y-46526247D01*
X83761904Y-46526247D02*
X83761904Y-46383390D01*
X83761904Y-46383390D02*
X83714285Y-46192914D01*
X83714285Y-46192914D02*
X83666666Y-46097676D01*
X83666666Y-46097676D02*
X83571428Y-46002438D01*
X83571428Y-46002438D02*
X83428571Y-45954819D01*
X83428571Y-45954819D02*
X83333333Y-45954819D01*
X83333333Y-45954819D02*
X83190476Y-46002438D01*
X83190476Y-46002438D02*
X83142857Y-46050057D01*
X82190476Y-46954819D02*
X82761904Y-46954819D01*
X82476190Y-46954819D02*
X82476190Y-45954819D01*
X82476190Y-45954819D02*
X82571428Y-46097676D01*
X82571428Y-46097676D02*
X82666666Y-46192914D01*
X82666666Y-46192914D02*
X82761904Y-46240533D01*
X81714285Y-46954819D02*
X81523809Y-46954819D01*
X81523809Y-46954819D02*
X81428571Y-46907200D01*
X81428571Y-46907200D02*
X81380952Y-46859580D01*
X81380952Y-46859580D02*
X81285714Y-46716723D01*
X81285714Y-46716723D02*
X81238095Y-46526247D01*
X81238095Y-46526247D02*
X81238095Y-46145295D01*
X81238095Y-46145295D02*
X81285714Y-46050057D01*
X81285714Y-46050057D02*
X81333333Y-46002438D01*
X81333333Y-46002438D02*
X81428571Y-45954819D01*
X81428571Y-45954819D02*
X81619047Y-45954819D01*
X81619047Y-45954819D02*
X81714285Y-46002438D01*
X81714285Y-46002438D02*
X81761904Y-46050057D01*
X81761904Y-46050057D02*
X81809523Y-46145295D01*
X81809523Y-46145295D02*
X81809523Y-46383390D01*
X81809523Y-46383390D02*
X81761904Y-46478628D01*
X81761904Y-46478628D02*
X81714285Y-46526247D01*
X81714285Y-46526247D02*
X81619047Y-46573866D01*
X81619047Y-46573866D02*
X81428571Y-46573866D01*
X81428571Y-46573866D02*
X81333333Y-46526247D01*
X81333333Y-46526247D02*
X81285714Y-46478628D01*
X81285714Y-46478628D02*
X81238095Y-46383390D01*
X81059580Y-53733333D02*
X81107200Y-53685714D01*
X81107200Y-53685714D02*
X81154819Y-53542857D01*
X81154819Y-53542857D02*
X81154819Y-53447619D01*
X81154819Y-53447619D02*
X81107200Y-53304762D01*
X81107200Y-53304762D02*
X81011961Y-53209524D01*
X81011961Y-53209524D02*
X80916723Y-53161905D01*
X80916723Y-53161905D02*
X80726247Y-53114286D01*
X80726247Y-53114286D02*
X80583390Y-53114286D01*
X80583390Y-53114286D02*
X80392914Y-53161905D01*
X80392914Y-53161905D02*
X80297676Y-53209524D01*
X80297676Y-53209524D02*
X80202438Y-53304762D01*
X80202438Y-53304762D02*
X80154819Y-53447619D01*
X80154819Y-53447619D02*
X80154819Y-53542857D01*
X80154819Y-53542857D02*
X80202438Y-53685714D01*
X80202438Y-53685714D02*
X80250057Y-53733333D01*
X80488152Y-54590476D02*
X81154819Y-54590476D01*
X80107200Y-54352381D02*
X80821485Y-54114286D01*
X80821485Y-54114286D02*
X80821485Y-54733333D01*
D11*
X90660000Y-48888748D02*
X90660000Y-50311252D01*
X87940000Y-48888748D02*
X87940000Y-50311252D01*
X94740000Y-48888748D02*
X94740000Y-50311252D01*
X97460000Y-48888748D02*
X97460000Y-50311252D01*
X91340000Y-48888748D02*
X91340000Y-50311252D01*
X94060000Y-48888748D02*
X94060000Y-50311252D01*
X84540000Y-48888748D02*
X84540000Y-50311252D01*
X87260000Y-48888748D02*
X87260000Y-50311252D01*
X81140000Y-48888748D02*
X81140000Y-50311252D01*
X83860000Y-48888748D02*
X83860000Y-50311252D01*
X81411252Y-55260000D02*
X79988748Y-55260000D01*
X81411252Y-52540000D02*
X79988748Y-52540000D01*
%LPC*%
D12*
X114000000Y-44000000D03*
X114000000Y-85000000D03*
X73000000Y-85000000D03*
X73000000Y-44000000D03*
D13*
X89300000Y-51075000D03*
X89300000Y-48125000D03*
D14*
X84000000Y-70000000D03*
X84000000Y-72500000D03*
X84000000Y-75000000D03*
D15*
X77000000Y-76900000D03*
X77000000Y-68100000D03*
D16*
X82000000Y-44000000D03*
X87000000Y-44000000D03*
X73000000Y-52000000D03*
X73000000Y-57000000D03*
D13*
X96100000Y-48125000D03*
X96100000Y-51075000D03*
X92700000Y-48125000D03*
X92700000Y-51075000D03*
X85900000Y-48125000D03*
X85900000Y-51075000D03*
X82500000Y-48125000D03*
X82500000Y-51075000D03*
D17*
X79225000Y-53900000D03*
X82175000Y-53900000D03*
%LPD*%
M02*
