G04 #@! TF.GenerationSoftware,KiCad,Pcbnew,9.0.2*
G04 #@! TF.CreationDate,2025-10-08T20:36:55-05:00*
G04 #@! TF.ProjectId,cc-led-driver,63632d6c-6564-42d6-9472-697665722e6b,V1.0*
G04 #@! TF.SameCoordinates,Original*
G04 #@! TF.FileFunction,Copper,L1,Top*
G04 #@! TF.FilePolarity,Positive*
%FSLAX46Y46*%
G04 Gerber Fmt 4.6, Leading zero omitted, Abs format (unit mm)*
G04 Created by KiCad (PCBNEW 9.0.2) date 2025-10-08 20:36:55*
%MOMM*%
%LPD*%
G01*
G04 APERTURE LIST*
G04 Aperture macros list*
%AMRoundRect*
0 Rectangle with rounded corners*
0 $1 Rounding radius*
0 $2 $3 $4 $5 $6 $7 $8 $9 X,Y pos of 4 corners*
0 Add a 4 corners polygon primitive as box body*
4,1,4,$2,$3,$4,$5,$6,$7,$8,$9,$2,$3,0*
0 Add four circle primitives for the rounded corners*
1,1,$1+$1,$2,$3*
1,1,$1+$1,$4,$5*
1,1,$1+$1,$6,$7*
1,1,$1+$1,$8,$9*
0 Add four rect primitives between the rounded corners*
20,1,$1+$1,$2,$3,$4,$5,0*
20,1,$1+$1,$4,$5,$6,$7,0*
20,1,$1+$1,$6,$7,$8,$9,0*
20,1,$1+$1,$8,$9,$2,$3,0*%
G04 Aperture macros list end*
G04 #@! TA.AperFunction,ComponentPad*
%ADD10C,3.800000*%
G04 #@! TD*
G04 #@! TA.AperFunction,SMDPad,CuDef*
%ADD11R,1.550000X0.600000*%
G04 #@! TD*
G04 #@! TA.AperFunction,ComponentPad*
%ADD12C,0.600000*%
G04 #@! TD*
G04 #@! TA.AperFunction,SMDPad,CuDef*
%ADD13R,2.950000X4.900000*%
G04 #@! TD*
G04 #@! TA.AperFunction,SMDPad,CuDef*
%ADD14RoundRect,0.150000X-0.150000X0.825000X-0.150000X-0.825000X0.150000X-0.825000X0.150000X0.825000X0*%
G04 #@! TD*
G04 #@! TA.AperFunction,SMDPad,CuDef*
%ADD15RoundRect,0.150000X-0.150000X0.587500X-0.150000X-0.587500X0.150000X-0.587500X0.150000X0.587500X0*%
G04 #@! TD*
G04 #@! TA.AperFunction,ComponentPad*
%ADD16C,1.800000*%
G04 #@! TD*
G04 #@! TA.AperFunction,ComponentPad*
%ADD17C,4.400000*%
G04 #@! TD*
G04 #@! TA.AperFunction,SMDPad,CuDef*
%ADD18RoundRect,0.250000X-0.625000X0.312500X-0.625000X-0.312500X0.625000X-0.312500X0.625000X0.312500X0*%
G04 #@! TD*
G04 #@! TA.AperFunction,SMDPad,CuDef*
%ADD19RoundRect,0.200000X-0.200000X-0.275000X0.200000X-0.275000X0.200000X0.275000X-0.200000X0.275000X0*%
G04 #@! TD*
G04 #@! TA.AperFunction,SMDPad,CuDef*
%ADD20RoundRect,0.200000X0.275000X-0.200000X0.275000X0.200000X-0.275000X0.200000X-0.275000X-0.200000X0*%
G04 #@! TD*
G04 #@! TA.AperFunction,SMDPad,CuDef*
%ADD21RoundRect,0.200000X0.200000X0.275000X-0.200000X0.275000X-0.200000X-0.275000X0.200000X-0.275000X0*%
G04 #@! TD*
G04 #@! TA.AperFunction,SMDPad,CuDef*
%ADD22RoundRect,0.200000X-0.275000X0.200000X-0.275000X-0.200000X0.275000X-0.200000X0.275000X0.200000X0*%
G04 #@! TD*
G04 #@! TA.AperFunction,SMDPad,CuDef*
%ADD23RoundRect,0.150000X-0.587500X-0.150000X0.587500X-0.150000X0.587500X0.150000X-0.587500X0.150000X0*%
G04 #@! TD*
G04 #@! TA.AperFunction,SMDPad,CuDef*
%ADD24R,4.950000X3.175000*%
G04 #@! TD*
G04 #@! TA.AperFunction,ComponentPad*
%ADD25C,2.200000*%
G04 #@! TD*
G04 #@! TA.AperFunction,SMDPad,CuDef*
%ADD26RoundRect,0.218750X-0.218750X-0.381250X0.218750X-0.381250X0.218750X0.381250X-0.218750X0.381250X0*%
G04 #@! TD*
G04 #@! TA.AperFunction,SMDPad,CuDef*
%ADD27RoundRect,0.250000X-0.375000X-0.625000X0.375000X-0.625000X0.375000X0.625000X-0.375000X0.625000X0*%
G04 #@! TD*
G04 #@! TA.AperFunction,SMDPad,CuDef*
%ADD28RoundRect,0.150000X0.150000X-0.587500X0.150000X0.587500X-0.150000X0.587500X-0.150000X-0.587500X0*%
G04 #@! TD*
G04 #@! TA.AperFunction,SMDPad,CuDef*
%ADD29RoundRect,0.225000X-0.250000X0.225000X-0.250000X-0.225000X0.250000X-0.225000X0.250000X0.225000X0*%
G04 #@! TD*
G04 #@! TA.AperFunction,SMDPad,CuDef*
%ADD30RoundRect,0.250000X-1.100000X0.325000X-1.100000X-0.325000X1.100000X-0.325000X1.100000X0.325000X0*%
G04 #@! TD*
G04 #@! TA.AperFunction,SMDPad,CuDef*
%ADD31RoundRect,0.225000X-0.225000X-0.250000X0.225000X-0.250000X0.225000X0.250000X-0.225000X0.250000X0*%
G04 #@! TD*
G04 #@! TA.AperFunction,SMDPad,CuDef*
%ADD32RoundRect,0.225000X0.250000X-0.225000X0.250000X0.225000X-0.250000X0.225000X-0.250000X-0.225000X0*%
G04 #@! TD*
G04 #@! TA.AperFunction,SMDPad,CuDef*
%ADD33RoundRect,0.250000X0.325000X1.100000X-0.325000X1.100000X-0.325000X-1.100000X0.325000X-1.100000X0*%
G04 #@! TD*
G04 #@! TA.AperFunction,ViaPad*
%ADD34C,0.600000*%
G04 #@! TD*
G04 #@! TA.AperFunction,Conductor*
%ADD35C,1.000000*%
G04 #@! TD*
G04 #@! TA.AperFunction,Conductor*
%ADD36C,0.500000*%
G04 #@! TD*
G04 #@! TA.AperFunction,Conductor*
%ADD37C,0.200000*%
G04 #@! TD*
G04 #@! TA.AperFunction,Conductor*
%ADD38C,2.540000*%
G04 #@! TD*
G04 #@! TA.AperFunction,Conductor*
%ADD39C,2.000000*%
G04 #@! TD*
G04 #@! TA.AperFunction,Conductor*
%ADD40C,0.300000*%
G04 #@! TD*
G04 #@! TA.AperFunction,Conductor*
%ADD41C,0.750000*%
G04 #@! TD*
G04 #@! TA.AperFunction,Conductor*
%ADD42C,1.200000*%
G04 #@! TD*
G04 APERTURE END LIST*
D10*
X114000000Y-44000000D03*
X114000000Y-85000000D03*
X73000000Y-85000000D03*
X73000000Y-44000000D03*
D11*
X89600000Y-53195000D03*
X89600000Y-54465000D03*
X89600000Y-55735000D03*
X89600000Y-57005000D03*
X95000000Y-57005000D03*
X95000000Y-55735000D03*
X95000000Y-54465000D03*
X95000000Y-53195000D03*
D12*
X91650000Y-53150000D03*
X91650000Y-54450000D03*
X91650000Y-55750000D03*
X91650000Y-57050000D03*
D13*
X92300000Y-55100000D03*
D12*
X92950000Y-53150000D03*
X92950000Y-54450000D03*
X92950000Y-55750000D03*
X92950000Y-57050000D03*
D14*
X99840000Y-80455000D03*
X98570000Y-80455000D03*
X97300000Y-80455000D03*
X96030000Y-80455000D03*
X96030000Y-75505000D03*
X97300000Y-75505000D03*
X98570000Y-75505000D03*
X99840000Y-75505000D03*
D15*
X84150000Y-62362500D03*
X82250000Y-62362500D03*
X83200000Y-64237500D03*
D16*
X84000000Y-70000000D03*
X84000000Y-72500000D03*
X84000000Y-75000000D03*
D17*
X77000000Y-76900000D03*
X77000000Y-68100000D03*
D18*
X79000000Y-45537500D03*
X79000000Y-48462500D03*
D19*
X94075000Y-64200000D03*
X95725000Y-64200000D03*
D20*
X101975000Y-73220000D03*
X101975000Y-71570000D03*
X91400000Y-61625000D03*
X91400000Y-59975000D03*
D19*
X98650000Y-71495000D03*
X100300000Y-71495000D03*
D21*
X94825000Y-59000000D03*
X93175000Y-59000000D03*
D19*
X93175000Y-60700000D03*
X94825000Y-60700000D03*
X95350000Y-71495000D03*
X97000000Y-71495000D03*
D22*
X102700000Y-84225000D03*
X102700000Y-82575000D03*
D21*
X91325000Y-77700000D03*
X89675000Y-77700000D03*
D19*
X89675000Y-71500000D03*
X91325000Y-71500000D03*
D20*
X84100000Y-54625000D03*
X84100000Y-52975000D03*
D22*
X86400000Y-73175000D03*
X86400000Y-74825000D03*
X86400000Y-76475000D03*
X86400000Y-78125000D03*
X86400000Y-69875000D03*
X86400000Y-71525000D03*
D20*
X91300000Y-79975000D03*
X91300000Y-81625000D03*
D19*
X89525000Y-81600000D03*
X87875000Y-81600000D03*
D20*
X77200000Y-54825000D03*
X77200000Y-53175000D03*
D22*
X84200000Y-58575000D03*
X84200000Y-60225000D03*
D23*
X91162500Y-64850000D03*
X91162500Y-66750000D03*
X93037500Y-65800000D03*
X89962500Y-73950000D03*
X89962500Y-75850000D03*
X91837500Y-74900000D03*
D24*
X103700000Y-46292500D03*
X103700000Y-55307500D03*
D25*
X82000000Y-44000000D03*
X87000000Y-44000000D03*
X73000000Y-52000000D03*
X73000000Y-57000000D03*
D26*
X82037500Y-56700000D03*
X84162500Y-56700000D03*
D27*
X77300000Y-57000000D03*
X80100000Y-57000000D03*
D28*
X99900000Y-83062500D03*
X100850000Y-84937500D03*
X98950000Y-84937500D03*
D29*
X76800000Y-47025000D03*
X76800000Y-48575000D03*
D30*
X96100000Y-48125000D03*
X96100000Y-51075000D03*
X92700000Y-48125000D03*
X92700000Y-51075000D03*
X89300000Y-48125000D03*
X89300000Y-51075000D03*
X85900000Y-48125000D03*
X85900000Y-51075000D03*
X82500000Y-48125000D03*
X82500000Y-51075000D03*
D31*
X93225000Y-62400000D03*
X94775000Y-62400000D03*
D32*
X101675000Y-80445000D03*
X101675000Y-78895000D03*
D31*
X98700000Y-73255000D03*
X100250000Y-73255000D03*
D32*
X97000000Y-54575000D03*
X97000000Y-53025000D03*
D29*
X97000000Y-56225000D03*
X97000000Y-57775000D03*
X104500000Y-84175000D03*
X104500000Y-82625000D03*
D32*
X85800000Y-54600000D03*
X85800000Y-53050000D03*
D29*
X93100000Y-76525000D03*
X93100000Y-78075000D03*
D32*
X87500000Y-54600000D03*
X87500000Y-53050000D03*
D33*
X82175000Y-53900000D03*
X79225000Y-53900000D03*
D32*
X93100000Y-80025000D03*
X93100000Y-81575000D03*
D31*
X77225000Y-51200000D03*
X78775000Y-51200000D03*
D34*
X77650000Y-46350000D03*
X97000000Y-60200000D03*
X89900000Y-59500000D03*
X90400000Y-58500000D03*
X89000000Y-58500000D03*
X89000000Y-61000000D03*
X87100000Y-56800000D03*
X86100000Y-55800000D03*
X86800000Y-58700000D03*
X85500000Y-57400000D03*
X85600000Y-62600000D03*
X85600000Y-64900000D03*
X95300000Y-50000000D03*
X96900000Y-50000000D03*
X96100000Y-50000000D03*
X92700000Y-50000000D03*
X93500000Y-50000000D03*
X91900000Y-50000000D03*
X88500000Y-50000000D03*
X90100000Y-50000000D03*
X89300000Y-50000000D03*
X85900000Y-50000000D03*
X86700000Y-50000000D03*
X85100000Y-50000000D03*
X82500000Y-50000000D03*
X83300000Y-50000000D03*
X81700000Y-50000000D03*
X99100000Y-78700000D03*
X94300000Y-72400000D03*
X97600000Y-66600000D03*
X94900000Y-66600000D03*
X88700000Y-65400000D03*
X89000000Y-62700000D03*
X74600000Y-53000000D03*
X74600000Y-52000000D03*
X74600000Y-51000000D03*
X104500000Y-81800000D03*
X93700000Y-70500000D03*
X92800000Y-71600000D03*
X88150000Y-70650000D03*
X95300000Y-70500000D03*
X87800000Y-80900000D03*
X104500000Y-85300000D03*
X102700000Y-85300000D03*
X91300000Y-79000000D03*
X76800000Y-49500000D03*
X79500000Y-47500000D03*
X78500000Y-47500000D03*
X79500000Y-49400000D03*
X78500000Y-49400000D03*
X79500000Y-48500000D03*
X78500000Y-48500000D03*
X95275000Y-75695000D03*
X95275000Y-74895000D03*
X93100000Y-79000000D03*
X102575000Y-80470000D03*
X102575000Y-78895000D03*
X88600000Y-77700000D03*
X86450000Y-79200000D03*
X82250000Y-62362500D03*
X93175000Y-58000000D03*
X93175000Y-60700000D03*
X82100000Y-54700000D03*
X82100000Y-53100000D03*
X82100000Y-53900000D03*
X78800000Y-51200000D03*
X79200000Y-53900000D03*
X79200000Y-53100000D03*
X79200000Y-54700000D03*
X87500000Y-52200000D03*
X85800000Y-52200000D03*
X96900000Y-48125000D03*
X95300000Y-48125000D03*
X96100000Y-48125000D03*
X93500000Y-48125000D03*
X92700000Y-48125000D03*
X91900000Y-48125000D03*
X90100000Y-48125000D03*
X88500000Y-48125000D03*
X89300000Y-48125000D03*
X85100000Y-48125000D03*
X86700000Y-48125000D03*
X85900000Y-48125000D03*
X83300000Y-48125000D03*
X81700000Y-48125000D03*
X82500000Y-48125000D03*
X96100000Y-51100000D03*
X96900000Y-51100000D03*
X95300000Y-51100000D03*
X92700000Y-51100000D03*
X91900000Y-51100000D03*
X93500000Y-51100000D03*
X89300000Y-51100000D03*
X88500000Y-51100000D03*
X90100000Y-51100000D03*
X85900000Y-51100000D03*
X86700000Y-51100000D03*
X85100000Y-51100000D03*
X82500000Y-51100000D03*
X83300000Y-51100000D03*
X81700000Y-51100000D03*
X97000000Y-58900000D03*
X79000000Y-70400000D03*
X114720000Y-57631750D03*
X112180000Y-80491750D03*
X112180000Y-57631750D03*
X112180000Y-60171750D03*
X114720000Y-60171750D03*
X114720000Y-55091750D03*
X114720000Y-77951750D03*
X112180000Y-77951750D03*
X114720000Y-80491750D03*
X114720000Y-50011750D03*
X112180000Y-50011750D03*
X112180000Y-55091750D03*
X112180000Y-52551750D03*
X109640000Y-85571750D03*
X109640000Y-72871750D03*
X109640000Y-62711750D03*
X109640000Y-47471750D03*
X107100000Y-85571750D03*
X107100000Y-75411750D03*
X99480000Y-62711750D03*
X99480000Y-60171750D03*
X104560000Y-75411750D03*
X104560000Y-72871750D03*
X102020000Y-60171750D03*
X104560000Y-62711750D03*
X96940000Y-85571750D03*
X94400000Y-80491750D03*
X109640000Y-70331750D03*
X102020000Y-70331750D03*
X109640000Y-80491750D03*
X109640000Y-52551750D03*
X109640000Y-65251750D03*
X109640000Y-77951750D03*
X104560000Y-67791750D03*
X102020000Y-67791750D03*
X109640000Y-50011750D03*
X107100000Y-70331750D03*
X109640000Y-60171750D03*
X102020000Y-62711750D03*
X96940000Y-62711750D03*
X94400000Y-44931750D03*
X109640000Y-44931750D03*
X91860000Y-44931750D03*
X107100000Y-67791750D03*
X104560000Y-65251750D03*
X104560000Y-60171750D03*
X102020000Y-75411750D03*
X96940000Y-44931750D03*
X109640000Y-57631750D03*
X107100000Y-80491750D03*
X102020000Y-65251750D03*
X89320000Y-85571750D03*
X112180000Y-47471750D03*
X107100000Y-77951750D03*
X89320000Y-83031750D03*
X107100000Y-83031750D03*
X114720000Y-47471750D03*
X107100000Y-72871750D03*
X89320000Y-44931750D03*
X84240000Y-44931750D03*
X107100000Y-65251750D03*
X86780000Y-83031750D03*
X104560000Y-77951750D03*
X84240000Y-85571750D03*
X84240000Y-83031750D03*
X84240000Y-80491750D03*
X81700000Y-85571750D03*
X76620000Y-60171750D03*
X74080000Y-72871750D03*
X81700000Y-80491750D03*
X81700000Y-77951750D03*
X81700000Y-72871750D03*
X81700000Y-70331750D03*
X79160000Y-80491750D03*
X79160000Y-72871750D03*
X74080000Y-80491750D03*
X79160000Y-60171750D03*
X74080000Y-75411750D03*
X102020000Y-50011750D03*
X81700000Y-75411750D03*
X104560000Y-70331750D03*
X91860000Y-85571750D03*
X79160000Y-65251750D03*
X99480000Y-50011750D03*
X76620000Y-85571750D03*
X94400000Y-85571750D03*
X74080000Y-47471750D03*
X109640000Y-55091750D03*
X114720000Y-52551750D03*
X76620000Y-80491750D03*
X104560000Y-50011750D03*
X81700000Y-60171750D03*
X107100000Y-50011750D03*
X79160000Y-85571750D03*
X107100000Y-60171750D03*
X76620000Y-83031750D03*
X109640000Y-83031750D03*
X74080000Y-65251750D03*
X91860000Y-83031750D03*
X74080000Y-60171750D03*
X107100000Y-62711750D03*
X109640000Y-75411750D03*
X76620000Y-62711750D03*
X79160000Y-62711750D03*
X79160000Y-83031750D03*
X99480000Y-57631750D03*
X81700000Y-83031750D03*
X74080000Y-70331750D03*
X109640000Y-67791750D03*
X74080000Y-62711750D03*
X86780000Y-85571750D03*
X76620000Y-72871750D03*
X84240000Y-77951750D03*
D35*
X77650000Y-46350000D02*
X78462500Y-45537500D01*
D36*
X104500000Y-81800000D02*
X104500000Y-82625000D01*
D37*
X90100000Y-69000000D02*
X92200000Y-69000000D01*
X92200000Y-69000000D02*
X93700000Y-70500000D01*
X87800000Y-66700000D02*
X90100000Y-69000000D01*
X87800000Y-56100000D02*
X87800000Y-66700000D01*
X89535000Y-55800000D02*
X88100000Y-55800000D01*
X88100000Y-55800000D02*
X87800000Y-56100000D01*
X89600000Y-55735000D02*
X89535000Y-55800000D01*
D36*
X92800000Y-70700000D02*
X92800000Y-71600000D01*
X89800000Y-69900000D02*
X92000000Y-69900000D01*
X86500000Y-66600000D02*
X89800000Y-69900000D01*
X92000000Y-69900000D02*
X92800000Y-70700000D01*
X85175000Y-58575000D02*
X86500000Y-59900000D01*
X84200000Y-58575000D02*
X85175000Y-58575000D01*
X86500000Y-59900000D02*
X86500000Y-66600000D01*
X74600000Y-53000000D02*
X74000000Y-53000000D01*
X74000000Y-53000000D02*
X73000000Y-52000000D01*
X74600000Y-52000000D02*
X73000000Y-52000000D01*
X74000000Y-51000000D02*
X73000000Y-52000000D01*
X74600000Y-51000000D02*
X74000000Y-51000000D01*
X84200000Y-62312500D02*
X84150000Y-62362500D01*
X84200000Y-60225000D02*
X84200000Y-62312500D01*
X84162500Y-58537500D02*
X84200000Y-58575000D01*
X84162500Y-56700000D02*
X84162500Y-58537500D01*
X100300000Y-67300000D02*
X100300000Y-71495000D01*
X97200000Y-64200000D02*
X100300000Y-67300000D01*
X95725000Y-64200000D02*
X97200000Y-64200000D01*
X95350000Y-71495000D02*
X95300000Y-71445000D01*
X95300000Y-71445000D02*
X95300000Y-70500000D01*
X94300000Y-73500000D02*
X94000000Y-73800000D01*
X86400000Y-74825000D02*
X86400000Y-76475000D01*
X88850000Y-73950000D02*
X89962500Y-73950000D01*
X88500000Y-73600000D02*
X88850000Y-73950000D01*
X86825000Y-73600000D02*
X88500000Y-73600000D01*
X86400000Y-73175000D02*
X86825000Y-73600000D01*
X85175000Y-73175000D02*
X84800000Y-72800000D01*
X84800000Y-72800000D02*
X84300000Y-72800000D01*
X84300000Y-72800000D02*
X84000000Y-72500000D01*
X86400000Y-73175000D02*
X85175000Y-73175000D01*
X102700000Y-85300000D02*
X102700000Y-84225000D01*
X104500000Y-85300000D02*
X104500000Y-84175000D01*
X102750000Y-84175000D02*
X102700000Y-84225000D01*
X104500000Y-84175000D02*
X102750000Y-84175000D01*
X104450000Y-82575000D02*
X104500000Y-82625000D01*
X102700000Y-82575000D02*
X104450000Y-82575000D01*
X101625000Y-82575000D02*
X102700000Y-82575000D01*
X100850000Y-83350000D02*
X101625000Y-82575000D01*
X100850000Y-84937500D02*
X100850000Y-83350000D01*
X98570000Y-84557500D02*
X98570000Y-80455000D01*
X98950000Y-84937500D02*
X98570000Y-84557500D01*
X97300000Y-82000000D02*
X97300000Y-80455000D01*
X95000000Y-82500000D02*
X96800000Y-82500000D01*
X94075000Y-81575000D02*
X95000000Y-82500000D01*
X96800000Y-82500000D02*
X97300000Y-82000000D01*
X93100000Y-81575000D02*
X94075000Y-81575000D01*
X87800000Y-81525000D02*
X87875000Y-81600000D01*
X87800000Y-80900000D02*
X87800000Y-81525000D01*
X88150000Y-70650000D02*
X87375000Y-69875000D01*
X89550000Y-81625000D02*
X89525000Y-81600000D01*
X91300000Y-81625000D02*
X89550000Y-81625000D01*
X91350000Y-81575000D02*
X91300000Y-81625000D01*
X93100000Y-81575000D02*
X91350000Y-81575000D01*
X91300000Y-79975000D02*
X91300000Y-79000000D01*
X93100000Y-80025000D02*
X93100000Y-79000000D01*
X93100000Y-75800000D02*
X93100000Y-76525000D01*
X94000000Y-73800000D02*
X94000000Y-74900000D01*
X96600000Y-73100000D02*
X94700000Y-73100000D01*
X97300000Y-75505000D02*
X97300000Y-73800000D01*
X97300000Y-73800000D02*
X96600000Y-73100000D01*
X94700000Y-73100000D02*
X94300000Y-73500000D01*
X94000000Y-74900000D02*
X93100000Y-75800000D01*
X96030000Y-78230000D02*
X96030000Y-80455000D01*
X93275000Y-76700000D02*
X94500000Y-76700000D01*
X94500000Y-76700000D02*
X96030000Y-78230000D01*
X93100000Y-76525000D02*
X93275000Y-76700000D01*
X100575000Y-77795000D02*
X101675000Y-78895000D01*
X97345001Y-77795000D02*
X100575000Y-77795000D01*
X96030000Y-76479999D02*
X97345001Y-77795000D01*
X96030000Y-75505000D02*
X96030000Y-76479999D01*
X98650000Y-71495000D02*
X97000000Y-71495000D01*
X101900000Y-71495000D02*
X101975000Y-71570000D01*
X100300000Y-71495000D02*
X101900000Y-71495000D01*
X101940000Y-73255000D02*
X101975000Y-73220000D01*
X100250000Y-73255000D02*
X101940000Y-73255000D01*
X100250000Y-73987500D02*
X100250000Y-73255000D01*
X99840000Y-74397500D02*
X100250000Y-73987500D01*
X99840000Y-75505000D02*
X99840000Y-74397500D01*
X98570000Y-73385000D02*
X98700000Y-73255000D01*
X98570000Y-75505000D02*
X98570000Y-73385000D01*
X98700000Y-73255000D02*
X98700000Y-71545000D01*
X98700000Y-71545000D02*
X98650000Y-71495000D01*
D38*
X73000000Y-57000000D02*
X76800000Y-57000000D01*
D39*
X87000000Y-44000000D02*
X87000000Y-47500000D01*
X80700000Y-44000000D02*
X82000000Y-44000000D01*
X79162500Y-45537500D02*
X80700000Y-44000000D01*
X79000000Y-45537500D02*
X79162500Y-45537500D01*
D35*
X77400000Y-46600000D02*
X77650000Y-46350000D01*
D36*
X76800000Y-49500000D02*
X76800000Y-48575000D01*
D35*
X78462500Y-45537500D02*
X79000000Y-45537500D01*
X76975000Y-47025000D02*
X77400000Y-46600000D01*
X76800000Y-47025000D02*
X76975000Y-47025000D01*
X78887500Y-48575000D02*
X79000000Y-48462500D01*
X76800000Y-48575000D02*
X78887500Y-48575000D01*
D36*
X78500000Y-49400000D02*
X78500000Y-48500000D01*
X78500000Y-47500000D02*
X78500000Y-48500000D01*
X79500000Y-47500000D02*
X79500000Y-48500000D01*
X79500000Y-49400000D02*
X79500000Y-48500000D01*
X95275000Y-75695000D02*
X95975000Y-75695000D01*
X95275000Y-74895000D02*
X95975000Y-74895000D01*
X84150000Y-67050000D02*
X86400000Y-69300000D01*
X86400000Y-69300000D02*
X86400000Y-69875000D01*
X84150000Y-62362500D02*
X84150000Y-67050000D01*
X91837500Y-73037500D02*
X91837500Y-74900000D01*
X91325000Y-72525000D02*
X91837500Y-73037500D01*
X91325000Y-71500000D02*
X91325000Y-72525000D01*
X91275000Y-76875000D02*
X91000000Y-76600000D01*
X91325000Y-76875000D02*
X91275000Y-76875000D01*
X91325000Y-76875000D02*
X91700000Y-76500000D01*
X91325000Y-76900000D02*
X91325000Y-76575000D01*
X91325000Y-76900000D02*
X91325000Y-76875000D01*
X91400000Y-76500000D02*
X93075000Y-76500000D01*
X91325000Y-77700000D02*
X91325000Y-76900000D01*
X91325000Y-76575000D02*
X91400000Y-76500000D01*
X93075000Y-76500000D02*
X93100000Y-76525000D01*
X90612500Y-76500000D02*
X91400000Y-76500000D01*
X89962500Y-75850000D02*
X90612500Y-76500000D01*
X93100000Y-79000000D02*
X93100000Y-78075000D01*
X86450000Y-78175000D02*
X86400000Y-78125000D01*
X86450000Y-79200000D02*
X86450000Y-78175000D01*
X88600000Y-77700000D02*
X89675000Y-77700000D01*
X87375000Y-69875000D02*
X86400000Y-69875000D01*
X89000000Y-71500000D02*
X88150000Y-70650000D01*
X89675000Y-71500000D02*
X89000000Y-71500000D01*
X101675000Y-78895000D02*
X102575000Y-78895000D01*
X102550000Y-80445000D02*
X102575000Y-80470000D01*
X101675000Y-80445000D02*
X102550000Y-80445000D01*
X101665000Y-80455000D02*
X101675000Y-80445000D01*
X99840000Y-80455000D02*
X101665000Y-80455000D01*
X84000000Y-72500000D02*
X84000000Y-72700000D01*
X84200000Y-69800000D02*
X84000000Y-70000000D01*
X85525000Y-71525000D02*
X84200000Y-70200000D01*
X84200000Y-70200000D02*
X84200000Y-69800000D01*
X86400000Y-71525000D02*
X85525000Y-71525000D01*
X85375000Y-76475000D02*
X86400000Y-76475000D01*
X84000000Y-75100000D02*
X85375000Y-76475000D01*
X84000000Y-75000000D02*
X84000000Y-75100000D01*
X89600000Y-64100000D02*
X91400000Y-62300000D01*
X89600000Y-66000000D02*
X89600000Y-64100000D01*
X90350000Y-66750000D02*
X89600000Y-66000000D01*
X91162500Y-66750000D02*
X90350000Y-66750000D01*
X91400000Y-62300000D02*
X91400000Y-61625000D01*
X92700000Y-64200000D02*
X94075000Y-64200000D01*
X92050000Y-64850000D02*
X92700000Y-64200000D01*
X91162500Y-64850000D02*
X92050000Y-64850000D01*
D40*
X94300000Y-65800000D02*
X93037500Y-65800000D01*
X94826000Y-65274000D02*
X94300000Y-65800000D01*
X94826000Y-62451000D02*
X94826000Y-65274000D01*
X94775000Y-62400000D02*
X94826000Y-62451000D01*
D41*
X91400000Y-57300000D02*
X91650000Y-57050000D01*
X91400000Y-59975000D02*
X91400000Y-57300000D01*
X93175000Y-58000000D02*
X93175000Y-55975000D01*
X93225000Y-60750000D02*
X93175000Y-60700000D01*
X93225000Y-62400000D02*
X93225000Y-60750000D01*
X94825000Y-62350000D02*
X94775000Y-62400000D01*
X94825000Y-60700000D02*
X94825000Y-62350000D01*
X93175000Y-59000000D02*
X93175000Y-58000000D01*
X93175000Y-55975000D02*
X92300000Y-55100000D01*
X94825000Y-60750000D02*
X94775000Y-60800000D01*
X94825000Y-59000000D02*
X94825000Y-60750000D01*
X94825000Y-59000000D02*
X94825000Y-57180000D01*
D35*
X82100000Y-54000000D02*
X82100000Y-54700000D01*
X79200000Y-51500000D02*
X78900000Y-51200000D01*
X79200000Y-53100000D02*
X79200000Y-51500000D01*
X78775000Y-51200000D02*
X83700000Y-51200000D01*
X77200000Y-53175000D02*
X77200000Y-51200000D01*
X77200000Y-54825000D02*
X77200000Y-57300000D01*
D42*
X80800000Y-56700000D02*
X81200000Y-56700000D01*
X80100000Y-57400000D02*
X80800000Y-56700000D01*
X80100000Y-57000000D02*
X80100000Y-57400000D01*
X80400000Y-56700000D02*
X80100000Y-57000000D01*
X82037500Y-56700000D02*
X80400000Y-56700000D01*
D35*
X85400000Y-54600000D02*
X85800000Y-54600000D01*
X84200000Y-55800000D02*
X85400000Y-54600000D01*
X84162500Y-55800000D02*
X84200000Y-55800000D01*
X84162500Y-56700000D02*
X84162500Y-55800000D01*
X84162500Y-54662500D02*
X84100000Y-54600000D01*
X84162500Y-55800000D02*
X84162500Y-54662500D01*
X87475000Y-54625000D02*
X87500000Y-54600000D01*
X84100000Y-54625000D02*
X87475000Y-54625000D01*
X83075000Y-53000000D02*
X83500000Y-53000000D01*
X82175000Y-53900000D02*
X83075000Y-53000000D01*
X82100000Y-53100000D02*
X82100000Y-54000000D01*
X82225000Y-52975000D02*
X82100000Y-53100000D01*
X84100000Y-52975000D02*
X82225000Y-52975000D01*
D41*
X87375000Y-54625000D02*
X87400000Y-54600000D01*
X82025000Y-52975000D02*
X82000000Y-53000000D01*
X101587500Y-53195000D02*
X103700000Y-55307500D01*
X95900000Y-53195000D02*
X101587500Y-53195000D01*
X95900000Y-53195000D02*
X96830000Y-53195000D01*
X96830000Y-53195000D02*
X97000000Y-53025000D01*
X94505000Y-53195000D02*
X95900000Y-53195000D01*
X94500000Y-53200000D02*
X94505000Y-53195000D01*
X85945000Y-53195000D02*
X85800000Y-53050000D01*
X90100000Y-53195000D02*
X85945000Y-53195000D01*
X87635000Y-54465000D02*
X87500000Y-54600000D01*
X90100000Y-54465000D02*
X87635000Y-54465000D01*
D35*
X85800000Y-54600000D02*
X87500000Y-54600000D01*
X87500000Y-52600000D02*
X85900000Y-51000000D01*
X87500000Y-53050000D02*
X87500000Y-52600000D01*
X87500000Y-51200000D02*
X87500000Y-51075000D01*
X85800000Y-53050000D02*
X85800000Y-52900000D01*
X85800000Y-52900000D02*
X87500000Y-51200000D01*
X87500000Y-53050000D02*
X87500000Y-51075000D01*
D42*
X87500000Y-51075000D02*
X89300000Y-51075000D01*
D35*
X85800000Y-51200000D02*
X85900000Y-51100000D01*
X85800000Y-53050000D02*
X85800000Y-51200000D01*
X85800000Y-53050000D02*
X87500000Y-53050000D01*
D42*
X81700000Y-48125000D02*
X96900000Y-48125000D01*
X81725000Y-51075000D02*
X81700000Y-51100000D01*
X82500000Y-51075000D02*
X81725000Y-51075000D01*
X92700000Y-51075000D02*
X96100000Y-51075000D01*
X89300000Y-51075000D02*
X92700000Y-51075000D01*
X85900000Y-51075000D02*
X87500000Y-51075000D01*
X82500000Y-51075000D02*
X85900000Y-51075000D01*
D41*
X96300000Y-55900000D02*
X96135000Y-55735000D01*
X96135000Y-55735000D02*
X95000000Y-55735000D01*
X96300000Y-56035000D02*
X96300000Y-55900000D01*
X96490000Y-56225000D02*
X96300000Y-56035000D01*
X97000000Y-56225000D02*
X96490000Y-56225000D01*
X95000000Y-54465000D02*
X94500000Y-54465000D01*
X95200000Y-54465000D02*
X96890000Y-54465000D01*
X97075000Y-54500000D02*
X97100000Y-54500000D01*
X97000000Y-54575000D02*
X97075000Y-54500000D01*
X96890000Y-54465000D02*
X97000000Y-54575000D01*
X95000000Y-54465000D02*
X95200000Y-54465000D01*
X97000000Y-58900000D02*
X97000000Y-57775000D01*
X87525000Y-53025000D02*
X87500000Y-53050000D01*
G04 #@! TA.AperFunction,Conductor*
G36*
X105606061Y-52300597D02*
G01*
X105782941Y-52318018D01*
X105806769Y-52322757D01*
X105971001Y-52372576D01*
X105993453Y-52381877D01*
X106144798Y-52462772D01*
X106165008Y-52476276D01*
X106270947Y-52563217D01*
X106297666Y-52585145D01*
X106314854Y-52602333D01*
X106423722Y-52734989D01*
X106437227Y-52755201D01*
X106518121Y-52906543D01*
X106527424Y-52929001D01*
X106577240Y-53093224D01*
X106581982Y-53117065D01*
X106599403Y-53293938D01*
X106600000Y-53306092D01*
X106600000Y-56193907D01*
X106599403Y-56206061D01*
X106581982Y-56382934D01*
X106577240Y-56406775D01*
X106527424Y-56570998D01*
X106518121Y-56593456D01*
X106437227Y-56744798D01*
X106423722Y-56765010D01*
X106314854Y-56897666D01*
X106297666Y-56914854D01*
X106165010Y-57023722D01*
X106144798Y-57037227D01*
X105993456Y-57118121D01*
X105970998Y-57127424D01*
X105806775Y-57177240D01*
X105782934Y-57181982D01*
X105606061Y-57199403D01*
X105593907Y-57200000D01*
X101517172Y-57200000D01*
X101505468Y-57199446D01*
X101488314Y-57197819D01*
X101335078Y-57183290D01*
X101312087Y-57178891D01*
X101153419Y-57132648D01*
X101131666Y-57124007D01*
X100984516Y-57048767D01*
X100964774Y-57036191D01*
X100834389Y-56934639D01*
X100817362Y-56918577D01*
X100799021Y-56897666D01*
X100704495Y-56789895D01*
X100697201Y-56780741D01*
X100679022Y-56755570D01*
X98400000Y-53600000D01*
X97041228Y-53600000D01*
X97017036Y-53597617D01*
X96976231Y-53589500D01*
X96976229Y-53589500D01*
X96343461Y-53589500D01*
X96324063Y-53587973D01*
X96314688Y-53586488D01*
X96295791Y-53583495D01*
X96258895Y-53571507D01*
X96182383Y-53532522D01*
X96150997Y-53509718D01*
X96090281Y-53449002D01*
X96067477Y-53417616D01*
X96028492Y-53341104D01*
X96016504Y-53304206D01*
X96002693Y-53217005D01*
X96002040Y-53182909D01*
X96020090Y-53031713D01*
X96027008Y-53003154D01*
X96080983Y-52858200D01*
X96094431Y-52832069D01*
X96181012Y-52703896D01*
X96200235Y-52681661D01*
X96320050Y-52572464D01*
X96331485Y-52563224D01*
X96434007Y-52489995D01*
X96444796Y-52483102D01*
X96607465Y-52390637D01*
X96630891Y-52380356D01*
X96802939Y-52325221D01*
X96827978Y-52319969D01*
X97014084Y-52300661D01*
X97026880Y-52300000D01*
X105593907Y-52300000D01*
X105606061Y-52300597D01*
G37*
G04 #@! TD.AperFunction*
G04 #@! TA.AperFunction,Conductor*
G36*
X105606061Y-44400597D02*
G01*
X105782941Y-44418018D01*
X105806769Y-44422757D01*
X105971001Y-44472576D01*
X105993453Y-44481877D01*
X106129550Y-44554622D01*
X106144798Y-44562772D01*
X106165010Y-44576277D01*
X106297666Y-44685145D01*
X106314854Y-44702333D01*
X106423722Y-44834989D01*
X106437227Y-44855201D01*
X106518121Y-45006543D01*
X106527424Y-45029001D01*
X106577240Y-45193224D01*
X106581982Y-45217065D01*
X106599403Y-45393938D01*
X106600000Y-45406092D01*
X106600000Y-47793907D01*
X106599403Y-47806061D01*
X106581982Y-47982934D01*
X106577240Y-48006775D01*
X106527424Y-48170998D01*
X106518121Y-48193456D01*
X106437227Y-48344798D01*
X106423722Y-48365010D01*
X106314854Y-48497666D01*
X106297666Y-48514854D01*
X106165010Y-48623722D01*
X106144798Y-48637227D01*
X105993456Y-48718121D01*
X105970998Y-48727424D01*
X105806775Y-48777240D01*
X105782934Y-48781982D01*
X105606061Y-48799403D01*
X105593907Y-48800000D01*
X81906093Y-48800000D01*
X81893939Y-48799403D01*
X81717065Y-48781982D01*
X81693224Y-48777240D01*
X81529001Y-48727424D01*
X81506543Y-48718121D01*
X81355201Y-48637227D01*
X81334989Y-48623722D01*
X81202333Y-48514854D01*
X81185145Y-48497666D01*
X81076277Y-48365010D01*
X81062772Y-48344798D01*
X80981878Y-48193456D01*
X80972575Y-48170998D01*
X80922757Y-48006769D01*
X80918018Y-47982941D01*
X80900597Y-47806061D01*
X80900000Y-47793907D01*
X80900000Y-47706092D01*
X80900597Y-47693938D01*
X80918018Y-47517056D01*
X80922757Y-47493232D01*
X80972577Y-47328994D01*
X80981875Y-47306549D01*
X81062775Y-47155195D01*
X81076272Y-47134995D01*
X81185149Y-47002328D01*
X81202328Y-46985149D01*
X81334995Y-46876272D01*
X81355195Y-46862775D01*
X81506549Y-46781875D01*
X81528994Y-46772577D01*
X81693232Y-46722757D01*
X81717056Y-46718018D01*
X81893939Y-46700597D01*
X81906093Y-46700000D01*
X97400000Y-46700000D01*
X100748836Y-44560464D01*
X100759004Y-44554627D01*
X100911686Y-44476345D01*
X100933469Y-44467668D01*
X101092497Y-44421204D01*
X101115522Y-44416788D01*
X101266610Y-44402429D01*
X101286326Y-44400556D01*
X101298057Y-44400000D01*
X105593907Y-44400000D01*
X105606061Y-44400597D01*
G37*
G04 #@! TD.AperFunction*
G04 #@! TA.AperFunction,Conductor*
G36*
X88712786Y-55060185D02*
G01*
X88758541Y-55112989D01*
X88768485Y-55182147D01*
X88739460Y-55245703D01*
X88714639Y-55267602D01*
X88680447Y-55290448D01*
X88636133Y-55356768D01*
X88636133Y-55356769D01*
X88627595Y-55399691D01*
X88595211Y-55461601D01*
X88534496Y-55496176D01*
X88505978Y-55499500D01*
X88060438Y-55499500D01*
X87993039Y-55517559D01*
X87984007Y-55519980D01*
X87931167Y-55550488D01*
X87915492Y-55559537D01*
X87915487Y-55559541D01*
X87559541Y-55915487D01*
X87559535Y-55915495D01*
X87519982Y-55984004D01*
X87519979Y-55984009D01*
X87506326Y-56034962D01*
X87504432Y-56042034D01*
X87499500Y-56060439D01*
X87499500Y-65676000D01*
X87479815Y-65743039D01*
X87427011Y-65788794D01*
X87375500Y-65800000D01*
X87074500Y-65800000D01*
X87007461Y-65780315D01*
X86961706Y-65727511D01*
X86950500Y-65676000D01*
X86950500Y-59840693D01*
X86950500Y-59840691D01*
X86919799Y-59726114D01*
X86919799Y-59726113D01*
X86860489Y-59623386D01*
X85451614Y-58214511D01*
X85374064Y-58169737D01*
X85348888Y-58155201D01*
X85336780Y-58151957D01*
X85324673Y-58148713D01*
X85324670Y-58148712D01*
X85279661Y-58136652D01*
X85234309Y-58124500D01*
X85234308Y-58124500D01*
X84842254Y-58124500D01*
X84820353Y-58118069D01*
X84797610Y-58116184D01*
X84784185Y-58107449D01*
X84775215Y-58104815D01*
X84766826Y-58098921D01*
X84760349Y-58093957D01*
X84713342Y-58046950D01*
X84670586Y-58025164D01*
X84661572Y-58018256D01*
X84647384Y-57998850D01*
X84629908Y-57982344D01*
X84626731Y-57970599D01*
X84620336Y-57961852D01*
X84619183Y-57942695D01*
X84613000Y-57919835D01*
X84613000Y-57493771D01*
X84632685Y-57426732D01*
X84649314Y-57406094D01*
X84724658Y-57330751D01*
X84784951Y-57212420D01*
X84784951Y-57212418D01*
X84784952Y-57212417D01*
X84800500Y-57114251D01*
X84800500Y-57014891D01*
X84809939Y-56967439D01*
X84836078Y-56904332D01*
X84836080Y-56904328D01*
X84857125Y-56798528D01*
X84863000Y-56768995D01*
X84863000Y-56179019D01*
X84882685Y-56111980D01*
X84899319Y-56091338D01*
X85628838Y-55361819D01*
X85690161Y-55328334D01*
X85716519Y-55325500D01*
X87543996Y-55325500D01*
X87641191Y-55306166D01*
X87679328Y-55298580D01*
X87789231Y-55253056D01*
X87801674Y-55249547D01*
X87804355Y-55247906D01*
X87807266Y-55247969D01*
X87817267Y-55245149D01*
X87883126Y-55234719D01*
X88003220Y-55173528D01*
X88098528Y-55078220D01*
X88098529Y-55078217D01*
X88099928Y-55076819D01*
X88161251Y-55043334D01*
X88187610Y-55040500D01*
X88645747Y-55040500D01*
X88712786Y-55060185D01*
G37*
G04 #@! TD.AperFunction*
G04 #@! TA.AperFunction,Conductor*
G36*
X114004043Y-42000765D02*
G01*
X114252895Y-42017075D01*
X114268953Y-42019190D01*
X114476105Y-42060395D01*
X114509535Y-42067045D01*
X114525202Y-42071243D01*
X114694947Y-42128863D01*
X114757481Y-42150091D01*
X114772458Y-42156294D01*
X114981799Y-42259529D01*
X114992460Y-42264787D01*
X115006508Y-42272897D01*
X115210464Y-42409177D01*
X115223328Y-42419048D01*
X115407749Y-42580781D01*
X115419218Y-42592250D01*
X115537669Y-42727318D01*
X115580951Y-42776671D01*
X115590824Y-42789537D01*
X115594327Y-42794780D01*
X115727102Y-42993492D01*
X115735212Y-43007539D01*
X115843702Y-43227534D01*
X115849909Y-43242520D01*
X115928756Y-43474797D01*
X115932954Y-43490464D01*
X115980807Y-43731035D01*
X115982925Y-43747116D01*
X115999235Y-43995956D01*
X115999500Y-44004066D01*
X115999500Y-84995933D01*
X115999235Y-85004043D01*
X115982925Y-85252883D01*
X115980807Y-85268964D01*
X115932954Y-85509535D01*
X115928756Y-85525202D01*
X115849909Y-85757479D01*
X115843702Y-85772465D01*
X115735212Y-85992460D01*
X115727102Y-86006507D01*
X115590825Y-86210460D01*
X115580951Y-86223328D01*
X115419218Y-86407749D01*
X115407749Y-86419218D01*
X115223328Y-86580951D01*
X115210460Y-86590825D01*
X115006507Y-86727102D01*
X114992460Y-86735212D01*
X114772465Y-86843702D01*
X114757479Y-86849909D01*
X114525202Y-86928756D01*
X114509535Y-86932954D01*
X114268964Y-86980807D01*
X114252883Y-86982925D01*
X114004043Y-86999235D01*
X113995933Y-86999500D01*
X73004067Y-86999500D01*
X72995957Y-86999235D01*
X72747116Y-86982925D01*
X72731035Y-86980807D01*
X72490464Y-86932954D01*
X72474797Y-86928756D01*
X72242520Y-86849909D01*
X72227534Y-86843702D01*
X72007539Y-86735212D01*
X71993492Y-86727102D01*
X71789539Y-86590825D01*
X71776671Y-86580951D01*
X71592250Y-86419218D01*
X71580781Y-86407749D01*
X71519648Y-86338040D01*
X71419045Y-86223325D01*
X71409174Y-86210460D01*
X71272897Y-86006507D01*
X71264787Y-85992460D01*
X71227522Y-85916895D01*
X71156294Y-85772458D01*
X71150090Y-85757479D01*
X71071243Y-85525202D01*
X71067045Y-85509535D01*
X71060395Y-85476105D01*
X71019190Y-85268953D01*
X71017075Y-85252895D01*
X71000765Y-85004043D01*
X71000500Y-84995933D01*
X71000500Y-81293481D01*
X87274500Y-81293481D01*
X87274500Y-81305483D01*
X87274500Y-81305484D01*
X87274500Y-81906517D01*
X87279955Y-81940956D01*
X87289354Y-82000304D01*
X87346950Y-82113342D01*
X87346952Y-82113344D01*
X87346954Y-82113347D01*
X87436652Y-82203045D01*
X87436654Y-82203046D01*
X87436658Y-82203050D01*
X87549694Y-82260645D01*
X87549698Y-82260647D01*
X87643475Y-82275499D01*
X87643481Y-82275500D01*
X88106518Y-82275499D01*
X88200304Y-82260646D01*
X88313342Y-82203050D01*
X88403050Y-82113342D01*
X88460646Y-82000304D01*
X88460646Y-82000302D01*
X88460647Y-82000301D01*
X88475499Y-81906524D01*
X88475500Y-81906519D01*
X88475499Y-81293482D01*
X88475498Y-81293475D01*
X88924500Y-81293475D01*
X88924500Y-81906517D01*
X88929955Y-81940956D01*
X88939354Y-82000304D01*
X88996950Y-82113342D01*
X88996952Y-82113344D01*
X88996954Y-82113347D01*
X89086652Y-82203045D01*
X89086654Y-82203046D01*
X89086658Y-82203050D01*
X89199694Y-82260645D01*
X89199698Y-82260647D01*
X89293475Y-82275499D01*
X89293481Y-82275500D01*
X89756518Y-82275499D01*
X89850304Y-82260646D01*
X89963342Y-82203050D01*
X89992506Y-82173886D01*
X90054574Y-82111819D01*
X90115897Y-82078334D01*
X90142255Y-82075500D01*
X90657746Y-82075500D01*
X90724785Y-82095185D01*
X90745428Y-82111820D01*
X90786653Y-82153046D01*
X90786655Y-82153047D01*
X90786658Y-82153050D01*
X90884788Y-82203050D01*
X90899698Y-82210647D01*
X90993475Y-82225499D01*
X90993481Y-82225500D01*
X91606518Y-82225499D01*
X91700304Y-82210646D01*
X91813342Y-82153050D01*
X91854573Y-82111819D01*
X91904574Y-82061819D01*
X91965897Y-82028334D01*
X91992255Y-82025500D01*
X92422389Y-82025500D01*
X92489428Y-82045185D01*
X92510070Y-82061819D01*
X92596774Y-82148523D01*
X92596778Y-82148526D01*
X92596780Y-82148528D01*
X92716874Y-82209719D01*
X92716876Y-82209719D01*
X92716878Y-82209720D01*
X92816507Y-82225500D01*
X92816512Y-82225500D01*
X93383493Y-82225500D01*
X93483121Y-82209720D01*
X93483121Y-82209719D01*
X93483126Y-82209719D01*
X93603220Y-82148528D01*
X93639929Y-82111819D01*
X93689930Y-82061819D01*
X93716857Y-82047115D01*
X93742676Y-82030523D01*
X93748876Y-82029631D01*
X93751253Y-82028334D01*
X93777611Y-82025500D01*
X93837035Y-82025500D01*
X93904074Y-82045185D01*
X93924716Y-82061819D01*
X94723387Y-82860490D01*
X94723389Y-82860491D01*
X94723393Y-82860494D01*
X94826107Y-82919795D01*
X94826114Y-82919799D01*
X94940691Y-82950500D01*
X94940694Y-82950500D01*
X96859308Y-82950500D01*
X96859309Y-82950500D01*
X96949673Y-82926286D01*
X96973887Y-82919799D01*
X97076614Y-82860489D01*
X97660490Y-82276614D01*
X97673019Y-82254912D01*
X97719798Y-82173889D01*
X97719799Y-82173886D01*
X97730372Y-82134428D01*
X97736022Y-82113342D01*
X97750500Y-82059309D01*
X97750500Y-81492052D01*
X97753050Y-81483366D01*
X97751762Y-81474405D01*
X97763099Y-81437592D01*
X97790573Y-81381393D01*
X97800500Y-81313260D01*
X97800500Y-79596740D01*
X97800500Y-79596739D01*
X98069500Y-79596739D01*
X98069500Y-81313260D01*
X98079426Y-81381391D01*
X98106901Y-81437592D01*
X98107324Y-81439421D01*
X98108294Y-81440541D01*
X98109461Y-81448658D01*
X98119500Y-81492052D01*
X98119500Y-84616808D01*
X98143712Y-84707172D01*
X98150200Y-84731385D01*
X98150200Y-84731386D01*
X98150201Y-84731387D01*
X98209511Y-84834114D01*
X98209513Y-84834116D01*
X98413181Y-85037784D01*
X98446666Y-85099107D01*
X98449500Y-85125465D01*
X98449500Y-85558260D01*
X98459426Y-85626391D01*
X98510803Y-85731485D01*
X98593514Y-85814196D01*
X98593515Y-85814196D01*
X98593517Y-85814198D01*
X98698607Y-85865573D01*
X98732673Y-85870536D01*
X98766739Y-85875500D01*
X98766740Y-85875500D01*
X99133261Y-85875500D01*
X99155971Y-85872191D01*
X99201393Y-85865573D01*
X99306483Y-85814198D01*
X99389198Y-85731483D01*
X99440573Y-85626393D01*
X99450500Y-85558260D01*
X99450500Y-84316740D01*
X99440573Y-84248607D01*
X99389198Y-84143517D01*
X99389196Y-84143515D01*
X99389196Y-84143514D01*
X99306485Y-84060803D01*
X99201391Y-84009426D01*
X99128820Y-83998853D01*
X99129053Y-83997249D01*
X99070064Y-83975162D01*
X99028263Y-83919176D01*
X99020500Y-83875989D01*
X99020500Y-82441739D01*
X99399500Y-82441739D01*
X99399500Y-83683260D01*
X99409426Y-83751391D01*
X99460803Y-83856485D01*
X99543514Y-83939196D01*
X99543515Y-83939196D01*
X99543517Y-83939198D01*
X99648607Y-83990573D01*
X99682673Y-83995536D01*
X99716739Y-84000500D01*
X99716740Y-84000500D01*
X100083261Y-84000500D01*
X100117326Y-83995536D01*
X100151393Y-83990573D01*
X100221040Y-83956524D01*
X100222709Y-83956239D01*
X100223989Y-83955131D01*
X100257008Y-83950383D01*
X100289912Y-83944765D01*
X100291471Y-83945427D01*
X100293147Y-83945187D01*
X100323498Y-83959047D01*
X100354209Y-83972108D01*
X100355161Y-83973508D01*
X100356703Y-83974212D01*
X100374744Y-84002285D01*
X100393517Y-84029872D01*
X100393855Y-84032022D01*
X100394477Y-84032990D01*
X100399500Y-84067925D01*
X100399500Y-84137947D01*
X100386901Y-84192406D01*
X100359428Y-84248604D01*
X100359425Y-84248611D01*
X100349500Y-84316739D01*
X100349500Y-85558260D01*
X100359426Y-85626391D01*
X100410803Y-85731485D01*
X100493514Y-85814196D01*
X100493515Y-85814196D01*
X100493517Y-85814198D01*
X100598607Y-85865573D01*
X100632673Y-85870536D01*
X100666739Y-85875500D01*
X100666740Y-85875500D01*
X101033261Y-85875500D01*
X101055971Y-85872191D01*
X101101393Y-85865573D01*
X101206483Y-85814198D01*
X101289198Y-85731483D01*
X101340573Y-85626393D01*
X101350500Y-85558260D01*
X101350500Y-84316740D01*
X101340573Y-84248607D01*
X101326869Y-84220575D01*
X101313099Y-84192406D01*
X101300500Y-84137947D01*
X101300500Y-83587965D01*
X101320185Y-83520926D01*
X101336819Y-83500284D01*
X101775284Y-83061819D01*
X101802211Y-83047115D01*
X101828030Y-83030523D01*
X101834230Y-83029631D01*
X101836607Y-83028334D01*
X101862965Y-83025500D01*
X102057746Y-83025500D01*
X102124785Y-83045185D01*
X102145428Y-83061820D01*
X102186653Y-83103046D01*
X102186655Y-83103047D01*
X102186658Y-83103050D01*
X102299694Y-83160645D01*
X102299698Y-83160647D01*
X102393475Y-83175499D01*
X102393481Y-83175500D01*
X103006518Y-83175499D01*
X103100304Y-83160646D01*
X103213342Y-83103050D01*
X103254572Y-83061820D01*
X103315895Y-83028334D01*
X103342254Y-83025500D01*
X103785885Y-83025500D01*
X103852924Y-83045185D01*
X103896370Y-83093206D01*
X103901471Y-83103219D01*
X103901476Y-83103225D01*
X103996774Y-83198523D01*
X103996778Y-83198526D01*
X103996780Y-83198528D01*
X104116874Y-83259719D01*
X104116876Y-83259719D01*
X104116878Y-83259720D01*
X104216507Y-83275500D01*
X104216512Y-83275500D01*
X104783493Y-83275500D01*
X104883121Y-83259720D01*
X104883121Y-83259719D01*
X104883126Y-83259719D01*
X105003220Y-83198528D01*
X105098528Y-83103220D01*
X105159719Y-82983126D01*
X105160338Y-82979217D01*
X105175500Y-82883493D01*
X105175500Y-82366506D01*
X105159720Y-82266878D01*
X105159719Y-82266876D01*
X105159719Y-82266874D01*
X105098528Y-82146780D01*
X105098526Y-82146778D01*
X105098523Y-82146774D01*
X105012480Y-82060731D01*
X104978995Y-81999408D01*
X104980386Y-81940958D01*
X105000500Y-81865892D01*
X105000500Y-81734108D01*
X104966392Y-81606814D01*
X104900500Y-81492686D01*
X104807314Y-81399500D01*
X104750250Y-81366554D01*
X104693187Y-81333608D01*
X104629539Y-81316554D01*
X104565892Y-81299500D01*
X104434108Y-81299500D01*
X104306812Y-81333608D01*
X104192686Y-81399500D01*
X104192683Y-81399502D01*
X104099502Y-81492683D01*
X104099500Y-81492686D01*
X104033608Y-81606812D01*
X103999500Y-81734108D01*
X103999500Y-81865893D01*
X104019613Y-81940958D01*
X104019327Y-81952954D01*
X104023522Y-81964199D01*
X104018511Y-81987236D01*
X104017950Y-82010808D01*
X104010851Y-82022454D01*
X104008672Y-82032473D01*
X103987522Y-82060728D01*
X103960074Y-82088178D01*
X103898753Y-82121665D01*
X103872390Y-82124500D01*
X103342254Y-82124500D01*
X103275215Y-82104815D01*
X103254572Y-82088180D01*
X103213346Y-82046953D01*
X103213344Y-82046952D01*
X103213342Y-82046950D01*
X103136517Y-82007805D01*
X103100301Y-81989352D01*
X103006524Y-81974500D01*
X102393482Y-81974500D01*
X102313070Y-81987236D01*
X102299696Y-81989354D01*
X102186658Y-82046950D01*
X102186657Y-82046951D01*
X102186653Y-82046953D01*
X102145428Y-82088180D01*
X102084105Y-82121666D01*
X102057746Y-82124500D01*
X101565691Y-82124500D01*
X101459141Y-82153050D01*
X101459140Y-82153050D01*
X101451116Y-82155199D01*
X101451111Y-82155201D01*
X101348393Y-82214505D01*
X101348385Y-82214511D01*
X100612181Y-82950716D01*
X100550858Y-82984201D01*
X100481166Y-82979217D01*
X100425233Y-82937345D01*
X100400816Y-82871881D01*
X100400500Y-82863035D01*
X100400500Y-82441739D01*
X100390573Y-82373608D01*
X100387104Y-82366512D01*
X100339198Y-82268517D01*
X100339196Y-82268515D01*
X100339196Y-82268514D01*
X100256485Y-82185803D01*
X100151391Y-82134426D01*
X100083261Y-82124500D01*
X100083260Y-82124500D01*
X99716740Y-82124500D01*
X99716739Y-82124500D01*
X99648608Y-82134426D01*
X99543514Y-82185803D01*
X99460803Y-82268514D01*
X99409426Y-82373608D01*
X99399500Y-82441739D01*
X99020500Y-82441739D01*
X99020500Y-81492052D01*
X99033099Y-81437592D01*
X99060573Y-81381393D01*
X99070500Y-81313260D01*
X99070500Y-79596740D01*
X99070500Y-79596739D01*
X99339500Y-79596739D01*
X99339500Y-81313260D01*
X99349426Y-81381391D01*
X99400803Y-81486485D01*
X99483514Y-81569196D01*
X99483515Y-81569196D01*
X99483517Y-81569198D01*
X99588607Y-81620573D01*
X99622673Y-81625536D01*
X99656739Y-81630500D01*
X99656740Y-81630500D01*
X100023261Y-81630500D01*
X100045971Y-81627191D01*
X100091393Y-81620573D01*
X100196483Y-81569198D01*
X100279198Y-81486483D01*
X100330573Y-81381393D01*
X100340500Y-81313260D01*
X100340500Y-81029500D01*
X100360185Y-80962461D01*
X100412989Y-80916706D01*
X100464500Y-80905500D01*
X101007389Y-80905500D01*
X101074428Y-80925185D01*
X101095070Y-80941819D01*
X101171774Y-81018523D01*
X101171778Y-81018526D01*
X101171780Y-81018528D01*
X101291874Y-81079719D01*
X101291876Y-81079719D01*
X101291878Y-81079720D01*
X101391507Y-81095500D01*
X101391512Y-81095500D01*
X101958493Y-81095500D01*
X102058121Y-81079720D01*
X102058121Y-81079719D01*
X102058126Y-81079719D01*
X102178220Y-81018528D01*
X102237534Y-80959213D01*
X102298855Y-80925730D01*
X102368547Y-80930714D01*
X102374253Y-80933403D01*
X102374304Y-80933281D01*
X102381807Y-80936388D01*
X102381814Y-80936392D01*
X102509108Y-80970500D01*
X102509110Y-80970500D01*
X102640890Y-80970500D01*
X102640892Y-80970500D01*
X102768186Y-80936392D01*
X102882314Y-80870500D01*
X102975500Y-80777314D01*
X103041392Y-80663186D01*
X103075500Y-80535892D01*
X103075500Y-80404108D01*
X103041392Y-80276814D01*
X102975500Y-80162686D01*
X102882314Y-80069500D01*
X102825250Y-80036554D01*
X102768187Y-80003608D01*
X102698049Y-79984815D01*
X102640892Y-79969500D01*
X102509108Y-79969500D01*
X102431574Y-79990275D01*
X102399481Y-79994500D01*
X102352611Y-79994500D01*
X102285572Y-79974815D01*
X102264930Y-79958181D01*
X102178225Y-79871476D01*
X102178221Y-79871473D01*
X102178220Y-79871472D01*
X102058126Y-79810281D01*
X102058124Y-79810280D01*
X102058121Y-79810279D01*
X101958493Y-79794500D01*
X101958488Y-79794500D01*
X101391512Y-79794500D01*
X101391507Y-79794500D01*
X101291878Y-79810279D01*
X101171778Y-79871473D01*
X101123425Y-79919827D01*
X101076472Y-79966780D01*
X101076470Y-79966781D01*
X101075072Y-79968181D01*
X101013749Y-80001666D01*
X100987390Y-80004500D01*
X100464500Y-80004500D01*
X100397461Y-79984815D01*
X100351706Y-79932011D01*
X100340500Y-79880500D01*
X100340500Y-79596739D01*
X100335536Y-79562673D01*
X100330573Y-79528607D01*
X100279198Y-79423517D01*
X100279196Y-79423515D01*
X100279196Y-79423514D01*
X100196485Y-79340803D01*
X100091391Y-79289426D01*
X100023261Y-79279500D01*
X100023260Y-79279500D01*
X99656740Y-79279500D01*
X99656739Y-79279500D01*
X99588608Y-79289426D01*
X99483514Y-79340803D01*
X99400803Y-79423514D01*
X99349426Y-79528608D01*
X99339500Y-79596739D01*
X99070500Y-79596739D01*
X99060573Y-79528607D01*
X99009198Y-79423517D01*
X99009196Y-79423515D01*
X99009196Y-79423514D01*
X98926485Y-79340803D01*
X98821391Y-79289426D01*
X98753261Y-79279500D01*
X98753260Y-79279500D01*
X98386740Y-79279500D01*
X98386739Y-79279500D01*
X98318608Y-79289426D01*
X98213514Y-79340803D01*
X98130803Y-79423514D01*
X98079426Y-79528608D01*
X98069500Y-79596739D01*
X97800500Y-79596739D01*
X97790573Y-79528607D01*
X97739198Y-79423517D01*
X97739196Y-79423515D01*
X97739196Y-79423514D01*
X97656485Y-79340803D01*
X97551391Y-79289426D01*
X97483261Y-79279500D01*
X97483260Y-79279500D01*
X97116740Y-79279500D01*
X97116739Y-79279500D01*
X97048608Y-79289426D01*
X96943514Y-79340803D01*
X96860803Y-79423514D01*
X96809426Y-79528608D01*
X96799500Y-79596739D01*
X96799500Y-81313260D01*
X96809426Y-81381391D01*
X96836901Y-81437592D01*
X96849500Y-81492052D01*
X96849500Y-81762034D01*
X96840855Y-81791474D01*
X96834332Y-81821461D01*
X96830577Y-81826476D01*
X96829815Y-81829073D01*
X96813185Y-81849710D01*
X96649714Y-82013182D01*
X96588393Y-82046666D01*
X96562035Y-82049500D01*
X95237965Y-82049500D01*
X95170926Y-82029815D01*
X95150284Y-82013181D01*
X94351616Y-81214513D01*
X94351614Y-81214511D01*
X94277405Y-81171666D01*
X94248888Y-81155201D01*
X94236780Y-81151957D01*
X94224673Y-81148713D01*
X94224670Y-81148712D01*
X94185363Y-81138180D01*
X94134309Y-81124500D01*
X94134308Y-81124500D01*
X93777611Y-81124500D01*
X93710572Y-81104815D01*
X93689930Y-81088181D01*
X93603225Y-81001476D01*
X93603221Y-81001473D01*
X93603220Y-81001472D01*
X93483126Y-80940281D01*
X93483124Y-80940280D01*
X93483121Y-80940279D01*
X93383493Y-80924500D01*
X93383488Y-80924500D01*
X92816512Y-80924500D01*
X92816507Y-80924500D01*
X92716878Y-80940279D01*
X92596778Y-81001473D01*
X92596774Y-81001476D01*
X92510070Y-81088181D01*
X92448747Y-81121666D01*
X92422389Y-81124500D01*
X91891552Y-81124500D01*
X91824513Y-81104815D01*
X91818671Y-81100821D01*
X91813346Y-81096953D01*
X91813343Y-81096951D01*
X91813342Y-81096950D01*
X91737481Y-81058297D01*
X91700301Y-81039352D01*
X91606524Y-81024500D01*
X90993482Y-81024500D01*
X90912519Y-81037323D01*
X90899696Y-81039354D01*
X90786658Y-81096950D01*
X90786657Y-81096951D01*
X90786653Y-81096953D01*
X90745428Y-81138180D01*
X90684105Y-81171666D01*
X90657746Y-81174500D01*
X90173795Y-81174500D01*
X90106756Y-81154815D01*
X90063311Y-81106796D01*
X90061412Y-81103071D01*
X90053050Y-81086658D01*
X90053047Y-81086655D01*
X90053045Y-81086652D01*
X89963347Y-80996954D01*
X89963344Y-80996952D01*
X89963342Y-80996950D01*
X89886517Y-80957805D01*
X89850301Y-80939352D01*
X89756524Y-80924500D01*
X89293482Y-80924500D01*
X89212519Y-80937323D01*
X89199696Y-80939354D01*
X89086658Y-80996950D01*
X89086657Y-80996951D01*
X89086652Y-80996954D01*
X88996954Y-81086652D01*
X88996951Y-81086657D01*
X88996950Y-81086658D01*
X88989734Y-81100821D01*
X88939352Y-81199698D01*
X88924500Y-81293475D01*
X88475498Y-81293475D01*
X88460646Y-81199696D01*
X88403050Y-81086658D01*
X88403046Y-81086654D01*
X88403045Y-81086652D01*
X88336819Y-81020426D01*
X88303334Y-80959103D01*
X88300500Y-80932745D01*
X88300500Y-80834110D01*
X88300500Y-80834108D01*
X88266392Y-80706814D01*
X88200500Y-80592686D01*
X88107314Y-80499500D01*
X88050250Y-80466554D01*
X87993187Y-80433608D01*
X87929539Y-80416554D01*
X87865892Y-80399500D01*
X87734108Y-80399500D01*
X87606812Y-80433608D01*
X87492686Y-80499500D01*
X87492683Y-80499502D01*
X87399502Y-80592683D01*
X87399500Y-80592686D01*
X87333608Y-80706812D01*
X87314718Y-80777313D01*
X87299500Y-80834108D01*
X87299500Y-80965892D01*
X87300735Y-80970500D01*
X87324740Y-81060091D01*
X87324372Y-81075545D01*
X87328951Y-81090310D01*
X87324457Y-81125317D01*
X87321120Y-81137350D01*
X87289354Y-81199696D01*
X87274500Y-81293481D01*
X71000500Y-81293481D01*
X71000500Y-76765186D01*
X74599500Y-76765186D01*
X74599500Y-77034813D01*
X74629686Y-77302719D01*
X74629688Y-77302731D01*
X74689684Y-77565594D01*
X74689687Y-77565602D01*
X74778734Y-77820082D01*
X74895714Y-78062994D01*
X74895716Y-78062997D01*
X75039162Y-78291289D01*
X75207266Y-78502085D01*
X75397915Y-78692734D01*
X75608711Y-78860838D01*
X75837003Y-79004284D01*
X76079921Y-79121267D01*
X76271049Y-79188145D01*
X76334397Y-79210312D01*
X76334405Y-79210315D01*
X76334408Y-79210315D01*
X76334409Y-79210316D01*
X76597268Y-79270312D01*
X76865187Y-79300499D01*
X76865188Y-79300500D01*
X76865191Y-79300500D01*
X77134812Y-79300500D01*
X77134812Y-79300499D01*
X77402732Y-79270312D01*
X77665591Y-79210316D01*
X77920079Y-79121267D01*
X78162997Y-79004284D01*
X78391289Y-78860838D01*
X78602085Y-78692734D01*
X78792734Y-78502085D01*
X78960838Y-78291289D01*
X79104284Y-78062997D01*
X79221267Y-77820079D01*
X79310316Y-77565591D01*
X79370312Y-77302732D01*
X79400500Y-77034809D01*
X79400500Y-76765191D01*
X79370312Y-76497268D01*
X79310316Y-76234409D01*
X79308708Y-76229815D01*
X79263459Y-76100500D01*
X79221267Y-75979921D01*
X79104284Y-75737003D01*
X78960838Y-75508711D01*
X78792734Y-75297915D01*
X78602085Y-75107266D01*
X78576184Y-75086611D01*
X78518601Y-75040690D01*
X78391289Y-74939162D01*
X78162997Y-74795716D01*
X78162994Y-74795714D01*
X77920082Y-74678734D01*
X77665602Y-74589687D01*
X77665594Y-74589684D01*
X77463321Y-74543517D01*
X77402732Y-74529688D01*
X77402728Y-74529687D01*
X77402719Y-74529686D01*
X77134813Y-74499500D01*
X77134809Y-74499500D01*
X76865191Y-74499500D01*
X76865186Y-74499500D01*
X76597280Y-74529686D01*
X76597268Y-74529688D01*
X76334405Y-74589684D01*
X76334397Y-74589687D01*
X76079917Y-74678734D01*
X75837005Y-74795714D01*
X75608712Y-74939161D01*
X75397915Y-75107265D01*
X75207265Y-75297915D01*
X75039161Y-75508712D01*
X74895714Y-75737005D01*
X74778734Y-75979917D01*
X74689687Y-76234397D01*
X74689684Y-76234405D01*
X74629688Y-76497268D01*
X74629686Y-76497280D01*
X74599500Y-76765186D01*
X71000500Y-76765186D01*
X71000500Y-67965186D01*
X74599500Y-67965186D01*
X74599500Y-68234813D01*
X74629686Y-68502719D01*
X74629688Y-68502731D01*
X74689684Y-68765594D01*
X74689687Y-68765602D01*
X74778734Y-69020082D01*
X74895714Y-69262994D01*
X74895716Y-69262997D01*
X75039162Y-69491289D01*
X75207266Y-69702085D01*
X75397915Y-69892734D01*
X75608711Y-70060838D01*
X75837003Y-70204284D01*
X76079921Y-70321267D01*
X76219721Y-70370185D01*
X76334397Y-70410312D01*
X76334405Y-70410315D01*
X76334408Y-70410315D01*
X76334409Y-70410316D01*
X76597268Y-70470312D01*
X76865187Y-70500499D01*
X76865188Y-70500500D01*
X76865191Y-70500500D01*
X77134812Y-70500500D01*
X77134812Y-70500499D01*
X77402732Y-70470312D01*
X77665591Y-70410316D01*
X77920079Y-70321267D01*
X78162997Y-70204284D01*
X78391289Y-70060838D01*
X78576184Y-69913389D01*
X82899500Y-69913389D01*
X82899500Y-70086611D01*
X82902653Y-70106517D01*
X82926597Y-70257697D01*
X82926597Y-70257699D01*
X82926598Y-70257701D01*
X82980127Y-70422445D01*
X83058768Y-70576788D01*
X83160586Y-70716928D01*
X83283072Y-70839414D01*
X83423212Y-70941232D01*
X83577555Y-71019873D01*
X83742299Y-71073402D01*
X83913389Y-71100500D01*
X83913390Y-71100500D01*
X84086610Y-71100500D01*
X84086611Y-71100500D01*
X84257701Y-71073402D01*
X84320231Y-71053083D01*
X84390070Y-71051087D01*
X84446230Y-71083333D01*
X84726670Y-71363773D01*
X84760155Y-71425096D01*
X84755171Y-71494788D01*
X84713299Y-71550721D01*
X84647835Y-71575138D01*
X84581290Y-71560662D01*
X84581129Y-71560980D01*
X84579919Y-71560363D01*
X84579562Y-71560286D01*
X84578058Y-71559415D01*
X84422447Y-71480128D01*
X84422446Y-71480127D01*
X84422445Y-71480127D01*
X84257701Y-71426598D01*
X84257699Y-71426597D01*
X84257698Y-71426597D01*
X84126271Y-71405781D01*
X84086611Y-71399500D01*
X83913389Y-71399500D01*
X83873728Y-71405781D01*
X83742302Y-71426597D01*
X83577552Y-71480128D01*
X83423211Y-71558768D01*
X83343256Y-71616859D01*
X83283072Y-71660586D01*
X83283070Y-71660588D01*
X83283069Y-71660588D01*
X83160588Y-71783069D01*
X83160588Y-71783070D01*
X83160586Y-71783072D01*
X83143551Y-71806519D01*
X83058768Y-71923211D01*
X82980128Y-72077552D01*
X82926597Y-72242302D01*
X82909890Y-72347788D01*
X82899500Y-72413389D01*
X82899500Y-72586611D01*
X82900873Y-72595279D01*
X82923716Y-72739508D01*
X82926598Y-72757701D01*
X82980127Y-72922445D01*
X83058768Y-73076788D01*
X83160586Y-73216928D01*
X83283072Y-73339414D01*
X83423212Y-73441232D01*
X83577555Y-73519873D01*
X83742299Y-73573402D01*
X83913389Y-73600500D01*
X83913390Y-73600500D01*
X84086610Y-73600500D01*
X84086611Y-73600500D01*
X84257701Y-73573402D01*
X84422445Y-73519873D01*
X84576788Y-73441232D01*
X84622781Y-73407815D01*
X84688585Y-73384334D01*
X84756639Y-73400158D01*
X84783348Y-73420451D01*
X84898386Y-73535489D01*
X85001113Y-73594799D01*
X85001112Y-73594799D01*
X85013394Y-73598089D01*
X85022387Y-73600499D01*
X85022389Y-73600500D01*
X85042106Y-73605782D01*
X85115691Y-73625500D01*
X85757746Y-73625500D01*
X85824785Y-73645185D01*
X85845428Y-73661820D01*
X85886653Y-73703046D01*
X85886655Y-73703047D01*
X85886658Y-73703050D01*
X85994935Y-73758220D01*
X85999698Y-73760647D01*
X86093475Y-73775499D01*
X86093481Y-73775500D01*
X86312032Y-73775499D01*
X86379072Y-73795183D01*
X86399714Y-73811818D01*
X86548386Y-73960490D01*
X86604890Y-73993112D01*
X86653106Y-74043679D01*
X86666330Y-74112286D01*
X86640362Y-74177151D01*
X86583448Y-74217680D01*
X86542891Y-74224500D01*
X86093482Y-74224500D01*
X86014490Y-74237011D01*
X85999696Y-74239354D01*
X85886658Y-74296950D01*
X85886657Y-74296951D01*
X85886652Y-74296954D01*
X85796954Y-74386652D01*
X85796951Y-74386657D01*
X85796950Y-74386658D01*
X85795657Y-74389196D01*
X85739352Y-74499698D01*
X85724500Y-74593475D01*
X85724500Y-75056517D01*
X85732538Y-75107265D01*
X85739354Y-75150304D01*
X85796950Y-75263342D01*
X85886658Y-75353050D01*
X85886660Y-75353051D01*
X85886663Y-75353054D01*
X85894557Y-75358790D01*
X85892903Y-75361066D01*
X85932584Y-75398535D01*
X85949500Y-75461057D01*
X85949500Y-75838942D01*
X85929815Y-75905981D01*
X85908884Y-75930719D01*
X85896588Y-75941890D01*
X85886658Y-75946950D01*
X85843327Y-75990280D01*
X85841130Y-75992277D01*
X85812263Y-76006289D01*
X85784105Y-76021666D01*
X85779587Y-76022151D01*
X85778275Y-76022789D01*
X85776092Y-76022527D01*
X85757746Y-76024500D01*
X85612966Y-76024500D01*
X85545927Y-76004815D01*
X85525285Y-75988181D01*
X85058810Y-75521706D01*
X85025325Y-75460383D01*
X85028559Y-75395709D01*
X85073402Y-75257701D01*
X85100500Y-75086611D01*
X85100500Y-74913389D01*
X85073402Y-74742299D01*
X85019873Y-74577555D01*
X84941232Y-74423212D01*
X84839414Y-74283072D01*
X84716928Y-74160586D01*
X84576788Y-74058768D01*
X84422445Y-73980127D01*
X84257701Y-73926598D01*
X84257699Y-73926597D01*
X84257698Y-73926597D01*
X84114398Y-73903901D01*
X84086611Y-73899500D01*
X83913389Y-73899500D01*
X83885602Y-73903901D01*
X83742302Y-73926597D01*
X83577552Y-73980128D01*
X83423211Y-74058768D01*
X83384603Y-74086819D01*
X83283072Y-74160586D01*
X83283070Y-74160588D01*
X83283069Y-74160588D01*
X83160588Y-74283069D01*
X83160588Y-74283070D01*
X83160586Y-74283072D01*
X83140667Y-74310488D01*
X83058768Y-74423211D01*
X82980128Y-74577552D01*
X82980127Y-74577554D01*
X82980127Y-74577555D01*
X82957648Y-74646739D01*
X82926597Y-74742302D01*
X82899500Y-74913389D01*
X82899500Y-75086611D01*
X82907677Y-75138239D01*
X82909587Y-75150301D01*
X82926598Y-75257701D01*
X82980127Y-75422445D01*
X83058768Y-75576788D01*
X83160586Y-75716928D01*
X83283072Y-75839414D01*
X83423212Y-75941232D01*
X83577555Y-76019873D01*
X83742299Y-76073402D01*
X83913389Y-76100500D01*
X83913390Y-76100500D01*
X84086610Y-76100500D01*
X84086611Y-76100500D01*
X84178110Y-76086007D01*
X84262513Y-76072640D01*
X84262867Y-76074877D01*
X84323267Y-76077861D01*
X84370185Y-76107288D01*
X85098386Y-76835490D01*
X85201113Y-76894799D01*
X85225321Y-76901284D01*
X85225324Y-76901286D01*
X85225325Y-76901286D01*
X85255447Y-76909357D01*
X85315691Y-76925500D01*
X85757746Y-76925500D01*
X85824785Y-76945185D01*
X85845428Y-76961820D01*
X85886653Y-77003046D01*
X85886655Y-77003047D01*
X85886658Y-77003050D01*
X85999694Y-77060645D01*
X85999698Y-77060647D01*
X86093475Y-77075499D01*
X86093481Y-77075500D01*
X86706518Y-77075499D01*
X86800304Y-77060646D01*
X86913342Y-77003050D01*
X87003050Y-76913342D01*
X87060646Y-76800304D01*
X87060646Y-76800302D01*
X87060647Y-76800301D01*
X87075499Y-76706524D01*
X87075500Y-76706519D01*
X87075499Y-76243482D01*
X87060646Y-76149696D01*
X87003050Y-76036658D01*
X87003046Y-76036654D01*
X87003045Y-76036652D01*
X86913343Y-75946950D01*
X86905448Y-75941214D01*
X86907089Y-75938954D01*
X86893297Y-75932655D01*
X86882249Y-75915464D01*
X86867396Y-75901431D01*
X86863158Y-75885757D01*
X86855523Y-75873877D01*
X86850500Y-75838942D01*
X86850500Y-75666739D01*
X89024500Y-75666739D01*
X89024500Y-76033260D01*
X89034426Y-76101391D01*
X89085803Y-76206485D01*
X89168514Y-76289196D01*
X89168515Y-76289196D01*
X89168517Y-76289198D01*
X89273607Y-76340573D01*
X89307673Y-76345536D01*
X89341739Y-76350500D01*
X89341740Y-76350500D01*
X89774535Y-76350500D01*
X89841574Y-76370185D01*
X89862215Y-76386818D01*
X90335886Y-76860490D01*
X90335888Y-76860491D01*
X90335892Y-76860494D01*
X90438611Y-76919798D01*
X90438613Y-76919799D01*
X90459890Y-76925500D01*
X90553191Y-76950500D01*
X90669741Y-76950500D01*
X90677387Y-76951454D01*
X90702651Y-76962426D01*
X90729074Y-76970185D01*
X90739077Y-76978246D01*
X90741474Y-76979287D01*
X90742767Y-76981219D01*
X90749716Y-76986819D01*
X90786280Y-77023383D01*
X90819765Y-77084706D01*
X90814781Y-77154398D01*
X90798923Y-77183942D01*
X90796952Y-77186655D01*
X90739352Y-77299698D01*
X90724500Y-77393475D01*
X90724500Y-78006517D01*
X90732355Y-78056113D01*
X90739354Y-78100304D01*
X90796950Y-78213342D01*
X90796952Y-78213344D01*
X90796954Y-78213347D01*
X90886652Y-78303045D01*
X90886654Y-78303046D01*
X90886658Y-78303050D01*
X90999694Y-78360645D01*
X90999698Y-78360647D01*
X91093475Y-78375499D01*
X91093481Y-78375500D01*
X91556518Y-78375499D01*
X91650304Y-78360646D01*
X91763342Y-78303050D01*
X91853050Y-78213342D01*
X91910646Y-78100304D01*
X91910646Y-78100302D01*
X91910647Y-78100301D01*
X91925499Y-78006524D01*
X91925500Y-78006519D01*
X91925499Y-77393482D01*
X91910646Y-77299696D01*
X91853050Y-77186658D01*
X91853047Y-77186655D01*
X91853046Y-77186653D01*
X91839430Y-77173038D01*
X91835089Y-77165090D01*
X91827838Y-77159661D01*
X91818606Y-77134905D01*
X91805943Y-77111716D01*
X91806589Y-77102679D01*
X91803425Y-77094195D01*
X91809041Y-77068382D01*
X91810926Y-77042024D01*
X91816747Y-77032965D01*
X91818280Y-77025923D01*
X91839429Y-76997673D01*
X91850288Y-76986815D01*
X91911612Y-76953333D01*
X91937965Y-76950500D01*
X92399988Y-76950500D01*
X92467027Y-76970185D01*
X92500311Y-77001621D01*
X92501476Y-77003225D01*
X92596774Y-77098523D01*
X92596778Y-77098526D01*
X92596780Y-77098528D01*
X92716874Y-77159719D01*
X92716876Y-77159719D01*
X92716878Y-77159720D01*
X92816507Y-77175500D01*
X92816512Y-77175500D01*
X93383493Y-77175500D01*
X93483123Y-77159720D01*
X93492405Y-77156704D01*
X93493326Y-77159541D01*
X93530989Y-77150500D01*
X94262035Y-77150500D01*
X94329074Y-77170185D01*
X94349716Y-77186819D01*
X95543181Y-78380284D01*
X95576666Y-78441607D01*
X95579500Y-78467965D01*
X95579500Y-79417947D01*
X95566901Y-79472406D01*
X95539428Y-79528604D01*
X95539425Y-79528611D01*
X95529500Y-79596739D01*
X95529500Y-81313260D01*
X95539426Y-81381391D01*
X95590803Y-81486485D01*
X95673514Y-81569196D01*
X95673515Y-81569196D01*
X95673517Y-81569198D01*
X95778607Y-81620573D01*
X95812673Y-81625536D01*
X95846739Y-81630500D01*
X95846740Y-81630500D01*
X96213261Y-81630500D01*
X96235971Y-81627191D01*
X96281393Y-81620573D01*
X96386483Y-81569198D01*
X96469198Y-81486483D01*
X96520573Y-81381393D01*
X96530500Y-81313260D01*
X96530500Y-79596740D01*
X96520573Y-79528607D01*
X96506869Y-79500575D01*
X96493099Y-79472406D01*
X96480500Y-79417947D01*
X96480500Y-78170693D01*
X96480500Y-78170691D01*
X96451643Y-78062997D01*
X96451643Y-78062996D01*
X96451643Y-78062995D01*
X96451640Y-78062988D01*
X96449799Y-78056113D01*
X96390490Y-77953386D01*
X94776614Y-76339511D01*
X94725250Y-76309856D01*
X94673888Y-76280201D01*
X94661780Y-76276957D01*
X94649673Y-76273713D01*
X94649670Y-76273712D01*
X94611478Y-76263478D01*
X94559309Y-76249500D01*
X94559308Y-76249500D01*
X93876657Y-76249500D01*
X93809618Y-76229815D01*
X93769605Y-76188077D01*
X93760651Y-76172759D01*
X93759719Y-76166874D01*
X93698528Y-76046780D01*
X93670802Y-76019054D01*
X93662735Y-76005253D01*
X93658011Y-75986232D01*
X93648621Y-75969034D01*
X93649765Y-75953024D01*
X93645897Y-75937443D01*
X93652207Y-75918889D01*
X93653605Y-75899342D01*
X93664755Y-75881991D01*
X93668394Y-75871294D01*
X93675014Y-75866029D01*
X93682103Y-75854998D01*
X94360489Y-75176614D01*
X94419799Y-75073887D01*
X94420594Y-75070917D01*
X94428695Y-75040690D01*
X94439597Y-75000000D01*
X94450500Y-74959309D01*
X94450500Y-74037965D01*
X94470185Y-73970926D01*
X94486819Y-73950284D01*
X94850284Y-73586819D01*
X94911607Y-73553334D01*
X94937965Y-73550500D01*
X96362035Y-73550500D01*
X96429074Y-73570185D01*
X96449716Y-73586819D01*
X96813181Y-73950284D01*
X96846666Y-74011607D01*
X96849500Y-74037965D01*
X96849500Y-74467947D01*
X96836901Y-74522406D01*
X96809428Y-74578604D01*
X96809425Y-74578611D01*
X96799500Y-74646739D01*
X96799500Y-76363260D01*
X96809426Y-76431391D01*
X96860803Y-76536485D01*
X96943514Y-76619196D01*
X96943515Y-76619196D01*
X96943517Y-76619198D01*
X97048607Y-76670573D01*
X97082673Y-76675536D01*
X97116739Y-76680500D01*
X97116740Y-76680500D01*
X97483261Y-76680500D01*
X97505971Y-76677191D01*
X97551393Y-76670573D01*
X97656483Y-76619198D01*
X97739198Y-76536483D01*
X97790573Y-76431393D01*
X97800500Y-76363260D01*
X97800500Y-74646740D01*
X97795146Y-74609992D01*
X97790574Y-74578611D01*
X97790573Y-74578609D01*
X97790573Y-74578607D01*
X97772098Y-74540815D01*
X97763099Y-74522406D01*
X97762814Y-74520736D01*
X97761706Y-74519458D01*
X97750500Y-74467947D01*
X97750500Y-73740693D01*
X97750500Y-73740691D01*
X97719799Y-73626114D01*
X97719797Y-73626110D01*
X97694731Y-73582694D01*
X97660493Y-73523392D01*
X97660487Y-73523384D01*
X96876616Y-72739513D01*
X96876614Y-72739511D01*
X96806250Y-72698886D01*
X96773888Y-72680201D01*
X96761780Y-72676957D01*
X96749673Y-72673713D01*
X96749670Y-72673712D01*
X96711478Y-72663478D01*
X96659309Y-72649500D01*
X94640691Y-72649500D01*
X94526114Y-72680201D01*
X94526112Y-72680201D01*
X94526112Y-72680202D01*
X94493751Y-72698886D01*
X94493750Y-72698886D01*
X94423389Y-72739508D01*
X94423384Y-72739512D01*
X93639513Y-73523383D01*
X93639509Y-73523389D01*
X93580201Y-73626112D01*
X93580200Y-73626117D01*
X93549500Y-73740691D01*
X93549500Y-74662035D01*
X93529815Y-74729074D01*
X93513181Y-74749716D01*
X92960151Y-75302745D01*
X92898828Y-75336230D01*
X92829136Y-75331246D01*
X92773203Y-75289374D01*
X92748786Y-75223910D01*
X92761070Y-75160603D01*
X92765573Y-75151393D01*
X92775500Y-75083260D01*
X92775500Y-74716740D01*
X92765573Y-74648607D01*
X92714198Y-74543517D01*
X92714196Y-74543515D01*
X92714196Y-74543514D01*
X92631485Y-74460803D01*
X92526391Y-74409426D01*
X92458261Y-74399500D01*
X92458260Y-74399500D01*
X92412000Y-74399500D01*
X92344961Y-74379815D01*
X92299206Y-74327011D01*
X92288000Y-74275500D01*
X92288000Y-72978193D01*
X92288000Y-72978191D01*
X92257299Y-72863614D01*
X92221503Y-72801614D01*
X92197989Y-72760886D01*
X91811819Y-72374716D01*
X91797115Y-72347788D01*
X91780523Y-72321970D01*
X91779631Y-72315769D01*
X91778334Y-72313393D01*
X91775500Y-72287035D01*
X91775500Y-72142254D01*
X91795185Y-72075215D01*
X91811820Y-72054572D01*
X91853046Y-72013346D01*
X91853050Y-72013342D01*
X91910646Y-71900304D01*
X91910646Y-71900302D01*
X91910647Y-71900301D01*
X91925499Y-71806524D01*
X91925500Y-71806519D01*
X91925499Y-71193482D01*
X91910646Y-71099696D01*
X91853050Y-70986658D01*
X91853046Y-70986654D01*
X91853045Y-70986652D01*
X91763347Y-70896954D01*
X91763344Y-70896952D01*
X91763342Y-70896950D01*
X91676585Y-70852745D01*
X91650301Y-70839352D01*
X91556524Y-70824500D01*
X91093482Y-70824500D01*
X91012519Y-70837323D01*
X90999696Y-70839354D01*
X90886658Y-70896950D01*
X90886657Y-70896951D01*
X90886652Y-70896954D01*
X90796954Y-70986652D01*
X90796951Y-70986657D01*
X90796950Y-70986658D01*
X90780027Y-71019871D01*
X90739352Y-71099698D01*
X90724500Y-71193475D01*
X90724500Y-71806517D01*
X90733049Y-71860492D01*
X90739354Y-71900304D01*
X90796950Y-72013342D01*
X90796951Y-72013343D01*
X90796953Y-72013346D01*
X90838180Y-72054572D01*
X90871666Y-72115895D01*
X90874500Y-72142254D01*
X90874500Y-72584309D01*
X90877440Y-72595281D01*
X90898712Y-72674672D01*
X90905200Y-72698885D01*
X90905200Y-72698886D01*
X90919989Y-72724500D01*
X90964511Y-72801614D01*
X90964512Y-72801615D01*
X91350681Y-73187784D01*
X91384166Y-73249107D01*
X91387000Y-73275465D01*
X91387000Y-74275500D01*
X91367315Y-74342539D01*
X91314511Y-74388294D01*
X91263000Y-74399500D01*
X91216739Y-74399500D01*
X91148608Y-74409426D01*
X91043514Y-74460803D01*
X90960803Y-74543514D01*
X90909426Y-74648608D01*
X90899500Y-74716739D01*
X90899500Y-75083260D01*
X90909426Y-75151391D01*
X90960803Y-75256485D01*
X91043514Y-75339196D01*
X91043515Y-75339196D01*
X91043517Y-75339198D01*
X91148607Y-75390573D01*
X91182673Y-75395536D01*
X91216739Y-75400500D01*
X91216740Y-75400500D01*
X92458261Y-75400500D01*
X92492326Y-75395536D01*
X92526393Y-75390573D01*
X92565176Y-75371612D01*
X92634049Y-75359853D01*
X92698346Y-75387196D01*
X92737654Y-75444960D01*
X92739492Y-75514805D01*
X92727024Y-75545013D01*
X92680201Y-75626112D01*
X92680200Y-75626117D01*
X92649500Y-75740691D01*
X92649500Y-75849987D01*
X92640572Y-75880391D01*
X92633312Y-75911245D01*
X92630632Y-75914241D01*
X92629815Y-75917026D01*
X92611687Y-75939138D01*
X92601323Y-75949156D01*
X92596780Y-75951472D01*
X92534298Y-76013953D01*
X92533577Y-76014651D01*
X92503540Y-76030398D01*
X92473749Y-76046666D01*
X92472193Y-76046833D01*
X92471696Y-76047094D01*
X92470638Y-76047000D01*
X92447390Y-76049500D01*
X91024500Y-76049500D01*
X90957461Y-76029815D01*
X90911706Y-75977011D01*
X90900500Y-75925500D01*
X90900500Y-75666739D01*
X90890573Y-75598608D01*
X90879906Y-75576788D01*
X90839198Y-75493517D01*
X90839196Y-75493515D01*
X90839196Y-75493514D01*
X90756485Y-75410803D01*
X90651391Y-75359426D01*
X90583261Y-75349500D01*
X90583260Y-75349500D01*
X89341740Y-75349500D01*
X89341739Y-75349500D01*
X89273608Y-75359426D01*
X89168514Y-75410803D01*
X89085803Y-75493514D01*
X89034426Y-75598608D01*
X89024500Y-75666739D01*
X86850500Y-75666739D01*
X86850500Y-75461057D01*
X86870185Y-75394018D01*
X86906903Y-75360800D01*
X86905443Y-75358790D01*
X86913336Y-75353054D01*
X86913337Y-75353052D01*
X86913342Y-75353050D01*
X87003050Y-75263342D01*
X87060646Y-75150304D01*
X87060646Y-75150302D01*
X87060647Y-75150301D01*
X87075499Y-75056524D01*
X87075500Y-75056519D01*
X87075499Y-74593482D01*
X87060646Y-74499696D01*
X87003050Y-74386658D01*
X87003046Y-74386654D01*
X87003045Y-74386652D01*
X86913347Y-74296954D01*
X86913343Y-74296951D01*
X86913342Y-74296950D01*
X86889856Y-74284983D01*
X86839062Y-74237011D01*
X86822267Y-74169190D01*
X86844804Y-74103055D01*
X86899519Y-74059603D01*
X86946153Y-74050500D01*
X88262035Y-74050500D01*
X88329074Y-74070185D01*
X88349715Y-74086818D01*
X88573386Y-74310490D01*
X88573388Y-74310491D01*
X88573392Y-74310494D01*
X88676110Y-74369798D01*
X88676113Y-74369799D01*
X88693653Y-74374498D01*
X88693656Y-74374500D01*
X88693657Y-74374500D01*
X88713494Y-74379815D01*
X88790691Y-74400500D01*
X89162948Y-74400500D01*
X89217407Y-74413098D01*
X89273607Y-74440573D01*
X89307673Y-74445536D01*
X89341739Y-74450500D01*
X89341740Y-74450500D01*
X90583261Y-74450500D01*
X90605971Y-74447191D01*
X90651393Y-74440573D01*
X90756483Y-74389198D01*
X90839198Y-74306483D01*
X90890573Y-74201393D01*
X90900500Y-74133260D01*
X90900500Y-73766740D01*
X90890573Y-73698607D01*
X90839198Y-73593517D01*
X90839196Y-73593515D01*
X90839196Y-73593514D01*
X90756485Y-73510803D01*
X90651391Y-73459426D01*
X90583261Y-73449500D01*
X90583260Y-73449500D01*
X89341740Y-73449500D01*
X89341739Y-73449500D01*
X89273608Y-73459426D01*
X89217408Y-73486901D01*
X89205320Y-73489697D01*
X89197883Y-73494477D01*
X89162948Y-73499500D01*
X89087966Y-73499500D01*
X89020927Y-73479815D01*
X89000285Y-73463181D01*
X88776616Y-73239513D01*
X88776614Y-73239511D01*
X88725250Y-73209856D01*
X88673888Y-73180201D01*
X88661780Y-73176957D01*
X88649673Y-73173713D01*
X88649670Y-73173712D01*
X88611478Y-73163478D01*
X88559309Y-73149500D01*
X88559308Y-73149500D01*
X87199499Y-73149500D01*
X87132460Y-73129815D01*
X87086705Y-73077011D01*
X87075499Y-73025500D01*
X87075499Y-72943482D01*
X87060646Y-72849696D01*
X87003050Y-72736658D01*
X87003046Y-72736654D01*
X87003045Y-72736652D01*
X86913347Y-72646954D01*
X86913344Y-72646952D01*
X86913342Y-72646950D01*
X86828552Y-72603747D01*
X86800301Y-72589352D01*
X86706524Y-72574500D01*
X86093482Y-72574500D01*
X86017022Y-72586610D01*
X85999696Y-72589354D01*
X85886658Y-72646950D01*
X85886657Y-72646951D01*
X85886653Y-72646953D01*
X85845428Y-72688180D01*
X85784105Y-72721666D01*
X85757746Y-72724500D01*
X85412965Y-72724500D01*
X85345926Y-72704815D01*
X85325284Y-72688181D01*
X85136819Y-72499716D01*
X85103334Y-72438393D01*
X85101166Y-72418229D01*
X85100883Y-72418252D01*
X85100500Y-72413391D01*
X85100500Y-72413389D01*
X85073402Y-72242299D01*
X85019873Y-72077555D01*
X84941232Y-71923212D01*
X84941231Y-71923211D01*
X84939020Y-71918871D01*
X84940714Y-71918007D01*
X84924573Y-71858374D01*
X84945678Y-71791769D01*
X84999443Y-71747146D01*
X85068797Y-71738675D01*
X85131721Y-71769044D01*
X85136226Y-71773329D01*
X85248386Y-71885489D01*
X85351113Y-71944799D01*
X85351112Y-71944799D01*
X85363394Y-71948089D01*
X85372387Y-71950499D01*
X85372389Y-71950500D01*
X85392106Y-71955782D01*
X85465691Y-71975500D01*
X85757746Y-71975500D01*
X85824785Y-71995185D01*
X85845428Y-72011820D01*
X85886653Y-72053046D01*
X85886655Y-72053047D01*
X85886658Y-72053050D01*
X85984788Y-72103050D01*
X85999698Y-72110647D01*
X86093475Y-72125499D01*
X86093481Y-72125500D01*
X86706518Y-72125499D01*
X86800304Y-72110646D01*
X86913342Y-72053050D01*
X87003050Y-71963342D01*
X87060646Y-71850304D01*
X87060646Y-71850302D01*
X87060647Y-71850301D01*
X87071295Y-71783069D01*
X87075500Y-71756519D01*
X87075499Y-71293482D01*
X87060646Y-71199696D01*
X87003050Y-71086658D01*
X87003046Y-71086654D01*
X87003045Y-71086652D01*
X86913347Y-70996954D01*
X86913344Y-70996952D01*
X86913342Y-70996950D01*
X86829260Y-70954108D01*
X86800301Y-70939352D01*
X86706524Y-70924500D01*
X86093482Y-70924500D01*
X86012519Y-70937323D01*
X85999696Y-70939354D01*
X85886658Y-70996950D01*
X85886657Y-70996951D01*
X85886652Y-70996954D01*
X85848036Y-71035571D01*
X85786713Y-71069056D01*
X85717021Y-71064072D01*
X85672674Y-71035571D01*
X85083333Y-70446230D01*
X85049848Y-70384907D01*
X85053083Y-70320231D01*
X85073402Y-70257701D01*
X85100500Y-70086611D01*
X85100500Y-69913389D01*
X85073402Y-69742299D01*
X85019873Y-69577555D01*
X84941232Y-69423212D01*
X84839414Y-69283072D01*
X84716928Y-69160586D01*
X84576788Y-69058768D01*
X84422445Y-68980127D01*
X84257701Y-68926598D01*
X84257699Y-68926597D01*
X84257698Y-68926597D01*
X84126271Y-68905781D01*
X84086611Y-68899500D01*
X83913389Y-68899500D01*
X83873728Y-68905781D01*
X83742302Y-68926597D01*
X83577552Y-68980128D01*
X83423211Y-69058768D01*
X83344457Y-69115987D01*
X83283072Y-69160586D01*
X83283070Y-69160588D01*
X83283069Y-69160588D01*
X83160588Y-69283069D01*
X83160588Y-69283070D01*
X83160586Y-69283072D01*
X83137760Y-69314489D01*
X83058768Y-69423211D01*
X82980128Y-69577552D01*
X82926597Y-69742302D01*
X82914159Y-69820836D01*
X82899500Y-69913389D01*
X78576184Y-69913389D01*
X78602085Y-69892734D01*
X78792734Y-69702085D01*
X78960838Y-69491289D01*
X79104284Y-69262997D01*
X79221267Y-69020079D01*
X79310316Y-68765591D01*
X79370312Y-68502732D01*
X79400500Y-68234809D01*
X79400500Y-67965191D01*
X79370312Y-67697268D01*
X79310316Y-67434409D01*
X79308876Y-67430295D01*
X79288145Y-67371049D01*
X79221267Y-67179921D01*
X79104284Y-66937003D01*
X78960838Y-66708711D01*
X78792734Y-66497915D01*
X78602085Y-66307266D01*
X78391289Y-66139162D01*
X78162997Y-65995716D01*
X78162994Y-65995714D01*
X77920082Y-65878734D01*
X77882773Y-65865679D01*
X77695075Y-65800000D01*
X80500000Y-65800000D01*
X80500000Y-67400000D01*
X83811535Y-67400000D01*
X83878574Y-67419685D01*
X83899216Y-67436319D01*
X85767879Y-69304982D01*
X85801364Y-69366305D01*
X85796380Y-69435997D01*
X85790683Y-69448958D01*
X85739352Y-69549698D01*
X85724500Y-69643475D01*
X85724500Y-70106517D01*
X85730064Y-70141647D01*
X85739354Y-70200304D01*
X85796950Y-70313342D01*
X85796952Y-70313344D01*
X85796954Y-70313347D01*
X85886652Y-70403045D01*
X85886654Y-70403046D01*
X85886658Y-70403050D01*
X85999694Y-70460645D01*
X85999698Y-70460647D01*
X86093475Y-70475499D01*
X86093481Y-70475500D01*
X86706518Y-70475499D01*
X86800304Y-70460646D01*
X86913342Y-70403050D01*
X86954572Y-70361820D01*
X86981500Y-70347115D01*
X87007319Y-70330523D01*
X87013518Y-70329631D01*
X87015895Y-70328334D01*
X87042254Y-70325500D01*
X87137035Y-70325500D01*
X87204074Y-70345185D01*
X87224716Y-70361819D01*
X87651887Y-70788990D01*
X87679163Y-70836233D01*
X87680499Y-70835680D01*
X87683607Y-70843185D01*
X87683608Y-70843186D01*
X87749500Y-70957314D01*
X87842686Y-71050500D01*
X87956814Y-71116392D01*
X87956816Y-71116392D01*
X87964326Y-71119504D01*
X87963771Y-71120841D01*
X88011010Y-71148113D01*
X88723387Y-71860490D01*
X88817454Y-71914799D01*
X88817456Y-71914801D01*
X88817456Y-71914800D01*
X88826114Y-71919799D01*
X88940691Y-71950500D01*
X89038943Y-71950500D01*
X89105982Y-71970185D01*
X89139206Y-72006906D01*
X89141214Y-72005448D01*
X89146950Y-72013343D01*
X89236652Y-72103045D01*
X89236654Y-72103046D01*
X89236658Y-72103050D01*
X89339881Y-72155645D01*
X89349698Y-72160647D01*
X89443475Y-72175499D01*
X89443481Y-72175500D01*
X89906518Y-72175499D01*
X90000304Y-72160646D01*
X90113342Y-72103050D01*
X90203050Y-72013342D01*
X90260646Y-71900304D01*
X90260646Y-71900302D01*
X90260647Y-71900301D01*
X90275499Y-71806524D01*
X90275500Y-71806519D01*
X90275499Y-71193482D01*
X90260646Y-71099696D01*
X90203050Y-70986658D01*
X90203046Y-70986654D01*
X90203045Y-70986652D01*
X90113347Y-70896954D01*
X90113344Y-70896952D01*
X90113342Y-70896950D01*
X90026585Y-70852745D01*
X90000301Y-70839352D01*
X89906524Y-70824500D01*
X89443482Y-70824500D01*
X89362519Y-70837323D01*
X89349696Y-70839354D01*
X89236658Y-70896950D01*
X89236657Y-70896951D01*
X89236652Y-70896954D01*
X89223036Y-70910571D01*
X89161713Y-70944056D01*
X89092021Y-70939072D01*
X89047674Y-70910571D01*
X88648113Y-70511010D01*
X88620841Y-70463771D01*
X88619504Y-70464326D01*
X88616392Y-70456815D01*
X88616392Y-70456814D01*
X88550500Y-70342686D01*
X88457314Y-70249500D01*
X88378998Y-70204284D01*
X88343185Y-70183607D01*
X88335680Y-70180499D01*
X88336233Y-70179163D01*
X88288990Y-70151887D01*
X87651616Y-69514513D01*
X87651614Y-69514511D01*
X87600250Y-69484856D01*
X87548888Y-69455201D01*
X87536780Y-69451957D01*
X87524673Y-69448713D01*
X87524670Y-69448712D01*
X87477216Y-69435997D01*
X87434309Y-69424500D01*
X87434308Y-69424500D01*
X87042254Y-69424500D01*
X87015554Y-69416660D01*
X86988104Y-69412052D01*
X86979850Y-69406176D01*
X86975215Y-69404815D01*
X86958870Y-69392277D01*
X86956672Y-69390280D01*
X86913342Y-69346950D01*
X86903411Y-69341890D01*
X86891116Y-69330719D01*
X86881217Y-69314489D01*
X86867396Y-69301431D01*
X86862732Y-69284182D01*
X86854734Y-69271069D01*
X86855090Y-69255919D01*
X86853097Y-69248548D01*
X86851561Y-69248751D01*
X86850500Y-69240694D01*
X86850500Y-69240691D01*
X86819799Y-69126114D01*
X86813953Y-69115988D01*
X86813953Y-69115987D01*
X86760492Y-69023390D01*
X86760488Y-69023385D01*
X85348784Y-67611681D01*
X85315299Y-67550358D01*
X85320283Y-67480666D01*
X85362155Y-67424733D01*
X85427619Y-67400316D01*
X85436465Y-67400000D01*
X85953745Y-67400000D01*
X86020784Y-67419685D01*
X86034954Y-67430293D01*
X86173490Y-67550358D01*
X88999997Y-69999999D01*
X88999999Y-70000000D01*
X89000000Y-70000000D01*
X89211534Y-70000000D01*
X89278573Y-70019685D01*
X89299215Y-70036319D01*
X89523386Y-70260490D01*
X89523388Y-70260491D01*
X89523392Y-70260494D01*
X89626111Y-70319798D01*
X89626113Y-70319799D01*
X89647386Y-70325499D01*
X89647388Y-70325500D01*
X89647389Y-70325500D01*
X89662807Y-70329631D01*
X89740691Y-70350500D01*
X91762035Y-70350500D01*
X91829074Y-70370185D01*
X91849716Y-70386819D01*
X92313181Y-70850284D01*
X92346666Y-70911607D01*
X92349500Y-70937965D01*
X92349500Y-71346062D01*
X92335383Y-71398751D01*
X92336719Y-71399304D01*
X92333608Y-71406814D01*
X92299500Y-71534108D01*
X92299500Y-71665891D01*
X92333608Y-71793187D01*
X92366554Y-71850250D01*
X92399500Y-71907314D01*
X92492686Y-72000500D01*
X92606814Y-72066392D01*
X92734108Y-72100500D01*
X92734110Y-72100500D01*
X92865890Y-72100500D01*
X92865892Y-72100500D01*
X92993186Y-72066392D01*
X93107314Y-72000500D01*
X93200500Y-71907314D01*
X93266392Y-71793186D01*
X93300500Y-71665892D01*
X93300500Y-71534108D01*
X93266392Y-71406814D01*
X93266388Y-71406807D01*
X93263281Y-71399304D01*
X93264616Y-71398751D01*
X93250500Y-71346062D01*
X93250500Y-71033183D01*
X93270185Y-70966144D01*
X93322989Y-70920389D01*
X93392147Y-70910445D01*
X93436498Y-70925795D01*
X93506814Y-70966392D01*
X93634108Y-71000500D01*
X93634110Y-71000500D01*
X93765890Y-71000500D01*
X93765892Y-71000500D01*
X93893186Y-70966392D01*
X94007314Y-70900500D01*
X94100500Y-70807314D01*
X94166392Y-70693186D01*
X94200500Y-70565892D01*
X94200500Y-70434108D01*
X94166392Y-70306814D01*
X94100500Y-70192686D01*
X94096640Y-70186000D01*
X94080167Y-70118100D01*
X94103019Y-70052073D01*
X94157940Y-70008883D01*
X94204027Y-70000000D01*
X94795973Y-70000000D01*
X94863012Y-70019685D01*
X94908767Y-70072489D01*
X94918711Y-70141647D01*
X94903360Y-70186000D01*
X94833609Y-70306810D01*
X94833609Y-70306811D01*
X94833608Y-70306813D01*
X94833608Y-70306814D01*
X94818870Y-70361819D01*
X94799500Y-70434108D01*
X94799500Y-70565891D01*
X94833608Y-70693186D01*
X94836718Y-70700693D01*
X94835381Y-70701246D01*
X94837035Y-70707422D01*
X94844477Y-70719001D01*
X94849500Y-70753936D01*
X94849500Y-70903448D01*
X94829815Y-70970487D01*
X94825821Y-70976329D01*
X94821953Y-70981653D01*
X94821950Y-70981657D01*
X94821950Y-70981658D01*
X94811576Y-71002019D01*
X94764352Y-71094698D01*
X94749500Y-71188475D01*
X94749500Y-71801517D01*
X94757227Y-71850301D01*
X94764354Y-71895304D01*
X94821950Y-72008342D01*
X94821952Y-72008344D01*
X94821954Y-72008347D01*
X94911652Y-72098045D01*
X94911654Y-72098046D01*
X94911658Y-72098050D01*
X95024694Y-72155645D01*
X95024698Y-72155647D01*
X95118475Y-72170499D01*
X95118481Y-72170500D01*
X95581518Y-72170499D01*
X95675304Y-72155646D01*
X95788342Y-72098050D01*
X95878050Y-72008342D01*
X95935646Y-71895304D01*
X95935646Y-71895302D01*
X95935647Y-71895301D01*
X95950499Y-71801524D01*
X95950500Y-71801519D01*
X95950499Y-71188482D01*
X95950498Y-71188475D01*
X96399500Y-71188475D01*
X96399500Y-71801517D01*
X96407227Y-71850301D01*
X96414354Y-71895304D01*
X96471950Y-72008342D01*
X96471952Y-72008344D01*
X96471954Y-72008347D01*
X96561652Y-72098045D01*
X96561654Y-72098046D01*
X96561658Y-72098050D01*
X96674694Y-72155645D01*
X96674698Y-72155647D01*
X96768475Y-72170499D01*
X96768481Y-72170500D01*
X97231518Y-72170499D01*
X97325304Y-72155646D01*
X97438342Y-72098050D01*
X97481820Y-72054572D01*
X97528050Y-72008343D01*
X97533786Y-72000448D01*
X97536059Y-72002100D01*
X97573546Y-71962409D01*
X97636057Y-71945500D01*
X98013943Y-71945500D01*
X98080982Y-71965185D01*
X98103961Y-71984219D01*
X98116289Y-71997231D01*
X98121950Y-72008342D01*
X98211658Y-72098050D01*
X98211935Y-72098191D01*
X98215518Y-72101973D01*
X98230692Y-72131640D01*
X98246666Y-72160895D01*
X98246935Y-72163399D01*
X98247334Y-72164179D01*
X98247183Y-72165705D01*
X98249500Y-72187254D01*
X98249500Y-72577389D01*
X98229815Y-72644428D01*
X98213181Y-72665070D01*
X98126476Y-72751774D01*
X98126473Y-72751778D01*
X98065279Y-72871878D01*
X98049500Y-72971506D01*
X98049500Y-73538493D01*
X98065279Y-73638123D01*
X98105985Y-73718011D01*
X98119500Y-73774306D01*
X98119500Y-74467947D01*
X98117156Y-74478075D01*
X98118238Y-74485594D01*
X98112521Y-74498111D01*
X98106901Y-74522406D01*
X98079428Y-74578604D01*
X98079425Y-74578611D01*
X98069500Y-74646739D01*
X98069500Y-76363260D01*
X98079426Y-76431391D01*
X98130803Y-76536485D01*
X98213514Y-76619196D01*
X98213515Y-76619196D01*
X98213517Y-76619198D01*
X98318607Y-76670573D01*
X98352673Y-76675536D01*
X98386739Y-76680500D01*
X98386740Y-76680500D01*
X98753261Y-76680500D01*
X98775971Y-76677191D01*
X98821393Y-76670573D01*
X98926483Y-76619198D01*
X99009198Y-76536483D01*
X99060573Y-76431393D01*
X99070500Y-76363260D01*
X99070500Y-74646740D01*
X99070500Y-74646739D01*
X99339500Y-74646739D01*
X99339500Y-76363260D01*
X99349426Y-76431391D01*
X99400803Y-76536485D01*
X99483514Y-76619196D01*
X99483515Y-76619196D01*
X99483517Y-76619198D01*
X99588607Y-76670573D01*
X99622673Y-76675536D01*
X99656739Y-76680500D01*
X99656740Y-76680500D01*
X100023261Y-76680500D01*
X100045971Y-76677191D01*
X100091393Y-76670573D01*
X100196483Y-76619198D01*
X100279198Y-76536483D01*
X100330573Y-76431393D01*
X100340500Y-76363260D01*
X100340500Y-74646740D01*
X100335146Y-74609992D01*
X100344959Y-74540815D01*
X100370169Y-74504433D01*
X100461503Y-74413099D01*
X100610490Y-74264113D01*
X100669799Y-74161386D01*
X100672985Y-74149495D01*
X100679848Y-74123885D01*
X100694236Y-74070185D01*
X100700500Y-74046809D01*
X100700500Y-73932611D01*
X100708930Y-73903901D01*
X100714918Y-73874578D01*
X100719270Y-73868685D01*
X100720185Y-73865572D01*
X100735707Y-73846056D01*
X100736287Y-73845460D01*
X100823528Y-73758220D01*
X100825936Y-73753493D01*
X100836219Y-73742945D01*
X100859166Y-73730031D01*
X100880017Y-73713952D01*
X100891611Y-73711774D01*
X100897110Y-73708680D01*
X100905470Y-73709170D01*
X100925012Y-73705500D01*
X101367745Y-73705500D01*
X101434784Y-73725185D01*
X101455426Y-73741819D01*
X101461652Y-73748045D01*
X101461654Y-73748046D01*
X101461658Y-73748050D01*
X101574694Y-73805645D01*
X101574698Y-73805647D01*
X101668475Y-73820499D01*
X101668481Y-73820500D01*
X102281518Y-73820499D01*
X102375304Y-73805646D01*
X102488342Y-73748050D01*
X102578050Y-73658342D01*
X102635646Y-73545304D01*
X102635646Y-73545302D01*
X102635647Y-73545301D01*
X102648653Y-73463181D01*
X102650500Y-73451519D01*
X102650499Y-72988482D01*
X102635646Y-72894696D01*
X102578050Y-72781658D01*
X102578046Y-72781654D01*
X102578045Y-72781652D01*
X102488347Y-72691954D01*
X102488344Y-72691952D01*
X102488342Y-72691950D01*
X102400025Y-72646950D01*
X102375301Y-72634352D01*
X102281524Y-72619500D01*
X101668482Y-72619500D01*
X101587519Y-72632323D01*
X101574696Y-72634354D01*
X101461658Y-72691950D01*
X101461657Y-72691951D01*
X101461652Y-72691954D01*
X101385426Y-72768181D01*
X101324103Y-72801666D01*
X101297745Y-72804500D01*
X100925012Y-72804500D01*
X100857973Y-72784815D01*
X100824689Y-72753379D01*
X100823529Y-72751782D01*
X100823528Y-72751780D01*
X100823525Y-72751777D01*
X100823523Y-72751774D01*
X100728225Y-72656476D01*
X100728221Y-72656473D01*
X100728220Y-72656472D01*
X100608126Y-72595281D01*
X100608124Y-72595280D01*
X100608121Y-72595279D01*
X100508493Y-72579500D01*
X100508488Y-72579500D01*
X99991512Y-72579500D01*
X99991507Y-72579500D01*
X99891878Y-72595279D01*
X99771778Y-72656473D01*
X99771774Y-72656476D01*
X99676476Y-72751774D01*
X99676473Y-72751778D01*
X99615279Y-72871878D01*
X99599500Y-72971506D01*
X99599500Y-73538493D01*
X99615279Y-73638121D01*
X99615280Y-73638124D01*
X99615281Y-73638126D01*
X99676472Y-73758220D01*
X99676473Y-73758221D01*
X99682211Y-73766119D01*
X99679619Y-73768001D01*
X99705127Y-73814714D01*
X99700143Y-73884406D01*
X99671643Y-73928753D01*
X99479510Y-74120886D01*
X99420201Y-74223612D01*
X99420201Y-74223613D01*
X99419963Y-74224501D01*
X99400550Y-74296950D01*
X99389500Y-74338191D01*
X99389500Y-74467947D01*
X99386949Y-74476632D01*
X99388238Y-74485594D01*
X99376901Y-74522406D01*
X99349428Y-74578604D01*
X99349425Y-74578611D01*
X99339500Y-74646739D01*
X99070500Y-74646739D01*
X99065146Y-74609992D01*
X99060574Y-74578611D01*
X99060573Y-74578609D01*
X99060573Y-74578607D01*
X99042098Y-74540815D01*
X99033099Y-74522406D01*
X99032675Y-74520577D01*
X99031706Y-74519458D01*
X99030538Y-74511338D01*
X99020500Y-74467947D01*
X99020500Y-74009877D01*
X99040185Y-73942838D01*
X99088202Y-73899394D01*
X99178220Y-73853528D01*
X99273528Y-73758220D01*
X99334719Y-73638126D01*
X99336719Y-73625499D01*
X99350500Y-73538493D01*
X99350500Y-72971506D01*
X99334720Y-72871878D01*
X99334719Y-72871876D01*
X99334719Y-72871874D01*
X99273528Y-72751780D01*
X99273526Y-72751778D01*
X99273523Y-72751774D01*
X99186819Y-72665070D01*
X99153334Y-72603747D01*
X99150500Y-72577389D01*
X99150500Y-72086551D01*
X99170185Y-72019512D01*
X99174181Y-72013666D01*
X99178044Y-72008347D01*
X99178050Y-72008342D01*
X99235646Y-71895304D01*
X99235646Y-71895302D01*
X99235647Y-71895301D01*
X99250499Y-71801524D01*
X99250500Y-71801519D01*
X99250499Y-71188482D01*
X99235646Y-71094696D01*
X99178050Y-70981658D01*
X99178046Y-70981654D01*
X99178045Y-70981652D01*
X99088347Y-70891954D01*
X99088344Y-70891952D01*
X99088342Y-70891950D01*
X98985235Y-70839414D01*
X98975301Y-70834352D01*
X98881524Y-70819500D01*
X98418482Y-70819500D01*
X98337519Y-70832323D01*
X98324696Y-70834354D01*
X98211658Y-70891950D01*
X98211657Y-70891951D01*
X98211652Y-70891954D01*
X98121950Y-70981657D01*
X98116214Y-70989552D01*
X98113940Y-70987899D01*
X98076454Y-71027591D01*
X98013943Y-71044500D01*
X97636057Y-71044500D01*
X97569018Y-71024815D01*
X97535793Y-70988093D01*
X97533786Y-70989552D01*
X97528050Y-70981657D01*
X97438347Y-70891954D01*
X97438344Y-70891952D01*
X97438342Y-70891950D01*
X97335235Y-70839414D01*
X97325301Y-70834352D01*
X97231524Y-70819500D01*
X96768482Y-70819500D01*
X96687519Y-70832323D01*
X96674696Y-70834354D01*
X96561658Y-70891950D01*
X96561657Y-70891951D01*
X96561652Y-70891954D01*
X96471954Y-70981652D01*
X96471951Y-70981657D01*
X96471950Y-70981658D01*
X96461576Y-71002019D01*
X96414352Y-71094698D01*
X96399500Y-71188475D01*
X95950498Y-71188475D01*
X95935646Y-71094696D01*
X95878050Y-70981658D01*
X95878046Y-70981654D01*
X95878045Y-70981652D01*
X95786819Y-70890426D01*
X95772115Y-70863498D01*
X95755523Y-70837680D01*
X95754631Y-70831479D01*
X95753334Y-70829103D01*
X95750500Y-70802745D01*
X95750500Y-70753936D01*
X95764618Y-70701246D01*
X95763282Y-70700693D01*
X95766391Y-70693187D01*
X95766392Y-70693186D01*
X95800500Y-70565892D01*
X95800500Y-70434108D01*
X95766392Y-70306814D01*
X95700500Y-70192686D01*
X95696640Y-70186000D01*
X95680167Y-70118100D01*
X95703019Y-70052073D01*
X95757940Y-70008883D01*
X95804027Y-70000000D01*
X99725500Y-70000000D01*
X99792539Y-70019685D01*
X99838294Y-70072489D01*
X99849500Y-70124000D01*
X99849500Y-70852745D01*
X99829815Y-70919784D01*
X99813181Y-70940426D01*
X99771954Y-70981652D01*
X99771951Y-70981657D01*
X99771950Y-70981658D01*
X99761576Y-71002019D01*
X99714352Y-71094698D01*
X99699500Y-71188475D01*
X99699500Y-71801517D01*
X99707227Y-71850301D01*
X99714354Y-71895304D01*
X99771950Y-72008342D01*
X99771952Y-72008344D01*
X99771954Y-72008347D01*
X99861652Y-72098045D01*
X99861654Y-72098046D01*
X99861658Y-72098050D01*
X99974694Y-72155645D01*
X99974698Y-72155647D01*
X100068475Y-72170499D01*
X100068481Y-72170500D01*
X100531518Y-72170499D01*
X100625304Y-72155646D01*
X100738342Y-72098050D01*
X100781820Y-72054572D01*
X100828050Y-72008343D01*
X100833786Y-72000448D01*
X100836059Y-72002100D01*
X100873546Y-71962409D01*
X100936057Y-71945500D01*
X101263943Y-71945500D01*
X101330982Y-71965185D01*
X101364206Y-72001906D01*
X101366214Y-72000448D01*
X101371950Y-72008343D01*
X101461652Y-72098045D01*
X101461654Y-72098046D01*
X101461658Y-72098050D01*
X101574694Y-72155645D01*
X101574698Y-72155647D01*
X101668475Y-72170499D01*
X101668481Y-72170500D01*
X102281518Y-72170499D01*
X102375304Y-72155646D01*
X102488342Y-72098050D01*
X102578050Y-72008342D01*
X102635646Y-71895304D01*
X102635646Y-71895302D01*
X102635647Y-71895301D01*
X102650499Y-71801524D01*
X102650500Y-71801519D01*
X102650499Y-71338482D01*
X102635646Y-71244696D01*
X102578050Y-71131658D01*
X102578046Y-71131654D01*
X102578045Y-71131652D01*
X102488347Y-71041954D01*
X102488344Y-71041952D01*
X102488342Y-71041950D01*
X102385506Y-70989552D01*
X102375301Y-70984352D01*
X102281524Y-70969500D01*
X101668482Y-70969500D01*
X101591719Y-70981658D01*
X101574696Y-70984354D01*
X101483176Y-71030985D01*
X101426884Y-71044500D01*
X100936057Y-71044500D01*
X100869018Y-71024815D01*
X100844279Y-71003883D01*
X100833110Y-70991590D01*
X100828050Y-70981658D01*
X100784728Y-70938336D01*
X100782722Y-70936128D01*
X100768710Y-70907263D01*
X100753334Y-70879103D01*
X100752848Y-70874584D01*
X100752211Y-70873272D01*
X100752472Y-70871090D01*
X100750500Y-70852745D01*
X100750500Y-67240693D01*
X100750500Y-67240691D01*
X100719799Y-67126114D01*
X100719799Y-67126113D01*
X100660489Y-67023386D01*
X97476614Y-63839511D01*
X97425250Y-63809856D01*
X97373888Y-63780201D01*
X97361780Y-63776957D01*
X97349673Y-63773713D01*
X97349670Y-63773712D01*
X97311478Y-63763478D01*
X97259309Y-63749500D01*
X97259308Y-63749500D01*
X96361057Y-63749500D01*
X96294018Y-63729815D01*
X96260793Y-63693093D01*
X96258786Y-63694552D01*
X96253050Y-63686657D01*
X96163347Y-63596954D01*
X96163344Y-63596952D01*
X96163342Y-63596950D01*
X96066947Y-63547834D01*
X96050301Y-63539352D01*
X95956524Y-63524500D01*
X95493482Y-63524500D01*
X95412519Y-63537323D01*
X95399696Y-63539354D01*
X95356792Y-63561214D01*
X95288126Y-63574110D01*
X95223385Y-63547834D01*
X95183128Y-63490727D01*
X95176500Y-63450729D01*
X95176500Y-63113606D01*
X95196185Y-63046567D01*
X95244209Y-63003119D01*
X95253218Y-62998529D01*
X95253217Y-62998529D01*
X95253220Y-62998528D01*
X95348528Y-62903220D01*
X95409719Y-62783126D01*
X95409720Y-62783121D01*
X95425500Y-62683493D01*
X95425500Y-62116506D01*
X95409719Y-62016874D01*
X95406704Y-62007593D01*
X95409539Y-62006671D01*
X95400500Y-61969011D01*
X95400500Y-61149987D01*
X95410014Y-61110360D01*
X95407630Y-61109586D01*
X95410644Y-61100307D01*
X95410646Y-61100304D01*
X95425500Y-61006519D01*
X95425499Y-60393482D01*
X95410646Y-60299696D01*
X95410644Y-60299692D01*
X95407630Y-60290413D01*
X95410010Y-60289639D01*
X95400500Y-60250013D01*
X95400500Y-59449987D01*
X95410014Y-59410360D01*
X95407630Y-59409586D01*
X95410644Y-59400307D01*
X95410646Y-59400304D01*
X95425500Y-59306519D01*
X95425499Y-58693482D01*
X95410646Y-58599696D01*
X95410644Y-58599692D01*
X95407630Y-58590413D01*
X95410010Y-58589639D01*
X95400500Y-58550013D01*
X95400500Y-57629500D01*
X95420185Y-57562461D01*
X95472989Y-57516706D01*
X95524500Y-57505500D01*
X95794750Y-57505500D01*
X95794751Y-57505499D01*
X95819885Y-57500500D01*
X95853229Y-57493868D01*
X95853229Y-57493867D01*
X95853231Y-57493867D01*
X95919552Y-57449552D01*
X95963867Y-57383231D01*
X95963867Y-57383229D01*
X95963868Y-57383229D01*
X95975499Y-57324752D01*
X95975500Y-57324750D01*
X95975500Y-56807257D01*
X95995185Y-56740218D01*
X96047989Y-56694463D01*
X96117147Y-56684519D01*
X96161499Y-56699870D01*
X96192440Y-56717734D01*
X96267859Y-56761278D01*
X96267860Y-56761278D01*
X96267865Y-56761281D01*
X96414234Y-56800500D01*
X96470880Y-56800500D01*
X96527174Y-56814015D01*
X96616876Y-56859720D01*
X96716507Y-56875500D01*
X96716512Y-56875500D01*
X97283493Y-56875500D01*
X97383121Y-56859720D01*
X97383121Y-56859719D01*
X97383126Y-56859719D01*
X97503220Y-56798528D01*
X97598528Y-56703220D01*
X97659719Y-56583126D01*
X97664408Y-56553523D01*
X97675500Y-56483493D01*
X97675500Y-55966506D01*
X97659720Y-55866878D01*
X97659719Y-55866876D01*
X97659719Y-55866874D01*
X97598528Y-55746780D01*
X97598526Y-55746778D01*
X97598523Y-55746774D01*
X97503225Y-55651476D01*
X97503221Y-55651473D01*
X97503220Y-55651472D01*
X97383126Y-55590281D01*
X97383124Y-55590280D01*
X97383121Y-55590279D01*
X97283493Y-55574500D01*
X97283488Y-55574500D01*
X96839742Y-55574500D01*
X96810301Y-55565855D01*
X96780315Y-55559332D01*
X96775299Y-55555577D01*
X96772703Y-55554815D01*
X96752061Y-55538181D01*
X96651061Y-55437181D01*
X96617576Y-55375858D01*
X96622560Y-55306166D01*
X96664432Y-55250233D01*
X96729896Y-55225816D01*
X96738742Y-55225500D01*
X97283493Y-55225500D01*
X97383121Y-55209720D01*
X97383121Y-55209719D01*
X97383126Y-55209719D01*
X97503220Y-55148528D01*
X97598528Y-55053220D01*
X97659719Y-54933126D01*
X97663453Y-54909552D01*
X97675500Y-54833493D01*
X97675500Y-54316506D01*
X97664792Y-54248898D01*
X97673747Y-54179604D01*
X97718743Y-54126152D01*
X97785495Y-54105513D01*
X97787265Y-54105500D01*
X98078130Y-54105500D01*
X98145169Y-54125185D01*
X98178654Y-54156899D01*
X100287406Y-57076711D01*
X100301854Y-57095751D01*
X100309140Y-57104896D01*
X100324468Y-57123228D01*
X100437338Y-57251912D01*
X100437339Y-57251913D01*
X100450051Y-57265094D01*
X100470491Y-57286288D01*
X100487518Y-57302350D01*
X100523773Y-57333447D01*
X100640875Y-57424653D01*
X100654163Y-57435003D01*
X100654188Y-57435021D01*
X100693176Y-57462530D01*
X100693185Y-57462536D01*
X100712927Y-57475112D01*
X100754385Y-57498845D01*
X100901535Y-57574085D01*
X100916260Y-57580756D01*
X100945032Y-57593792D01*
X100945049Y-57593799D01*
X100966780Y-57602432D01*
X100966791Y-57602435D01*
X100966802Y-57602440D01*
X101011978Y-57617957D01*
X101170646Y-57664200D01*
X101202745Y-57671930D01*
X101217076Y-57675382D01*
X101217083Y-57675383D01*
X101217090Y-57675385D01*
X101240081Y-57679784D01*
X101287362Y-57686533D01*
X101457752Y-57702689D01*
X101481567Y-57704381D01*
X101493271Y-57704935D01*
X101502123Y-57705144D01*
X101517155Y-57705500D01*
X101517172Y-57705500D01*
X105593890Y-57705500D01*
X105593907Y-57705500D01*
X105618707Y-57704891D01*
X105630861Y-57704294D01*
X105655610Y-57702469D01*
X105832483Y-57685048D01*
X105881547Y-57677770D01*
X105905388Y-57673028D01*
X105953513Y-57660974D01*
X106117736Y-57611158D01*
X106164455Y-57594441D01*
X106186913Y-57585138D01*
X106231747Y-57563932D01*
X106383089Y-57483038D01*
X106425635Y-57457537D01*
X106445847Y-57444032D01*
X106485696Y-57414479D01*
X106618352Y-57305611D01*
X106655108Y-57272296D01*
X106655109Y-57272295D01*
X106655117Y-57272288D01*
X106672288Y-57255117D01*
X106672295Y-57255109D01*
X106675201Y-57251903D01*
X106705611Y-57218352D01*
X106814479Y-57085696D01*
X106844032Y-57045847D01*
X106857537Y-57025635D01*
X106883038Y-56983089D01*
X106963932Y-56831747D01*
X106985138Y-56786913D01*
X106994441Y-56764455D01*
X107011158Y-56717736D01*
X107060974Y-56553513D01*
X107073028Y-56505388D01*
X107077770Y-56481547D01*
X107085048Y-56432483D01*
X107102469Y-56255610D01*
X107104294Y-56230861D01*
X107104891Y-56218707D01*
X107105500Y-56193907D01*
X107105500Y-53306092D01*
X107104891Y-53281292D01*
X107104294Y-53269138D01*
X107102469Y-53244389D01*
X107085048Y-53067516D01*
X107077770Y-53018452D01*
X107073028Y-52994611D01*
X107060974Y-52946486D01*
X107011158Y-52782263D01*
X106994441Y-52735544D01*
X106985138Y-52713086D01*
X106963932Y-52668252D01*
X106927854Y-52600754D01*
X106883041Y-52516915D01*
X106883036Y-52516907D01*
X106857544Y-52474375D01*
X106857537Y-52474364D01*
X106844032Y-52454152D01*
X106814479Y-52414303D01*
X106705611Y-52281647D01*
X106699133Y-52274500D01*
X106672295Y-52244889D01*
X106655109Y-52227703D01*
X106618358Y-52194393D01*
X106599946Y-52179283D01*
X106485693Y-52085518D01*
X106485678Y-52085506D01*
X106445861Y-52055976D01*
X106427394Y-52043637D01*
X106425640Y-52042465D01*
X106383088Y-52016960D01*
X106383081Y-52016956D01*
X106383074Y-52016952D01*
X106231770Y-51936079D01*
X106231758Y-51936072D01*
X106214165Y-51927751D01*
X106186919Y-51914864D01*
X106186912Y-51914861D01*
X106164473Y-51905565D01*
X106117736Y-51888841D01*
X105953504Y-51839022D01*
X105929351Y-51832972D01*
X105905373Y-51826967D01*
X105881545Y-51822228D01*
X105881540Y-51822227D01*
X105881543Y-51822227D01*
X105832494Y-51814952D01*
X105832474Y-51814950D01*
X105655598Y-51797530D01*
X105630876Y-51795707D01*
X105630871Y-51795706D01*
X105630861Y-51795706D01*
X105625602Y-51795447D01*
X105618714Y-51795109D01*
X105611473Y-51794931D01*
X105593907Y-51794500D01*
X97026880Y-51794500D01*
X97000802Y-51795173D01*
X96998222Y-51795306D01*
X96988008Y-51795833D01*
X96961915Y-51797859D01*
X96775810Y-51817167D01*
X96724219Y-51825232D01*
X96699151Y-51830490D01*
X96648682Y-51843832D01*
X96648673Y-51843835D01*
X96476625Y-51898970D01*
X96476620Y-51898972D01*
X96427733Y-51917475D01*
X96404350Y-51927737D01*
X96404321Y-51927751D01*
X96357648Y-51951179D01*
X96195003Y-52043630D01*
X96172625Y-52057127D01*
X96161863Y-52064003D01*
X96140188Y-52078655D01*
X96037683Y-52151871D01*
X96013767Y-52170050D01*
X96002354Y-52179272D01*
X95979534Y-52198860D01*
X95859747Y-52308031D01*
X95859739Y-52308039D01*
X95817826Y-52351065D01*
X95817818Y-52351074D01*
X95798617Y-52373283D01*
X95798602Y-52373301D01*
X95762138Y-52420921D01*
X95762124Y-52420940D01*
X95675555Y-52549095D01*
X95675552Y-52549100D01*
X95675545Y-52549111D01*
X95669872Y-52558689D01*
X95618775Y-52606339D01*
X95563181Y-52619500D01*
X94580766Y-52619500D01*
X94429233Y-52619500D01*
X94282865Y-52658719D01*
X94282864Y-52658719D01*
X94282862Y-52658720D01*
X94282861Y-52658720D01*
X94246841Y-52679517D01*
X94209033Y-52693747D01*
X94146770Y-52706132D01*
X94146769Y-52706132D01*
X94080447Y-52750447D01*
X94036133Y-52816767D01*
X94029301Y-52851113D01*
X94015072Y-52888917D01*
X93963719Y-52977864D01*
X93963719Y-52977865D01*
X93924500Y-53124234D01*
X93924500Y-53275765D01*
X93963719Y-53422136D01*
X93994298Y-53475100D01*
X94010435Y-53503050D01*
X94018106Y-53516335D01*
X94032336Y-53554143D01*
X94036133Y-53573231D01*
X94080447Y-53639552D01*
X94146769Y-53683867D01*
X94146770Y-53683868D01*
X94188191Y-53692107D01*
X94193940Y-53695114D01*
X94200429Y-53695196D01*
X94226001Y-53706338D01*
X94258521Y-53725114D01*
X94306736Y-53775681D01*
X94319958Y-53844289D01*
X94293990Y-53909153D01*
X94258520Y-53939887D01*
X94239213Y-53951034D01*
X94215750Y-53959864D01*
X94210648Y-53963054D01*
X94207385Y-53963012D01*
X94201405Y-53965264D01*
X94146770Y-53976132D01*
X94146769Y-53976132D01*
X94080447Y-54020447D01*
X94036132Y-54086769D01*
X94030818Y-54113484D01*
X94016589Y-54151290D01*
X93963719Y-54242864D01*
X93963719Y-54242865D01*
X93924500Y-54389234D01*
X93924500Y-54540766D01*
X93951705Y-54642299D01*
X93963720Y-54687137D01*
X93963720Y-54687138D01*
X94016588Y-54778707D01*
X94030818Y-54816515D01*
X94036132Y-54843229D01*
X94036132Y-54843230D01*
X94080447Y-54909552D01*
X94146769Y-54953867D01*
X94146770Y-54953868D01*
X94201404Y-54964735D01*
X94204595Y-54965936D01*
X94206449Y-54965848D01*
X94239215Y-54978966D01*
X94281039Y-55003114D01*
X94329254Y-55053682D01*
X94342475Y-55122289D01*
X94316506Y-55187153D01*
X94259592Y-55227681D01*
X94219037Y-55234500D01*
X94205247Y-55234500D01*
X94146770Y-55246131D01*
X94146769Y-55246132D01*
X94080447Y-55290447D01*
X94036132Y-55356769D01*
X94036131Y-55356770D01*
X94024500Y-55415247D01*
X94024500Y-56054752D01*
X94036131Y-56113229D01*
X94036132Y-56113230D01*
X94080447Y-56179552D01*
X94146769Y-56223867D01*
X94146770Y-56223868D01*
X94205247Y-56235499D01*
X94205250Y-56235500D01*
X94205252Y-56235500D01*
X94682665Y-56235500D01*
X94698154Y-56239650D01*
X94711901Y-56238996D01*
X94744666Y-56252114D01*
X94781038Y-56273114D01*
X94829253Y-56323681D01*
X94842475Y-56392289D01*
X94816507Y-56457153D01*
X94759592Y-56497681D01*
X94719037Y-56504500D01*
X94205247Y-56504500D01*
X94146770Y-56516131D01*
X94146769Y-56516132D01*
X94080447Y-56560447D01*
X94036132Y-56626769D01*
X94036131Y-56626770D01*
X94024500Y-56685247D01*
X94024500Y-57324752D01*
X94036131Y-57383229D01*
X94036132Y-57383230D01*
X94080447Y-57449552D01*
X94146767Y-57493866D01*
X94146769Y-57493867D01*
X94149684Y-57494447D01*
X94155461Y-57497467D01*
X94158054Y-57498542D01*
X94157957Y-57498773D01*
X94211597Y-57526827D01*
X94246175Y-57587541D01*
X94249500Y-57616065D01*
X94249500Y-58550012D01*
X94239989Y-58589638D01*
X94242370Y-58590412D01*
X94239353Y-58599697D01*
X94224500Y-58693475D01*
X94224500Y-59306517D01*
X94239354Y-59400304D01*
X94242370Y-59409585D01*
X94239985Y-59410359D01*
X94249500Y-59449986D01*
X94249500Y-60250012D01*
X94239989Y-60289638D01*
X94242370Y-60290412D01*
X94239353Y-60299697D01*
X94224500Y-60393475D01*
X94224500Y-60614605D01*
X94221062Y-60626311D01*
X94220275Y-60646697D01*
X94199500Y-60724232D01*
X94199500Y-60875767D01*
X94220275Y-60953303D01*
X94223094Y-60966774D01*
X94224500Y-60976031D01*
X94224501Y-61006518D01*
X94239354Y-61100304D01*
X94245084Y-61111549D01*
X94248094Y-61131365D01*
X94246987Y-61139521D01*
X94249500Y-61149986D01*
X94249500Y-61797389D01*
X94229815Y-61864428D01*
X94213181Y-61885070D01*
X94201476Y-61896774D01*
X94201473Y-61896778D01*
X94140279Y-62016878D01*
X94124500Y-62116506D01*
X94124500Y-62683493D01*
X94140279Y-62783121D01*
X94140280Y-62783124D01*
X94140281Y-62783126D01*
X94201472Y-62903220D01*
X94201473Y-62903221D01*
X94201476Y-62903225D01*
X94296774Y-62998523D01*
X94296778Y-62998526D01*
X94296780Y-62998528D01*
X94407797Y-63055094D01*
X94418859Y-63065541D01*
X94432703Y-63071864D01*
X94443743Y-63089043D01*
X94458591Y-63103066D01*
X94462832Y-63118747D01*
X94470477Y-63130642D01*
X94475500Y-63165577D01*
X94475500Y-63406078D01*
X94455815Y-63473117D01*
X94403011Y-63518872D01*
X94333853Y-63528816D01*
X94332103Y-63528551D01*
X94306525Y-63524500D01*
X93843482Y-63524500D01*
X93762519Y-63537323D01*
X93749696Y-63539354D01*
X93636658Y-63596950D01*
X93636657Y-63596951D01*
X93636652Y-63596954D01*
X93546950Y-63686657D01*
X93541214Y-63694552D01*
X93538940Y-63692899D01*
X93501454Y-63732591D01*
X93438943Y-63749500D01*
X92640691Y-63749500D01*
X92550325Y-63773713D01*
X92550324Y-63773712D01*
X92526115Y-63780200D01*
X92526106Y-63780204D01*
X92423392Y-63839505D01*
X92423384Y-63839511D01*
X91940839Y-64322056D01*
X91879516Y-64355541D01*
X91835280Y-64357079D01*
X91783261Y-64349500D01*
X91783260Y-64349500D01*
X90541740Y-64349500D01*
X90541739Y-64349500D01*
X90473608Y-64359426D01*
X90368514Y-64410803D01*
X90285802Y-64493515D01*
X90279832Y-64501878D01*
X90278770Y-64501119D01*
X90238773Y-64544898D01*
X90171239Y-64562812D01*
X90104740Y-64541371D01*
X90060390Y-64487382D01*
X90050500Y-64438855D01*
X90050500Y-64337965D01*
X90070185Y-64270926D01*
X90086819Y-64250284D01*
X90893589Y-63443514D01*
X91760489Y-62576614D01*
X91812582Y-62486386D01*
X91819799Y-62473886D01*
X91850500Y-62359309D01*
X91850500Y-62261057D01*
X91870185Y-62194018D01*
X91906903Y-62160800D01*
X91905443Y-62158790D01*
X91913336Y-62153054D01*
X91913337Y-62153052D01*
X91913342Y-62153050D01*
X92003050Y-62063342D01*
X92060646Y-61950304D01*
X92060646Y-61950302D01*
X92060647Y-61950301D01*
X92075499Y-61856524D01*
X92075500Y-61856519D01*
X92075499Y-61393482D01*
X92060646Y-61299696D01*
X92003050Y-61186658D01*
X92003046Y-61186654D01*
X92003045Y-61186652D01*
X91913347Y-61096954D01*
X91913344Y-61096952D01*
X91913342Y-61096950D01*
X91836517Y-61057805D01*
X91800301Y-61039352D01*
X91706524Y-61024500D01*
X91093482Y-61024500D01*
X91012519Y-61037323D01*
X90999696Y-61039354D01*
X90886658Y-61096950D01*
X90886657Y-61096951D01*
X90886652Y-61096954D01*
X90796954Y-61186652D01*
X90796951Y-61186657D01*
X90796950Y-61186658D01*
X90777751Y-61224337D01*
X90739352Y-61299698D01*
X90724500Y-61393475D01*
X90724500Y-61856517D01*
X90730876Y-61896774D01*
X90739354Y-61950304D01*
X90796950Y-62063342D01*
X90796952Y-62063344D01*
X90796954Y-62063347D01*
X90810570Y-62076963D01*
X90844055Y-62138286D01*
X90839071Y-62207978D01*
X90810570Y-62252325D01*
X89239513Y-63823383D01*
X89239509Y-63823389D01*
X89180201Y-63926112D01*
X89180201Y-63926113D01*
X89180201Y-63926114D01*
X89149500Y-64040691D01*
X89149500Y-66059309D01*
X89170897Y-66139162D01*
X89170896Y-66139162D01*
X89170897Y-66139164D01*
X89180199Y-66173883D01*
X89180200Y-66173885D01*
X89180201Y-66173887D01*
X89239511Y-66276614D01*
X90073386Y-67110489D01*
X90176113Y-67169799D01*
X90200326Y-67176286D01*
X90290691Y-67200500D01*
X90371955Y-67200500D01*
X90380869Y-67201802D01*
X90393339Y-67207530D01*
X90417407Y-67213098D01*
X90473607Y-67240573D01*
X90507673Y-67245536D01*
X90541739Y-67250500D01*
X90541740Y-67250500D01*
X91783261Y-67250500D01*
X91805971Y-67247191D01*
X91851393Y-67240573D01*
X91956483Y-67189198D01*
X92039198Y-67106483D01*
X92090573Y-67001393D01*
X92100500Y-66933260D01*
X92100500Y-66566740D01*
X92090573Y-66498607D01*
X92039198Y-66393517D01*
X92039196Y-66393515D01*
X92039196Y-66393514D01*
X91956485Y-66310803D01*
X91851391Y-66259426D01*
X91783261Y-66249500D01*
X91783260Y-66249500D01*
X90541740Y-66249500D01*
X90537965Y-66249500D01*
X90470926Y-66229815D01*
X90450284Y-66213181D01*
X90086819Y-65849716D01*
X90053334Y-65788393D01*
X90050500Y-65762035D01*
X90050500Y-65261144D01*
X90070185Y-65194105D01*
X90122989Y-65148350D01*
X90192147Y-65138406D01*
X90255703Y-65167431D01*
X90279496Y-65198361D01*
X90279832Y-65198122D01*
X90285802Y-65206484D01*
X90368514Y-65289196D01*
X90368515Y-65289196D01*
X90368517Y-65289198D01*
X90473607Y-65340573D01*
X90507673Y-65345536D01*
X90541739Y-65350500D01*
X90541740Y-65350500D01*
X91783261Y-65350500D01*
X91805971Y-65347191D01*
X91851393Y-65340573D01*
X91907592Y-65313098D01*
X91919679Y-65310302D01*
X91927117Y-65305523D01*
X91962052Y-65300500D01*
X92032074Y-65300500D01*
X92099113Y-65320185D01*
X92144868Y-65372989D01*
X92154812Y-65442147D01*
X92143475Y-65478960D01*
X92109426Y-65548608D01*
X92099500Y-65616739D01*
X92099500Y-65983260D01*
X92109426Y-66051391D01*
X92160803Y-66156485D01*
X92243514Y-66239196D01*
X92243515Y-66239196D01*
X92243517Y-66239198D01*
X92348607Y-66290573D01*
X92382673Y-66295536D01*
X92416739Y-66300500D01*
X92416740Y-66300500D01*
X93658261Y-66300500D01*
X93680971Y-66297191D01*
X93726393Y-66290573D01*
X93831483Y-66239198D01*
X93883863Y-66186817D01*
X93945184Y-66153334D01*
X93971543Y-66150500D01*
X94346142Y-66150500D01*
X94346144Y-66150500D01*
X94435288Y-66126614D01*
X94515212Y-66080470D01*
X95106469Y-65489212D01*
X95152614Y-65409288D01*
X95176500Y-65320144D01*
X95176500Y-64949271D01*
X95196185Y-64882232D01*
X95248989Y-64836477D01*
X95318147Y-64826533D01*
X95356794Y-64838786D01*
X95395013Y-64858260D01*
X95399696Y-64860646D01*
X95399698Y-64860647D01*
X95493475Y-64875499D01*
X95493481Y-64875500D01*
X95956518Y-64875499D01*
X96050304Y-64860646D01*
X96163342Y-64803050D01*
X96163347Y-64803045D01*
X96253050Y-64713343D01*
X96258786Y-64705448D01*
X96261059Y-64707100D01*
X96298546Y-64667409D01*
X96361057Y-64650500D01*
X96962035Y-64650500D01*
X97029074Y-64670185D01*
X97049716Y-64686819D01*
X99813181Y-67450284D01*
X99846666Y-67511607D01*
X99849500Y-67537965D01*
X99849500Y-67876000D01*
X99829815Y-67943039D01*
X99777011Y-67988794D01*
X99725500Y-68000000D01*
X90048234Y-68000000D01*
X89981195Y-67980315D01*
X89964444Y-67967407D01*
X88140710Y-66295650D01*
X88104593Y-66235839D01*
X88100500Y-66204243D01*
X88100500Y-60393475D01*
X92574500Y-60393475D01*
X92574500Y-61006517D01*
X92579701Y-61039352D01*
X92589354Y-61100304D01*
X92635985Y-61191823D01*
X92649500Y-61248115D01*
X92649500Y-61870880D01*
X92635985Y-61927174D01*
X92590279Y-62016876D01*
X92574500Y-62116506D01*
X92574500Y-62683493D01*
X92590279Y-62783121D01*
X92590280Y-62783124D01*
X92590281Y-62783126D01*
X92651472Y-62903220D01*
X92651473Y-62903221D01*
X92651476Y-62903225D01*
X92746774Y-62998523D01*
X92746778Y-62998526D01*
X92746780Y-62998528D01*
X92866874Y-63059719D01*
X92866876Y-63059719D01*
X92866878Y-63059720D01*
X92966507Y-63075500D01*
X92966512Y-63075500D01*
X93483493Y-63075500D01*
X93583121Y-63059720D01*
X93583121Y-63059719D01*
X93583126Y-63059719D01*
X93703220Y-62998528D01*
X93798528Y-62903220D01*
X93859719Y-62783126D01*
X93859720Y-62783121D01*
X93875500Y-62683493D01*
X93875500Y-62116506D01*
X93859720Y-62016876D01*
X93814015Y-61927174D01*
X93800500Y-61870880D01*
X93800500Y-60674236D01*
X93800500Y-60674234D01*
X93779724Y-60596696D01*
X93778806Y-60589725D01*
X93777605Y-60587362D01*
X93777992Y-60583541D01*
X93775499Y-60564603D01*
X93775499Y-60393482D01*
X93775498Y-60393475D01*
X93760646Y-60299696D01*
X93703050Y-60186658D01*
X93703046Y-60186654D01*
X93703045Y-60186652D01*
X93613347Y-60096954D01*
X93613344Y-60096952D01*
X93613342Y-60096950D01*
X93536517Y-60057805D01*
X93500301Y-60039352D01*
X93406524Y-60024500D01*
X92943482Y-60024500D01*
X92862519Y-60037323D01*
X92849696Y-60039354D01*
X92736658Y-60096950D01*
X92736657Y-60096951D01*
X92736652Y-60096954D01*
X92646954Y-60186652D01*
X92646951Y-60186657D01*
X92589352Y-60299698D01*
X92574500Y-60393475D01*
X88100500Y-60393475D01*
X88100500Y-56685247D01*
X88624500Y-56685247D01*
X88624500Y-57324752D01*
X88636131Y-57383229D01*
X88636132Y-57383230D01*
X88680447Y-57449552D01*
X88746769Y-57493867D01*
X88746770Y-57493868D01*
X88805247Y-57505499D01*
X88805250Y-57505500D01*
X88805252Y-57505500D01*
X90394750Y-57505500D01*
X90394751Y-57505499D01*
X90419885Y-57500500D01*
X90453229Y-57493868D01*
X90453229Y-57493867D01*
X90453231Y-57493867D01*
X90519552Y-57449552D01*
X90563867Y-57383231D01*
X90563867Y-57383229D01*
X90563868Y-57383229D01*
X90575499Y-57324752D01*
X90575500Y-57324750D01*
X90575500Y-56685249D01*
X90575499Y-56685247D01*
X90563868Y-56626770D01*
X90563867Y-56626769D01*
X90519552Y-56560447D01*
X90453230Y-56516132D01*
X90453229Y-56516131D01*
X90394752Y-56504500D01*
X90394748Y-56504500D01*
X88805252Y-56504500D01*
X88805247Y-56504500D01*
X88746770Y-56516131D01*
X88746769Y-56516132D01*
X88680447Y-56560447D01*
X88636132Y-56626769D01*
X88636131Y-56626770D01*
X88624500Y-56685247D01*
X88100500Y-56685247D01*
X88100500Y-56275833D01*
X88109144Y-56246392D01*
X88115668Y-56216406D01*
X88119422Y-56211390D01*
X88120185Y-56208794D01*
X88136819Y-56188152D01*
X88188152Y-56136819D01*
X88249475Y-56103334D01*
X88275833Y-56100500D01*
X88561347Y-56100500D01*
X88628386Y-56120185D01*
X88664449Y-56155608D01*
X88680448Y-56179553D01*
X88746769Y-56223867D01*
X88746770Y-56223868D01*
X88805247Y-56235499D01*
X88805250Y-56235500D01*
X88805252Y-56235500D01*
X90394750Y-56235500D01*
X90394751Y-56235499D01*
X90409568Y-56232552D01*
X90453229Y-56223868D01*
X90453229Y-56223867D01*
X90453231Y-56223867D01*
X90519552Y-56179552D01*
X90563867Y-56113231D01*
X90563867Y-56113229D01*
X90563868Y-56113229D01*
X90575499Y-56054752D01*
X90575500Y-56054750D01*
X90575500Y-55415249D01*
X90575499Y-55415247D01*
X90563868Y-55356770D01*
X90563867Y-55356769D01*
X90519552Y-55290447D01*
X90453230Y-55246132D01*
X90453229Y-55246131D01*
X90394752Y-55234500D01*
X90394748Y-55234500D01*
X90380963Y-55234500D01*
X90378033Y-55233639D01*
X90375066Y-55234360D01*
X90344721Y-55223858D01*
X90313924Y-55214815D01*
X90311924Y-55212507D01*
X90309039Y-55211509D01*
X90289191Y-55186271D01*
X90268169Y-55162011D01*
X90267734Y-55158988D01*
X90265847Y-55156589D01*
X90262794Y-55124630D01*
X90258225Y-55092853D01*
X90259493Y-55090075D01*
X90259203Y-55087036D01*
X90273911Y-55058504D01*
X90287250Y-55029297D01*
X90290241Y-55026826D01*
X90291218Y-55024933D01*
X90318960Y-55003114D01*
X90322930Y-55000822D01*
X90360789Y-54978963D01*
X90398592Y-54964735D01*
X90453231Y-54953867D01*
X90519552Y-54909552D01*
X90563867Y-54843231D01*
X90569181Y-54816515D01*
X90583411Y-54778706D01*
X90596517Y-54756007D01*
X90636281Y-54687135D01*
X90675500Y-54540766D01*
X90675500Y-54389234D01*
X90636281Y-54242865D01*
X90583408Y-54151289D01*
X90569180Y-54113482D01*
X90563867Y-54086769D01*
X90543230Y-54055884D01*
X90519552Y-54020447D01*
X90453230Y-53976132D01*
X90398594Y-53965264D01*
X90360785Y-53951034D01*
X90322136Y-53928719D01*
X90248950Y-53909109D01*
X90175766Y-53889500D01*
X87710767Y-53889500D01*
X87559234Y-53889500D01*
X87537680Y-53895275D01*
X87505589Y-53899500D01*
X85331005Y-53899500D01*
X85234626Y-53918671D01*
X85234624Y-53918671D01*
X85234624Y-53918672D01*
X85217295Y-53922118D01*
X85193113Y-53924500D01*
X84306887Y-53924500D01*
X84282696Y-53922117D01*
X84243173Y-53914255D01*
X84217342Y-53909117D01*
X84155431Y-53876732D01*
X84120857Y-53816016D01*
X84124598Y-53746246D01*
X84165464Y-53689575D01*
X84217343Y-53665883D01*
X84256426Y-53658108D01*
X84304328Y-53648580D01*
X84431811Y-53595775D01*
X84456815Y-53579067D01*
X84491608Y-53565453D01*
X84491026Y-53563660D01*
X84500297Y-53560646D01*
X84500304Y-53560646D01*
X84613342Y-53503050D01*
X84703050Y-53413342D01*
X84760646Y-53300304D01*
X84760646Y-53300302D01*
X84760647Y-53300301D01*
X84775499Y-53206524D01*
X84775500Y-53206519D01*
X84775499Y-53181886D01*
X84777882Y-53157693D01*
X84800500Y-53043994D01*
X84800500Y-52906004D01*
X84777882Y-52792299D01*
X84775499Y-52768107D01*
X84775499Y-52743482D01*
X84771036Y-52715301D01*
X84760646Y-52649696D01*
X84703050Y-52536658D01*
X84703046Y-52536654D01*
X84703045Y-52536652D01*
X84613347Y-52446954D01*
X84613344Y-52446952D01*
X84613342Y-52446950D01*
X84536517Y-52407805D01*
X84500301Y-52389352D01*
X84491025Y-52386339D01*
X84491605Y-52384552D01*
X84456820Y-52370934D01*
X84431822Y-52354231D01*
X84431804Y-52354221D01*
X84304332Y-52301421D01*
X84304322Y-52301418D01*
X84168995Y-52274500D01*
X84168993Y-52274500D01*
X82293994Y-52274500D01*
X82156006Y-52274500D01*
X82156004Y-52274500D01*
X82020677Y-52301418D01*
X82020667Y-52301421D01*
X81927383Y-52340061D01*
X81879931Y-52349500D01*
X81795730Y-52349500D01*
X81765300Y-52352353D01*
X81765298Y-52352353D01*
X81637119Y-52397206D01*
X81637117Y-52397207D01*
X81527850Y-52477850D01*
X81447207Y-52587117D01*
X81447206Y-52587119D01*
X81402353Y-52715298D01*
X81402353Y-52715300D01*
X81399500Y-52745730D01*
X81399500Y-55054269D01*
X81402353Y-55084699D01*
X81402353Y-55084701D01*
X81447206Y-55212880D01*
X81447207Y-55212882D01*
X81527850Y-55322150D01*
X81637118Y-55402793D01*
X81672724Y-55415252D01*
X81765299Y-55447646D01*
X81795730Y-55450500D01*
X81795734Y-55450500D01*
X82554270Y-55450500D01*
X82584699Y-55447646D01*
X82584701Y-55447646D01*
X82648790Y-55425219D01*
X82712882Y-55402793D01*
X82822150Y-55322150D01*
X82902793Y-55212882D01*
X82944793Y-55092853D01*
X82947646Y-55084701D01*
X82947646Y-55084699D01*
X82950500Y-55054269D01*
X82950500Y-54166519D01*
X82970185Y-54099480D01*
X82986819Y-54078838D01*
X83328838Y-53736819D01*
X83335910Y-53732957D01*
X83340636Y-53726430D01*
X83366131Y-53716454D01*
X83390161Y-53703334D01*
X83398199Y-53703908D01*
X83405703Y-53700973D01*
X83416519Y-53700500D01*
X83568995Y-53700500D01*
X83652612Y-53683867D01*
X83682696Y-53677882D01*
X83706887Y-53675500D01*
X83898138Y-53675500D01*
X83965177Y-53695185D01*
X84010932Y-53747989D01*
X84020876Y-53817147D01*
X83991851Y-53880703D01*
X83933073Y-53918477D01*
X83922330Y-53921117D01*
X83895677Y-53926418D01*
X83895667Y-53926421D01*
X83768192Y-53979223D01*
X83653459Y-54055884D01*
X83653451Y-54055890D01*
X83652997Y-54056345D01*
X83652134Y-54056971D01*
X83648754Y-54059746D01*
X83648589Y-54059546D01*
X83643986Y-54062890D01*
X83641217Y-54066715D01*
X83635806Y-54068831D01*
X83621632Y-54079128D01*
X83586657Y-54096949D01*
X83586657Y-54096950D01*
X83496954Y-54186652D01*
X83496951Y-54186657D01*
X83439352Y-54299698D01*
X83424499Y-54393477D01*
X83424118Y-54398331D01*
X83423986Y-54398320D01*
X83422117Y-54417304D01*
X83399500Y-54531003D01*
X83399500Y-54693991D01*
X83422118Y-54807706D01*
X83422215Y-54808200D01*
X83424500Y-54819937D01*
X83424501Y-54856518D01*
X83439354Y-54950304D01*
X83456388Y-54983736D01*
X83459715Y-55000822D01*
X83458760Y-55011023D01*
X83462000Y-55024518D01*
X83462000Y-55731006D01*
X83462000Y-55731007D01*
X83462000Y-56768993D01*
X83462000Y-56768995D01*
X83461999Y-56768995D01*
X83488918Y-56904322D01*
X83488921Y-56904332D01*
X83515061Y-56967439D01*
X83524500Y-57014891D01*
X83524500Y-57114251D01*
X83540047Y-57212417D01*
X83543075Y-57218359D01*
X83600342Y-57330751D01*
X83675682Y-57406091D01*
X83709166Y-57467412D01*
X83712000Y-57493771D01*
X83712000Y-57970245D01*
X83692315Y-58037284D01*
X83675681Y-58057926D01*
X83596954Y-58136652D01*
X83596951Y-58136657D01*
X83539352Y-58249698D01*
X83524500Y-58343475D01*
X83524500Y-58806517D01*
X83535292Y-58874657D01*
X83539354Y-58900304D01*
X83596950Y-59013342D01*
X83596952Y-59013344D01*
X83596954Y-59013347D01*
X83686652Y-59103045D01*
X83686654Y-59103046D01*
X83686658Y-59103050D01*
X83799694Y-59160645D01*
X83799698Y-59160647D01*
X83893475Y-59175499D01*
X83893481Y-59175500D01*
X84506518Y-59175499D01*
X84600304Y-59160646D01*
X84713342Y-59103050D01*
X84754572Y-59061820D01*
X84781500Y-59047115D01*
X84807319Y-59030523D01*
X84813518Y-59029631D01*
X84815895Y-59028334D01*
X84842254Y-59025500D01*
X84937035Y-59025500D01*
X85004074Y-59045185D01*
X85024716Y-59061819D01*
X86013181Y-60050284D01*
X86046666Y-60111607D01*
X86049500Y-60137965D01*
X86049500Y-65676000D01*
X86029815Y-65743039D01*
X85977011Y-65788794D01*
X85925500Y-65800000D01*
X84724500Y-65800000D01*
X84657461Y-65780315D01*
X84611706Y-65727511D01*
X84600500Y-65676000D01*
X84600500Y-63162052D01*
X84613099Y-63107592D01*
X84622167Y-63089043D01*
X84640573Y-63051393D01*
X84650500Y-62983260D01*
X84650500Y-61741740D01*
X84650500Y-60861057D01*
X84670185Y-60794018D01*
X84706903Y-60760800D01*
X84705443Y-60758790D01*
X84713336Y-60753054D01*
X84713337Y-60753052D01*
X84713342Y-60753050D01*
X84803050Y-60663342D01*
X84860646Y-60550304D01*
X84860646Y-60550302D01*
X84860647Y-60550301D01*
X84875499Y-60456524D01*
X84875500Y-60456519D01*
X84875499Y-59993482D01*
X84860646Y-59899696D01*
X84803050Y-59786658D01*
X84803046Y-59786654D01*
X84803045Y-59786652D01*
X84713347Y-59696954D01*
X84713344Y-59696952D01*
X84713342Y-59696950D01*
X84636517Y-59657805D01*
X84600301Y-59639352D01*
X84506524Y-59624500D01*
X83893482Y-59624500D01*
X83812519Y-59637323D01*
X83799696Y-59639354D01*
X83686658Y-59696950D01*
X83686657Y-59696951D01*
X83686652Y-59696954D01*
X83596954Y-59786652D01*
X83596951Y-59786657D01*
X83539352Y-59899698D01*
X83524500Y-59993475D01*
X83524500Y-60456517D01*
X83535292Y-60524657D01*
X83539354Y-60550304D01*
X83596950Y-60663342D01*
X83686658Y-60753050D01*
X83686660Y-60753051D01*
X83686663Y-60753054D01*
X83694557Y-60758790D01*
X83692903Y-60761066D01*
X83732584Y-60798535D01*
X83749500Y-60861057D01*
X83749500Y-61478456D01*
X83729815Y-61545495D01*
X83713181Y-61566137D01*
X83710803Y-61568514D01*
X83659426Y-61673608D01*
X83649500Y-61741739D01*
X83649500Y-62983260D01*
X83659426Y-63051391D01*
X83686901Y-63107592D01*
X83689697Y-63119679D01*
X83694477Y-63127117D01*
X83699500Y-63162052D01*
X83699500Y-63232074D01*
X83679815Y-63299113D01*
X83627011Y-63344868D01*
X83557853Y-63354812D01*
X83521040Y-63343475D01*
X83451391Y-63309426D01*
X83383261Y-63299500D01*
X83383260Y-63299500D01*
X83016740Y-63299500D01*
X83016739Y-63299500D01*
X82948608Y-63309426D01*
X82843514Y-63360803D01*
X82760803Y-63443514D01*
X82709426Y-63548608D01*
X82699500Y-63616739D01*
X82699500Y-64858260D01*
X82709426Y-64926391D01*
X82760803Y-65031485D01*
X82843514Y-65114196D01*
X82843515Y-65114196D01*
X82843517Y-65114198D01*
X82948607Y-65165573D01*
X82982673Y-65170536D01*
X83016739Y-65175500D01*
X83016740Y-65175500D01*
X83383261Y-65175500D01*
X83417326Y-65170536D01*
X83451393Y-65165573D01*
X83521040Y-65131524D01*
X83589912Y-65119765D01*
X83654209Y-65147108D01*
X83693517Y-65204872D01*
X83699500Y-65242925D01*
X83699500Y-65676000D01*
X83679815Y-65743039D01*
X83627011Y-65788794D01*
X83575500Y-65800000D01*
X80500000Y-65800000D01*
X77695075Y-65800000D01*
X77665602Y-65789687D01*
X77665594Y-65789684D01*
X77461226Y-65743039D01*
X77402732Y-65729688D01*
X77402728Y-65729687D01*
X77402719Y-65729686D01*
X77134813Y-65699500D01*
X77134809Y-65699500D01*
X76865191Y-65699500D01*
X76865186Y-65699500D01*
X76597280Y-65729686D01*
X76597268Y-65729688D01*
X76334405Y-65789684D01*
X76334397Y-65789687D01*
X76079917Y-65878734D01*
X75837005Y-65995714D01*
X75608712Y-66139161D01*
X75397915Y-66307265D01*
X75207265Y-66497915D01*
X75039161Y-66708712D01*
X74895714Y-66937005D01*
X74778734Y-67179917D01*
X74689687Y-67434397D01*
X74689684Y-67434405D01*
X74629688Y-67697268D01*
X74629686Y-67697280D01*
X74599500Y-67965186D01*
X71000500Y-67965186D01*
X71000500Y-56884269D01*
X71529500Y-56884269D01*
X71529500Y-57115731D01*
X71541768Y-57193186D01*
X71565709Y-57344344D01*
X71637232Y-57564473D01*
X71637233Y-57564476D01*
X71698668Y-57685047D01*
X71724630Y-57736000D01*
X71742318Y-57770713D01*
X71878359Y-57957959D01*
X71878363Y-57957964D01*
X72042035Y-58121636D01*
X72042040Y-58121640D01*
X72169867Y-58214511D01*
X72229290Y-58257684D01*
X72364106Y-58326376D01*
X72435523Y-58362766D01*
X72435526Y-58362767D01*
X72545590Y-58398528D01*
X72655657Y-58434291D01*
X72884269Y-58470500D01*
X72884270Y-58470500D01*
X76915730Y-58470500D01*
X76915731Y-58470500D01*
X77144343Y-58434291D01*
X77364476Y-58362766D01*
X77570710Y-58257684D01*
X77757966Y-58121635D01*
X77812378Y-58067221D01*
X77859106Y-58037862D01*
X77870037Y-58034037D01*
X77887882Y-58027793D01*
X77997150Y-57947150D01*
X78077793Y-57837882D01*
X78113443Y-57736000D01*
X78122646Y-57709701D01*
X78122646Y-57709699D01*
X78125500Y-57679269D01*
X78125500Y-57667384D01*
X78139016Y-57611088D01*
X78151014Y-57587541D01*
X78162766Y-57564476D01*
X78234291Y-57344343D01*
X78270500Y-57115731D01*
X78270500Y-56884269D01*
X78234291Y-56655657D01*
X78185459Y-56505367D01*
X78162767Y-56435526D01*
X78162763Y-56435518D01*
X78139015Y-56388908D01*
X78135893Y-56375905D01*
X78130523Y-56367549D01*
X78125500Y-56332614D01*
X78125500Y-56320730D01*
X79274500Y-56320730D01*
X79274500Y-57679269D01*
X79277353Y-57709699D01*
X79277353Y-57709701D01*
X79322206Y-57837880D01*
X79322207Y-57837882D01*
X79402850Y-57947150D01*
X79512118Y-58027793D01*
X79539242Y-58037284D01*
X79640293Y-58072644D01*
X79640299Y-58072645D01*
X79640301Y-58072646D01*
X79640303Y-58072646D01*
X79647669Y-58074255D01*
X79647382Y-58075567D01*
X79696070Y-58092856D01*
X79720821Y-58109394D01*
X79720827Y-58109396D01*
X79720828Y-58109397D01*
X79815744Y-58148712D01*
X79866503Y-58169737D01*
X80021153Y-58200499D01*
X80021156Y-58200500D01*
X80021158Y-58200500D01*
X80178844Y-58200500D01*
X80178845Y-58200499D01*
X80333497Y-58169737D01*
X80479179Y-58109394D01*
X80503927Y-58092857D01*
X80552615Y-58075568D01*
X80552329Y-58074256D01*
X80559700Y-58072646D01*
X80602426Y-58057695D01*
X80687882Y-58027793D01*
X80797150Y-57947150D01*
X80877793Y-57837882D01*
X80913444Y-57735996D01*
X80919852Y-57725797D01*
X80921652Y-57717526D01*
X80942796Y-57689280D01*
X81095260Y-57536817D01*
X81156583Y-57503334D01*
X81182940Y-57500500D01*
X82289251Y-57500500D01*
X82387417Y-57484952D01*
X82387418Y-57484951D01*
X82387420Y-57484951D01*
X82505751Y-57424658D01*
X82599658Y-57330751D01*
X82659951Y-57212420D01*
X82659951Y-57212417D01*
X82663332Y-57205783D01*
X82670711Y-57193193D01*
X82729702Y-57104909D01*
X82746889Y-57079187D01*
X82746890Y-57079184D01*
X82746894Y-57079179D01*
X82807237Y-56933497D01*
X82838000Y-56778842D01*
X82838000Y-56621158D01*
X82838000Y-56621155D01*
X82837999Y-56621153D01*
X82817109Y-56516132D01*
X82807237Y-56466503D01*
X82775096Y-56388908D01*
X82746895Y-56320823D01*
X82739997Y-56310500D01*
X82670709Y-56206802D01*
X82663328Y-56194209D01*
X82659951Y-56187582D01*
X82659951Y-56187580D01*
X82599658Y-56069249D01*
X82599654Y-56069245D01*
X82599653Y-56069243D01*
X82505756Y-55975346D01*
X82505753Y-55975344D01*
X82505751Y-55975342D01*
X82387420Y-55915049D01*
X82387419Y-55915048D01*
X82387416Y-55915047D01*
X82387417Y-55915047D01*
X82289251Y-55899500D01*
X82289246Y-55899500D01*
X82116342Y-55899500D01*
X80478842Y-55899500D01*
X80321158Y-55899500D01*
X80321156Y-55899500D01*
X80242998Y-55915047D01*
X80207454Y-55922117D01*
X80183264Y-55924500D01*
X79670730Y-55924500D01*
X79640300Y-55927353D01*
X79640298Y-55927353D01*
X79512119Y-55972206D01*
X79512117Y-55972207D01*
X79402850Y-56052850D01*
X79322207Y-56162117D01*
X79322206Y-56162119D01*
X79277353Y-56290298D01*
X79277353Y-56290300D01*
X79274500Y-56320730D01*
X78125500Y-56320730D01*
X78122646Y-56290300D01*
X78122646Y-56290298D01*
X78086903Y-56188152D01*
X78077793Y-56162118D01*
X77997150Y-56052850D01*
X77982503Y-56042040D01*
X77950866Y-56018690D01*
X77908615Y-55963042D01*
X77900500Y-55918920D01*
X77900500Y-54756004D01*
X77877882Y-54642299D01*
X77875499Y-54618107D01*
X77875499Y-54593482D01*
X77869564Y-54556007D01*
X77860646Y-54499696D01*
X77803050Y-54386658D01*
X77803046Y-54386654D01*
X77803045Y-54386652D01*
X77713347Y-54296954D01*
X77713344Y-54296952D01*
X77713342Y-54296950D01*
X77636517Y-54257805D01*
X77600301Y-54239352D01*
X77591025Y-54236339D01*
X77591689Y-54234295D01*
X77556820Y-54220934D01*
X77531822Y-54204231D01*
X77531804Y-54204221D01*
X77404332Y-54151421D01*
X77404322Y-54151418D01*
X77268995Y-54124500D01*
X77268993Y-54124500D01*
X77131007Y-54124500D01*
X77131005Y-54124500D01*
X76995677Y-54151418D01*
X76995671Y-54151420D01*
X76868192Y-54204223D01*
X76868184Y-54204228D01*
X76843176Y-54220937D01*
X76833479Y-54223972D01*
X76825800Y-54230627D01*
X76808786Y-54235756D01*
X76808976Y-54236339D01*
X76799696Y-54239354D01*
X76686658Y-54296950D01*
X76686657Y-54296951D01*
X76686652Y-54296954D01*
X76596954Y-54386652D01*
X76596951Y-54386657D01*
X76596950Y-54386658D01*
X76587439Y-54405324D01*
X76539352Y-54499698D01*
X76524500Y-54593475D01*
X76524500Y-54618112D01*
X76522117Y-54642304D01*
X76499500Y-54756004D01*
X76499500Y-55405500D01*
X76479815Y-55472539D01*
X76427011Y-55518294D01*
X76375500Y-55529500D01*
X72884269Y-55529500D01*
X72829460Y-55538181D01*
X72655655Y-55565709D01*
X72435526Y-55637232D01*
X72435523Y-55637233D01*
X72229286Y-55742318D01*
X72042040Y-55878359D01*
X72042035Y-55878363D01*
X71878363Y-56042035D01*
X71878359Y-56042040D01*
X71742318Y-56229286D01*
X71637233Y-56435523D01*
X71637232Y-56435526D01*
X71565709Y-56655655D01*
X71543080Y-56798528D01*
X71529500Y-56884269D01*
X71000500Y-56884269D01*
X71000500Y-51131004D01*
X76499500Y-51131004D01*
X76499500Y-51131007D01*
X76499500Y-53243993D01*
X76499579Y-53244389D01*
X76522118Y-53357706D01*
X76524500Y-53381892D01*
X76524500Y-53406512D01*
X76526517Y-53419248D01*
X76539354Y-53500304D01*
X76596950Y-53613342D01*
X76596952Y-53613344D01*
X76596954Y-53613347D01*
X76686652Y-53703045D01*
X76686655Y-53703047D01*
X76686658Y-53703050D01*
X76712965Y-53716454D01*
X76799691Y-53760644D01*
X76799693Y-53760644D01*
X76799696Y-53760646D01*
X76799698Y-53760646D01*
X76808974Y-53763660D01*
X76808392Y-53765449D01*
X76843180Y-53779064D01*
X76868189Y-53795775D01*
X76868191Y-53795776D01*
X76868193Y-53795777D01*
X76995667Y-53848578D01*
X76995672Y-53848580D01*
X76995676Y-53848580D01*
X76995677Y-53848581D01*
X77131004Y-53875500D01*
X77131007Y-53875500D01*
X77268995Y-53875500D01*
X77360041Y-53857389D01*
X77404328Y-53848580D01*
X77531811Y-53795775D01*
X77556815Y-53779067D01*
X77568107Y-53774648D01*
X77574196Y-53769373D01*
X77585887Y-53767691D01*
X77591608Y-53765453D01*
X77591026Y-53763660D01*
X77600297Y-53760646D01*
X77600304Y-53760646D01*
X77713342Y-53703050D01*
X77803050Y-53613342D01*
X77860646Y-53500304D01*
X77860646Y-53500302D01*
X77860647Y-53500301D01*
X77871282Y-53433147D01*
X77875500Y-53406519D01*
X77875499Y-53381886D01*
X77877882Y-53357693D01*
X77900500Y-53243994D01*
X77900500Y-51131004D01*
X77877883Y-51017304D01*
X77875500Y-50993112D01*
X77875500Y-50916506D01*
X77859720Y-50816878D01*
X77859719Y-50816876D01*
X77859719Y-50816874D01*
X77798528Y-50696780D01*
X77798526Y-50696778D01*
X77798523Y-50696774D01*
X77703225Y-50601476D01*
X77703221Y-50601473D01*
X77703220Y-50601472D01*
X77583126Y-50540281D01*
X77583124Y-50540280D01*
X77583121Y-50540279D01*
X77483493Y-50524500D01*
X77483488Y-50524500D01*
X77406887Y-50524500D01*
X77382696Y-50522117D01*
X77347505Y-50515117D01*
X77268995Y-50499500D01*
X77268993Y-50499500D01*
X77131007Y-50499500D01*
X77131005Y-50499500D01*
X77052494Y-50515117D01*
X77017303Y-50522117D01*
X76993113Y-50524500D01*
X76966507Y-50524500D01*
X76866878Y-50540279D01*
X76746778Y-50601473D01*
X76746774Y-50601476D01*
X76651476Y-50696774D01*
X76651473Y-50696779D01*
X76590281Y-50816874D01*
X76586262Y-50842248D01*
X76578350Y-50870300D01*
X76526421Y-50995667D01*
X76526418Y-50995677D01*
X76499500Y-51131004D01*
X71000500Y-51131004D01*
X71000500Y-47093995D01*
X76099499Y-47093995D01*
X76122117Y-47207694D01*
X76124500Y-47231886D01*
X76124500Y-47283493D01*
X76140279Y-47383121D01*
X76140280Y-47383124D01*
X76140281Y-47383126D01*
X76201472Y-47503220D01*
X76201473Y-47503221D01*
X76201476Y-47503225D01*
X76296774Y-47598523D01*
X76296778Y-47598526D01*
X76296780Y-47598528D01*
X76416874Y-47659719D01*
X76416876Y-47659719D01*
X76416878Y-47659720D01*
X76516508Y-47675500D01*
X76521362Y-47675882D01*
X76521298Y-47676695D01*
X76562739Y-47684938D01*
X76595672Y-47698580D01*
X76595676Y-47698580D01*
X76595677Y-47698581D01*
X76731004Y-47725500D01*
X76731007Y-47725500D01*
X77043996Y-47725500D01*
X77141483Y-47706108D01*
X80394500Y-47706108D01*
X80394500Y-47793890D01*
X80395109Y-47818714D01*
X80395707Y-47830876D01*
X80397530Y-47855598D01*
X80414950Y-48032474D01*
X80414952Y-48032494D01*
X80422227Y-48081541D01*
X80422228Y-48081545D01*
X80426967Y-48105373D01*
X80439023Y-48153507D01*
X80488841Y-48317736D01*
X80505558Y-48364455D01*
X80514861Y-48386913D01*
X80536067Y-48431747D01*
X80536070Y-48431752D01*
X80536078Y-48431769D01*
X80616957Y-48583083D01*
X80616962Y-48583091D01*
X80642454Y-48625623D01*
X80642461Y-48625634D01*
X80642462Y-48625635D01*
X80655967Y-48645847D01*
X80655973Y-48645855D01*
X80655975Y-48645858D01*
X80685514Y-48685688D01*
X80685526Y-48685704D01*
X80794394Y-48818359D01*
X80827703Y-48855109D01*
X80844889Y-48872295D01*
X80881639Y-48905604D01*
X80881647Y-48905611D01*
X81014303Y-49014479D01*
X81054152Y-49044032D01*
X81074364Y-49057537D01*
X81074369Y-49057540D01*
X81074375Y-49057544D01*
X81116907Y-49083036D01*
X81116915Y-49083041D01*
X81268229Y-49163920D01*
X81268233Y-49163922D01*
X81268252Y-49163932D01*
X81313086Y-49185138D01*
X81335544Y-49194441D01*
X81382263Y-49211158D01*
X81546486Y-49260974D01*
X81594611Y-49273028D01*
X81618452Y-49277770D01*
X81667516Y-49285048D01*
X81844390Y-49302469D01*
X81869139Y-49304294D01*
X81881293Y-49304891D01*
X81906093Y-49305500D01*
X81906110Y-49305500D01*
X105593890Y-49305500D01*
X105593907Y-49305500D01*
X105618707Y-49304891D01*
X105630861Y-49304294D01*
X105655610Y-49302469D01*
X105832483Y-49285048D01*
X105881547Y-49277770D01*
X105905388Y-49273028D01*
X105953513Y-49260974D01*
X106117736Y-49211158D01*
X106164455Y-49194441D01*
X106186913Y-49185138D01*
X106231747Y-49163932D01*
X106383089Y-49083038D01*
X106425635Y-49057537D01*
X106445847Y-49044032D01*
X106485696Y-49014479D01*
X106618352Y-48905611D01*
X106655108Y-48872296D01*
X106655109Y-48872295D01*
X106655117Y-48872288D01*
X106672288Y-48855117D01*
X106672295Y-48855109D01*
X106672296Y-48855108D01*
X106705611Y-48818352D01*
X106814479Y-48685696D01*
X106844032Y-48645847D01*
X106857537Y-48625635D01*
X106883038Y-48583089D01*
X106963932Y-48431747D01*
X106985138Y-48386913D01*
X106994441Y-48364455D01*
X107011158Y-48317736D01*
X107060974Y-48153513D01*
X107073028Y-48105388D01*
X107077770Y-48081547D01*
X107085048Y-48032483D01*
X107102469Y-47855610D01*
X107104294Y-47830861D01*
X107104891Y-47818707D01*
X107105500Y-47793907D01*
X107105500Y-45406092D01*
X107104891Y-45381292D01*
X107104294Y-45369138D01*
X107102469Y-45344389D01*
X107085048Y-45167516D01*
X107077770Y-45118452D01*
X107073028Y-45094611D01*
X107060974Y-45046486D01*
X107011158Y-44882263D01*
X106994441Y-44835544D01*
X106985138Y-44813086D01*
X106963932Y-44768252D01*
X106957076Y-44755425D01*
X106883041Y-44616915D01*
X106883036Y-44616907D01*
X106857544Y-44574375D01*
X106857537Y-44574364D01*
X106844032Y-44554152D01*
X106814479Y-44514303D01*
X106811553Y-44510738D01*
X106741151Y-44424953D01*
X106705611Y-44381647D01*
X106705604Y-44381639D01*
X106672295Y-44344889D01*
X106655109Y-44327703D01*
X106618359Y-44294394D01*
X106485704Y-44185526D01*
X106485688Y-44185514D01*
X106445858Y-44155975D01*
X106445855Y-44155973D01*
X106445847Y-44155967D01*
X106425635Y-44142462D01*
X106425624Y-44142455D01*
X106425619Y-44142452D01*
X106425615Y-44142449D01*
X106383122Y-44116979D01*
X106383079Y-44116955D01*
X106231770Y-44036079D01*
X106231758Y-44036072D01*
X106211569Y-44026523D01*
X106186919Y-44014864D01*
X106186912Y-44014861D01*
X106164473Y-44005565D01*
X106117736Y-43988841D01*
X105953504Y-43939022D01*
X105929351Y-43932972D01*
X105905373Y-43926967D01*
X105881545Y-43922228D01*
X105881540Y-43922227D01*
X105881543Y-43922227D01*
X105832494Y-43914952D01*
X105832474Y-43914950D01*
X105655598Y-43897530D01*
X105630876Y-43895707D01*
X105630871Y-43895706D01*
X105630861Y-43895706D01*
X105625602Y-43895447D01*
X105618714Y-43895109D01*
X105611473Y-43894931D01*
X105593907Y-43894500D01*
X101298057Y-43894500D01*
X101298051Y-43894500D01*
X101288484Y-43894726D01*
X101274125Y-43895067D01*
X101262394Y-43895623D01*
X101262391Y-43895623D01*
X101262374Y-43895624D01*
X101238525Y-43897320D01*
X101067697Y-43913555D01*
X101020315Y-43920334D01*
X100997290Y-43924750D01*
X100950728Y-43935990D01*
X100791712Y-43982451D01*
X100791666Y-43982465D01*
X100746433Y-43998043D01*
X100746390Y-43998059D01*
X100724630Y-44006726D01*
X100724621Y-44006730D01*
X100681061Y-44026520D01*
X100681050Y-44026525D01*
X100528375Y-44104803D01*
X100507348Y-44116221D01*
X100497161Y-44122068D01*
X100476676Y-44134482D01*
X97282836Y-46174994D01*
X97216076Y-46194500D01*
X88324500Y-46194500D01*
X88257461Y-46174815D01*
X88211706Y-46122011D01*
X88200500Y-46070500D01*
X88200500Y-44533384D01*
X88206568Y-44495069D01*
X88268477Y-44304534D01*
X88300500Y-44102352D01*
X88300500Y-43897648D01*
X88268477Y-43695466D01*
X88205220Y-43500781D01*
X88205218Y-43500778D01*
X88205218Y-43500776D01*
X88171503Y-43434607D01*
X88112287Y-43318390D01*
X88057165Y-43242520D01*
X87991971Y-43152786D01*
X87847213Y-43008028D01*
X87681613Y-42887715D01*
X87681612Y-42887714D01*
X87681610Y-42887713D01*
X87624653Y-42858691D01*
X87499223Y-42794781D01*
X87304534Y-42731522D01*
X87129995Y-42703878D01*
X87102352Y-42699500D01*
X86897648Y-42699500D01*
X86873329Y-42703351D01*
X86695465Y-42731522D01*
X86500776Y-42794781D01*
X86318386Y-42887715D01*
X86152786Y-43008028D01*
X86008028Y-43152786D01*
X85887715Y-43318386D01*
X85794781Y-43500776D01*
X85731522Y-43695465D01*
X85699500Y-43897648D01*
X85699500Y-44102351D01*
X85731522Y-44304534D01*
X85767586Y-44415526D01*
X85793431Y-44495069D01*
X85799500Y-44533384D01*
X85799500Y-46070500D01*
X85779815Y-46137539D01*
X85727011Y-46183294D01*
X85675500Y-46194500D01*
X81906093Y-46194500D01*
X81889229Y-46194914D01*
X81881285Y-46195109D01*
X81869126Y-46195706D01*
X81844399Y-46197530D01*
X81667523Y-46214950D01*
X81667503Y-46214952D01*
X81618449Y-46222228D01*
X81602347Y-46225431D01*
X81594612Y-46226970D01*
X81578490Y-46231008D01*
X81546502Y-46239021D01*
X81382259Y-46288842D01*
X81335541Y-46305558D01*
X81335504Y-46305573D01*
X81313103Y-46314853D01*
X81313079Y-46314863D01*
X81268269Y-46336058D01*
X81268264Y-46336060D01*
X81268259Y-46336063D01*
X81116905Y-46416963D01*
X81116897Y-46416967D01*
X81116891Y-46416971D01*
X81074359Y-46442463D01*
X81054129Y-46455981D01*
X81014329Y-46485499D01*
X81014299Y-46485522D01*
X80881656Y-46594379D01*
X80881631Y-46594401D01*
X80844884Y-46627707D01*
X80844877Y-46627715D01*
X80827715Y-46644877D01*
X80827707Y-46644884D01*
X80794401Y-46681631D01*
X80794379Y-46681656D01*
X80685522Y-46814299D01*
X80685499Y-46814329D01*
X80655981Y-46854129D01*
X80642463Y-46874359D01*
X80616971Y-46916891D01*
X80616963Y-46916905D01*
X80536063Y-47068259D01*
X80536058Y-47068269D01*
X80514863Y-47113079D01*
X80514853Y-47113103D01*
X80505573Y-47135504D01*
X80505558Y-47135541D01*
X80488842Y-47182259D01*
X80458134Y-47283493D01*
X80439023Y-47346496D01*
X80429849Y-47383121D01*
X80426970Y-47394613D01*
X80422228Y-47418447D01*
X80414954Y-47467490D01*
X80414949Y-47467534D01*
X80397530Y-47644398D01*
X80395706Y-47669125D01*
X80395109Y-47681284D01*
X80395109Y-47681292D01*
X80394685Y-47698581D01*
X80394500Y-47706108D01*
X77141483Y-47706108D01*
X77141563Y-47706092D01*
X77179328Y-47698580D01*
X77273147Y-47659719D01*
X77306807Y-47645777D01*
X77306808Y-47645776D01*
X77306811Y-47645775D01*
X77421543Y-47569114D01*
X77944114Y-47046543D01*
X77944114Y-47046542D01*
X78096540Y-46894115D01*
X78096543Y-46894114D01*
X78343929Y-46646726D01*
X78405248Y-46613244D01*
X78474940Y-46618228D01*
X78487895Y-46623922D01*
X78539168Y-46650047D01*
X78683488Y-46696939D01*
X78718881Y-46708440D01*
X78905514Y-46738000D01*
X78905519Y-46738000D01*
X79256986Y-46738000D01*
X79443618Y-46708440D01*
X79623332Y-46650047D01*
X79791699Y-46564260D01*
X79944574Y-46453190D01*
X81160945Y-45236819D01*
X81187872Y-45222115D01*
X81213691Y-45205523D01*
X81219891Y-45204631D01*
X81222268Y-45203334D01*
X81248626Y-45200500D01*
X81466614Y-45200500D01*
X81504932Y-45206569D01*
X81678492Y-45262962D01*
X81695466Y-45268477D01*
X81897648Y-45300500D01*
X81897649Y-45300500D01*
X82102351Y-45300500D01*
X82102352Y-45300500D01*
X82304534Y-45268477D01*
X82499219Y-45205220D01*
X82681610Y-45112287D01*
X82774590Y-45044732D01*
X82847213Y-44991971D01*
X82847215Y-44991968D01*
X82847219Y-44991966D01*
X82991966Y-44847219D01*
X82991968Y-44847215D01*
X82991971Y-44847213D01*
X83058658Y-44755424D01*
X83112287Y-44681610D01*
X83205220Y-44499219D01*
X83268477Y-44304534D01*
X83300500Y-44102352D01*
X83300500Y-43897648D01*
X83268477Y-43695466D01*
X83205220Y-43500781D01*
X83205218Y-43500778D01*
X83205218Y-43500776D01*
X83171503Y-43434607D01*
X83112287Y-43318390D01*
X83057165Y-43242520D01*
X82991971Y-43152786D01*
X82847213Y-43008028D01*
X82681613Y-42887715D01*
X82681612Y-42887714D01*
X82681610Y-42887713D01*
X82624653Y-42858691D01*
X82499223Y-42794781D01*
X82304534Y-42731522D01*
X82129995Y-42703878D01*
X82102352Y-42699500D01*
X81897648Y-42699500D01*
X81830254Y-42710174D01*
X81695464Y-42731523D01*
X81695461Y-42731523D01*
X81504932Y-42793431D01*
X81466614Y-42799500D01*
X80605514Y-42799500D01*
X80418881Y-42829059D01*
X80239163Y-42887454D01*
X80070800Y-42973240D01*
X79917923Y-43084312D01*
X78616677Y-44385557D01*
X78567317Y-44415806D01*
X78539171Y-44424951D01*
X78539169Y-44424952D01*
X78370802Y-44510738D01*
X78283215Y-44574375D01*
X78217927Y-44621810D01*
X78217925Y-44621812D01*
X78217924Y-44621812D01*
X78084312Y-44755424D01*
X78084312Y-44755425D01*
X78084310Y-44755427D01*
X78074992Y-44768252D01*
X77973240Y-44908300D01*
X77887454Y-45076664D01*
X77874885Y-45115346D01*
X77844636Y-45164705D01*
X77105886Y-45903457D01*
X76936014Y-46073328D01*
X76699977Y-46309364D01*
X76638654Y-46342849D01*
X76636489Y-46343300D01*
X76595675Y-46351418D01*
X76595673Y-46351419D01*
X76562740Y-46365061D01*
X76521298Y-46373304D01*
X76521362Y-46374118D01*
X76516508Y-46374499D01*
X76416878Y-46390279D01*
X76296778Y-46451473D01*
X76296774Y-46451476D01*
X76201476Y-46546774D01*
X76201473Y-46546778D01*
X76201472Y-46546780D01*
X76151486Y-46644884D01*
X76140279Y-46666878D01*
X76124500Y-46766506D01*
X76124500Y-46818112D01*
X76122414Y-46839284D01*
X76122328Y-46841220D01*
X76122232Y-46841722D01*
X76099500Y-46956007D01*
X76099500Y-47093993D01*
X76099500Y-47093995D01*
X76099499Y-47093995D01*
X71000500Y-47093995D01*
X71000500Y-44004066D01*
X71000765Y-43995956D01*
X71001650Y-43982451D01*
X71017075Y-43747102D01*
X71019190Y-43731048D01*
X71067045Y-43490462D01*
X71071243Y-43474797D01*
X71124337Y-43318386D01*
X71150093Y-43242512D01*
X71156291Y-43227547D01*
X71264790Y-43007533D01*
X71272893Y-42993498D01*
X71409182Y-42789527D01*
X71419039Y-42776681D01*
X71580786Y-42592244D01*
X71592244Y-42580786D01*
X71776681Y-42419039D01*
X71789527Y-42409182D01*
X71993498Y-42272893D01*
X72007533Y-42264790D01*
X72227547Y-42156291D01*
X72242512Y-42150093D01*
X72406762Y-42094337D01*
X72474797Y-42071243D01*
X72490464Y-42067045D01*
X72731048Y-42019190D01*
X72747102Y-42017075D01*
X72995957Y-42000765D01*
X73004067Y-42000500D01*
X73092710Y-42000500D01*
X113907290Y-42000500D01*
X113995933Y-42000500D01*
X114004043Y-42000765D01*
G37*
G04 #@! TD.AperFunction*
M02*
