%TF.GenerationSoftware,KiCad,Pcbnew,9.0.2*%
%TF.CreationDate,2025-10-08T20:37:42-05:00*%
%TF.ProjectId,cc-led-driver,63632d6c-6564-42d6-9472-697665722e6b,V1.0*%
%TF.SameCoordinates,Original*%
%TF.FileFunction,Drillmap*%
%TF.FilePolarity,Positive*%
%FSLAX45Y45*%
G04 Gerber Fmt 4.5, Leading zero omitted, Abs format (unit mm)*
G04 Created by KiCad (PCBNEW 9.0.2) date 2025-10-08 20:37:42*
%MOMM*%
%LPD*%
G01*
G04 APERTURE LIST*
%ADD10C,0.050000*%
%ADD11C,0.200000*%
G04 APERTURE END LIST*
D10*
X7300000Y-8800000D02*
G75*
G02*
X7000000Y-8500000I0J300000D01*
G01*
X11700000Y-8500000D02*
G75*
G02*
X11400000Y-8800000I-300000J0D01*
G01*
X11400000Y-4100000D02*
G75*
G02*
X11700000Y-4400000I0J-300000D01*
G01*
X7000000Y-4400000D02*
G75*
G02*
X7300000Y-4100000I300000J0D01*
G01*
X11400000Y-8800000D02*
X7300000Y-8800000D01*
X11700000Y-4400000D02*
X11700000Y-8500000D01*
X7300000Y-4100000D02*
X11400000Y-4100000D01*
X7000000Y-8500000D02*
X7000000Y-4400000D01*
D11*
X7258277Y-9113984D02*
X7258277Y-8913984D01*
X7258277Y-8913984D02*
X7305896Y-8913984D01*
X7305896Y-8913984D02*
X7334467Y-8923508D01*
X7334467Y-8923508D02*
X7353515Y-8942555D01*
X7353515Y-8942555D02*
X7363039Y-8961603D01*
X7363039Y-8961603D02*
X7372562Y-8999698D01*
X7372562Y-8999698D02*
X7372562Y-9028270D01*
X7372562Y-9028270D02*
X7363039Y-9066365D01*
X7363039Y-9066365D02*
X7353515Y-9085412D01*
X7353515Y-9085412D02*
X7334467Y-9104460D01*
X7334467Y-9104460D02*
X7305896Y-9113984D01*
X7305896Y-9113984D02*
X7258277Y-9113984D01*
X7458277Y-9113984D02*
X7458277Y-8980650D01*
X7458277Y-9018746D02*
X7467801Y-8999698D01*
X7467801Y-8999698D02*
X7477324Y-8990174D01*
X7477324Y-8990174D02*
X7496372Y-8980650D01*
X7496372Y-8980650D02*
X7515420Y-8980650D01*
X7582086Y-9113984D02*
X7582086Y-8980650D01*
X7582086Y-8913984D02*
X7572562Y-8923508D01*
X7572562Y-8923508D02*
X7582086Y-8933031D01*
X7582086Y-8933031D02*
X7591610Y-8923508D01*
X7591610Y-8923508D02*
X7582086Y-8913984D01*
X7582086Y-8913984D02*
X7582086Y-8933031D01*
X7705896Y-9113984D02*
X7686848Y-9104460D01*
X7686848Y-9104460D02*
X7677324Y-9085412D01*
X7677324Y-9085412D02*
X7677324Y-8913984D01*
X7810658Y-9113984D02*
X7791610Y-9104460D01*
X7791610Y-9104460D02*
X7782086Y-9085412D01*
X7782086Y-9085412D02*
X7782086Y-8913984D01*
X8039229Y-9113984D02*
X8039229Y-8913984D01*
X8039229Y-8913984D02*
X8105896Y-9056841D01*
X8105896Y-9056841D02*
X8172562Y-8913984D01*
X8172562Y-8913984D02*
X8172562Y-9113984D01*
X8353515Y-9113984D02*
X8353515Y-9009222D01*
X8353515Y-9009222D02*
X8343991Y-8990174D01*
X8343991Y-8990174D02*
X8324943Y-8980650D01*
X8324943Y-8980650D02*
X8286848Y-8980650D01*
X8286848Y-8980650D02*
X8267801Y-8990174D01*
X8353515Y-9104460D02*
X8334467Y-9113984D01*
X8334467Y-9113984D02*
X8286848Y-9113984D01*
X8286848Y-9113984D02*
X8267801Y-9104460D01*
X8267801Y-9104460D02*
X8258277Y-9085412D01*
X8258277Y-9085412D02*
X8258277Y-9066365D01*
X8258277Y-9066365D02*
X8267801Y-9047317D01*
X8267801Y-9047317D02*
X8286848Y-9037793D01*
X8286848Y-9037793D02*
X8334467Y-9037793D01*
X8334467Y-9037793D02*
X8353515Y-9028270D01*
X8448753Y-8980650D02*
X8448753Y-9180650D01*
X8448753Y-8990174D02*
X8467801Y-8980650D01*
X8467801Y-8980650D02*
X8505896Y-8980650D01*
X8505896Y-8980650D02*
X8524944Y-8990174D01*
X8524944Y-8990174D02*
X8534467Y-8999698D01*
X8534467Y-8999698D02*
X8543991Y-9018746D01*
X8543991Y-9018746D02*
X8543991Y-9075889D01*
X8543991Y-9075889D02*
X8534467Y-9094936D01*
X8534467Y-9094936D02*
X8524944Y-9104460D01*
X8524944Y-9104460D02*
X8505896Y-9113984D01*
X8505896Y-9113984D02*
X8467801Y-9113984D01*
X8467801Y-9113984D02*
X8448753Y-9104460D01*
X8629705Y-9094936D02*
X8639229Y-9104460D01*
X8639229Y-9104460D02*
X8629705Y-9113984D01*
X8629705Y-9113984D02*
X8620182Y-9104460D01*
X8620182Y-9104460D02*
X8629705Y-9094936D01*
X8629705Y-9094936D02*
X8629705Y-9113984D01*
X8629705Y-8990174D02*
X8639229Y-8999698D01*
X8639229Y-8999698D02*
X8629705Y-9009222D01*
X8629705Y-9009222D02*
X8620182Y-8999698D01*
X8620182Y-8999698D02*
X8629705Y-8990174D01*
X8629705Y-8990174D02*
X8629705Y-9009222D01*
M02*
