G04 #@! TF.GenerationSoftware,KiCad,Pcbnew,9.0.2*
G04 #@! TF.CreationDate,2025-10-08T20:36:55-05:00*
G04 #@! TF.ProjectId,cc-led-driver,63632d6c-6564-42d6-9472-697665722e6b,V1.0*
G04 #@! TF.SameCoordinates,Original*
G04 #@! TF.FileFunction,Legend,Top*
G04 #@! TF.FilePolarity,Positive*
%FSLAX46Y46*%
G04 Gerber Fmt 4.6, Leading zero omitted, Abs format (unit mm)*
G04 Created by KiCad (PCBNEW 9.0.2) date 2025-10-08 20:36:55*
%MOMM*%
%LPD*%
G01*
G04 APERTURE LIST*
G04 Aperture macros list*
%AMRoundRect*
0 Rectangle with rounded corners*
0 $1 Rounding radius*
0 $2 $3 $4 $5 $6 $7 $8 $9 X,Y pos of 4 corners*
0 Add a 4 corners polygon primitive as box body*
4,1,4,$2,$3,$4,$5,$6,$7,$8,$9,$2,$3,0*
0 Add four circle primitives for the rounded corners*
1,1,$1+$1,$2,$3*
1,1,$1+$1,$4,$5*
1,1,$1+$1,$6,$7*
1,1,$1+$1,$8,$9*
0 Add four rect primitives between the rounded corners*
20,1,$1+$1,$2,$3,$4,$5,0*
20,1,$1+$1,$4,$5,$6,$7,0*
20,1,$1+$1,$6,$7,$8,$9,0*
20,1,$1+$1,$8,$9,$2,$3,0*%
G04 Aperture macros list end*
%ADD10C,0.200000*%
%ADD11C,0.150000*%
%ADD12C,0.120000*%
%ADD13C,3.800000*%
%ADD14R,2.600000X3.100000*%
%ADD15R,1.550000X0.600000*%
%ADD16RoundRect,0.150000X-0.150000X0.825000X-0.150000X-0.825000X0.150000X-0.825000X0.150000X0.825000X0*%
%ADD17RoundRect,0.150000X-0.150000X0.587500X-0.150000X-0.587500X0.150000X-0.587500X0.150000X0.587500X0*%
%ADD18C,1.800000*%
%ADD19C,4.400000*%
%ADD20RoundRect,0.250000X-0.625000X0.312500X-0.625000X-0.312500X0.625000X-0.312500X0.625000X0.312500X0*%
%ADD21RoundRect,0.200000X-0.200000X-0.275000X0.200000X-0.275000X0.200000X0.275000X-0.200000X0.275000X0*%
%ADD22RoundRect,0.200000X0.275000X-0.200000X0.275000X0.200000X-0.275000X0.200000X-0.275000X-0.200000X0*%
%ADD23RoundRect,0.200000X0.200000X0.275000X-0.200000X0.275000X-0.200000X-0.275000X0.200000X-0.275000X0*%
%ADD24RoundRect,0.200000X-0.275000X0.200000X-0.275000X-0.200000X0.275000X-0.200000X0.275000X0.200000X0*%
%ADD25RoundRect,0.150000X-0.587500X-0.150000X0.587500X-0.150000X0.587500X0.150000X-0.587500X0.150000X0*%
%ADD26R,4.950000X3.175000*%
%ADD27C,2.200000*%
%ADD28RoundRect,0.218750X-0.218750X-0.381250X0.218750X-0.381250X0.218750X0.381250X-0.218750X0.381250X0*%
%ADD29RoundRect,0.250000X-0.375000X-0.625000X0.375000X-0.625000X0.375000X0.625000X-0.375000X0.625000X0*%
%ADD30RoundRect,0.150000X0.150000X-0.587500X0.150000X0.587500X-0.150000X0.587500X-0.150000X-0.587500X0*%
%ADD31RoundRect,0.225000X-0.250000X0.225000X-0.250000X-0.225000X0.250000X-0.225000X0.250000X0.225000X0*%
%ADD32RoundRect,0.250000X-1.100000X0.325000X-1.100000X-0.325000X1.100000X-0.325000X1.100000X0.325000X0*%
%ADD33RoundRect,0.225000X-0.225000X-0.250000X0.225000X-0.250000X0.225000X0.250000X-0.225000X0.250000X0*%
%ADD34RoundRect,0.225000X0.250000X-0.225000X0.250000X0.225000X-0.250000X0.225000X-0.250000X-0.225000X0*%
%ADD35RoundRect,0.250000X0.325000X1.100000X-0.325000X1.100000X-0.325000X-1.100000X0.325000X-1.100000X0*%
G04 APERTURE END LIST*
D10*
X115167219Y-73706517D02*
X115167219Y-74277945D01*
X115167219Y-73992231D02*
X114167219Y-73992231D01*
X114167219Y-73992231D02*
X114310076Y-74087469D01*
X114310076Y-74087469D02*
X114405314Y-74182707D01*
X114405314Y-74182707D02*
X114452933Y-74277945D01*
X114167219Y-73087469D02*
X114167219Y-72992231D01*
X114167219Y-72992231D02*
X114214838Y-72896993D01*
X114214838Y-72896993D02*
X114262457Y-72849374D01*
X114262457Y-72849374D02*
X114357695Y-72801755D01*
X114357695Y-72801755D02*
X114548171Y-72754136D01*
X114548171Y-72754136D02*
X114786266Y-72754136D01*
X114786266Y-72754136D02*
X114976742Y-72801755D01*
X114976742Y-72801755D02*
X115071980Y-72849374D01*
X115071980Y-72849374D02*
X115119600Y-72896993D01*
X115119600Y-72896993D02*
X115167219Y-72992231D01*
X115167219Y-72992231D02*
X115167219Y-73087469D01*
X115167219Y-73087469D02*
X115119600Y-73182707D01*
X115119600Y-73182707D02*
X115071980Y-73230326D01*
X115071980Y-73230326D02*
X114976742Y-73277945D01*
X114976742Y-73277945D02*
X114786266Y-73325564D01*
X114786266Y-73325564D02*
X114548171Y-73325564D01*
X114548171Y-73325564D02*
X114357695Y-73277945D01*
X114357695Y-73277945D02*
X114262457Y-73230326D01*
X114262457Y-73230326D02*
X114214838Y-73182707D01*
X114214838Y-73182707D02*
X114167219Y-73087469D01*
X114119600Y-71611279D02*
X115405314Y-72468421D01*
X114595790Y-71135088D02*
X114548171Y-71230326D01*
X114548171Y-71230326D02*
X114500552Y-71277945D01*
X114500552Y-71277945D02*
X114405314Y-71325564D01*
X114405314Y-71325564D02*
X114357695Y-71325564D01*
X114357695Y-71325564D02*
X114262457Y-71277945D01*
X114262457Y-71277945D02*
X114214838Y-71230326D01*
X114214838Y-71230326D02*
X114167219Y-71135088D01*
X114167219Y-71135088D02*
X114167219Y-70944612D01*
X114167219Y-70944612D02*
X114214838Y-70849374D01*
X114214838Y-70849374D02*
X114262457Y-70801755D01*
X114262457Y-70801755D02*
X114357695Y-70754136D01*
X114357695Y-70754136D02*
X114405314Y-70754136D01*
X114405314Y-70754136D02*
X114500552Y-70801755D01*
X114500552Y-70801755D02*
X114548171Y-70849374D01*
X114548171Y-70849374D02*
X114595790Y-70944612D01*
X114595790Y-70944612D02*
X114595790Y-71135088D01*
X114595790Y-71135088D02*
X114643409Y-71230326D01*
X114643409Y-71230326D02*
X114691028Y-71277945D01*
X114691028Y-71277945D02*
X114786266Y-71325564D01*
X114786266Y-71325564D02*
X114976742Y-71325564D01*
X114976742Y-71325564D02*
X115071980Y-71277945D01*
X115071980Y-71277945D02*
X115119600Y-71230326D01*
X115119600Y-71230326D02*
X115167219Y-71135088D01*
X115167219Y-71135088D02*
X115167219Y-70944612D01*
X115167219Y-70944612D02*
X115119600Y-70849374D01*
X115119600Y-70849374D02*
X115071980Y-70801755D01*
X115071980Y-70801755D02*
X114976742Y-70754136D01*
X114976742Y-70754136D02*
X114786266Y-70754136D01*
X114786266Y-70754136D02*
X114691028Y-70801755D01*
X114691028Y-70801755D02*
X114643409Y-70849374D01*
X114643409Y-70849374D02*
X114595790Y-70944612D01*
X114119600Y-69611279D02*
X115405314Y-70468421D01*
X114262457Y-69325564D02*
X114214838Y-69277945D01*
X114214838Y-69277945D02*
X114167219Y-69182707D01*
X114167219Y-69182707D02*
X114167219Y-68944612D01*
X114167219Y-68944612D02*
X114214838Y-68849374D01*
X114214838Y-68849374D02*
X114262457Y-68801755D01*
X114262457Y-68801755D02*
X114357695Y-68754136D01*
X114357695Y-68754136D02*
X114452933Y-68754136D01*
X114452933Y-68754136D02*
X114595790Y-68801755D01*
X114595790Y-68801755D02*
X115167219Y-69373183D01*
X115167219Y-69373183D02*
X115167219Y-68754136D01*
X114167219Y-67849374D02*
X114167219Y-68325564D01*
X114167219Y-68325564D02*
X114643409Y-68373183D01*
X114643409Y-68373183D02*
X114595790Y-68325564D01*
X114595790Y-68325564D02*
X114548171Y-68230326D01*
X114548171Y-68230326D02*
X114548171Y-67992231D01*
X114548171Y-67992231D02*
X114595790Y-67896993D01*
X114595790Y-67896993D02*
X114643409Y-67849374D01*
X114643409Y-67849374D02*
X114738647Y-67801755D01*
X114738647Y-67801755D02*
X114976742Y-67801755D01*
X114976742Y-67801755D02*
X115071980Y-67849374D01*
X115071980Y-67849374D02*
X115119600Y-67896993D01*
X115119600Y-67896993D02*
X115167219Y-67992231D01*
X115167219Y-67992231D02*
X115167219Y-68230326D01*
X115167219Y-68230326D02*
X115119600Y-68325564D01*
X115119600Y-68325564D02*
X115071980Y-68373183D01*
X113419600Y-74277945D02*
X113467219Y-74135088D01*
X113467219Y-74135088D02*
X113467219Y-73896993D01*
X113467219Y-73896993D02*
X113419600Y-73801755D01*
X113419600Y-73801755D02*
X113371980Y-73754136D01*
X113371980Y-73754136D02*
X113276742Y-73706517D01*
X113276742Y-73706517D02*
X113181504Y-73706517D01*
X113181504Y-73706517D02*
X113086266Y-73754136D01*
X113086266Y-73754136D02*
X113038647Y-73801755D01*
X113038647Y-73801755D02*
X112991028Y-73896993D01*
X112991028Y-73896993D02*
X112943409Y-74087469D01*
X112943409Y-74087469D02*
X112895790Y-74182707D01*
X112895790Y-74182707D02*
X112848171Y-74230326D01*
X112848171Y-74230326D02*
X112752933Y-74277945D01*
X112752933Y-74277945D02*
X112657695Y-74277945D01*
X112657695Y-74277945D02*
X112562457Y-74230326D01*
X112562457Y-74230326D02*
X112514838Y-74182707D01*
X112514838Y-74182707D02*
X112467219Y-74087469D01*
X112467219Y-74087469D02*
X112467219Y-73849374D01*
X112467219Y-73849374D02*
X112514838Y-73706517D01*
X113419600Y-72896993D02*
X113467219Y-72992231D01*
X113467219Y-72992231D02*
X113467219Y-73182707D01*
X113467219Y-73182707D02*
X113419600Y-73277945D01*
X113419600Y-73277945D02*
X113324361Y-73325564D01*
X113324361Y-73325564D02*
X112943409Y-73325564D01*
X112943409Y-73325564D02*
X112848171Y-73277945D01*
X112848171Y-73277945D02*
X112800552Y-73182707D01*
X112800552Y-73182707D02*
X112800552Y-72992231D01*
X112800552Y-72992231D02*
X112848171Y-72896993D01*
X112848171Y-72896993D02*
X112943409Y-72849374D01*
X112943409Y-72849374D02*
X113038647Y-72849374D01*
X113038647Y-72849374D02*
X113133885Y-73325564D01*
X112800552Y-72563659D02*
X112800552Y-72182707D01*
X112467219Y-72420802D02*
X113324361Y-72420802D01*
X113324361Y-72420802D02*
X113419600Y-72373183D01*
X113419600Y-72373183D02*
X113467219Y-72277945D01*
X113467219Y-72277945D02*
X113467219Y-72182707D01*
X113467219Y-71849373D02*
X112467219Y-71849373D01*
X113467219Y-71420802D02*
X112943409Y-71420802D01*
X112943409Y-71420802D02*
X112848171Y-71468421D01*
X112848171Y-71468421D02*
X112800552Y-71563659D01*
X112800552Y-71563659D02*
X112800552Y-71706516D01*
X112800552Y-71706516D02*
X112848171Y-71801754D01*
X112848171Y-71801754D02*
X112895790Y-71849373D01*
X113419600Y-70230325D02*
X113467219Y-70087468D01*
X113467219Y-70087468D02*
X113467219Y-69849373D01*
X113467219Y-69849373D02*
X113419600Y-69754135D01*
X113419600Y-69754135D02*
X113371980Y-69706516D01*
X113371980Y-69706516D02*
X113276742Y-69658897D01*
X113276742Y-69658897D02*
X113181504Y-69658897D01*
X113181504Y-69658897D02*
X113086266Y-69706516D01*
X113086266Y-69706516D02*
X113038647Y-69754135D01*
X113038647Y-69754135D02*
X112991028Y-69849373D01*
X112991028Y-69849373D02*
X112943409Y-70039849D01*
X112943409Y-70039849D02*
X112895790Y-70135087D01*
X112895790Y-70135087D02*
X112848171Y-70182706D01*
X112848171Y-70182706D02*
X112752933Y-70230325D01*
X112752933Y-70230325D02*
X112657695Y-70230325D01*
X112657695Y-70230325D02*
X112562457Y-70182706D01*
X112562457Y-70182706D02*
X112514838Y-70135087D01*
X112514838Y-70135087D02*
X112467219Y-70039849D01*
X112467219Y-70039849D02*
X112467219Y-69801754D01*
X112467219Y-69801754D02*
X112514838Y-69658897D01*
X113467219Y-69230325D02*
X112800552Y-69230325D01*
X112467219Y-69230325D02*
X112514838Y-69277944D01*
X112514838Y-69277944D02*
X112562457Y-69230325D01*
X112562457Y-69230325D02*
X112514838Y-69182706D01*
X112514838Y-69182706D02*
X112467219Y-69230325D01*
X112467219Y-69230325D02*
X112562457Y-69230325D01*
X113419600Y-68373183D02*
X113467219Y-68468421D01*
X113467219Y-68468421D02*
X113467219Y-68658897D01*
X113467219Y-68658897D02*
X113419600Y-68754135D01*
X113419600Y-68754135D02*
X113324361Y-68801754D01*
X113324361Y-68801754D02*
X112943409Y-68801754D01*
X112943409Y-68801754D02*
X112848171Y-68754135D01*
X112848171Y-68754135D02*
X112800552Y-68658897D01*
X112800552Y-68658897D02*
X112800552Y-68468421D01*
X112800552Y-68468421D02*
X112848171Y-68373183D01*
X112848171Y-68373183D02*
X112943409Y-68325564D01*
X112943409Y-68325564D02*
X113038647Y-68325564D01*
X113038647Y-68325564D02*
X113133885Y-68801754D01*
X112800552Y-67992230D02*
X113467219Y-67754135D01*
X113467219Y-67754135D02*
X112800552Y-67516040D01*
X113419600Y-66754135D02*
X113467219Y-66849373D01*
X113467219Y-66849373D02*
X113467219Y-67039849D01*
X113467219Y-67039849D02*
X113419600Y-67135087D01*
X113419600Y-67135087D02*
X113324361Y-67182706D01*
X113324361Y-67182706D02*
X112943409Y-67182706D01*
X112943409Y-67182706D02*
X112848171Y-67135087D01*
X112848171Y-67135087D02*
X112800552Y-67039849D01*
X112800552Y-67039849D02*
X112800552Y-66849373D01*
X112800552Y-66849373D02*
X112848171Y-66754135D01*
X112848171Y-66754135D02*
X112943409Y-66706516D01*
X112943409Y-66706516D02*
X113038647Y-66706516D01*
X113038647Y-66706516D02*
X113133885Y-67182706D01*
X113467219Y-66277944D02*
X112800552Y-66277944D01*
X112991028Y-66277944D02*
X112895790Y-66230325D01*
X112895790Y-66230325D02*
X112848171Y-66182706D01*
X112848171Y-66182706D02*
X112800552Y-66087468D01*
X112800552Y-66087468D02*
X112800552Y-65992230D01*
X113419600Y-65706515D02*
X113467219Y-65611277D01*
X113467219Y-65611277D02*
X113467219Y-65420801D01*
X113467219Y-65420801D02*
X113419600Y-65325563D01*
X113419600Y-65325563D02*
X113324361Y-65277944D01*
X113324361Y-65277944D02*
X113276742Y-65277944D01*
X113276742Y-65277944D02*
X113181504Y-65325563D01*
X113181504Y-65325563D02*
X113133885Y-65420801D01*
X113133885Y-65420801D02*
X113133885Y-65563658D01*
X113133885Y-65563658D02*
X113086266Y-65658896D01*
X113086266Y-65658896D02*
X112991028Y-65706515D01*
X112991028Y-65706515D02*
X112943409Y-65706515D01*
X112943409Y-65706515D02*
X112848171Y-65658896D01*
X112848171Y-65658896D02*
X112800552Y-65563658D01*
X112800552Y-65563658D02*
X112800552Y-65420801D01*
X112800552Y-65420801D02*
X112848171Y-65325563D01*
X111871980Y-73758898D02*
X111919600Y-73806517D01*
X111919600Y-73806517D02*
X111967219Y-73949374D01*
X111967219Y-73949374D02*
X111967219Y-74044612D01*
X111967219Y-74044612D02*
X111919600Y-74187469D01*
X111919600Y-74187469D02*
X111824361Y-74282707D01*
X111824361Y-74282707D02*
X111729123Y-74330326D01*
X111729123Y-74330326D02*
X111538647Y-74377945D01*
X111538647Y-74377945D02*
X111395790Y-74377945D01*
X111395790Y-74377945D02*
X111205314Y-74330326D01*
X111205314Y-74330326D02*
X111110076Y-74282707D01*
X111110076Y-74282707D02*
X111014838Y-74187469D01*
X111014838Y-74187469D02*
X110967219Y-74044612D01*
X110967219Y-74044612D02*
X110967219Y-73949374D01*
X110967219Y-73949374D02*
X111014838Y-73806517D01*
X111014838Y-73806517D02*
X111062457Y-73758898D01*
X111871980Y-72758898D02*
X111919600Y-72806517D01*
X111919600Y-72806517D02*
X111967219Y-72949374D01*
X111967219Y-72949374D02*
X111967219Y-73044612D01*
X111967219Y-73044612D02*
X111919600Y-73187469D01*
X111919600Y-73187469D02*
X111824361Y-73282707D01*
X111824361Y-73282707D02*
X111729123Y-73330326D01*
X111729123Y-73330326D02*
X111538647Y-73377945D01*
X111538647Y-73377945D02*
X111395790Y-73377945D01*
X111395790Y-73377945D02*
X111205314Y-73330326D01*
X111205314Y-73330326D02*
X111110076Y-73282707D01*
X111110076Y-73282707D02*
X111014838Y-73187469D01*
X111014838Y-73187469D02*
X110967219Y-73044612D01*
X110967219Y-73044612D02*
X110967219Y-72949374D01*
X110967219Y-72949374D02*
X111014838Y-72806517D01*
X111014838Y-72806517D02*
X111062457Y-72758898D01*
X111967219Y-71092231D02*
X111967219Y-71568421D01*
X111967219Y-71568421D02*
X110967219Y-71568421D01*
X111443409Y-70758897D02*
X111443409Y-70425564D01*
X111967219Y-70282707D02*
X111967219Y-70758897D01*
X111967219Y-70758897D02*
X110967219Y-70758897D01*
X110967219Y-70758897D02*
X110967219Y-70282707D01*
X111967219Y-69854135D02*
X110967219Y-69854135D01*
X110967219Y-69854135D02*
X110967219Y-69616040D01*
X110967219Y-69616040D02*
X111014838Y-69473183D01*
X111014838Y-69473183D02*
X111110076Y-69377945D01*
X111110076Y-69377945D02*
X111205314Y-69330326D01*
X111205314Y-69330326D02*
X111395790Y-69282707D01*
X111395790Y-69282707D02*
X111538647Y-69282707D01*
X111538647Y-69282707D02*
X111729123Y-69330326D01*
X111729123Y-69330326D02*
X111824361Y-69377945D01*
X111824361Y-69377945D02*
X111919600Y-69473183D01*
X111919600Y-69473183D02*
X111967219Y-69616040D01*
X111967219Y-69616040D02*
X111967219Y-69854135D01*
X111967219Y-68092230D02*
X110967219Y-68092230D01*
X110967219Y-68092230D02*
X110967219Y-67854135D01*
X110967219Y-67854135D02*
X111014838Y-67711278D01*
X111014838Y-67711278D02*
X111110076Y-67616040D01*
X111110076Y-67616040D02*
X111205314Y-67568421D01*
X111205314Y-67568421D02*
X111395790Y-67520802D01*
X111395790Y-67520802D02*
X111538647Y-67520802D01*
X111538647Y-67520802D02*
X111729123Y-67568421D01*
X111729123Y-67568421D02*
X111824361Y-67616040D01*
X111824361Y-67616040D02*
X111919600Y-67711278D01*
X111919600Y-67711278D02*
X111967219Y-67854135D01*
X111967219Y-67854135D02*
X111967219Y-68092230D01*
X111967219Y-67092230D02*
X111300552Y-67092230D01*
X110967219Y-67092230D02*
X111014838Y-67139849D01*
X111014838Y-67139849D02*
X111062457Y-67092230D01*
X111062457Y-67092230D02*
X111014838Y-67044611D01*
X111014838Y-67044611D02*
X110967219Y-67092230D01*
X110967219Y-67092230D02*
X111062457Y-67092230D01*
X111967219Y-66616040D02*
X111300552Y-66616040D01*
X111395790Y-66616040D02*
X111348171Y-66568421D01*
X111348171Y-66568421D02*
X111300552Y-66473183D01*
X111300552Y-66473183D02*
X111300552Y-66330326D01*
X111300552Y-66330326D02*
X111348171Y-66235088D01*
X111348171Y-66235088D02*
X111443409Y-66187469D01*
X111443409Y-66187469D02*
X111967219Y-66187469D01*
X111443409Y-66187469D02*
X111348171Y-66139850D01*
X111348171Y-66139850D02*
X111300552Y-66044612D01*
X111300552Y-66044612D02*
X111300552Y-65901755D01*
X111300552Y-65901755D02*
X111348171Y-65806516D01*
X111348171Y-65806516D02*
X111443409Y-65758897D01*
X111443409Y-65758897D02*
X111967219Y-65758897D01*
X111967219Y-65282707D02*
X111300552Y-65282707D01*
X111395790Y-65282707D02*
X111348171Y-65235088D01*
X111348171Y-65235088D02*
X111300552Y-65139850D01*
X111300552Y-65139850D02*
X111300552Y-64996993D01*
X111300552Y-64996993D02*
X111348171Y-64901755D01*
X111348171Y-64901755D02*
X111443409Y-64854136D01*
X111443409Y-64854136D02*
X111967219Y-64854136D01*
X111443409Y-64854136D02*
X111348171Y-64806517D01*
X111348171Y-64806517D02*
X111300552Y-64711279D01*
X111300552Y-64711279D02*
X111300552Y-64568422D01*
X111300552Y-64568422D02*
X111348171Y-64473183D01*
X111348171Y-64473183D02*
X111443409Y-64425564D01*
X111443409Y-64425564D02*
X111967219Y-64425564D01*
X111919600Y-63568422D02*
X111967219Y-63663660D01*
X111967219Y-63663660D02*
X111967219Y-63854136D01*
X111967219Y-63854136D02*
X111919600Y-63949374D01*
X111919600Y-63949374D02*
X111824361Y-63996993D01*
X111824361Y-63996993D02*
X111443409Y-63996993D01*
X111443409Y-63996993D02*
X111348171Y-63949374D01*
X111348171Y-63949374D02*
X111300552Y-63854136D01*
X111300552Y-63854136D02*
X111300552Y-63663660D01*
X111300552Y-63663660D02*
X111348171Y-63568422D01*
X111348171Y-63568422D02*
X111443409Y-63520803D01*
X111443409Y-63520803D02*
X111538647Y-63520803D01*
X111538647Y-63520803D02*
X111633885Y-63996993D01*
X111967219Y-63092231D02*
X111300552Y-63092231D01*
X111491028Y-63092231D02*
X111395790Y-63044612D01*
X111395790Y-63044612D02*
X111348171Y-62996993D01*
X111348171Y-62996993D02*
X111300552Y-62901755D01*
X111300552Y-62901755D02*
X111300552Y-62806517D01*
D11*
X81812969Y-42669819D02*
X81336779Y-42669819D01*
X81336779Y-42669819D02*
X81336779Y-41669819D01*
X82146303Y-42288866D02*
X82908208Y-42288866D01*
X86812969Y-42669819D02*
X86336779Y-42669819D01*
X86336779Y-42669819D02*
X86336779Y-41669819D01*
X87146303Y-42288866D02*
X87908208Y-42288866D01*
X87527255Y-42669819D02*
X87527255Y-41907914D01*
X72293922Y-49569819D02*
X72627255Y-50569819D01*
X72627255Y-50569819D02*
X72960588Y-49569819D01*
X73293922Y-50188866D02*
X74055827Y-50188866D01*
X72193922Y-58369819D02*
X72527255Y-59369819D01*
X72527255Y-59369819D02*
X72860588Y-58369819D01*
X73193922Y-58988866D02*
X73955827Y-58988866D01*
X73574874Y-59369819D02*
X73574874Y-58607914D01*
X86975750Y-58753246D02*
X87548170Y-59325666D01*
X87548170Y-59325666D02*
X87649185Y-59359338D01*
X87649185Y-59359338D02*
X87716529Y-59359338D01*
X87716529Y-59359338D02*
X87817544Y-59325666D01*
X87817544Y-59325666D02*
X87952231Y-59190979D01*
X87952231Y-59190979D02*
X87985903Y-59089964D01*
X87985903Y-59089964D02*
X87985903Y-59022620D01*
X87985903Y-59022620D02*
X87952231Y-58921605D01*
X87952231Y-58921605D02*
X87379811Y-58349185D01*
X87649185Y-58079811D02*
X88086918Y-57642079D01*
X88086918Y-57642079D02*
X88120590Y-58147155D01*
X88120590Y-58147155D02*
X88221605Y-58046140D01*
X88221605Y-58046140D02*
X88322620Y-58012468D01*
X88322620Y-58012468D02*
X88389964Y-58012468D01*
X88389964Y-58012468D02*
X88490979Y-58046140D01*
X88490979Y-58046140D02*
X88659338Y-58214498D01*
X88659338Y-58214498D02*
X88693010Y-58315514D01*
X88693010Y-58315514D02*
X88693010Y-58382857D01*
X88693010Y-58382857D02*
X88659338Y-58483872D01*
X88659338Y-58483872D02*
X88457307Y-58685903D01*
X88457307Y-58685903D02*
X88356292Y-58719575D01*
X88356292Y-58719575D02*
X88288949Y-58719575D01*
X100829819Y-77431904D02*
X101639342Y-77431904D01*
X101639342Y-77431904D02*
X101734580Y-77384285D01*
X101734580Y-77384285D02*
X101782200Y-77336666D01*
X101782200Y-77336666D02*
X101829819Y-77241428D01*
X101829819Y-77241428D02*
X101829819Y-77050952D01*
X101829819Y-77050952D02*
X101782200Y-76955714D01*
X101782200Y-76955714D02*
X101734580Y-76908095D01*
X101734580Y-76908095D02*
X101639342Y-76860476D01*
X101639342Y-76860476D02*
X100829819Y-76860476D01*
X100925057Y-76431904D02*
X100877438Y-76384285D01*
X100877438Y-76384285D02*
X100829819Y-76289047D01*
X100829819Y-76289047D02*
X100829819Y-76050952D01*
X100829819Y-76050952D02*
X100877438Y-75955714D01*
X100877438Y-75955714D02*
X100925057Y-75908095D01*
X100925057Y-75908095D02*
X101020295Y-75860476D01*
X101020295Y-75860476D02*
X101115533Y-75860476D01*
X101115533Y-75860476D02*
X101258390Y-75908095D01*
X101258390Y-75908095D02*
X101829819Y-76479523D01*
X101829819Y-76479523D02*
X101829819Y-75860476D01*
X81438095Y-60154819D02*
X81438095Y-60964342D01*
X81438095Y-60964342D02*
X81485714Y-61059580D01*
X81485714Y-61059580D02*
X81533333Y-61107200D01*
X81533333Y-61107200D02*
X81628571Y-61154819D01*
X81628571Y-61154819D02*
X81819047Y-61154819D01*
X81819047Y-61154819D02*
X81914285Y-61107200D01*
X81914285Y-61107200D02*
X81961904Y-61059580D01*
X81961904Y-61059580D02*
X82009523Y-60964342D01*
X82009523Y-60964342D02*
X82009523Y-60154819D01*
X83009523Y-61154819D02*
X82438095Y-61154819D01*
X82723809Y-61154819D02*
X82723809Y-60154819D01*
X82723809Y-60154819D02*
X82628571Y-60297676D01*
X82628571Y-60297676D02*
X82533333Y-60392914D01*
X82533333Y-60392914D02*
X82438095Y-60440533D01*
X76404761Y-65254819D02*
X76071428Y-64778628D01*
X75833333Y-65254819D02*
X75833333Y-64254819D01*
X75833333Y-64254819D02*
X76214285Y-64254819D01*
X76214285Y-64254819D02*
X76309523Y-64302438D01*
X76309523Y-64302438D02*
X76357142Y-64350057D01*
X76357142Y-64350057D02*
X76404761Y-64445295D01*
X76404761Y-64445295D02*
X76404761Y-64588152D01*
X76404761Y-64588152D02*
X76357142Y-64683390D01*
X76357142Y-64683390D02*
X76309523Y-64731009D01*
X76309523Y-64731009D02*
X76214285Y-64778628D01*
X76214285Y-64778628D02*
X75833333Y-64778628D01*
X76690476Y-64254819D02*
X77023809Y-65254819D01*
X77023809Y-65254819D02*
X77357142Y-64254819D01*
X78214285Y-65254819D02*
X77642857Y-65254819D01*
X77928571Y-65254819D02*
X77928571Y-64254819D01*
X77928571Y-64254819D02*
X77833333Y-64397676D01*
X77833333Y-64397676D02*
X77738095Y-64492914D01*
X77738095Y-64492914D02*
X77642857Y-64540533D01*
X79454819Y-43942857D02*
X78978628Y-44276190D01*
X79454819Y-44514285D02*
X78454819Y-44514285D01*
X78454819Y-44514285D02*
X78454819Y-44133333D01*
X78454819Y-44133333D02*
X78502438Y-44038095D01*
X78502438Y-44038095D02*
X78550057Y-43990476D01*
X78550057Y-43990476D02*
X78645295Y-43942857D01*
X78645295Y-43942857D02*
X78788152Y-43942857D01*
X78788152Y-43942857D02*
X78883390Y-43990476D01*
X78883390Y-43990476D02*
X78931009Y-44038095D01*
X78931009Y-44038095D02*
X78978628Y-44133333D01*
X78978628Y-44133333D02*
X78978628Y-44514285D01*
X78550057Y-43561904D02*
X78502438Y-43514285D01*
X78502438Y-43514285D02*
X78454819Y-43419047D01*
X78454819Y-43419047D02*
X78454819Y-43180952D01*
X78454819Y-43180952D02*
X78502438Y-43085714D01*
X78502438Y-43085714D02*
X78550057Y-43038095D01*
X78550057Y-43038095D02*
X78645295Y-42990476D01*
X78645295Y-42990476D02*
X78740533Y-42990476D01*
X78740533Y-42990476D02*
X78883390Y-43038095D01*
X78883390Y-43038095D02*
X79454819Y-43609523D01*
X79454819Y-43609523D02*
X79454819Y-42990476D01*
X78454819Y-42371428D02*
X78454819Y-42276190D01*
X78454819Y-42276190D02*
X78502438Y-42180952D01*
X78502438Y-42180952D02*
X78550057Y-42133333D01*
X78550057Y-42133333D02*
X78645295Y-42085714D01*
X78645295Y-42085714D02*
X78835771Y-42038095D01*
X78835771Y-42038095D02*
X79073866Y-42038095D01*
X79073866Y-42038095D02*
X79264342Y-42085714D01*
X79264342Y-42085714D02*
X79359580Y-42133333D01*
X79359580Y-42133333D02*
X79407200Y-42180952D01*
X79407200Y-42180952D02*
X79454819Y-42276190D01*
X79454819Y-42276190D02*
X79454819Y-42371428D01*
X79454819Y-42371428D02*
X79407200Y-42466666D01*
X79407200Y-42466666D02*
X79359580Y-42514285D01*
X79359580Y-42514285D02*
X79264342Y-42561904D01*
X79264342Y-42561904D02*
X79073866Y-42609523D01*
X79073866Y-42609523D02*
X78835771Y-42609523D01*
X78835771Y-42609523D02*
X78645295Y-42561904D01*
X78645295Y-42561904D02*
X78550057Y-42514285D01*
X78550057Y-42514285D02*
X78502438Y-42466666D01*
X78502438Y-42466666D02*
X78454819Y-42371428D01*
X97257142Y-64654819D02*
X96923809Y-64178628D01*
X96685714Y-64654819D02*
X96685714Y-63654819D01*
X96685714Y-63654819D02*
X97066666Y-63654819D01*
X97066666Y-63654819D02*
X97161904Y-63702438D01*
X97161904Y-63702438D02*
X97209523Y-63750057D01*
X97209523Y-63750057D02*
X97257142Y-63845295D01*
X97257142Y-63845295D02*
X97257142Y-63988152D01*
X97257142Y-63988152D02*
X97209523Y-64083390D01*
X97209523Y-64083390D02*
X97161904Y-64131009D01*
X97161904Y-64131009D02*
X97066666Y-64178628D01*
X97066666Y-64178628D02*
X96685714Y-64178628D01*
X98209523Y-64654819D02*
X97638095Y-64654819D01*
X97923809Y-64654819D02*
X97923809Y-63654819D01*
X97923809Y-63654819D02*
X97828571Y-63797676D01*
X97828571Y-63797676D02*
X97733333Y-63892914D01*
X97733333Y-63892914D02*
X97638095Y-63940533D01*
X98685714Y-64654819D02*
X98876190Y-64654819D01*
X98876190Y-64654819D02*
X98971428Y-64607200D01*
X98971428Y-64607200D02*
X99019047Y-64559580D01*
X99019047Y-64559580D02*
X99114285Y-64416723D01*
X99114285Y-64416723D02*
X99161904Y-64226247D01*
X99161904Y-64226247D02*
X99161904Y-63845295D01*
X99161904Y-63845295D02*
X99114285Y-63750057D01*
X99114285Y-63750057D02*
X99066666Y-63702438D01*
X99066666Y-63702438D02*
X98971428Y-63654819D01*
X98971428Y-63654819D02*
X98780952Y-63654819D01*
X98780952Y-63654819D02*
X98685714Y-63702438D01*
X98685714Y-63702438D02*
X98638095Y-63750057D01*
X98638095Y-63750057D02*
X98590476Y-63845295D01*
X98590476Y-63845295D02*
X98590476Y-64083390D01*
X98590476Y-64083390D02*
X98638095Y-64178628D01*
X98638095Y-64178628D02*
X98685714Y-64226247D01*
X98685714Y-64226247D02*
X98780952Y-64273866D01*
X98780952Y-64273866D02*
X98971428Y-64273866D01*
X98971428Y-64273866D02*
X99066666Y-64226247D01*
X99066666Y-64226247D02*
X99114285Y-64178628D01*
X99114285Y-64178628D02*
X99161904Y-64083390D01*
X104054819Y-73037857D02*
X103578628Y-73371190D01*
X104054819Y-73609285D02*
X103054819Y-73609285D01*
X103054819Y-73609285D02*
X103054819Y-73228333D01*
X103054819Y-73228333D02*
X103102438Y-73133095D01*
X103102438Y-73133095D02*
X103150057Y-73085476D01*
X103150057Y-73085476D02*
X103245295Y-73037857D01*
X103245295Y-73037857D02*
X103388152Y-73037857D01*
X103388152Y-73037857D02*
X103483390Y-73085476D01*
X103483390Y-73085476D02*
X103531009Y-73133095D01*
X103531009Y-73133095D02*
X103578628Y-73228333D01*
X103578628Y-73228333D02*
X103578628Y-73609285D01*
X104054819Y-72085476D02*
X104054819Y-72656904D01*
X104054819Y-72371190D02*
X103054819Y-72371190D01*
X103054819Y-72371190D02*
X103197676Y-72466428D01*
X103197676Y-72466428D02*
X103292914Y-72561666D01*
X103292914Y-72561666D02*
X103340533Y-72656904D01*
X103483390Y-71514047D02*
X103435771Y-71609285D01*
X103435771Y-71609285D02*
X103388152Y-71656904D01*
X103388152Y-71656904D02*
X103292914Y-71704523D01*
X103292914Y-71704523D02*
X103245295Y-71704523D01*
X103245295Y-71704523D02*
X103150057Y-71656904D01*
X103150057Y-71656904D02*
X103102438Y-71609285D01*
X103102438Y-71609285D02*
X103054819Y-71514047D01*
X103054819Y-71514047D02*
X103054819Y-71323571D01*
X103054819Y-71323571D02*
X103102438Y-71228333D01*
X103102438Y-71228333D02*
X103150057Y-71180714D01*
X103150057Y-71180714D02*
X103245295Y-71133095D01*
X103245295Y-71133095D02*
X103292914Y-71133095D01*
X103292914Y-71133095D02*
X103388152Y-71180714D01*
X103388152Y-71180714D02*
X103435771Y-71228333D01*
X103435771Y-71228333D02*
X103483390Y-71323571D01*
X103483390Y-71323571D02*
X103483390Y-71514047D01*
X103483390Y-71514047D02*
X103531009Y-71609285D01*
X103531009Y-71609285D02*
X103578628Y-71656904D01*
X103578628Y-71656904D02*
X103673866Y-71704523D01*
X103673866Y-71704523D02*
X103864342Y-71704523D01*
X103864342Y-71704523D02*
X103959580Y-71656904D01*
X103959580Y-71656904D02*
X104007200Y-71609285D01*
X104007200Y-71609285D02*
X104054819Y-71514047D01*
X104054819Y-71514047D02*
X104054819Y-71323571D01*
X104054819Y-71323571D02*
X104007200Y-71228333D01*
X104007200Y-71228333D02*
X103959580Y-71180714D01*
X103959580Y-71180714D02*
X103864342Y-71133095D01*
X103864342Y-71133095D02*
X103673866Y-71133095D01*
X103673866Y-71133095D02*
X103578628Y-71180714D01*
X103578628Y-71180714D02*
X103531009Y-71228333D01*
X103531009Y-71228333D02*
X103483390Y-71323571D01*
X90254819Y-61542857D02*
X89778628Y-61876190D01*
X90254819Y-62114285D02*
X89254819Y-62114285D01*
X89254819Y-62114285D02*
X89254819Y-61733333D01*
X89254819Y-61733333D02*
X89302438Y-61638095D01*
X89302438Y-61638095D02*
X89350057Y-61590476D01*
X89350057Y-61590476D02*
X89445295Y-61542857D01*
X89445295Y-61542857D02*
X89588152Y-61542857D01*
X89588152Y-61542857D02*
X89683390Y-61590476D01*
X89683390Y-61590476D02*
X89731009Y-61638095D01*
X89731009Y-61638095D02*
X89778628Y-61733333D01*
X89778628Y-61733333D02*
X89778628Y-62114285D01*
X90254819Y-60590476D02*
X90254819Y-61161904D01*
X90254819Y-60876190D02*
X89254819Y-60876190D01*
X89254819Y-60876190D02*
X89397676Y-60971428D01*
X89397676Y-60971428D02*
X89492914Y-61066666D01*
X89492914Y-61066666D02*
X89540533Y-61161904D01*
X89254819Y-60257142D02*
X89254819Y-59590476D01*
X89254819Y-59590476D02*
X90254819Y-60019047D01*
X98832142Y-70519819D02*
X98498809Y-70043628D01*
X98260714Y-70519819D02*
X98260714Y-69519819D01*
X98260714Y-69519819D02*
X98641666Y-69519819D01*
X98641666Y-69519819D02*
X98736904Y-69567438D01*
X98736904Y-69567438D02*
X98784523Y-69615057D01*
X98784523Y-69615057D02*
X98832142Y-69710295D01*
X98832142Y-69710295D02*
X98832142Y-69853152D01*
X98832142Y-69853152D02*
X98784523Y-69948390D01*
X98784523Y-69948390D02*
X98736904Y-69996009D01*
X98736904Y-69996009D02*
X98641666Y-70043628D01*
X98641666Y-70043628D02*
X98260714Y-70043628D01*
X99784523Y-70519819D02*
X99213095Y-70519819D01*
X99498809Y-70519819D02*
X99498809Y-69519819D01*
X99498809Y-69519819D02*
X99403571Y-69662676D01*
X99403571Y-69662676D02*
X99308333Y-69757914D01*
X99308333Y-69757914D02*
X99213095Y-69805533D01*
X100641666Y-69519819D02*
X100451190Y-69519819D01*
X100451190Y-69519819D02*
X100355952Y-69567438D01*
X100355952Y-69567438D02*
X100308333Y-69615057D01*
X100308333Y-69615057D02*
X100213095Y-69757914D01*
X100213095Y-69757914D02*
X100165476Y-69948390D01*
X100165476Y-69948390D02*
X100165476Y-70329342D01*
X100165476Y-70329342D02*
X100213095Y-70424580D01*
X100213095Y-70424580D02*
X100260714Y-70472200D01*
X100260714Y-70472200D02*
X100355952Y-70519819D01*
X100355952Y-70519819D02*
X100546428Y-70519819D01*
X100546428Y-70519819D02*
X100641666Y-70472200D01*
X100641666Y-70472200D02*
X100689285Y-70424580D01*
X100689285Y-70424580D02*
X100736904Y-70329342D01*
X100736904Y-70329342D02*
X100736904Y-70091247D01*
X100736904Y-70091247D02*
X100689285Y-69996009D01*
X100689285Y-69996009D02*
X100641666Y-69948390D01*
X100641666Y-69948390D02*
X100546428Y-69900771D01*
X100546428Y-69900771D02*
X100355952Y-69900771D01*
X100355952Y-69900771D02*
X100260714Y-69948390D01*
X100260714Y-69948390D02*
X100213095Y-69996009D01*
X100213095Y-69996009D02*
X100165476Y-70091247D01*
X90257142Y-59254819D02*
X89923809Y-58778628D01*
X89685714Y-59254819D02*
X89685714Y-58254819D01*
X89685714Y-58254819D02*
X90066666Y-58254819D01*
X90066666Y-58254819D02*
X90161904Y-58302438D01*
X90161904Y-58302438D02*
X90209523Y-58350057D01*
X90209523Y-58350057D02*
X90257142Y-58445295D01*
X90257142Y-58445295D02*
X90257142Y-58588152D01*
X90257142Y-58588152D02*
X90209523Y-58683390D01*
X90209523Y-58683390D02*
X90161904Y-58731009D01*
X90161904Y-58731009D02*
X90066666Y-58778628D01*
X90066666Y-58778628D02*
X89685714Y-58778628D01*
X91209523Y-59254819D02*
X90638095Y-59254819D01*
X90923809Y-59254819D02*
X90923809Y-58254819D01*
X90923809Y-58254819D02*
X90828571Y-58397676D01*
X90828571Y-58397676D02*
X90733333Y-58492914D01*
X90733333Y-58492914D02*
X90638095Y-58540533D01*
X92114285Y-58254819D02*
X91638095Y-58254819D01*
X91638095Y-58254819D02*
X91590476Y-58731009D01*
X91590476Y-58731009D02*
X91638095Y-58683390D01*
X91638095Y-58683390D02*
X91733333Y-58635771D01*
X91733333Y-58635771D02*
X91971428Y-58635771D01*
X91971428Y-58635771D02*
X92066666Y-58683390D01*
X92066666Y-58683390D02*
X92114285Y-58731009D01*
X92114285Y-58731009D02*
X92161904Y-58826247D01*
X92161904Y-58826247D02*
X92161904Y-59064342D01*
X92161904Y-59064342D02*
X92114285Y-59159580D01*
X92114285Y-59159580D02*
X92066666Y-59207200D01*
X92066666Y-59207200D02*
X91971428Y-59254819D01*
X91971428Y-59254819D02*
X91733333Y-59254819D01*
X91733333Y-59254819D02*
X91638095Y-59207200D01*
X91638095Y-59207200D02*
X91590476Y-59159580D01*
X96457142Y-61254819D02*
X96123809Y-60778628D01*
X95885714Y-61254819D02*
X95885714Y-60254819D01*
X95885714Y-60254819D02*
X96266666Y-60254819D01*
X96266666Y-60254819D02*
X96361904Y-60302438D01*
X96361904Y-60302438D02*
X96409523Y-60350057D01*
X96409523Y-60350057D02*
X96457142Y-60445295D01*
X96457142Y-60445295D02*
X96457142Y-60588152D01*
X96457142Y-60588152D02*
X96409523Y-60683390D01*
X96409523Y-60683390D02*
X96361904Y-60731009D01*
X96361904Y-60731009D02*
X96266666Y-60778628D01*
X96266666Y-60778628D02*
X95885714Y-60778628D01*
X97409523Y-61254819D02*
X96838095Y-61254819D01*
X97123809Y-61254819D02*
X97123809Y-60254819D01*
X97123809Y-60254819D02*
X97028571Y-60397676D01*
X97028571Y-60397676D02*
X96933333Y-60492914D01*
X96933333Y-60492914D02*
X96838095Y-60540533D01*
X98266666Y-60588152D02*
X98266666Y-61254819D01*
X98028571Y-60207200D02*
X97790476Y-60921485D01*
X97790476Y-60921485D02*
X98409523Y-60921485D01*
X95532142Y-70519819D02*
X95198809Y-70043628D01*
X94960714Y-70519819D02*
X94960714Y-69519819D01*
X94960714Y-69519819D02*
X95341666Y-69519819D01*
X95341666Y-69519819D02*
X95436904Y-69567438D01*
X95436904Y-69567438D02*
X95484523Y-69615057D01*
X95484523Y-69615057D02*
X95532142Y-69710295D01*
X95532142Y-69710295D02*
X95532142Y-69853152D01*
X95532142Y-69853152D02*
X95484523Y-69948390D01*
X95484523Y-69948390D02*
X95436904Y-69996009D01*
X95436904Y-69996009D02*
X95341666Y-70043628D01*
X95341666Y-70043628D02*
X94960714Y-70043628D01*
X96484523Y-70519819D02*
X95913095Y-70519819D01*
X96198809Y-70519819D02*
X96198809Y-69519819D01*
X96198809Y-69519819D02*
X96103571Y-69662676D01*
X96103571Y-69662676D02*
X96008333Y-69757914D01*
X96008333Y-69757914D02*
X95913095Y-69805533D01*
X96817857Y-69519819D02*
X97436904Y-69519819D01*
X97436904Y-69519819D02*
X97103571Y-69900771D01*
X97103571Y-69900771D02*
X97246428Y-69900771D01*
X97246428Y-69900771D02*
X97341666Y-69948390D01*
X97341666Y-69948390D02*
X97389285Y-69996009D01*
X97389285Y-69996009D02*
X97436904Y-70091247D01*
X97436904Y-70091247D02*
X97436904Y-70329342D01*
X97436904Y-70329342D02*
X97389285Y-70424580D01*
X97389285Y-70424580D02*
X97341666Y-70472200D01*
X97341666Y-70472200D02*
X97246428Y-70519819D01*
X97246428Y-70519819D02*
X96960714Y-70519819D01*
X96960714Y-70519819D02*
X96865476Y-70472200D01*
X96865476Y-70472200D02*
X96817857Y-70424580D01*
X103154819Y-87042857D02*
X102678628Y-87376190D01*
X103154819Y-87614285D02*
X102154819Y-87614285D01*
X102154819Y-87614285D02*
X102154819Y-87233333D01*
X102154819Y-87233333D02*
X102202438Y-87138095D01*
X102202438Y-87138095D02*
X102250057Y-87090476D01*
X102250057Y-87090476D02*
X102345295Y-87042857D01*
X102345295Y-87042857D02*
X102488152Y-87042857D01*
X102488152Y-87042857D02*
X102583390Y-87090476D01*
X102583390Y-87090476D02*
X102631009Y-87138095D01*
X102631009Y-87138095D02*
X102678628Y-87233333D01*
X102678628Y-87233333D02*
X102678628Y-87614285D01*
X103154819Y-86090476D02*
X103154819Y-86661904D01*
X103154819Y-86376190D02*
X102154819Y-86376190D01*
X102154819Y-86376190D02*
X102297676Y-86471428D01*
X102297676Y-86471428D02*
X102392914Y-86566666D01*
X102392914Y-86566666D02*
X102440533Y-86661904D01*
X102250057Y-85709523D02*
X102202438Y-85661904D01*
X102202438Y-85661904D02*
X102154819Y-85566666D01*
X102154819Y-85566666D02*
X102154819Y-85328571D01*
X102154819Y-85328571D02*
X102202438Y-85233333D01*
X102202438Y-85233333D02*
X102250057Y-85185714D01*
X102250057Y-85185714D02*
X102345295Y-85138095D01*
X102345295Y-85138095D02*
X102440533Y-85138095D01*
X102440533Y-85138095D02*
X102583390Y-85185714D01*
X102583390Y-85185714D02*
X103154819Y-85757142D01*
X103154819Y-85757142D02*
X103154819Y-85138095D01*
X88457142Y-79654819D02*
X88123809Y-79178628D01*
X87885714Y-79654819D02*
X87885714Y-78654819D01*
X87885714Y-78654819D02*
X88266666Y-78654819D01*
X88266666Y-78654819D02*
X88361904Y-78702438D01*
X88361904Y-78702438D02*
X88409523Y-78750057D01*
X88409523Y-78750057D02*
X88457142Y-78845295D01*
X88457142Y-78845295D02*
X88457142Y-78988152D01*
X88457142Y-78988152D02*
X88409523Y-79083390D01*
X88409523Y-79083390D02*
X88361904Y-79131009D01*
X88361904Y-79131009D02*
X88266666Y-79178628D01*
X88266666Y-79178628D02*
X87885714Y-79178628D01*
X89409523Y-79654819D02*
X88838095Y-79654819D01*
X89123809Y-79654819D02*
X89123809Y-78654819D01*
X89123809Y-78654819D02*
X89028571Y-78797676D01*
X89028571Y-78797676D02*
X88933333Y-78892914D01*
X88933333Y-78892914D02*
X88838095Y-78940533D01*
X90361904Y-79654819D02*
X89790476Y-79654819D01*
X90076190Y-79654819D02*
X90076190Y-78654819D01*
X90076190Y-78654819D02*
X89980952Y-78797676D01*
X89980952Y-78797676D02*
X89885714Y-78892914D01*
X89885714Y-78892914D02*
X89790476Y-78940533D01*
X89857142Y-70524819D02*
X89523809Y-70048628D01*
X89285714Y-70524819D02*
X89285714Y-69524819D01*
X89285714Y-69524819D02*
X89666666Y-69524819D01*
X89666666Y-69524819D02*
X89761904Y-69572438D01*
X89761904Y-69572438D02*
X89809523Y-69620057D01*
X89809523Y-69620057D02*
X89857142Y-69715295D01*
X89857142Y-69715295D02*
X89857142Y-69858152D01*
X89857142Y-69858152D02*
X89809523Y-69953390D01*
X89809523Y-69953390D02*
X89761904Y-70001009D01*
X89761904Y-70001009D02*
X89666666Y-70048628D01*
X89666666Y-70048628D02*
X89285714Y-70048628D01*
X90809523Y-70524819D02*
X90238095Y-70524819D01*
X90523809Y-70524819D02*
X90523809Y-69524819D01*
X90523809Y-69524819D02*
X90428571Y-69667676D01*
X90428571Y-69667676D02*
X90333333Y-69762914D01*
X90333333Y-69762914D02*
X90238095Y-69810533D01*
X91428571Y-69524819D02*
X91523809Y-69524819D01*
X91523809Y-69524819D02*
X91619047Y-69572438D01*
X91619047Y-69572438D02*
X91666666Y-69620057D01*
X91666666Y-69620057D02*
X91714285Y-69715295D01*
X91714285Y-69715295D02*
X91761904Y-69905771D01*
X91761904Y-69905771D02*
X91761904Y-70143866D01*
X91761904Y-70143866D02*
X91714285Y-70334342D01*
X91714285Y-70334342D02*
X91666666Y-70429580D01*
X91666666Y-70429580D02*
X91619047Y-70477200D01*
X91619047Y-70477200D02*
X91523809Y-70524819D01*
X91523809Y-70524819D02*
X91428571Y-70524819D01*
X91428571Y-70524819D02*
X91333333Y-70477200D01*
X91333333Y-70477200D02*
X91285714Y-70429580D01*
X91285714Y-70429580D02*
X91238095Y-70334342D01*
X91238095Y-70334342D02*
X91190476Y-70143866D01*
X91190476Y-70143866D02*
X91190476Y-69905771D01*
X91190476Y-69905771D02*
X91238095Y-69715295D01*
X91238095Y-69715295D02*
X91285714Y-69620057D01*
X91285714Y-69620057D02*
X91333333Y-69572438D01*
X91333333Y-69572438D02*
X91428571Y-69524819D01*
X88354819Y-74166666D02*
X87878628Y-74499999D01*
X88354819Y-74738094D02*
X87354819Y-74738094D01*
X87354819Y-74738094D02*
X87354819Y-74357142D01*
X87354819Y-74357142D02*
X87402438Y-74261904D01*
X87402438Y-74261904D02*
X87450057Y-74214285D01*
X87450057Y-74214285D02*
X87545295Y-74166666D01*
X87545295Y-74166666D02*
X87688152Y-74166666D01*
X87688152Y-74166666D02*
X87783390Y-74214285D01*
X87783390Y-74214285D02*
X87831009Y-74261904D01*
X87831009Y-74261904D02*
X87878628Y-74357142D01*
X87878628Y-74357142D02*
X87878628Y-74738094D01*
X87783390Y-73595237D02*
X87735771Y-73690475D01*
X87735771Y-73690475D02*
X87688152Y-73738094D01*
X87688152Y-73738094D02*
X87592914Y-73785713D01*
X87592914Y-73785713D02*
X87545295Y-73785713D01*
X87545295Y-73785713D02*
X87450057Y-73738094D01*
X87450057Y-73738094D02*
X87402438Y-73690475D01*
X87402438Y-73690475D02*
X87354819Y-73595237D01*
X87354819Y-73595237D02*
X87354819Y-73404761D01*
X87354819Y-73404761D02*
X87402438Y-73309523D01*
X87402438Y-73309523D02*
X87450057Y-73261904D01*
X87450057Y-73261904D02*
X87545295Y-73214285D01*
X87545295Y-73214285D02*
X87592914Y-73214285D01*
X87592914Y-73214285D02*
X87688152Y-73261904D01*
X87688152Y-73261904D02*
X87735771Y-73309523D01*
X87735771Y-73309523D02*
X87783390Y-73404761D01*
X87783390Y-73404761D02*
X87783390Y-73595237D01*
X87783390Y-73595237D02*
X87831009Y-73690475D01*
X87831009Y-73690475D02*
X87878628Y-73738094D01*
X87878628Y-73738094D02*
X87973866Y-73785713D01*
X87973866Y-73785713D02*
X88164342Y-73785713D01*
X88164342Y-73785713D02*
X88259580Y-73738094D01*
X88259580Y-73738094D02*
X88307200Y-73690475D01*
X88307200Y-73690475D02*
X88354819Y-73595237D01*
X88354819Y-73595237D02*
X88354819Y-73404761D01*
X88354819Y-73404761D02*
X88307200Y-73309523D01*
X88307200Y-73309523D02*
X88259580Y-73261904D01*
X88259580Y-73261904D02*
X88164342Y-73214285D01*
X88164342Y-73214285D02*
X87973866Y-73214285D01*
X87973866Y-73214285D02*
X87878628Y-73261904D01*
X87878628Y-73261904D02*
X87831009Y-73309523D01*
X87831009Y-73309523D02*
X87783390Y-73404761D01*
X88354819Y-77066666D02*
X87878628Y-77399999D01*
X88354819Y-77638094D02*
X87354819Y-77638094D01*
X87354819Y-77638094D02*
X87354819Y-77257142D01*
X87354819Y-77257142D02*
X87402438Y-77161904D01*
X87402438Y-77161904D02*
X87450057Y-77114285D01*
X87450057Y-77114285D02*
X87545295Y-77066666D01*
X87545295Y-77066666D02*
X87688152Y-77066666D01*
X87688152Y-77066666D02*
X87783390Y-77114285D01*
X87783390Y-77114285D02*
X87831009Y-77161904D01*
X87831009Y-77161904D02*
X87878628Y-77257142D01*
X87878628Y-77257142D02*
X87878628Y-77638094D01*
X87354819Y-76733332D02*
X87354819Y-76066666D01*
X87354819Y-76066666D02*
X88354819Y-76495237D01*
X88354819Y-70866666D02*
X87878628Y-71199999D01*
X88354819Y-71438094D02*
X87354819Y-71438094D01*
X87354819Y-71438094D02*
X87354819Y-71057142D01*
X87354819Y-71057142D02*
X87402438Y-70961904D01*
X87402438Y-70961904D02*
X87450057Y-70914285D01*
X87450057Y-70914285D02*
X87545295Y-70866666D01*
X87545295Y-70866666D02*
X87688152Y-70866666D01*
X87688152Y-70866666D02*
X87783390Y-70914285D01*
X87783390Y-70914285D02*
X87831009Y-70961904D01*
X87831009Y-70961904D02*
X87878628Y-71057142D01*
X87878628Y-71057142D02*
X87878628Y-71438094D01*
X87354819Y-70009523D02*
X87354819Y-70199999D01*
X87354819Y-70199999D02*
X87402438Y-70295237D01*
X87402438Y-70295237D02*
X87450057Y-70342856D01*
X87450057Y-70342856D02*
X87592914Y-70438094D01*
X87592914Y-70438094D02*
X87783390Y-70485713D01*
X87783390Y-70485713D02*
X88164342Y-70485713D01*
X88164342Y-70485713D02*
X88259580Y-70438094D01*
X88259580Y-70438094D02*
X88307200Y-70390475D01*
X88307200Y-70390475D02*
X88354819Y-70295237D01*
X88354819Y-70295237D02*
X88354819Y-70104761D01*
X88354819Y-70104761D02*
X88307200Y-70009523D01*
X88307200Y-70009523D02*
X88259580Y-69961904D01*
X88259580Y-69961904D02*
X88164342Y-69914285D01*
X88164342Y-69914285D02*
X87926247Y-69914285D01*
X87926247Y-69914285D02*
X87831009Y-69961904D01*
X87831009Y-69961904D02*
X87783390Y-70009523D01*
X87783390Y-70009523D02*
X87735771Y-70104761D01*
X87735771Y-70104761D02*
X87735771Y-70295237D01*
X87735771Y-70295237D02*
X87783390Y-70390475D01*
X87783390Y-70390475D02*
X87831009Y-70438094D01*
X87831009Y-70438094D02*
X87926247Y-70485713D01*
X91754819Y-83566666D02*
X91278628Y-83899999D01*
X91754819Y-84138094D02*
X90754819Y-84138094D01*
X90754819Y-84138094D02*
X90754819Y-83757142D01*
X90754819Y-83757142D02*
X90802438Y-83661904D01*
X90802438Y-83661904D02*
X90850057Y-83614285D01*
X90850057Y-83614285D02*
X90945295Y-83566666D01*
X90945295Y-83566666D02*
X91088152Y-83566666D01*
X91088152Y-83566666D02*
X91183390Y-83614285D01*
X91183390Y-83614285D02*
X91231009Y-83661904D01*
X91231009Y-83661904D02*
X91278628Y-83757142D01*
X91278628Y-83757142D02*
X91278628Y-84138094D01*
X90754819Y-82661904D02*
X90754819Y-83138094D01*
X90754819Y-83138094D02*
X91231009Y-83185713D01*
X91231009Y-83185713D02*
X91183390Y-83138094D01*
X91183390Y-83138094D02*
X91135771Y-83042856D01*
X91135771Y-83042856D02*
X91135771Y-82804761D01*
X91135771Y-82804761D02*
X91183390Y-82709523D01*
X91183390Y-82709523D02*
X91231009Y-82661904D01*
X91231009Y-82661904D02*
X91326247Y-82614285D01*
X91326247Y-82614285D02*
X91564342Y-82614285D01*
X91564342Y-82614285D02*
X91659580Y-82661904D01*
X91659580Y-82661904D02*
X91707200Y-82709523D01*
X91707200Y-82709523D02*
X91754819Y-82804761D01*
X91754819Y-82804761D02*
X91754819Y-83042856D01*
X91754819Y-83042856D02*
X91707200Y-83138094D01*
X91707200Y-83138094D02*
X91659580Y-83185713D01*
X86033333Y-82054819D02*
X85700000Y-81578628D01*
X85461905Y-82054819D02*
X85461905Y-81054819D01*
X85461905Y-81054819D02*
X85842857Y-81054819D01*
X85842857Y-81054819D02*
X85938095Y-81102438D01*
X85938095Y-81102438D02*
X85985714Y-81150057D01*
X85985714Y-81150057D02*
X86033333Y-81245295D01*
X86033333Y-81245295D02*
X86033333Y-81388152D01*
X86033333Y-81388152D02*
X85985714Y-81483390D01*
X85985714Y-81483390D02*
X85938095Y-81531009D01*
X85938095Y-81531009D02*
X85842857Y-81578628D01*
X85842857Y-81578628D02*
X85461905Y-81578628D01*
X86890476Y-81388152D02*
X86890476Y-82054819D01*
X86652381Y-81007200D02*
X86414286Y-81721485D01*
X86414286Y-81721485D02*
X87033333Y-81721485D01*
X76224819Y-54166666D02*
X75748628Y-54499999D01*
X76224819Y-54738094D02*
X75224819Y-54738094D01*
X75224819Y-54738094D02*
X75224819Y-54357142D01*
X75224819Y-54357142D02*
X75272438Y-54261904D01*
X75272438Y-54261904D02*
X75320057Y-54214285D01*
X75320057Y-54214285D02*
X75415295Y-54166666D01*
X75415295Y-54166666D02*
X75558152Y-54166666D01*
X75558152Y-54166666D02*
X75653390Y-54214285D01*
X75653390Y-54214285D02*
X75701009Y-54261904D01*
X75701009Y-54261904D02*
X75748628Y-54357142D01*
X75748628Y-54357142D02*
X75748628Y-54738094D01*
X75224819Y-53833332D02*
X75224819Y-53214285D01*
X75224819Y-53214285D02*
X75605771Y-53547618D01*
X75605771Y-53547618D02*
X75605771Y-53404761D01*
X75605771Y-53404761D02*
X75653390Y-53309523D01*
X75653390Y-53309523D02*
X75701009Y-53261904D01*
X75701009Y-53261904D02*
X75796247Y-53214285D01*
X75796247Y-53214285D02*
X76034342Y-53214285D01*
X76034342Y-53214285D02*
X76129580Y-53261904D01*
X76129580Y-53261904D02*
X76177200Y-53309523D01*
X76177200Y-53309523D02*
X76224819Y-53404761D01*
X76224819Y-53404761D02*
X76224819Y-53690475D01*
X76224819Y-53690475D02*
X76177200Y-53785713D01*
X76177200Y-53785713D02*
X76129580Y-53833332D01*
X86254819Y-59566666D02*
X85778628Y-59899999D01*
X86254819Y-60138094D02*
X85254819Y-60138094D01*
X85254819Y-60138094D02*
X85254819Y-59757142D01*
X85254819Y-59757142D02*
X85302438Y-59661904D01*
X85302438Y-59661904D02*
X85350057Y-59614285D01*
X85350057Y-59614285D02*
X85445295Y-59566666D01*
X85445295Y-59566666D02*
X85588152Y-59566666D01*
X85588152Y-59566666D02*
X85683390Y-59614285D01*
X85683390Y-59614285D02*
X85731009Y-59661904D01*
X85731009Y-59661904D02*
X85778628Y-59757142D01*
X85778628Y-59757142D02*
X85778628Y-60138094D01*
X85350057Y-59185713D02*
X85302438Y-59138094D01*
X85302438Y-59138094D02*
X85254819Y-59042856D01*
X85254819Y-59042856D02*
X85254819Y-58804761D01*
X85254819Y-58804761D02*
X85302438Y-58709523D01*
X85302438Y-58709523D02*
X85350057Y-58661904D01*
X85350057Y-58661904D02*
X85445295Y-58614285D01*
X85445295Y-58614285D02*
X85540533Y-58614285D01*
X85540533Y-58614285D02*
X85683390Y-58661904D01*
X85683390Y-58661904D02*
X86254819Y-59233332D01*
X86254819Y-59233332D02*
X86254819Y-58614285D01*
X95504761Y-66450057D02*
X95409523Y-66402438D01*
X95409523Y-66402438D02*
X95314285Y-66307200D01*
X95314285Y-66307200D02*
X95171428Y-66164342D01*
X95171428Y-66164342D02*
X95076190Y-66116723D01*
X95076190Y-66116723D02*
X94980952Y-66116723D01*
X95028571Y-66354819D02*
X94933333Y-66307200D01*
X94933333Y-66307200D02*
X94838095Y-66211961D01*
X94838095Y-66211961D02*
X94790476Y-66021485D01*
X94790476Y-66021485D02*
X94790476Y-65688152D01*
X94790476Y-65688152D02*
X94838095Y-65497676D01*
X94838095Y-65497676D02*
X94933333Y-65402438D01*
X94933333Y-65402438D02*
X95028571Y-65354819D01*
X95028571Y-65354819D02*
X95219047Y-65354819D01*
X95219047Y-65354819D02*
X95314285Y-65402438D01*
X95314285Y-65402438D02*
X95409523Y-65497676D01*
X95409523Y-65497676D02*
X95457142Y-65688152D01*
X95457142Y-65688152D02*
X95457142Y-66021485D01*
X95457142Y-66021485D02*
X95409523Y-66211961D01*
X95409523Y-66211961D02*
X95314285Y-66307200D01*
X95314285Y-66307200D02*
X95219047Y-66354819D01*
X95219047Y-66354819D02*
X95028571Y-66354819D01*
X95838095Y-65450057D02*
X95885714Y-65402438D01*
X95885714Y-65402438D02*
X95980952Y-65354819D01*
X95980952Y-65354819D02*
X96219047Y-65354819D01*
X96219047Y-65354819D02*
X96314285Y-65402438D01*
X96314285Y-65402438D02*
X96361904Y-65450057D01*
X96361904Y-65450057D02*
X96409523Y-65545295D01*
X96409523Y-65545295D02*
X96409523Y-65640533D01*
X96409523Y-65640533D02*
X96361904Y-65783390D01*
X96361904Y-65783390D02*
X95790476Y-66354819D01*
X95790476Y-66354819D02*
X96409523Y-66354819D01*
X92804761Y-74150057D02*
X92709523Y-74102438D01*
X92709523Y-74102438D02*
X92614285Y-74007200D01*
X92614285Y-74007200D02*
X92471428Y-73864342D01*
X92471428Y-73864342D02*
X92376190Y-73816723D01*
X92376190Y-73816723D02*
X92280952Y-73816723D01*
X92328571Y-74054819D02*
X92233333Y-74007200D01*
X92233333Y-74007200D02*
X92138095Y-73911961D01*
X92138095Y-73911961D02*
X92090476Y-73721485D01*
X92090476Y-73721485D02*
X92090476Y-73388152D01*
X92090476Y-73388152D02*
X92138095Y-73197676D01*
X92138095Y-73197676D02*
X92233333Y-73102438D01*
X92233333Y-73102438D02*
X92328571Y-73054819D01*
X92328571Y-73054819D02*
X92519047Y-73054819D01*
X92519047Y-73054819D02*
X92614285Y-73102438D01*
X92614285Y-73102438D02*
X92709523Y-73197676D01*
X92709523Y-73197676D02*
X92757142Y-73388152D01*
X92757142Y-73388152D02*
X92757142Y-73721485D01*
X92757142Y-73721485D02*
X92709523Y-73911961D01*
X92709523Y-73911961D02*
X92614285Y-74007200D01*
X92614285Y-74007200D02*
X92519047Y-74054819D01*
X92519047Y-74054819D02*
X92328571Y-74054819D01*
X93709523Y-74054819D02*
X93138095Y-74054819D01*
X93423809Y-74054819D02*
X93423809Y-73054819D01*
X93423809Y-73054819D02*
X93328571Y-73197676D01*
X93328571Y-73197676D02*
X93233333Y-73292914D01*
X93233333Y-73292914D02*
X93138095Y-73340533D01*
X103533333Y-44154819D02*
X103057143Y-44154819D01*
X103057143Y-44154819D02*
X103057143Y-43154819D01*
X104390476Y-44154819D02*
X103819048Y-44154819D01*
X104104762Y-44154819D02*
X104104762Y-43154819D01*
X104104762Y-43154819D02*
X104009524Y-43297676D01*
X104009524Y-43297676D02*
X103914286Y-43392914D01*
X103914286Y-43392914D02*
X103819048Y-43440533D01*
X81466666Y-58231009D02*
X81133333Y-58231009D01*
X81133333Y-58754819D02*
X81133333Y-57754819D01*
X81133333Y-57754819D02*
X81609523Y-57754819D01*
X82323809Y-58231009D02*
X82466666Y-58278628D01*
X82466666Y-58278628D02*
X82514285Y-58326247D01*
X82514285Y-58326247D02*
X82561904Y-58421485D01*
X82561904Y-58421485D02*
X82561904Y-58564342D01*
X82561904Y-58564342D02*
X82514285Y-58659580D01*
X82514285Y-58659580D02*
X82466666Y-58707200D01*
X82466666Y-58707200D02*
X82371428Y-58754819D01*
X82371428Y-58754819D02*
X81990476Y-58754819D01*
X81990476Y-58754819D02*
X81990476Y-57754819D01*
X81990476Y-57754819D02*
X82323809Y-57754819D01*
X82323809Y-57754819D02*
X82419047Y-57802438D01*
X82419047Y-57802438D02*
X82466666Y-57850057D01*
X82466666Y-57850057D02*
X82514285Y-57945295D01*
X82514285Y-57945295D02*
X82514285Y-58040533D01*
X82514285Y-58040533D02*
X82466666Y-58135771D01*
X82466666Y-58135771D02*
X82419047Y-58183390D01*
X82419047Y-58183390D02*
X82323809Y-58231009D01*
X82323809Y-58231009D02*
X81990476Y-58231009D01*
X83514285Y-58754819D02*
X82942857Y-58754819D01*
X83228571Y-58754819D02*
X83228571Y-57754819D01*
X83228571Y-57754819D02*
X83133333Y-57897676D01*
X83133333Y-57897676D02*
X83038095Y-57992914D01*
X83038095Y-57992914D02*
X82942857Y-58040533D01*
X78366666Y-58931009D02*
X78033333Y-58931009D01*
X78033333Y-59454819D02*
X78033333Y-58454819D01*
X78033333Y-58454819D02*
X78509523Y-58454819D01*
X79414285Y-59454819D02*
X78842857Y-59454819D01*
X79128571Y-59454819D02*
X79128571Y-58454819D01*
X79128571Y-58454819D02*
X79033333Y-58597676D01*
X79033333Y-58597676D02*
X78938095Y-58692914D01*
X78938095Y-58692914D02*
X78842857Y-58740533D01*
X99161905Y-87154819D02*
X99161905Y-86154819D01*
X99161905Y-86154819D02*
X99400000Y-86154819D01*
X99400000Y-86154819D02*
X99542857Y-86202438D01*
X99542857Y-86202438D02*
X99638095Y-86297676D01*
X99638095Y-86297676D02*
X99685714Y-86392914D01*
X99685714Y-86392914D02*
X99733333Y-86583390D01*
X99733333Y-86583390D02*
X99733333Y-86726247D01*
X99733333Y-86726247D02*
X99685714Y-86916723D01*
X99685714Y-86916723D02*
X99638095Y-87011961D01*
X99638095Y-87011961D02*
X99542857Y-87107200D01*
X99542857Y-87107200D02*
X99400000Y-87154819D01*
X99400000Y-87154819D02*
X99161905Y-87154819D01*
X100685714Y-87154819D02*
X100114286Y-87154819D01*
X100400000Y-87154819D02*
X100400000Y-86154819D01*
X100400000Y-86154819D02*
X100304762Y-86297676D01*
X100304762Y-86297676D02*
X100209524Y-86392914D01*
X100209524Y-86392914D02*
X100114286Y-86440533D01*
X77159580Y-45442857D02*
X77207200Y-45490476D01*
X77207200Y-45490476D02*
X77254819Y-45633333D01*
X77254819Y-45633333D02*
X77254819Y-45728571D01*
X77254819Y-45728571D02*
X77207200Y-45871428D01*
X77207200Y-45871428D02*
X77111961Y-45966666D01*
X77111961Y-45966666D02*
X77016723Y-46014285D01*
X77016723Y-46014285D02*
X76826247Y-46061904D01*
X76826247Y-46061904D02*
X76683390Y-46061904D01*
X76683390Y-46061904D02*
X76492914Y-46014285D01*
X76492914Y-46014285D02*
X76397676Y-45966666D01*
X76397676Y-45966666D02*
X76302438Y-45871428D01*
X76302438Y-45871428D02*
X76254819Y-45728571D01*
X76254819Y-45728571D02*
X76254819Y-45633333D01*
X76254819Y-45633333D02*
X76302438Y-45490476D01*
X76302438Y-45490476D02*
X76350057Y-45442857D01*
X76350057Y-45061904D02*
X76302438Y-45014285D01*
X76302438Y-45014285D02*
X76254819Y-44919047D01*
X76254819Y-44919047D02*
X76254819Y-44680952D01*
X76254819Y-44680952D02*
X76302438Y-44585714D01*
X76302438Y-44585714D02*
X76350057Y-44538095D01*
X76350057Y-44538095D02*
X76445295Y-44490476D01*
X76445295Y-44490476D02*
X76540533Y-44490476D01*
X76540533Y-44490476D02*
X76683390Y-44538095D01*
X76683390Y-44538095D02*
X77254819Y-45109523D01*
X77254819Y-45109523D02*
X77254819Y-44490476D01*
X76588152Y-43633333D02*
X77254819Y-43633333D01*
X76207200Y-43871428D02*
X76921485Y-44109523D01*
X76921485Y-44109523D02*
X76921485Y-43490476D01*
X95457142Y-46759580D02*
X95409523Y-46807200D01*
X95409523Y-46807200D02*
X95266666Y-46854819D01*
X95266666Y-46854819D02*
X95171428Y-46854819D01*
X95171428Y-46854819D02*
X95028571Y-46807200D01*
X95028571Y-46807200D02*
X94933333Y-46711961D01*
X94933333Y-46711961D02*
X94885714Y-46616723D01*
X94885714Y-46616723D02*
X94838095Y-46426247D01*
X94838095Y-46426247D02*
X94838095Y-46283390D01*
X94838095Y-46283390D02*
X94885714Y-46092914D01*
X94885714Y-46092914D02*
X94933333Y-45997676D01*
X94933333Y-45997676D02*
X95028571Y-45902438D01*
X95028571Y-45902438D02*
X95171428Y-45854819D01*
X95171428Y-45854819D02*
X95266666Y-45854819D01*
X95266666Y-45854819D02*
X95409523Y-45902438D01*
X95409523Y-45902438D02*
X95457142Y-45950057D01*
X96409523Y-46854819D02*
X95838095Y-46854819D01*
X96123809Y-46854819D02*
X96123809Y-45854819D01*
X96123809Y-45854819D02*
X96028571Y-45997676D01*
X96028571Y-45997676D02*
X95933333Y-46092914D01*
X95933333Y-46092914D02*
X95838095Y-46140533D01*
X96980952Y-46283390D02*
X96885714Y-46235771D01*
X96885714Y-46235771D02*
X96838095Y-46188152D01*
X96838095Y-46188152D02*
X96790476Y-46092914D01*
X96790476Y-46092914D02*
X96790476Y-46045295D01*
X96790476Y-46045295D02*
X96838095Y-45950057D01*
X96838095Y-45950057D02*
X96885714Y-45902438D01*
X96885714Y-45902438D02*
X96980952Y-45854819D01*
X96980952Y-45854819D02*
X97171428Y-45854819D01*
X97171428Y-45854819D02*
X97266666Y-45902438D01*
X97266666Y-45902438D02*
X97314285Y-45950057D01*
X97314285Y-45950057D02*
X97361904Y-46045295D01*
X97361904Y-46045295D02*
X97361904Y-46092914D01*
X97361904Y-46092914D02*
X97314285Y-46188152D01*
X97314285Y-46188152D02*
X97266666Y-46235771D01*
X97266666Y-46235771D02*
X97171428Y-46283390D01*
X97171428Y-46283390D02*
X96980952Y-46283390D01*
X96980952Y-46283390D02*
X96885714Y-46331009D01*
X96885714Y-46331009D02*
X96838095Y-46378628D01*
X96838095Y-46378628D02*
X96790476Y-46473866D01*
X96790476Y-46473866D02*
X96790476Y-46664342D01*
X96790476Y-46664342D02*
X96838095Y-46759580D01*
X96838095Y-46759580D02*
X96885714Y-46807200D01*
X96885714Y-46807200D02*
X96980952Y-46854819D01*
X96980952Y-46854819D02*
X97171428Y-46854819D01*
X97171428Y-46854819D02*
X97266666Y-46807200D01*
X97266666Y-46807200D02*
X97314285Y-46759580D01*
X97314285Y-46759580D02*
X97361904Y-46664342D01*
X97361904Y-46664342D02*
X97361904Y-46473866D01*
X97361904Y-46473866D02*
X97314285Y-46378628D01*
X97314285Y-46378628D02*
X97266666Y-46331009D01*
X97266666Y-46331009D02*
X97171428Y-46283390D01*
X92057142Y-46759580D02*
X92009523Y-46807200D01*
X92009523Y-46807200D02*
X91866666Y-46854819D01*
X91866666Y-46854819D02*
X91771428Y-46854819D01*
X91771428Y-46854819D02*
X91628571Y-46807200D01*
X91628571Y-46807200D02*
X91533333Y-46711961D01*
X91533333Y-46711961D02*
X91485714Y-46616723D01*
X91485714Y-46616723D02*
X91438095Y-46426247D01*
X91438095Y-46426247D02*
X91438095Y-46283390D01*
X91438095Y-46283390D02*
X91485714Y-46092914D01*
X91485714Y-46092914D02*
X91533333Y-45997676D01*
X91533333Y-45997676D02*
X91628571Y-45902438D01*
X91628571Y-45902438D02*
X91771428Y-45854819D01*
X91771428Y-45854819D02*
X91866666Y-45854819D01*
X91866666Y-45854819D02*
X92009523Y-45902438D01*
X92009523Y-45902438D02*
X92057142Y-45950057D01*
X93009523Y-46854819D02*
X92438095Y-46854819D01*
X92723809Y-46854819D02*
X92723809Y-45854819D01*
X92723809Y-45854819D02*
X92628571Y-45997676D01*
X92628571Y-45997676D02*
X92533333Y-46092914D01*
X92533333Y-46092914D02*
X92438095Y-46140533D01*
X93342857Y-45854819D02*
X94009523Y-45854819D01*
X94009523Y-45854819D02*
X93580952Y-46854819D01*
X88657142Y-46859580D02*
X88609523Y-46907200D01*
X88609523Y-46907200D02*
X88466666Y-46954819D01*
X88466666Y-46954819D02*
X88371428Y-46954819D01*
X88371428Y-46954819D02*
X88228571Y-46907200D01*
X88228571Y-46907200D02*
X88133333Y-46811961D01*
X88133333Y-46811961D02*
X88085714Y-46716723D01*
X88085714Y-46716723D02*
X88038095Y-46526247D01*
X88038095Y-46526247D02*
X88038095Y-46383390D01*
X88038095Y-46383390D02*
X88085714Y-46192914D01*
X88085714Y-46192914D02*
X88133333Y-46097676D01*
X88133333Y-46097676D02*
X88228571Y-46002438D01*
X88228571Y-46002438D02*
X88371428Y-45954819D01*
X88371428Y-45954819D02*
X88466666Y-45954819D01*
X88466666Y-45954819D02*
X88609523Y-46002438D01*
X88609523Y-46002438D02*
X88657142Y-46050057D01*
X89609523Y-46954819D02*
X89038095Y-46954819D01*
X89323809Y-46954819D02*
X89323809Y-45954819D01*
X89323809Y-45954819D02*
X89228571Y-46097676D01*
X89228571Y-46097676D02*
X89133333Y-46192914D01*
X89133333Y-46192914D02*
X89038095Y-46240533D01*
X90466666Y-45954819D02*
X90276190Y-45954819D01*
X90276190Y-45954819D02*
X90180952Y-46002438D01*
X90180952Y-46002438D02*
X90133333Y-46050057D01*
X90133333Y-46050057D02*
X90038095Y-46192914D01*
X90038095Y-46192914D02*
X89990476Y-46383390D01*
X89990476Y-46383390D02*
X89990476Y-46764342D01*
X89990476Y-46764342D02*
X90038095Y-46859580D01*
X90038095Y-46859580D02*
X90085714Y-46907200D01*
X90085714Y-46907200D02*
X90180952Y-46954819D01*
X90180952Y-46954819D02*
X90371428Y-46954819D01*
X90371428Y-46954819D02*
X90466666Y-46907200D01*
X90466666Y-46907200D02*
X90514285Y-46859580D01*
X90514285Y-46859580D02*
X90561904Y-46764342D01*
X90561904Y-46764342D02*
X90561904Y-46526247D01*
X90561904Y-46526247D02*
X90514285Y-46431009D01*
X90514285Y-46431009D02*
X90466666Y-46383390D01*
X90466666Y-46383390D02*
X90371428Y-46335771D01*
X90371428Y-46335771D02*
X90180952Y-46335771D01*
X90180952Y-46335771D02*
X90085714Y-46383390D01*
X90085714Y-46383390D02*
X90038095Y-46431009D01*
X90038095Y-46431009D02*
X89990476Y-46526247D01*
X85257142Y-46859580D02*
X85209523Y-46907200D01*
X85209523Y-46907200D02*
X85066666Y-46954819D01*
X85066666Y-46954819D02*
X84971428Y-46954819D01*
X84971428Y-46954819D02*
X84828571Y-46907200D01*
X84828571Y-46907200D02*
X84733333Y-46811961D01*
X84733333Y-46811961D02*
X84685714Y-46716723D01*
X84685714Y-46716723D02*
X84638095Y-46526247D01*
X84638095Y-46526247D02*
X84638095Y-46383390D01*
X84638095Y-46383390D02*
X84685714Y-46192914D01*
X84685714Y-46192914D02*
X84733333Y-46097676D01*
X84733333Y-46097676D02*
X84828571Y-46002438D01*
X84828571Y-46002438D02*
X84971428Y-45954819D01*
X84971428Y-45954819D02*
X85066666Y-45954819D01*
X85066666Y-45954819D02*
X85209523Y-46002438D01*
X85209523Y-46002438D02*
X85257142Y-46050057D01*
X86209523Y-46954819D02*
X85638095Y-46954819D01*
X85923809Y-46954819D02*
X85923809Y-45954819D01*
X85923809Y-45954819D02*
X85828571Y-46097676D01*
X85828571Y-46097676D02*
X85733333Y-46192914D01*
X85733333Y-46192914D02*
X85638095Y-46240533D01*
X87114285Y-45954819D02*
X86638095Y-45954819D01*
X86638095Y-45954819D02*
X86590476Y-46431009D01*
X86590476Y-46431009D02*
X86638095Y-46383390D01*
X86638095Y-46383390D02*
X86733333Y-46335771D01*
X86733333Y-46335771D02*
X86971428Y-46335771D01*
X86971428Y-46335771D02*
X87066666Y-46383390D01*
X87066666Y-46383390D02*
X87114285Y-46431009D01*
X87114285Y-46431009D02*
X87161904Y-46526247D01*
X87161904Y-46526247D02*
X87161904Y-46764342D01*
X87161904Y-46764342D02*
X87114285Y-46859580D01*
X87114285Y-46859580D02*
X87066666Y-46907200D01*
X87066666Y-46907200D02*
X86971428Y-46954819D01*
X86971428Y-46954819D02*
X86733333Y-46954819D01*
X86733333Y-46954819D02*
X86638095Y-46907200D01*
X86638095Y-46907200D02*
X86590476Y-46859580D01*
X81857142Y-46859580D02*
X81809523Y-46907200D01*
X81809523Y-46907200D02*
X81666666Y-46954819D01*
X81666666Y-46954819D02*
X81571428Y-46954819D01*
X81571428Y-46954819D02*
X81428571Y-46907200D01*
X81428571Y-46907200D02*
X81333333Y-46811961D01*
X81333333Y-46811961D02*
X81285714Y-46716723D01*
X81285714Y-46716723D02*
X81238095Y-46526247D01*
X81238095Y-46526247D02*
X81238095Y-46383390D01*
X81238095Y-46383390D02*
X81285714Y-46192914D01*
X81285714Y-46192914D02*
X81333333Y-46097676D01*
X81333333Y-46097676D02*
X81428571Y-46002438D01*
X81428571Y-46002438D02*
X81571428Y-45954819D01*
X81571428Y-45954819D02*
X81666666Y-45954819D01*
X81666666Y-45954819D02*
X81809523Y-46002438D01*
X81809523Y-46002438D02*
X81857142Y-46050057D01*
X82809523Y-46954819D02*
X82238095Y-46954819D01*
X82523809Y-46954819D02*
X82523809Y-45954819D01*
X82523809Y-45954819D02*
X82428571Y-46097676D01*
X82428571Y-46097676D02*
X82333333Y-46192914D01*
X82333333Y-46192914D02*
X82238095Y-46240533D01*
X83666666Y-46288152D02*
X83666666Y-46954819D01*
X83428571Y-45907200D02*
X83190476Y-46621485D01*
X83190476Y-46621485D02*
X83809523Y-46621485D01*
X96457142Y-62759580D02*
X96409523Y-62807200D01*
X96409523Y-62807200D02*
X96266666Y-62854819D01*
X96266666Y-62854819D02*
X96171428Y-62854819D01*
X96171428Y-62854819D02*
X96028571Y-62807200D01*
X96028571Y-62807200D02*
X95933333Y-62711961D01*
X95933333Y-62711961D02*
X95885714Y-62616723D01*
X95885714Y-62616723D02*
X95838095Y-62426247D01*
X95838095Y-62426247D02*
X95838095Y-62283390D01*
X95838095Y-62283390D02*
X95885714Y-62092914D01*
X95885714Y-62092914D02*
X95933333Y-61997676D01*
X95933333Y-61997676D02*
X96028571Y-61902438D01*
X96028571Y-61902438D02*
X96171428Y-61854819D01*
X96171428Y-61854819D02*
X96266666Y-61854819D01*
X96266666Y-61854819D02*
X96409523Y-61902438D01*
X96409523Y-61902438D02*
X96457142Y-61950057D01*
X97409523Y-62854819D02*
X96838095Y-62854819D01*
X97123809Y-62854819D02*
X97123809Y-61854819D01*
X97123809Y-61854819D02*
X97028571Y-61997676D01*
X97028571Y-61997676D02*
X96933333Y-62092914D01*
X96933333Y-62092914D02*
X96838095Y-62140533D01*
X97742857Y-61854819D02*
X98361904Y-61854819D01*
X98361904Y-61854819D02*
X98028571Y-62235771D01*
X98028571Y-62235771D02*
X98171428Y-62235771D01*
X98171428Y-62235771D02*
X98266666Y-62283390D01*
X98266666Y-62283390D02*
X98314285Y-62331009D01*
X98314285Y-62331009D02*
X98361904Y-62426247D01*
X98361904Y-62426247D02*
X98361904Y-62664342D01*
X98361904Y-62664342D02*
X98314285Y-62759580D01*
X98314285Y-62759580D02*
X98266666Y-62807200D01*
X98266666Y-62807200D02*
X98171428Y-62854819D01*
X98171428Y-62854819D02*
X97885714Y-62854819D01*
X97885714Y-62854819D02*
X97790476Y-62807200D01*
X97790476Y-62807200D02*
X97742857Y-62759580D01*
X103734580Y-80312857D02*
X103782200Y-80360476D01*
X103782200Y-80360476D02*
X103829819Y-80503333D01*
X103829819Y-80503333D02*
X103829819Y-80598571D01*
X103829819Y-80598571D02*
X103782200Y-80741428D01*
X103782200Y-80741428D02*
X103686961Y-80836666D01*
X103686961Y-80836666D02*
X103591723Y-80884285D01*
X103591723Y-80884285D02*
X103401247Y-80931904D01*
X103401247Y-80931904D02*
X103258390Y-80931904D01*
X103258390Y-80931904D02*
X103067914Y-80884285D01*
X103067914Y-80884285D02*
X102972676Y-80836666D01*
X102972676Y-80836666D02*
X102877438Y-80741428D01*
X102877438Y-80741428D02*
X102829819Y-80598571D01*
X102829819Y-80598571D02*
X102829819Y-80503333D01*
X102829819Y-80503333D02*
X102877438Y-80360476D01*
X102877438Y-80360476D02*
X102925057Y-80312857D01*
X103829819Y-79360476D02*
X103829819Y-79931904D01*
X103829819Y-79646190D02*
X102829819Y-79646190D01*
X102829819Y-79646190D02*
X102972676Y-79741428D01*
X102972676Y-79741428D02*
X103067914Y-79836666D01*
X103067914Y-79836666D02*
X103115533Y-79931904D01*
X102925057Y-78979523D02*
X102877438Y-78931904D01*
X102877438Y-78931904D02*
X102829819Y-78836666D01*
X102829819Y-78836666D02*
X102829819Y-78598571D01*
X102829819Y-78598571D02*
X102877438Y-78503333D01*
X102877438Y-78503333D02*
X102925057Y-78455714D01*
X102925057Y-78455714D02*
X103020295Y-78408095D01*
X103020295Y-78408095D02*
X103115533Y-78408095D01*
X103115533Y-78408095D02*
X103258390Y-78455714D01*
X103258390Y-78455714D02*
X103829819Y-79027142D01*
X103829819Y-79027142D02*
X103829819Y-78408095D01*
X95857142Y-73559580D02*
X95809523Y-73607200D01*
X95809523Y-73607200D02*
X95666666Y-73654819D01*
X95666666Y-73654819D02*
X95571428Y-73654819D01*
X95571428Y-73654819D02*
X95428571Y-73607200D01*
X95428571Y-73607200D02*
X95333333Y-73511961D01*
X95333333Y-73511961D02*
X95285714Y-73416723D01*
X95285714Y-73416723D02*
X95238095Y-73226247D01*
X95238095Y-73226247D02*
X95238095Y-73083390D01*
X95238095Y-73083390D02*
X95285714Y-72892914D01*
X95285714Y-72892914D02*
X95333333Y-72797676D01*
X95333333Y-72797676D02*
X95428571Y-72702438D01*
X95428571Y-72702438D02*
X95571428Y-72654819D01*
X95571428Y-72654819D02*
X95666666Y-72654819D01*
X95666666Y-72654819D02*
X95809523Y-72702438D01*
X95809523Y-72702438D02*
X95857142Y-72750057D01*
X96809523Y-73654819D02*
X96238095Y-73654819D01*
X96523809Y-73654819D02*
X96523809Y-72654819D01*
X96523809Y-72654819D02*
X96428571Y-72797676D01*
X96428571Y-72797676D02*
X96333333Y-72892914D01*
X96333333Y-72892914D02*
X96238095Y-72940533D01*
X97761904Y-73654819D02*
X97190476Y-73654819D01*
X97476190Y-73654819D02*
X97476190Y-72654819D01*
X97476190Y-72654819D02*
X97380952Y-72797676D01*
X97380952Y-72797676D02*
X97285714Y-72892914D01*
X97285714Y-72892914D02*
X97190476Y-72940533D01*
X99959580Y-54342857D02*
X100007200Y-54390476D01*
X100007200Y-54390476D02*
X100054819Y-54533333D01*
X100054819Y-54533333D02*
X100054819Y-54628571D01*
X100054819Y-54628571D02*
X100007200Y-54771428D01*
X100007200Y-54771428D02*
X99911961Y-54866666D01*
X99911961Y-54866666D02*
X99816723Y-54914285D01*
X99816723Y-54914285D02*
X99626247Y-54961904D01*
X99626247Y-54961904D02*
X99483390Y-54961904D01*
X99483390Y-54961904D02*
X99292914Y-54914285D01*
X99292914Y-54914285D02*
X99197676Y-54866666D01*
X99197676Y-54866666D02*
X99102438Y-54771428D01*
X99102438Y-54771428D02*
X99054819Y-54628571D01*
X99054819Y-54628571D02*
X99054819Y-54533333D01*
X99054819Y-54533333D02*
X99102438Y-54390476D01*
X99102438Y-54390476D02*
X99150057Y-54342857D01*
X100054819Y-53390476D02*
X100054819Y-53961904D01*
X100054819Y-53676190D02*
X99054819Y-53676190D01*
X99054819Y-53676190D02*
X99197676Y-53771428D01*
X99197676Y-53771428D02*
X99292914Y-53866666D01*
X99292914Y-53866666D02*
X99340533Y-53961904D01*
X99054819Y-52771428D02*
X99054819Y-52676190D01*
X99054819Y-52676190D02*
X99102438Y-52580952D01*
X99102438Y-52580952D02*
X99150057Y-52533333D01*
X99150057Y-52533333D02*
X99245295Y-52485714D01*
X99245295Y-52485714D02*
X99435771Y-52438095D01*
X99435771Y-52438095D02*
X99673866Y-52438095D01*
X99673866Y-52438095D02*
X99864342Y-52485714D01*
X99864342Y-52485714D02*
X99959580Y-52533333D01*
X99959580Y-52533333D02*
X100007200Y-52580952D01*
X100007200Y-52580952D02*
X100054819Y-52676190D01*
X100054819Y-52676190D02*
X100054819Y-52771428D01*
X100054819Y-52771428D02*
X100007200Y-52866666D01*
X100007200Y-52866666D02*
X99959580Y-52914285D01*
X99959580Y-52914285D02*
X99864342Y-52961904D01*
X99864342Y-52961904D02*
X99673866Y-53009523D01*
X99673866Y-53009523D02*
X99435771Y-53009523D01*
X99435771Y-53009523D02*
X99245295Y-52961904D01*
X99245295Y-52961904D02*
X99150057Y-52914285D01*
X99150057Y-52914285D02*
X99102438Y-52866666D01*
X99102438Y-52866666D02*
X99054819Y-52771428D01*
X98859580Y-58566666D02*
X98907200Y-58614285D01*
X98907200Y-58614285D02*
X98954819Y-58757142D01*
X98954819Y-58757142D02*
X98954819Y-58852380D01*
X98954819Y-58852380D02*
X98907200Y-58995237D01*
X98907200Y-58995237D02*
X98811961Y-59090475D01*
X98811961Y-59090475D02*
X98716723Y-59138094D01*
X98716723Y-59138094D02*
X98526247Y-59185713D01*
X98526247Y-59185713D02*
X98383390Y-59185713D01*
X98383390Y-59185713D02*
X98192914Y-59138094D01*
X98192914Y-59138094D02*
X98097676Y-59090475D01*
X98097676Y-59090475D02*
X98002438Y-58995237D01*
X98002438Y-58995237D02*
X97954819Y-58852380D01*
X97954819Y-58852380D02*
X97954819Y-58757142D01*
X97954819Y-58757142D02*
X98002438Y-58614285D01*
X98002438Y-58614285D02*
X98050057Y-58566666D01*
X98954819Y-58090475D02*
X98954819Y-57899999D01*
X98954819Y-57899999D02*
X98907200Y-57804761D01*
X98907200Y-57804761D02*
X98859580Y-57757142D01*
X98859580Y-57757142D02*
X98716723Y-57661904D01*
X98716723Y-57661904D02*
X98526247Y-57614285D01*
X98526247Y-57614285D02*
X98145295Y-57614285D01*
X98145295Y-57614285D02*
X98050057Y-57661904D01*
X98050057Y-57661904D02*
X98002438Y-57709523D01*
X98002438Y-57709523D02*
X97954819Y-57804761D01*
X97954819Y-57804761D02*
X97954819Y-57995237D01*
X97954819Y-57995237D02*
X98002438Y-58090475D01*
X98002438Y-58090475D02*
X98050057Y-58138094D01*
X98050057Y-58138094D02*
X98145295Y-58185713D01*
X98145295Y-58185713D02*
X98383390Y-58185713D01*
X98383390Y-58185713D02*
X98478628Y-58138094D01*
X98478628Y-58138094D02*
X98526247Y-58090475D01*
X98526247Y-58090475D02*
X98573866Y-57995237D01*
X98573866Y-57995237D02*
X98573866Y-57804761D01*
X98573866Y-57804761D02*
X98526247Y-57709523D01*
X98526247Y-57709523D02*
X98478628Y-57661904D01*
X98478628Y-57661904D02*
X98383390Y-57614285D01*
X104859580Y-86566666D02*
X104907200Y-86614285D01*
X104907200Y-86614285D02*
X104954819Y-86757142D01*
X104954819Y-86757142D02*
X104954819Y-86852380D01*
X104954819Y-86852380D02*
X104907200Y-86995237D01*
X104907200Y-86995237D02*
X104811961Y-87090475D01*
X104811961Y-87090475D02*
X104716723Y-87138094D01*
X104716723Y-87138094D02*
X104526247Y-87185713D01*
X104526247Y-87185713D02*
X104383390Y-87185713D01*
X104383390Y-87185713D02*
X104192914Y-87138094D01*
X104192914Y-87138094D02*
X104097676Y-87090475D01*
X104097676Y-87090475D02*
X104002438Y-86995237D01*
X104002438Y-86995237D02*
X103954819Y-86852380D01*
X103954819Y-86852380D02*
X103954819Y-86757142D01*
X103954819Y-86757142D02*
X104002438Y-86614285D01*
X104002438Y-86614285D02*
X104050057Y-86566666D01*
X104383390Y-85995237D02*
X104335771Y-86090475D01*
X104335771Y-86090475D02*
X104288152Y-86138094D01*
X104288152Y-86138094D02*
X104192914Y-86185713D01*
X104192914Y-86185713D02*
X104145295Y-86185713D01*
X104145295Y-86185713D02*
X104050057Y-86138094D01*
X104050057Y-86138094D02*
X104002438Y-86090475D01*
X104002438Y-86090475D02*
X103954819Y-85995237D01*
X103954819Y-85995237D02*
X103954819Y-85804761D01*
X103954819Y-85804761D02*
X104002438Y-85709523D01*
X104002438Y-85709523D02*
X104050057Y-85661904D01*
X104050057Y-85661904D02*
X104145295Y-85614285D01*
X104145295Y-85614285D02*
X104192914Y-85614285D01*
X104192914Y-85614285D02*
X104288152Y-85661904D01*
X104288152Y-85661904D02*
X104335771Y-85709523D01*
X104335771Y-85709523D02*
X104383390Y-85804761D01*
X104383390Y-85804761D02*
X104383390Y-85995237D01*
X104383390Y-85995237D02*
X104431009Y-86090475D01*
X104431009Y-86090475D02*
X104478628Y-86138094D01*
X104478628Y-86138094D02*
X104573866Y-86185713D01*
X104573866Y-86185713D02*
X104764342Y-86185713D01*
X104764342Y-86185713D02*
X104859580Y-86138094D01*
X104859580Y-86138094D02*
X104907200Y-86090475D01*
X104907200Y-86090475D02*
X104954819Y-85995237D01*
X104954819Y-85995237D02*
X104954819Y-85804761D01*
X104954819Y-85804761D02*
X104907200Y-85709523D01*
X104907200Y-85709523D02*
X104859580Y-85661904D01*
X104859580Y-85661904D02*
X104764342Y-85614285D01*
X104764342Y-85614285D02*
X104573866Y-85614285D01*
X104573866Y-85614285D02*
X104478628Y-85661904D01*
X104478628Y-85661904D02*
X104431009Y-85709523D01*
X104431009Y-85709523D02*
X104383390Y-85804761D01*
X86259580Y-56491666D02*
X86307200Y-56539285D01*
X86307200Y-56539285D02*
X86354819Y-56682142D01*
X86354819Y-56682142D02*
X86354819Y-56777380D01*
X86354819Y-56777380D02*
X86307200Y-56920237D01*
X86307200Y-56920237D02*
X86211961Y-57015475D01*
X86211961Y-57015475D02*
X86116723Y-57063094D01*
X86116723Y-57063094D02*
X85926247Y-57110713D01*
X85926247Y-57110713D02*
X85783390Y-57110713D01*
X85783390Y-57110713D02*
X85592914Y-57063094D01*
X85592914Y-57063094D02*
X85497676Y-57015475D01*
X85497676Y-57015475D02*
X85402438Y-56920237D01*
X85402438Y-56920237D02*
X85354819Y-56777380D01*
X85354819Y-56777380D02*
X85354819Y-56682142D01*
X85354819Y-56682142D02*
X85402438Y-56539285D01*
X85402438Y-56539285D02*
X85450057Y-56491666D01*
X85354819Y-56158332D02*
X85354819Y-55491666D01*
X85354819Y-55491666D02*
X86354819Y-55920237D01*
X94889580Y-77466666D02*
X94937200Y-77514285D01*
X94937200Y-77514285D02*
X94984819Y-77657142D01*
X94984819Y-77657142D02*
X94984819Y-77752380D01*
X94984819Y-77752380D02*
X94937200Y-77895237D01*
X94937200Y-77895237D02*
X94841961Y-77990475D01*
X94841961Y-77990475D02*
X94746723Y-78038094D01*
X94746723Y-78038094D02*
X94556247Y-78085713D01*
X94556247Y-78085713D02*
X94413390Y-78085713D01*
X94413390Y-78085713D02*
X94222914Y-78038094D01*
X94222914Y-78038094D02*
X94127676Y-77990475D01*
X94127676Y-77990475D02*
X94032438Y-77895237D01*
X94032438Y-77895237D02*
X93984819Y-77752380D01*
X93984819Y-77752380D02*
X93984819Y-77657142D01*
X93984819Y-77657142D02*
X94032438Y-77514285D01*
X94032438Y-77514285D02*
X94080057Y-77466666D01*
X93984819Y-76609523D02*
X93984819Y-76799999D01*
X93984819Y-76799999D02*
X94032438Y-76895237D01*
X94032438Y-76895237D02*
X94080057Y-76942856D01*
X94080057Y-76942856D02*
X94222914Y-77038094D01*
X94222914Y-77038094D02*
X94413390Y-77085713D01*
X94413390Y-77085713D02*
X94794342Y-77085713D01*
X94794342Y-77085713D02*
X94889580Y-77038094D01*
X94889580Y-77038094D02*
X94937200Y-76990475D01*
X94937200Y-76990475D02*
X94984819Y-76895237D01*
X94984819Y-76895237D02*
X94984819Y-76704761D01*
X94984819Y-76704761D02*
X94937200Y-76609523D01*
X94937200Y-76609523D02*
X94889580Y-76561904D01*
X94889580Y-76561904D02*
X94794342Y-76514285D01*
X94794342Y-76514285D02*
X94556247Y-76514285D01*
X94556247Y-76514285D02*
X94461009Y-76561904D01*
X94461009Y-76561904D02*
X94413390Y-76609523D01*
X94413390Y-76609523D02*
X94365771Y-76704761D01*
X94365771Y-76704761D02*
X94365771Y-76895237D01*
X94365771Y-76895237D02*
X94413390Y-76990475D01*
X94413390Y-76990475D02*
X94461009Y-77038094D01*
X94461009Y-77038094D02*
X94556247Y-77085713D01*
X87859580Y-56491666D02*
X87907200Y-56539285D01*
X87907200Y-56539285D02*
X87954819Y-56682142D01*
X87954819Y-56682142D02*
X87954819Y-56777380D01*
X87954819Y-56777380D02*
X87907200Y-56920237D01*
X87907200Y-56920237D02*
X87811961Y-57015475D01*
X87811961Y-57015475D02*
X87716723Y-57063094D01*
X87716723Y-57063094D02*
X87526247Y-57110713D01*
X87526247Y-57110713D02*
X87383390Y-57110713D01*
X87383390Y-57110713D02*
X87192914Y-57063094D01*
X87192914Y-57063094D02*
X87097676Y-57015475D01*
X87097676Y-57015475D02*
X87002438Y-56920237D01*
X87002438Y-56920237D02*
X86954819Y-56777380D01*
X86954819Y-56777380D02*
X86954819Y-56682142D01*
X86954819Y-56682142D02*
X87002438Y-56539285D01*
X87002438Y-56539285D02*
X87050057Y-56491666D01*
X86954819Y-55586904D02*
X86954819Y-56063094D01*
X86954819Y-56063094D02*
X87431009Y-56110713D01*
X87431009Y-56110713D02*
X87383390Y-56063094D01*
X87383390Y-56063094D02*
X87335771Y-55967856D01*
X87335771Y-55967856D02*
X87335771Y-55729761D01*
X87335771Y-55729761D02*
X87383390Y-55634523D01*
X87383390Y-55634523D02*
X87431009Y-55586904D01*
X87431009Y-55586904D02*
X87526247Y-55539285D01*
X87526247Y-55539285D02*
X87764342Y-55539285D01*
X87764342Y-55539285D02*
X87859580Y-55586904D01*
X87859580Y-55586904D02*
X87907200Y-55634523D01*
X87907200Y-55634523D02*
X87954819Y-55729761D01*
X87954819Y-55729761D02*
X87954819Y-55967856D01*
X87954819Y-55967856D02*
X87907200Y-56063094D01*
X87907200Y-56063094D02*
X87859580Y-56110713D01*
X81059580Y-54066666D02*
X81107200Y-54114285D01*
X81107200Y-54114285D02*
X81154819Y-54257142D01*
X81154819Y-54257142D02*
X81154819Y-54352380D01*
X81154819Y-54352380D02*
X81107200Y-54495237D01*
X81107200Y-54495237D02*
X81011961Y-54590475D01*
X81011961Y-54590475D02*
X80916723Y-54638094D01*
X80916723Y-54638094D02*
X80726247Y-54685713D01*
X80726247Y-54685713D02*
X80583390Y-54685713D01*
X80583390Y-54685713D02*
X80392914Y-54638094D01*
X80392914Y-54638094D02*
X80297676Y-54590475D01*
X80297676Y-54590475D02*
X80202438Y-54495237D01*
X80202438Y-54495237D02*
X80154819Y-54352380D01*
X80154819Y-54352380D02*
X80154819Y-54257142D01*
X80154819Y-54257142D02*
X80202438Y-54114285D01*
X80202438Y-54114285D02*
X80250057Y-54066666D01*
X80154819Y-53733332D02*
X80154819Y-53114285D01*
X80154819Y-53114285D02*
X80535771Y-53447618D01*
X80535771Y-53447618D02*
X80535771Y-53304761D01*
X80535771Y-53304761D02*
X80583390Y-53209523D01*
X80583390Y-53209523D02*
X80631009Y-53161904D01*
X80631009Y-53161904D02*
X80726247Y-53114285D01*
X80726247Y-53114285D02*
X80964342Y-53114285D01*
X80964342Y-53114285D02*
X81059580Y-53161904D01*
X81059580Y-53161904D02*
X81107200Y-53209523D01*
X81107200Y-53209523D02*
X81154819Y-53304761D01*
X81154819Y-53304761D02*
X81154819Y-53590475D01*
X81154819Y-53590475D02*
X81107200Y-53685713D01*
X81107200Y-53685713D02*
X81059580Y-53733332D01*
X93459580Y-83366666D02*
X93507200Y-83414285D01*
X93507200Y-83414285D02*
X93554819Y-83557142D01*
X93554819Y-83557142D02*
X93554819Y-83652380D01*
X93554819Y-83652380D02*
X93507200Y-83795237D01*
X93507200Y-83795237D02*
X93411961Y-83890475D01*
X93411961Y-83890475D02*
X93316723Y-83938094D01*
X93316723Y-83938094D02*
X93126247Y-83985713D01*
X93126247Y-83985713D02*
X92983390Y-83985713D01*
X92983390Y-83985713D02*
X92792914Y-83938094D01*
X92792914Y-83938094D02*
X92697676Y-83890475D01*
X92697676Y-83890475D02*
X92602438Y-83795237D01*
X92602438Y-83795237D02*
X92554819Y-83652380D01*
X92554819Y-83652380D02*
X92554819Y-83557142D01*
X92554819Y-83557142D02*
X92602438Y-83414285D01*
X92602438Y-83414285D02*
X92650057Y-83366666D01*
X92650057Y-82985713D02*
X92602438Y-82938094D01*
X92602438Y-82938094D02*
X92554819Y-82842856D01*
X92554819Y-82842856D02*
X92554819Y-82604761D01*
X92554819Y-82604761D02*
X92602438Y-82509523D01*
X92602438Y-82509523D02*
X92650057Y-82461904D01*
X92650057Y-82461904D02*
X92745295Y-82414285D01*
X92745295Y-82414285D02*
X92840533Y-82414285D01*
X92840533Y-82414285D02*
X92983390Y-82461904D01*
X92983390Y-82461904D02*
X93554819Y-83033332D01*
X93554819Y-83033332D02*
X93554819Y-82414285D01*
X77833333Y-50159580D02*
X77785714Y-50207200D01*
X77785714Y-50207200D02*
X77642857Y-50254819D01*
X77642857Y-50254819D02*
X77547619Y-50254819D01*
X77547619Y-50254819D02*
X77404762Y-50207200D01*
X77404762Y-50207200D02*
X77309524Y-50111961D01*
X77309524Y-50111961D02*
X77261905Y-50016723D01*
X77261905Y-50016723D02*
X77214286Y-49826247D01*
X77214286Y-49826247D02*
X77214286Y-49683390D01*
X77214286Y-49683390D02*
X77261905Y-49492914D01*
X77261905Y-49492914D02*
X77309524Y-49397676D01*
X77309524Y-49397676D02*
X77404762Y-49302438D01*
X77404762Y-49302438D02*
X77547619Y-49254819D01*
X77547619Y-49254819D02*
X77642857Y-49254819D01*
X77642857Y-49254819D02*
X77785714Y-49302438D01*
X77785714Y-49302438D02*
X77833333Y-49350057D01*
X78785714Y-50254819D02*
X78214286Y-50254819D01*
X78500000Y-50254819D02*
X78500000Y-49254819D01*
X78500000Y-49254819D02*
X78404762Y-49397676D01*
X78404762Y-49397676D02*
X78309524Y-49492914D01*
X78309524Y-49492914D02*
X78214286Y-49540533D01*
X90225000Y-52525000D02*
X94375000Y-52525000D01*
X90225000Y-57675000D02*
X94375000Y-57675000D01*
D12*
X89625000Y-52625000D02*
X89385000Y-52295000D01*
X89865000Y-52295000D01*
X89625000Y-52625000D01*
G36*
X89625000Y-52625000D02*
G01*
X89385000Y-52295000D01*
X89865000Y-52295000D01*
X89625000Y-52625000D01*
G37*
X100730000Y-75520000D02*
X100400000Y-75280000D01*
X100730000Y-75040000D01*
X100730000Y-75520000D01*
G36*
X100730000Y-75520000D02*
G01*
X100400000Y-75280000D01*
X100730000Y-75040000D01*
X100730000Y-75520000D01*
G37*
X95375000Y-77980000D02*
X95375000Y-79930000D01*
X95375000Y-77980000D02*
X95375000Y-76030000D01*
X100495000Y-77980000D02*
X100495000Y-79930000D01*
X100495000Y-77980000D02*
X100495000Y-76030000D01*
X84760000Y-63300000D02*
X84760000Y-62650000D01*
X84760000Y-63300000D02*
X84760000Y-63950000D01*
X81640000Y-63300000D02*
X81640000Y-62650000D01*
X81640000Y-63300000D02*
X81640000Y-63950000D01*
X85040000Y-62377500D02*
X84710000Y-62137500D01*
X85040000Y-61897500D01*
X85040000Y-62377500D01*
G36*
X85040000Y-62377500D02*
G01*
X84710000Y-62137500D01*
X85040000Y-61897500D01*
X85040000Y-62377500D01*
G37*
X83110000Y-77460000D02*
X83110000Y-75696000D01*
X83110000Y-77460000D02*
X79365000Y-77460000D01*
X83110000Y-74304000D02*
X83110000Y-73196000D01*
X83110000Y-71804000D02*
X83110000Y-70696000D01*
X83110000Y-69304000D02*
X83110000Y-67540000D01*
X83110000Y-67540000D02*
X79365000Y-67540000D01*
X74635000Y-77460000D02*
X70890000Y-77460000D01*
X74635000Y-67540000D02*
X70890000Y-67540000D01*
X70890000Y-77460000D02*
X70890000Y-67540000D01*
X79910000Y-46272936D02*
X79910000Y-47727064D01*
X78090000Y-46272936D02*
X78090000Y-47727064D01*
X94662742Y-63677500D02*
X95137258Y-63677500D01*
X94662742Y-64722500D02*
X95137258Y-64722500D01*
X101452500Y-72632258D02*
X101452500Y-72157742D01*
X102497500Y-72632258D02*
X102497500Y-72157742D01*
X90877500Y-61037258D02*
X90877500Y-60562742D01*
X91922500Y-61037258D02*
X91922500Y-60562742D01*
X99237742Y-70972500D02*
X99712258Y-70972500D01*
X99237742Y-72017500D02*
X99712258Y-72017500D01*
X94237258Y-59522500D02*
X93762742Y-59522500D01*
X94237258Y-58477500D02*
X93762742Y-58477500D01*
X93762742Y-60177500D02*
X94237258Y-60177500D01*
X93762742Y-61222500D02*
X94237258Y-61222500D01*
X95937742Y-70972500D02*
X96412258Y-70972500D01*
X95937742Y-72017500D02*
X96412258Y-72017500D01*
X102177500Y-83162742D02*
X102177500Y-83637258D01*
X103222500Y-83162742D02*
X103222500Y-83637258D01*
X90737258Y-78222500D02*
X90262742Y-78222500D01*
X90737258Y-77177500D02*
X90262742Y-77177500D01*
X90262742Y-70977500D02*
X90737258Y-70977500D01*
X90262742Y-72022500D02*
X90737258Y-72022500D01*
X83577500Y-54037258D02*
X83577500Y-53562742D01*
X84622500Y-54037258D02*
X84622500Y-53562742D01*
X86922500Y-73762742D02*
X86922500Y-74237258D01*
X85877500Y-73762742D02*
X85877500Y-74237258D01*
X86922500Y-77062742D02*
X86922500Y-77537258D01*
X85877500Y-77062742D02*
X85877500Y-77537258D01*
X86922500Y-70462742D02*
X86922500Y-70937258D01*
X85877500Y-70462742D02*
X85877500Y-70937258D01*
X91822500Y-81037258D02*
X91822500Y-80562742D01*
X90777500Y-81037258D02*
X90777500Y-80562742D01*
X88462742Y-82122500D02*
X88937258Y-82122500D01*
X88462742Y-81077500D02*
X88937258Y-81077500D01*
X76677500Y-54237258D02*
X76677500Y-53762742D01*
X77722500Y-54237258D02*
X77722500Y-53762742D01*
X84722500Y-59162742D02*
X84722500Y-59637258D01*
X83677500Y-59162742D02*
X83677500Y-59637258D01*
X92100000Y-64240000D02*
X91450000Y-64240000D01*
X92100000Y-64240000D02*
X92750000Y-64240000D01*
X92100000Y-67360000D02*
X91450000Y-67360000D01*
X92100000Y-67360000D02*
X92750000Y-67360000D01*
X90937500Y-64290000D02*
X90697500Y-63960000D01*
X91177500Y-63960000D01*
X90937500Y-64290000D01*
G36*
X90937500Y-64290000D02*
G01*
X90697500Y-63960000D01*
X91177500Y-63960000D01*
X90937500Y-64290000D01*
G37*
X90900000Y-73340000D02*
X90250000Y-73340000D01*
X90900000Y-73340000D02*
X91550000Y-73340000D01*
X90900000Y-76460000D02*
X90250000Y-76460000D01*
X90900000Y-76460000D02*
X91550000Y-76460000D01*
X89737500Y-73390000D02*
X89497500Y-73060000D01*
X89977500Y-73060000D01*
X89737500Y-73390000D01*
G36*
X89737500Y-73390000D02*
G01*
X89497500Y-73060000D01*
X89977500Y-73060000D01*
X89737500Y-73390000D01*
G37*
X108880000Y-45620000D02*
X106475000Y-45620000D01*
X98520000Y-45620000D02*
X100925000Y-45620000D01*
X108880000Y-55980000D02*
X108880000Y-45620000D01*
X106475000Y-55980000D02*
X108880000Y-55980000D01*
X100925000Y-55980000D02*
X98520000Y-55980000D01*
X98520000Y-55980000D02*
X98520000Y-45620000D01*
X82700378Y-56140000D02*
X83499622Y-56140000D01*
X82700378Y-57260000D02*
X83499622Y-57260000D01*
X78097936Y-56090000D02*
X79302064Y-56090000D01*
X78097936Y-57910000D02*
X79302064Y-57910000D01*
X98390000Y-85162500D02*
X98060000Y-85402500D01*
X98060000Y-84922500D01*
X98390000Y-85162500D01*
G36*
X98390000Y-85162500D02*
G01*
X98060000Y-85402500D01*
X98060000Y-84922500D01*
X98390000Y-85162500D01*
G37*
X101460000Y-84000000D02*
X101460000Y-83350000D01*
X101460000Y-84000000D02*
X101460000Y-84650000D01*
X98340000Y-84000000D02*
X98340000Y-83350000D01*
X98340000Y-84000000D02*
X98340000Y-84650000D01*
X77310000Y-47659420D02*
X77310000Y-47940580D01*
X76290000Y-47659420D02*
X76290000Y-47940580D01*
X97460000Y-48888748D02*
X97460000Y-50311252D01*
X94740000Y-48888748D02*
X94740000Y-50311252D01*
X94060000Y-48888748D02*
X94060000Y-50311252D01*
X91340000Y-48888748D02*
X91340000Y-50311252D01*
X90660000Y-48888748D02*
X90660000Y-50311252D01*
X87940000Y-48888748D02*
X87940000Y-50311252D01*
X87260000Y-48888748D02*
X87260000Y-50311252D01*
X84540000Y-48888748D02*
X84540000Y-50311252D01*
X83860000Y-48888748D02*
X83860000Y-50311252D01*
X81140000Y-48888748D02*
X81140000Y-50311252D01*
X93859420Y-61890000D02*
X94140580Y-61890000D01*
X93859420Y-62910000D02*
X94140580Y-62910000D01*
X101165000Y-79810580D02*
X101165000Y-79529420D01*
X102185000Y-79810580D02*
X102185000Y-79529420D01*
X99334420Y-72745000D02*
X99615580Y-72745000D01*
X99334420Y-73765000D02*
X99615580Y-73765000D01*
X96490000Y-53940580D02*
X96490000Y-53659420D01*
X97510000Y-53940580D02*
X97510000Y-53659420D01*
X97510000Y-56859420D02*
X97510000Y-57140580D01*
X96490000Y-56859420D02*
X96490000Y-57140580D01*
X103990000Y-83259420D02*
X103990000Y-83540580D01*
X105010000Y-83259420D02*
X105010000Y-83540580D01*
X85290000Y-53965580D02*
X85290000Y-53684420D01*
X86310000Y-53965580D02*
X86310000Y-53684420D01*
X93610000Y-77159420D02*
X93610000Y-77440580D01*
X92590000Y-77159420D02*
X92590000Y-77440580D01*
X86990000Y-53965580D02*
X86990000Y-53684420D01*
X88010000Y-53965580D02*
X88010000Y-53684420D01*
X81411252Y-55260000D02*
X79988748Y-55260000D01*
X81411252Y-52540000D02*
X79988748Y-52540000D01*
X93610000Y-80940580D02*
X93610000Y-80659420D01*
X92590000Y-80940580D02*
X92590000Y-80659420D01*
X77859420Y-50690000D02*
X78140580Y-50690000D01*
X77859420Y-51710000D02*
X78140580Y-51710000D01*
%LPC*%
D13*
X114000000Y-44000000D03*
X114000000Y-85000000D03*
X73000000Y-85000000D03*
X73000000Y-44000000D03*
D14*
X92300000Y-55100000D03*
D15*
X89600000Y-53195000D03*
X89600000Y-54465000D03*
X89600000Y-55735000D03*
X89600000Y-57005000D03*
X95000000Y-57005000D03*
X95000000Y-55735000D03*
X95000000Y-54465000D03*
X95000000Y-53195000D03*
D16*
X99840000Y-80455000D03*
X98570000Y-80455000D03*
X97300000Y-80455000D03*
X96030000Y-80455000D03*
X96030000Y-75505000D03*
X97300000Y-75505000D03*
X98570000Y-75505000D03*
X99840000Y-75505000D03*
D17*
X84150000Y-62362500D03*
X82250000Y-62362500D03*
X83200000Y-64237500D03*
D18*
X84000000Y-70000000D03*
X84000000Y-72500000D03*
X84000000Y-75000000D03*
D19*
X77000000Y-76900000D03*
X77000000Y-68100000D03*
D20*
X79000000Y-45537500D03*
X79000000Y-48462500D03*
D21*
X94075000Y-64200000D03*
X95725000Y-64200000D03*
D22*
X101975000Y-73220000D03*
X101975000Y-71570000D03*
X91400000Y-61625000D03*
X91400000Y-59975000D03*
D21*
X98650000Y-71495000D03*
X100300000Y-71495000D03*
D23*
X94825000Y-59000000D03*
X93175000Y-59000000D03*
D21*
X93175000Y-60700000D03*
X94825000Y-60700000D03*
X95350000Y-71495000D03*
X97000000Y-71495000D03*
D24*
X102700000Y-84225000D03*
X102700000Y-82575000D03*
D23*
X91325000Y-77700000D03*
X89675000Y-77700000D03*
D21*
X89675000Y-71500000D03*
X91325000Y-71500000D03*
D22*
X84100000Y-54625000D03*
X84100000Y-52975000D03*
D24*
X86400000Y-73175000D03*
X86400000Y-74825000D03*
X86400000Y-76475000D03*
X86400000Y-78125000D03*
X86400000Y-69875000D03*
X86400000Y-71525000D03*
D22*
X91300000Y-79975000D03*
X91300000Y-81625000D03*
D21*
X89525000Y-81600000D03*
X87875000Y-81600000D03*
D22*
X77200000Y-54825000D03*
X77200000Y-53175000D03*
D24*
X84200000Y-58575000D03*
X84200000Y-60225000D03*
D25*
X91162500Y-64850000D03*
X91162500Y-66750000D03*
X93037500Y-65800000D03*
X89962500Y-73950000D03*
X89962500Y-75850000D03*
X91837500Y-74900000D03*
D26*
X103700000Y-46292500D03*
X103700000Y-55307500D03*
D27*
X82000000Y-44000000D03*
X87000000Y-44000000D03*
X73000000Y-52000000D03*
X73000000Y-57000000D03*
D28*
X82037500Y-56700000D03*
X84162500Y-56700000D03*
D29*
X77300000Y-57000000D03*
X80100000Y-57000000D03*
D30*
X99900000Y-83062500D03*
X100850000Y-84937500D03*
X98950000Y-84937500D03*
D31*
X76800000Y-47025000D03*
X76800000Y-48575000D03*
D32*
X96100000Y-48125000D03*
X96100000Y-51075000D03*
X92700000Y-48125000D03*
X92700000Y-51075000D03*
X89300000Y-48125000D03*
X89300000Y-51075000D03*
X85900000Y-48125000D03*
X85900000Y-51075000D03*
X82500000Y-48125000D03*
X82500000Y-51075000D03*
D33*
X93225000Y-62400000D03*
X94775000Y-62400000D03*
D34*
X101675000Y-80445000D03*
X101675000Y-78895000D03*
D33*
X98700000Y-73255000D03*
X100250000Y-73255000D03*
D34*
X97000000Y-54575000D03*
X97000000Y-53025000D03*
D31*
X97000000Y-56225000D03*
X97000000Y-57775000D03*
X104500000Y-84175000D03*
X104500000Y-82625000D03*
D34*
X85800000Y-54600000D03*
X85800000Y-53050000D03*
D31*
X93100000Y-76525000D03*
X93100000Y-78075000D03*
D34*
X87500000Y-54600000D03*
X87500000Y-53050000D03*
D35*
X82175000Y-53900000D03*
X79225000Y-53900000D03*
D34*
X93100000Y-80025000D03*
X93100000Y-81575000D03*
D33*
X77225000Y-51200000D03*
X78775000Y-51200000D03*
%LPD*%
M02*
