G04 #@! TF.GenerationSoftware,KiCad,Pcbnew,9.0.2*
G04 #@! TF.CreationDate,2025-10-08T20:36:55-05:00*
G04 #@! TF.ProjectId,cc-led-driver,63632d6c-6564-42d6-9472-697665722e6b,V1.0*
G04 #@! TF.SameCoordinates,Original*
G04 #@! TF.FileFunction,Copper,L2,Inr*
G04 #@! TF.FilePolarity,Positive*
%FSLAX46Y46*%
G04 Gerber Fmt 4.6, Leading zero omitted, Abs format (unit mm)*
G04 Created by KiCad (PCBNEW 9.0.2) date 2025-10-08 20:36:55*
%MOMM*%
%LPD*%
G01*
G04 APERTURE LIST*
G04 #@! TA.AperFunction,ComponentPad*
%ADD10C,3.800000*%
G04 #@! TD*
G04 #@! TA.AperFunction,ComponentPad*
%ADD11C,0.600000*%
G04 #@! TD*
G04 #@! TA.AperFunction,ComponentPad*
%ADD12C,1.800000*%
G04 #@! TD*
G04 #@! TA.AperFunction,ComponentPad*
%ADD13C,4.400000*%
G04 #@! TD*
G04 #@! TA.AperFunction,ComponentPad*
%ADD14C,2.200000*%
G04 #@! TD*
G04 #@! TA.AperFunction,ViaPad*
%ADD15C,0.600000*%
G04 #@! TD*
G04 APERTURE END LIST*
D10*
X114000000Y-44000000D03*
X114000000Y-85000000D03*
X73000000Y-85000000D03*
X73000000Y-44000000D03*
D11*
X91650000Y-53150000D03*
X91650000Y-54450000D03*
X91650000Y-55750000D03*
X91650000Y-57050000D03*
X92950000Y-53150000D03*
X92950000Y-54450000D03*
X92950000Y-55750000D03*
X92950000Y-57050000D03*
D12*
X84000000Y-70000000D03*
X84000000Y-72500000D03*
X84000000Y-75000000D03*
D13*
X77000000Y-76900000D03*
X77000000Y-68100000D03*
D14*
X82000000Y-44000000D03*
X87000000Y-44000000D03*
X73000000Y-52000000D03*
X73000000Y-57000000D03*
D15*
X77650000Y-46350000D03*
X97000000Y-60200000D03*
X89900000Y-59500000D03*
X90400000Y-58500000D03*
X89000000Y-58500000D03*
X89000000Y-61000000D03*
X87100000Y-56800000D03*
X86100000Y-55800000D03*
X86800000Y-58700000D03*
X85500000Y-57400000D03*
X85600000Y-62600000D03*
X85600000Y-64900000D03*
X95300000Y-50000000D03*
X96900000Y-50000000D03*
X96100000Y-50000000D03*
X92700000Y-50000000D03*
X93500000Y-50000000D03*
X91900000Y-50000000D03*
X88500000Y-50000000D03*
X90100000Y-50000000D03*
X89300000Y-50000000D03*
X85900000Y-50000000D03*
X86700000Y-50000000D03*
X85100000Y-50000000D03*
X82500000Y-50000000D03*
X83300000Y-50000000D03*
X81700000Y-50000000D03*
X99100000Y-78700000D03*
X94300000Y-72400000D03*
X97600000Y-66600000D03*
X94900000Y-66600000D03*
X88700000Y-65400000D03*
X89000000Y-62700000D03*
X74600000Y-53000000D03*
X74600000Y-52000000D03*
X74600000Y-51000000D03*
X104500000Y-81800000D03*
X93700000Y-70500000D03*
X92800000Y-71600000D03*
X88150000Y-70650000D03*
X95300000Y-70500000D03*
X87800000Y-80900000D03*
X104500000Y-85300000D03*
X102700000Y-85300000D03*
X91300000Y-79000000D03*
X76800000Y-49500000D03*
X79500000Y-47500000D03*
X78500000Y-47500000D03*
X79500000Y-49400000D03*
X78500000Y-49400000D03*
X79500000Y-48500000D03*
X78500000Y-48500000D03*
X95275000Y-75695000D03*
X95275000Y-74895000D03*
X93100000Y-79000000D03*
X102575000Y-80470000D03*
X102575000Y-78895000D03*
X88600000Y-77700000D03*
X86450000Y-79200000D03*
X82250000Y-62362500D03*
X93175000Y-58000000D03*
X93175000Y-60700000D03*
X82100000Y-54700000D03*
X82100000Y-53100000D03*
X82100000Y-53900000D03*
X78800000Y-51200000D03*
X79200000Y-53900000D03*
X79200000Y-53100000D03*
X79200000Y-54700000D03*
X87500000Y-52200000D03*
X85800000Y-52200000D03*
X96900000Y-48125000D03*
X95300000Y-48125000D03*
X96100000Y-48125000D03*
X93500000Y-48125000D03*
X92700000Y-48125000D03*
X91900000Y-48125000D03*
X90100000Y-48125000D03*
X88500000Y-48125000D03*
X89300000Y-48125000D03*
X85100000Y-48125000D03*
X86700000Y-48125000D03*
X85900000Y-48125000D03*
X83300000Y-48125000D03*
X81700000Y-48125000D03*
X82500000Y-48125000D03*
X96100000Y-51100000D03*
X96900000Y-51100000D03*
X95300000Y-51100000D03*
X92700000Y-51100000D03*
X91900000Y-51100000D03*
X93500000Y-51100000D03*
X89300000Y-51100000D03*
X88500000Y-51100000D03*
X90100000Y-51100000D03*
X85900000Y-51100000D03*
X86700000Y-51100000D03*
X85100000Y-51100000D03*
X82500000Y-51100000D03*
X83300000Y-51100000D03*
X81700000Y-51100000D03*
X97000000Y-58900000D03*
X79000000Y-70400000D03*
X114720000Y-57631750D03*
X112180000Y-80491750D03*
X112180000Y-57631750D03*
X112180000Y-60171750D03*
X114720000Y-60171750D03*
X114720000Y-55091750D03*
X114720000Y-77951750D03*
X112180000Y-77951750D03*
X114720000Y-80491750D03*
X114720000Y-50011750D03*
X112180000Y-50011750D03*
X112180000Y-55091750D03*
X112180000Y-52551750D03*
X109640000Y-85571750D03*
X109640000Y-72871750D03*
X109640000Y-62711750D03*
X109640000Y-47471750D03*
X107100000Y-85571750D03*
X107100000Y-75411750D03*
X99480000Y-62711750D03*
X99480000Y-60171750D03*
X104560000Y-75411750D03*
X104560000Y-72871750D03*
X102020000Y-60171750D03*
X104560000Y-62711750D03*
X96940000Y-85571750D03*
X94400000Y-80491750D03*
X109640000Y-70331750D03*
X102020000Y-70331750D03*
X109640000Y-80491750D03*
X109640000Y-52551750D03*
X109640000Y-65251750D03*
X109640000Y-77951750D03*
X104560000Y-67791750D03*
X102020000Y-67791750D03*
X109640000Y-50011750D03*
X107100000Y-70331750D03*
X109640000Y-60171750D03*
X102020000Y-62711750D03*
X96940000Y-62711750D03*
X94400000Y-44931750D03*
X109640000Y-44931750D03*
X91860000Y-44931750D03*
X107100000Y-67791750D03*
X104560000Y-65251750D03*
X104560000Y-60171750D03*
X102020000Y-75411750D03*
X96940000Y-44931750D03*
X109640000Y-57631750D03*
X107100000Y-80491750D03*
X102020000Y-65251750D03*
X89320000Y-85571750D03*
X112180000Y-47471750D03*
X107100000Y-77951750D03*
X89320000Y-83031750D03*
X107100000Y-83031750D03*
X114720000Y-47471750D03*
X107100000Y-72871750D03*
X89320000Y-44931750D03*
X84240000Y-44931750D03*
X107100000Y-65251750D03*
X86780000Y-83031750D03*
X104560000Y-77951750D03*
X84240000Y-85571750D03*
X84240000Y-83031750D03*
X84240000Y-80491750D03*
X81700000Y-85571750D03*
X76620000Y-60171750D03*
X74080000Y-72871750D03*
X81700000Y-80491750D03*
X81700000Y-77951750D03*
X81700000Y-72871750D03*
X81700000Y-70331750D03*
X79160000Y-80491750D03*
X79160000Y-72871750D03*
X74080000Y-80491750D03*
X79160000Y-60171750D03*
X74080000Y-75411750D03*
X102020000Y-50011750D03*
X81700000Y-75411750D03*
X104560000Y-70331750D03*
X91860000Y-85571750D03*
X79160000Y-65251750D03*
X99480000Y-50011750D03*
X76620000Y-85571750D03*
X94400000Y-85571750D03*
X74080000Y-47471750D03*
X109640000Y-55091750D03*
X114720000Y-52551750D03*
X76620000Y-80491750D03*
X104560000Y-50011750D03*
X81700000Y-60171750D03*
X107100000Y-50011750D03*
X79160000Y-85571750D03*
X107100000Y-60171750D03*
X76620000Y-83031750D03*
X109640000Y-83031750D03*
X74080000Y-65251750D03*
X91860000Y-83031750D03*
X74080000Y-60171750D03*
X107100000Y-62711750D03*
X109640000Y-75411750D03*
X76620000Y-62711750D03*
X79160000Y-62711750D03*
X79160000Y-83031750D03*
X99480000Y-57631750D03*
X81700000Y-83031750D03*
X74080000Y-70331750D03*
X109640000Y-67791750D03*
X74080000Y-62711750D03*
X86780000Y-85571750D03*
X76620000Y-72871750D03*
X84240000Y-77951750D03*
G04 #@! TA.AperFunction,Conductor*
G36*
X114004043Y-42000765D02*
G01*
X114252895Y-42017075D01*
X114268953Y-42019190D01*
X114476105Y-42060395D01*
X114509535Y-42067045D01*
X114525202Y-42071243D01*
X114694947Y-42128863D01*
X114757481Y-42150091D01*
X114772458Y-42156294D01*
X114981799Y-42259529D01*
X114992460Y-42264787D01*
X115006508Y-42272897D01*
X115210464Y-42409177D01*
X115223328Y-42419048D01*
X115407749Y-42580781D01*
X115419218Y-42592250D01*
X115537669Y-42727318D01*
X115580951Y-42776671D01*
X115590825Y-42789539D01*
X115727102Y-42993492D01*
X115735212Y-43007539D01*
X115843702Y-43227534D01*
X115849909Y-43242520D01*
X115928756Y-43474797D01*
X115932954Y-43490464D01*
X115980807Y-43731035D01*
X115982925Y-43747116D01*
X115999235Y-43995956D01*
X115999500Y-44004066D01*
X115999500Y-84995933D01*
X115999235Y-85004043D01*
X115982925Y-85252883D01*
X115980807Y-85268964D01*
X115932954Y-85509535D01*
X115928756Y-85525202D01*
X115849909Y-85757479D01*
X115843702Y-85772465D01*
X115735212Y-85992460D01*
X115727102Y-86006507D01*
X115590825Y-86210460D01*
X115580951Y-86223328D01*
X115419218Y-86407749D01*
X115407749Y-86419218D01*
X115223328Y-86580951D01*
X115210460Y-86590825D01*
X115006507Y-86727102D01*
X114992460Y-86735212D01*
X114772465Y-86843702D01*
X114757479Y-86849909D01*
X114525202Y-86928756D01*
X114509535Y-86932954D01*
X114268964Y-86980807D01*
X114252883Y-86982925D01*
X114004043Y-86999235D01*
X113995933Y-86999500D01*
X73004067Y-86999500D01*
X72995957Y-86999235D01*
X72747116Y-86982925D01*
X72731035Y-86980807D01*
X72490464Y-86932954D01*
X72474797Y-86928756D01*
X72242520Y-86849909D01*
X72227534Y-86843702D01*
X72007539Y-86735212D01*
X71993492Y-86727102D01*
X71789539Y-86590825D01*
X71776671Y-86580951D01*
X71592250Y-86419218D01*
X71580781Y-86407749D01*
X71519648Y-86338040D01*
X71419045Y-86223325D01*
X71409174Y-86210460D01*
X71272897Y-86006507D01*
X71264787Y-85992460D01*
X71227522Y-85916895D01*
X71156294Y-85772458D01*
X71150090Y-85757479D01*
X71071243Y-85525202D01*
X71067045Y-85509535D01*
X71060395Y-85476105D01*
X71019190Y-85268953D01*
X71017075Y-85252895D01*
X71000765Y-85004043D01*
X71000500Y-84995933D01*
X71000500Y-81734108D01*
X103999500Y-81734108D01*
X103999500Y-81865891D01*
X104033608Y-81993187D01*
X104066554Y-82050250D01*
X104099500Y-82107314D01*
X104192686Y-82200500D01*
X104306814Y-82266392D01*
X104434108Y-82300500D01*
X104434110Y-82300500D01*
X104565890Y-82300500D01*
X104565892Y-82300500D01*
X104693186Y-82266392D01*
X104807314Y-82200500D01*
X104900500Y-82107314D01*
X104966392Y-81993186D01*
X105000500Y-81865892D01*
X105000500Y-81734108D01*
X104966392Y-81606814D01*
X104900500Y-81492686D01*
X104807314Y-81399500D01*
X104749968Y-81366391D01*
X104693187Y-81333608D01*
X104629539Y-81316554D01*
X104565892Y-81299500D01*
X104434108Y-81299500D01*
X104306812Y-81333608D01*
X104192686Y-81399500D01*
X104192683Y-81399502D01*
X104099502Y-81492683D01*
X104099500Y-81492686D01*
X104033608Y-81606812D01*
X103999500Y-81734108D01*
X71000500Y-81734108D01*
X71000500Y-80834108D01*
X87299500Y-80834108D01*
X87299500Y-80965892D01*
X87300735Y-80970500D01*
X87333608Y-81093187D01*
X87366554Y-81150250D01*
X87399500Y-81207314D01*
X87492686Y-81300500D01*
X87606814Y-81366392D01*
X87734108Y-81400500D01*
X87734110Y-81400500D01*
X87865890Y-81400500D01*
X87865892Y-81400500D01*
X87993186Y-81366392D01*
X88107314Y-81300500D01*
X88200500Y-81207314D01*
X88266392Y-81093186D01*
X88300500Y-80965892D01*
X88300500Y-80834108D01*
X88266392Y-80706814D01*
X88200500Y-80592686D01*
X88107314Y-80499500D01*
X88107312Y-80499499D01*
X88107309Y-80499496D01*
X87993189Y-80433609D01*
X87993186Y-80433608D01*
X87883089Y-80404108D01*
X102074500Y-80404108D01*
X102074500Y-80535891D01*
X102108608Y-80663187D01*
X102133797Y-80706814D01*
X102174500Y-80777314D01*
X102267686Y-80870500D01*
X102381814Y-80936392D01*
X102509108Y-80970500D01*
X102509110Y-80970500D01*
X102640890Y-80970500D01*
X102640892Y-80970500D01*
X102768186Y-80936392D01*
X102882314Y-80870500D01*
X102975500Y-80777314D01*
X103041392Y-80663186D01*
X103075500Y-80535892D01*
X103075500Y-80404108D01*
X103041392Y-80276814D01*
X102975500Y-80162686D01*
X102882314Y-80069500D01*
X102825250Y-80036554D01*
X102768187Y-80003608D01*
X102704539Y-79986554D01*
X102640892Y-79969500D01*
X102509108Y-79969500D01*
X102381812Y-80003608D01*
X102267686Y-80069500D01*
X102267683Y-80069502D01*
X102174502Y-80162683D01*
X102174500Y-80162686D01*
X102108608Y-80276812D01*
X102074500Y-80404108D01*
X87883089Y-80404108D01*
X87865892Y-80399500D01*
X87734108Y-80399500D01*
X87606812Y-80433608D01*
X87492686Y-80499500D01*
X87492683Y-80499502D01*
X87399502Y-80592683D01*
X87399500Y-80592686D01*
X87333608Y-80706812D01*
X87314718Y-80777313D01*
X87299500Y-80834108D01*
X71000500Y-80834108D01*
X71000500Y-76765186D01*
X74599500Y-76765186D01*
X74599500Y-77034813D01*
X74629686Y-77302719D01*
X74629688Y-77302731D01*
X74689684Y-77565594D01*
X74689687Y-77565602D01*
X74778734Y-77820082D01*
X74895714Y-78062994D01*
X74895716Y-78062997D01*
X75039162Y-78291289D01*
X75207266Y-78502085D01*
X75397915Y-78692734D01*
X75608711Y-78860838D01*
X75837003Y-79004284D01*
X76079921Y-79121267D01*
X76271049Y-79188145D01*
X76334397Y-79210312D01*
X76334405Y-79210315D01*
X76334408Y-79210315D01*
X76334409Y-79210316D01*
X76597268Y-79270312D01*
X76865187Y-79300499D01*
X76865188Y-79300500D01*
X76865191Y-79300500D01*
X77134812Y-79300500D01*
X77134812Y-79300499D01*
X77402732Y-79270312D01*
X77665591Y-79210316D01*
X77920079Y-79121267D01*
X78162997Y-79004284D01*
X78391289Y-78860838D01*
X78602085Y-78692734D01*
X78792734Y-78502085D01*
X78960838Y-78291289D01*
X79104284Y-78062997D01*
X79221267Y-77820079D01*
X79310316Y-77565591D01*
X79370312Y-77302732D01*
X79400500Y-77034809D01*
X79400500Y-76765191D01*
X79370312Y-76497268D01*
X79310316Y-76234409D01*
X79221267Y-75979921D01*
X79104284Y-75737003D01*
X78960838Y-75508711D01*
X78792734Y-75297915D01*
X78602085Y-75107266D01*
X78576184Y-75086611D01*
X78474429Y-75005464D01*
X78391289Y-74939162D01*
X78350272Y-74913389D01*
X82899500Y-74913389D01*
X82899500Y-75086611D01*
X82926598Y-75257701D01*
X82980127Y-75422445D01*
X83058768Y-75576788D01*
X83160586Y-75716928D01*
X83283072Y-75839414D01*
X83423212Y-75941232D01*
X83577555Y-76019873D01*
X83742299Y-76073402D01*
X83913389Y-76100500D01*
X83913390Y-76100500D01*
X84086610Y-76100500D01*
X84086611Y-76100500D01*
X84257701Y-76073402D01*
X84422445Y-76019873D01*
X84576788Y-75941232D01*
X84716928Y-75839414D01*
X84839414Y-75716928D01*
X84941232Y-75576788D01*
X85019873Y-75422445D01*
X85073402Y-75257701D01*
X85100500Y-75086611D01*
X85100500Y-74913389D01*
X85073402Y-74742299D01*
X85019873Y-74577555D01*
X84941232Y-74423212D01*
X84839414Y-74283072D01*
X84716928Y-74160586D01*
X84576788Y-74058768D01*
X84422445Y-73980127D01*
X84257701Y-73926598D01*
X84257699Y-73926597D01*
X84257698Y-73926597D01*
X84126271Y-73905781D01*
X84086611Y-73899500D01*
X83913389Y-73899500D01*
X83873728Y-73905781D01*
X83742302Y-73926597D01*
X83577552Y-73980128D01*
X83423211Y-74058768D01*
X83343256Y-74116859D01*
X83283072Y-74160586D01*
X83283070Y-74160588D01*
X83283069Y-74160588D01*
X83160588Y-74283069D01*
X83160588Y-74283070D01*
X83160586Y-74283072D01*
X83116859Y-74343256D01*
X83058768Y-74423211D01*
X82980128Y-74577552D01*
X82926597Y-74742302D01*
X82899500Y-74913389D01*
X78350272Y-74913389D01*
X78162997Y-74795716D01*
X78162994Y-74795714D01*
X77920082Y-74678734D01*
X77665602Y-74589687D01*
X77665594Y-74589684D01*
X77468446Y-74544687D01*
X77402732Y-74529688D01*
X77402728Y-74529687D01*
X77402719Y-74529686D01*
X77134813Y-74499500D01*
X77134809Y-74499500D01*
X76865191Y-74499500D01*
X76865186Y-74499500D01*
X76597280Y-74529686D01*
X76597268Y-74529688D01*
X76334405Y-74589684D01*
X76334397Y-74589687D01*
X76079917Y-74678734D01*
X75837005Y-74795714D01*
X75608712Y-74939161D01*
X75397915Y-75107265D01*
X75207265Y-75297915D01*
X75039161Y-75508712D01*
X74895714Y-75737005D01*
X74778734Y-75979917D01*
X74689687Y-76234397D01*
X74689684Y-76234405D01*
X74629688Y-76497268D01*
X74629686Y-76497280D01*
X74599500Y-76765186D01*
X71000500Y-76765186D01*
X71000500Y-72413389D01*
X82899500Y-72413389D01*
X82899500Y-72586611D01*
X82926598Y-72757701D01*
X82980127Y-72922445D01*
X83058768Y-73076788D01*
X83160586Y-73216928D01*
X83283072Y-73339414D01*
X83423212Y-73441232D01*
X83577555Y-73519873D01*
X83742299Y-73573402D01*
X83913389Y-73600500D01*
X83913390Y-73600500D01*
X84086610Y-73600500D01*
X84086611Y-73600500D01*
X84257701Y-73573402D01*
X84422445Y-73519873D01*
X84576788Y-73441232D01*
X84716928Y-73339414D01*
X84839414Y-73216928D01*
X84941232Y-73076788D01*
X85019873Y-72922445D01*
X85073402Y-72757701D01*
X85100500Y-72586611D01*
X85100500Y-72413389D01*
X85073402Y-72242299D01*
X85019873Y-72077555D01*
X84941232Y-71923212D01*
X84839414Y-71783072D01*
X84716928Y-71660586D01*
X84714526Y-71658841D01*
X84669759Y-71626314D01*
X84669736Y-71626299D01*
X84576788Y-71558768D01*
X84528390Y-71534108D01*
X92299500Y-71534108D01*
X92299500Y-71665891D01*
X92333608Y-71793187D01*
X92366554Y-71850250D01*
X92399500Y-71907314D01*
X92492686Y-72000500D01*
X92606814Y-72066392D01*
X92734108Y-72100500D01*
X92734110Y-72100500D01*
X92865890Y-72100500D01*
X92865892Y-72100500D01*
X92993186Y-72066392D01*
X93107314Y-72000500D01*
X93200500Y-71907314D01*
X93266392Y-71793186D01*
X93300500Y-71665892D01*
X93300500Y-71534108D01*
X93266392Y-71406814D01*
X93200500Y-71292686D01*
X93107314Y-71199500D01*
X93022442Y-71150499D01*
X92993187Y-71133608D01*
X92928931Y-71116391D01*
X92865892Y-71099500D01*
X92734108Y-71099500D01*
X92606812Y-71133608D01*
X92492686Y-71199500D01*
X92492683Y-71199502D01*
X92399502Y-71292683D01*
X92399500Y-71292686D01*
X92333608Y-71406812D01*
X92299500Y-71534108D01*
X84528390Y-71534108D01*
X84422447Y-71480128D01*
X84422446Y-71480127D01*
X84422445Y-71480127D01*
X84257701Y-71426598D01*
X84257699Y-71426597D01*
X84257698Y-71426597D01*
X84126271Y-71405781D01*
X84086611Y-71399500D01*
X83913389Y-71399500D01*
X83873728Y-71405781D01*
X83742302Y-71426597D01*
X83577552Y-71480128D01*
X83423211Y-71558768D01*
X83343256Y-71616859D01*
X83283072Y-71660586D01*
X83283070Y-71660588D01*
X83283069Y-71660588D01*
X83160588Y-71783069D01*
X83160588Y-71783070D01*
X83160586Y-71783072D01*
X83153238Y-71793186D01*
X83058768Y-71923211D01*
X82980128Y-72077552D01*
X82926597Y-72242302D01*
X82899500Y-72413389D01*
X71000500Y-72413389D01*
X71000500Y-67965186D01*
X74599500Y-67965186D01*
X74599500Y-68234813D01*
X74629686Y-68502719D01*
X74629688Y-68502731D01*
X74689684Y-68765594D01*
X74689687Y-68765602D01*
X74778734Y-69020082D01*
X74895714Y-69262994D01*
X74895716Y-69262997D01*
X75039162Y-69491289D01*
X75207266Y-69702085D01*
X75397915Y-69892734D01*
X75608711Y-70060838D01*
X75837003Y-70204284D01*
X76079921Y-70321267D01*
X76271049Y-70388145D01*
X76334397Y-70410312D01*
X76334405Y-70410315D01*
X76334408Y-70410315D01*
X76334409Y-70410316D01*
X76597268Y-70470312D01*
X76865187Y-70500499D01*
X76865188Y-70500500D01*
X76865191Y-70500500D01*
X77134812Y-70500500D01*
X77134812Y-70500499D01*
X77402732Y-70470312D01*
X77665591Y-70410316D01*
X77920079Y-70321267D01*
X78162997Y-70204284D01*
X78391289Y-70060838D01*
X78576184Y-69913389D01*
X82899500Y-69913389D01*
X82899500Y-70086611D01*
X82904487Y-70118100D01*
X82918137Y-70204284D01*
X82926598Y-70257701D01*
X82980127Y-70422445D01*
X83058768Y-70576788D01*
X83160586Y-70716928D01*
X83283072Y-70839414D01*
X83423212Y-70941232D01*
X83577555Y-71019873D01*
X83742299Y-71073402D01*
X83913389Y-71100500D01*
X83913390Y-71100500D01*
X84086610Y-71100500D01*
X84086611Y-71100500D01*
X84257701Y-71073402D01*
X84422445Y-71019873D01*
X84576788Y-70941232D01*
X84716928Y-70839414D01*
X84839414Y-70716928D01*
X84935914Y-70584108D01*
X87649500Y-70584108D01*
X87649500Y-70715891D01*
X87683608Y-70843187D01*
X87716554Y-70900250D01*
X87749500Y-70957314D01*
X87842686Y-71050500D01*
X87956814Y-71116392D01*
X88084108Y-71150500D01*
X88084110Y-71150500D01*
X88215890Y-71150500D01*
X88215892Y-71150500D01*
X88343186Y-71116392D01*
X88457314Y-71050500D01*
X88550500Y-70957314D01*
X88616392Y-70843186D01*
X88650500Y-70715892D01*
X88650500Y-70584108D01*
X88616392Y-70456814D01*
X88550500Y-70342686D01*
X88457314Y-70249500D01*
X88358910Y-70192686D01*
X88343187Y-70183608D01*
X88279539Y-70166554D01*
X88215892Y-70149500D01*
X88084108Y-70149500D01*
X87956812Y-70183608D01*
X87842686Y-70249500D01*
X87842683Y-70249502D01*
X87749502Y-70342683D01*
X87749500Y-70342686D01*
X87683608Y-70456812D01*
X87649500Y-70584108D01*
X84935914Y-70584108D01*
X84941232Y-70576788D01*
X85019873Y-70422445D01*
X85073402Y-70257701D01*
X85100500Y-70086611D01*
X85100500Y-69913389D01*
X85073402Y-69742299D01*
X85019873Y-69577555D01*
X84941232Y-69423212D01*
X84839414Y-69283072D01*
X84716928Y-69160586D01*
X84576788Y-69058768D01*
X84422445Y-68980127D01*
X84257701Y-68926598D01*
X84257699Y-68926597D01*
X84257698Y-68926597D01*
X84126271Y-68905781D01*
X84086611Y-68899500D01*
X83913389Y-68899500D01*
X83873728Y-68905781D01*
X83742302Y-68926597D01*
X83577552Y-68980128D01*
X83423211Y-69058768D01*
X83343256Y-69116859D01*
X83283072Y-69160586D01*
X83283070Y-69160588D01*
X83283069Y-69160588D01*
X83160588Y-69283069D01*
X83160588Y-69283070D01*
X83160586Y-69283072D01*
X83116859Y-69343256D01*
X83058768Y-69423211D01*
X82980128Y-69577552D01*
X82926597Y-69742302D01*
X82914159Y-69820836D01*
X82899500Y-69913389D01*
X78576184Y-69913389D01*
X78602085Y-69892734D01*
X78792734Y-69702085D01*
X78960838Y-69491289D01*
X79104284Y-69262997D01*
X79221267Y-69020079D01*
X79310316Y-68765591D01*
X79370312Y-68502732D01*
X79400500Y-68234809D01*
X79400500Y-67965191D01*
X79370312Y-67697268D01*
X79310316Y-67434409D01*
X79308876Y-67430295D01*
X79298275Y-67400000D01*
X80500000Y-67400000D01*
X85953745Y-67400000D01*
X86020784Y-67419685D01*
X86034956Y-67430295D01*
X88999997Y-69999999D01*
X88999999Y-70000000D01*
X89000000Y-70000000D01*
X93195973Y-70000000D01*
X93263012Y-70019685D01*
X93308767Y-70072489D01*
X93318711Y-70141647D01*
X93303360Y-70186000D01*
X93233609Y-70306810D01*
X93233609Y-70306811D01*
X93233608Y-70306813D01*
X93233608Y-70306814D01*
X93199500Y-70434108D01*
X93199500Y-70565892D01*
X93216554Y-70629539D01*
X93233608Y-70693187D01*
X93266554Y-70750250D01*
X93299500Y-70807314D01*
X93392686Y-70900500D01*
X93506814Y-70966392D01*
X93634108Y-71000500D01*
X93634110Y-71000500D01*
X93765890Y-71000500D01*
X93765892Y-71000500D01*
X93893186Y-70966392D01*
X94007314Y-70900500D01*
X94100500Y-70807314D01*
X94166392Y-70693186D01*
X94200500Y-70565892D01*
X94200500Y-70434108D01*
X94166392Y-70306814D01*
X94100500Y-70192686D01*
X94096640Y-70186000D01*
X94080167Y-70118100D01*
X94103019Y-70052073D01*
X94157940Y-70008883D01*
X94204027Y-70000000D01*
X94795973Y-70000000D01*
X94863012Y-70019685D01*
X94908767Y-70072489D01*
X94918711Y-70141647D01*
X94903360Y-70186000D01*
X94833609Y-70306810D01*
X94833609Y-70306811D01*
X94833608Y-70306813D01*
X94833608Y-70306814D01*
X94799500Y-70434108D01*
X94799500Y-70565892D01*
X94816554Y-70629539D01*
X94833608Y-70693187D01*
X94866554Y-70750250D01*
X94899500Y-70807314D01*
X94992686Y-70900500D01*
X95106814Y-70966392D01*
X95234108Y-71000500D01*
X95234110Y-71000500D01*
X95365890Y-71000500D01*
X95365892Y-71000500D01*
X95493186Y-70966392D01*
X95607314Y-70900500D01*
X95700500Y-70807314D01*
X95766392Y-70693186D01*
X95800500Y-70565892D01*
X95800500Y-70434108D01*
X95766392Y-70306814D01*
X95700500Y-70192686D01*
X95696640Y-70186000D01*
X95680167Y-70118100D01*
X95703019Y-70052073D01*
X95757940Y-70008883D01*
X95804027Y-70000000D01*
X100000000Y-70000000D01*
X100000000Y-68000000D01*
X90048234Y-68000000D01*
X89981195Y-67980315D01*
X89964444Y-67967407D01*
X87600000Y-65800000D01*
X80500000Y-65800000D01*
X80500000Y-67400000D01*
X79298275Y-67400000D01*
X79288145Y-67371049D01*
X79221267Y-67179921D01*
X79104284Y-66937003D01*
X78960838Y-66708711D01*
X78792734Y-66497915D01*
X78602085Y-66307266D01*
X78391289Y-66139162D01*
X78162997Y-65995716D01*
X78162994Y-65995714D01*
X77920082Y-65878734D01*
X77882773Y-65865679D01*
X77665602Y-65789687D01*
X77665594Y-65789684D01*
X77468446Y-65744687D01*
X77402732Y-65729688D01*
X77402728Y-65729687D01*
X77402719Y-65729686D01*
X77134813Y-65699500D01*
X77134809Y-65699500D01*
X76865191Y-65699500D01*
X76865186Y-65699500D01*
X76597280Y-65729686D01*
X76597268Y-65729688D01*
X76334405Y-65789684D01*
X76334397Y-65789687D01*
X76079917Y-65878734D01*
X75837005Y-65995714D01*
X75608712Y-66139161D01*
X75397915Y-66307265D01*
X75207265Y-66497915D01*
X75039161Y-66708712D01*
X74895714Y-66937005D01*
X74778734Y-67179917D01*
X74689687Y-67434397D01*
X74689684Y-67434405D01*
X74629688Y-67697268D01*
X74629686Y-67697280D01*
X74599500Y-67965186D01*
X71000500Y-67965186D01*
X71000500Y-60634108D01*
X92674500Y-60634108D01*
X92674500Y-60765891D01*
X92708608Y-60893187D01*
X92741554Y-60950250D01*
X92774500Y-61007314D01*
X92867686Y-61100500D01*
X92981814Y-61166392D01*
X93109108Y-61200500D01*
X93109110Y-61200500D01*
X93240890Y-61200500D01*
X93240892Y-61200500D01*
X93368186Y-61166392D01*
X93482314Y-61100500D01*
X93575500Y-61007314D01*
X93641392Y-60893186D01*
X93675500Y-60765892D01*
X93675500Y-60634108D01*
X93641392Y-60506814D01*
X93575500Y-60392686D01*
X93482314Y-60299500D01*
X93425250Y-60266554D01*
X93368187Y-60233608D01*
X93304539Y-60216554D01*
X93240892Y-60199500D01*
X93109108Y-60199500D01*
X92981812Y-60233608D01*
X92867686Y-60299500D01*
X92867683Y-60299502D01*
X92774502Y-60392683D01*
X92774500Y-60392686D01*
X92708608Y-60506812D01*
X92674500Y-60634108D01*
X71000500Y-60634108D01*
X71000500Y-56897648D01*
X71699500Y-56897648D01*
X71699500Y-57102351D01*
X71731522Y-57304534D01*
X71794781Y-57499223D01*
X71887715Y-57681613D01*
X72008028Y-57847213D01*
X72152786Y-57991971D01*
X72307749Y-58104556D01*
X72318390Y-58112287D01*
X72434607Y-58171503D01*
X72500776Y-58205218D01*
X72500778Y-58205218D01*
X72500781Y-58205220D01*
X72605137Y-58239127D01*
X72695465Y-58268477D01*
X72796557Y-58284488D01*
X72897648Y-58300500D01*
X72897649Y-58300500D01*
X73102351Y-58300500D01*
X73102352Y-58300500D01*
X73304534Y-58268477D01*
X73499219Y-58205220D01*
X73681610Y-58112287D01*
X73774590Y-58044732D01*
X73847213Y-57991971D01*
X73847215Y-57991968D01*
X73847219Y-57991966D01*
X73991966Y-57847219D01*
X73991968Y-57847215D01*
X73991971Y-57847213D01*
X74044732Y-57774590D01*
X74112287Y-57681610D01*
X74205220Y-57499219D01*
X74268477Y-57304534D01*
X74300500Y-57102352D01*
X74300500Y-56897648D01*
X74268477Y-56695466D01*
X74205220Y-56500781D01*
X74205218Y-56500778D01*
X74205218Y-56500776D01*
X74171503Y-56434607D01*
X74112287Y-56318390D01*
X74104556Y-56307749D01*
X73991971Y-56152786D01*
X73847213Y-56008028D01*
X73681613Y-55887715D01*
X73681612Y-55887714D01*
X73681610Y-55887713D01*
X73624653Y-55858691D01*
X73499223Y-55794781D01*
X73304534Y-55731522D01*
X73129995Y-55703878D01*
X73102352Y-55699500D01*
X72897648Y-55699500D01*
X72873329Y-55703351D01*
X72695465Y-55731522D01*
X72500776Y-55794781D01*
X72318386Y-55887715D01*
X72152786Y-56008028D01*
X72008028Y-56152786D01*
X71887715Y-56318386D01*
X71794781Y-56500776D01*
X71731522Y-56695465D01*
X71699500Y-56897648D01*
X71000500Y-56897648D01*
X71000500Y-53034108D01*
X81599500Y-53034108D01*
X81599500Y-53165891D01*
X81633608Y-53293187D01*
X81666554Y-53350250D01*
X81699500Y-53407314D01*
X81699502Y-53407316D01*
X81704505Y-53412319D01*
X81737990Y-53473642D01*
X81733006Y-53543334D01*
X81704505Y-53587681D01*
X81699502Y-53592683D01*
X81699500Y-53592686D01*
X81633608Y-53706812D01*
X81599500Y-53834108D01*
X81599500Y-53965891D01*
X81633608Y-54093187D01*
X81666554Y-54150250D01*
X81699500Y-54207314D01*
X81699502Y-54207316D01*
X81704505Y-54212319D01*
X81737990Y-54273642D01*
X81733006Y-54343334D01*
X81704505Y-54387681D01*
X81699502Y-54392683D01*
X81699500Y-54392686D01*
X81633608Y-54506812D01*
X81599500Y-54634108D01*
X81599500Y-54765891D01*
X81633608Y-54893187D01*
X81666554Y-54950250D01*
X81699500Y-55007314D01*
X81792686Y-55100500D01*
X81906814Y-55166392D01*
X82034108Y-55200500D01*
X82034110Y-55200500D01*
X82165890Y-55200500D01*
X82165892Y-55200500D01*
X82293186Y-55166392D01*
X82407314Y-55100500D01*
X82500500Y-55007314D01*
X82566392Y-54893186D01*
X82600500Y-54765892D01*
X82600500Y-54634108D01*
X82566392Y-54506814D01*
X82500500Y-54392686D01*
X82495495Y-54387681D01*
X82462010Y-54326358D01*
X82466994Y-54256666D01*
X82495495Y-54212319D01*
X82500500Y-54207314D01*
X82566392Y-54093186D01*
X82600500Y-53965892D01*
X82600500Y-53834108D01*
X82566392Y-53706814D01*
X82500500Y-53592686D01*
X82495495Y-53587681D01*
X82462010Y-53526358D01*
X82466994Y-53456666D01*
X82495495Y-53412319D01*
X82500500Y-53407314D01*
X82566392Y-53293186D01*
X82600500Y-53165892D01*
X82600500Y-53034108D01*
X82566392Y-52906814D01*
X82500500Y-52792686D01*
X82407314Y-52699500D01*
X82350250Y-52666554D01*
X82293187Y-52633608D01*
X82229539Y-52616554D01*
X82165892Y-52599500D01*
X82034108Y-52599500D01*
X81906812Y-52633608D01*
X81792686Y-52699500D01*
X81792683Y-52699502D01*
X81699502Y-52792683D01*
X81699500Y-52792686D01*
X81633608Y-52906812D01*
X81599500Y-53034108D01*
X71000500Y-53034108D01*
X71000500Y-48059108D01*
X81199500Y-48059108D01*
X81199500Y-48190891D01*
X81233608Y-48318187D01*
X81266554Y-48375250D01*
X81299500Y-48432314D01*
X81392686Y-48525500D01*
X81506814Y-48591392D01*
X81634108Y-48625500D01*
X81634110Y-48625500D01*
X81765890Y-48625500D01*
X81765892Y-48625500D01*
X81893186Y-48591392D01*
X82007314Y-48525500D01*
X82012319Y-48520495D01*
X82073642Y-48487010D01*
X82143334Y-48491994D01*
X82187681Y-48520495D01*
X82192686Y-48525500D01*
X82306814Y-48591392D01*
X82434108Y-48625500D01*
X82434110Y-48625500D01*
X82565890Y-48625500D01*
X82565892Y-48625500D01*
X82693186Y-48591392D01*
X82807314Y-48525500D01*
X82812319Y-48520495D01*
X82873642Y-48487010D01*
X82943334Y-48491994D01*
X82987681Y-48520495D01*
X82992686Y-48525500D01*
X83106814Y-48591392D01*
X83234108Y-48625500D01*
X83234110Y-48625500D01*
X83365890Y-48625500D01*
X83365892Y-48625500D01*
X83493186Y-48591392D01*
X83607314Y-48525500D01*
X83700500Y-48432314D01*
X83766392Y-48318186D01*
X83800500Y-48190892D01*
X83800500Y-48059108D01*
X84599500Y-48059108D01*
X84599500Y-48190891D01*
X84633608Y-48318187D01*
X84666554Y-48375250D01*
X84699500Y-48432314D01*
X84792686Y-48525500D01*
X84906814Y-48591392D01*
X85034108Y-48625500D01*
X85034110Y-48625500D01*
X85165890Y-48625500D01*
X85165892Y-48625500D01*
X85293186Y-48591392D01*
X85407314Y-48525500D01*
X85412319Y-48520495D01*
X85473642Y-48487010D01*
X85543334Y-48491994D01*
X85587681Y-48520495D01*
X85592686Y-48525500D01*
X85706814Y-48591392D01*
X85834108Y-48625500D01*
X85834110Y-48625500D01*
X85965890Y-48625500D01*
X85965892Y-48625500D01*
X86093186Y-48591392D01*
X86207314Y-48525500D01*
X86212319Y-48520495D01*
X86273642Y-48487010D01*
X86343334Y-48491994D01*
X86387681Y-48520495D01*
X86392686Y-48525500D01*
X86506814Y-48591392D01*
X86634108Y-48625500D01*
X86634110Y-48625500D01*
X86765890Y-48625500D01*
X86765892Y-48625500D01*
X86893186Y-48591392D01*
X87007314Y-48525500D01*
X87100500Y-48432314D01*
X87166392Y-48318186D01*
X87200500Y-48190892D01*
X87200500Y-48059108D01*
X87999500Y-48059108D01*
X87999500Y-48190891D01*
X88033608Y-48318187D01*
X88066554Y-48375250D01*
X88099500Y-48432314D01*
X88192686Y-48525500D01*
X88306814Y-48591392D01*
X88434108Y-48625500D01*
X88434110Y-48625500D01*
X88565890Y-48625500D01*
X88565892Y-48625500D01*
X88693186Y-48591392D01*
X88807314Y-48525500D01*
X88812319Y-48520495D01*
X88873642Y-48487010D01*
X88943334Y-48491994D01*
X88987681Y-48520495D01*
X88992686Y-48525500D01*
X89106814Y-48591392D01*
X89234108Y-48625500D01*
X89234110Y-48625500D01*
X89365890Y-48625500D01*
X89365892Y-48625500D01*
X89493186Y-48591392D01*
X89607314Y-48525500D01*
X89612319Y-48520495D01*
X89673642Y-48487010D01*
X89743334Y-48491994D01*
X89787681Y-48520495D01*
X89792686Y-48525500D01*
X89906814Y-48591392D01*
X90034108Y-48625500D01*
X90034110Y-48625500D01*
X90165890Y-48625500D01*
X90165892Y-48625500D01*
X90293186Y-48591392D01*
X90407314Y-48525500D01*
X90500500Y-48432314D01*
X90566392Y-48318186D01*
X90600500Y-48190892D01*
X90600500Y-48059108D01*
X91399500Y-48059108D01*
X91399500Y-48190891D01*
X91433608Y-48318187D01*
X91466554Y-48375250D01*
X91499500Y-48432314D01*
X91592686Y-48525500D01*
X91706814Y-48591392D01*
X91834108Y-48625500D01*
X91834110Y-48625500D01*
X91965890Y-48625500D01*
X91965892Y-48625500D01*
X92093186Y-48591392D01*
X92207314Y-48525500D01*
X92212319Y-48520495D01*
X92273642Y-48487010D01*
X92343334Y-48491994D01*
X92387681Y-48520495D01*
X92392686Y-48525500D01*
X92506814Y-48591392D01*
X92634108Y-48625500D01*
X92634110Y-48625500D01*
X92765890Y-48625500D01*
X92765892Y-48625500D01*
X92893186Y-48591392D01*
X93007314Y-48525500D01*
X93012319Y-48520495D01*
X93073642Y-48487010D01*
X93143334Y-48491994D01*
X93187681Y-48520495D01*
X93192686Y-48525500D01*
X93306814Y-48591392D01*
X93434108Y-48625500D01*
X93434110Y-48625500D01*
X93565890Y-48625500D01*
X93565892Y-48625500D01*
X93693186Y-48591392D01*
X93807314Y-48525500D01*
X93900500Y-48432314D01*
X93966392Y-48318186D01*
X94000500Y-48190892D01*
X94000500Y-48059108D01*
X94799500Y-48059108D01*
X94799500Y-48190891D01*
X94833608Y-48318187D01*
X94866554Y-48375250D01*
X94899500Y-48432314D01*
X94992686Y-48525500D01*
X95106814Y-48591392D01*
X95234108Y-48625500D01*
X95234110Y-48625500D01*
X95365890Y-48625500D01*
X95365892Y-48625500D01*
X95493186Y-48591392D01*
X95607314Y-48525500D01*
X95612319Y-48520495D01*
X95673642Y-48487010D01*
X95743334Y-48491994D01*
X95787681Y-48520495D01*
X95792686Y-48525500D01*
X95906814Y-48591392D01*
X96034108Y-48625500D01*
X96034110Y-48625500D01*
X96165890Y-48625500D01*
X96165892Y-48625500D01*
X96293186Y-48591392D01*
X96407314Y-48525500D01*
X96412319Y-48520495D01*
X96473642Y-48487010D01*
X96543334Y-48491994D01*
X96587681Y-48520495D01*
X96592686Y-48525500D01*
X96706814Y-48591392D01*
X96834108Y-48625500D01*
X96834110Y-48625500D01*
X96965890Y-48625500D01*
X96965892Y-48625500D01*
X97093186Y-48591392D01*
X97207314Y-48525500D01*
X97300500Y-48432314D01*
X97366392Y-48318186D01*
X97400500Y-48190892D01*
X97400500Y-48059108D01*
X97366392Y-47931814D01*
X97300500Y-47817686D01*
X97207314Y-47724500D01*
X97150250Y-47691554D01*
X97093187Y-47658608D01*
X97029539Y-47641554D01*
X96965892Y-47624500D01*
X96834108Y-47624500D01*
X96706812Y-47658608D01*
X96592686Y-47724500D01*
X96592683Y-47724502D01*
X96587681Y-47729505D01*
X96526358Y-47762990D01*
X96456666Y-47758006D01*
X96412319Y-47729505D01*
X96407316Y-47724502D01*
X96407314Y-47724500D01*
X96350250Y-47691554D01*
X96293187Y-47658608D01*
X96229539Y-47641554D01*
X96165892Y-47624500D01*
X96034108Y-47624500D01*
X95906812Y-47658608D01*
X95792686Y-47724500D01*
X95792683Y-47724502D01*
X95787681Y-47729505D01*
X95726358Y-47762990D01*
X95656666Y-47758006D01*
X95612319Y-47729505D01*
X95607316Y-47724502D01*
X95607314Y-47724500D01*
X95550250Y-47691554D01*
X95493187Y-47658608D01*
X95429539Y-47641554D01*
X95365892Y-47624500D01*
X95234108Y-47624500D01*
X95106812Y-47658608D01*
X94992686Y-47724500D01*
X94992683Y-47724502D01*
X94899502Y-47817683D01*
X94899500Y-47817686D01*
X94833608Y-47931812D01*
X94799500Y-48059108D01*
X94000500Y-48059108D01*
X93966392Y-47931814D01*
X93900500Y-47817686D01*
X93807314Y-47724500D01*
X93750250Y-47691554D01*
X93693187Y-47658608D01*
X93629539Y-47641554D01*
X93565892Y-47624500D01*
X93434108Y-47624500D01*
X93306812Y-47658608D01*
X93192686Y-47724500D01*
X93192683Y-47724502D01*
X93187681Y-47729505D01*
X93126358Y-47762990D01*
X93056666Y-47758006D01*
X93012319Y-47729505D01*
X93007316Y-47724502D01*
X93007314Y-47724500D01*
X92950250Y-47691554D01*
X92893187Y-47658608D01*
X92829539Y-47641554D01*
X92765892Y-47624500D01*
X92634108Y-47624500D01*
X92506812Y-47658608D01*
X92392686Y-47724500D01*
X92392683Y-47724502D01*
X92387681Y-47729505D01*
X92326358Y-47762990D01*
X92256666Y-47758006D01*
X92212319Y-47729505D01*
X92207316Y-47724502D01*
X92207314Y-47724500D01*
X92150250Y-47691554D01*
X92093187Y-47658608D01*
X92029539Y-47641554D01*
X91965892Y-47624500D01*
X91834108Y-47624500D01*
X91706812Y-47658608D01*
X91592686Y-47724500D01*
X91592683Y-47724502D01*
X91499502Y-47817683D01*
X91499500Y-47817686D01*
X91433608Y-47931812D01*
X91399500Y-48059108D01*
X90600500Y-48059108D01*
X90566392Y-47931814D01*
X90500500Y-47817686D01*
X90407314Y-47724500D01*
X90350250Y-47691554D01*
X90293187Y-47658608D01*
X90229539Y-47641554D01*
X90165892Y-47624500D01*
X90034108Y-47624500D01*
X89906812Y-47658608D01*
X89792686Y-47724500D01*
X89792683Y-47724502D01*
X89787681Y-47729505D01*
X89726358Y-47762990D01*
X89656666Y-47758006D01*
X89612319Y-47729505D01*
X89607316Y-47724502D01*
X89607314Y-47724500D01*
X89550250Y-47691554D01*
X89493187Y-47658608D01*
X89429539Y-47641554D01*
X89365892Y-47624500D01*
X89234108Y-47624500D01*
X89106812Y-47658608D01*
X88992686Y-47724500D01*
X88992683Y-47724502D01*
X88987681Y-47729505D01*
X88926358Y-47762990D01*
X88856666Y-47758006D01*
X88812319Y-47729505D01*
X88807316Y-47724502D01*
X88807314Y-47724500D01*
X88750250Y-47691554D01*
X88693187Y-47658608D01*
X88629539Y-47641554D01*
X88565892Y-47624500D01*
X88434108Y-47624500D01*
X88306812Y-47658608D01*
X88192686Y-47724500D01*
X88192683Y-47724502D01*
X88099502Y-47817683D01*
X88099500Y-47817686D01*
X88033608Y-47931812D01*
X87999500Y-48059108D01*
X87200500Y-48059108D01*
X87166392Y-47931814D01*
X87100500Y-47817686D01*
X87007314Y-47724500D01*
X86950250Y-47691554D01*
X86893187Y-47658608D01*
X86829539Y-47641554D01*
X86765892Y-47624500D01*
X86634108Y-47624500D01*
X86506812Y-47658608D01*
X86392686Y-47724500D01*
X86392683Y-47724502D01*
X86387681Y-47729505D01*
X86326358Y-47762990D01*
X86256666Y-47758006D01*
X86212319Y-47729505D01*
X86207316Y-47724502D01*
X86207314Y-47724500D01*
X86150250Y-47691554D01*
X86093187Y-47658608D01*
X86029539Y-47641554D01*
X85965892Y-47624500D01*
X85834108Y-47624500D01*
X85706812Y-47658608D01*
X85592686Y-47724500D01*
X85592683Y-47724502D01*
X85587681Y-47729505D01*
X85526358Y-47762990D01*
X85456666Y-47758006D01*
X85412319Y-47729505D01*
X85407316Y-47724502D01*
X85407314Y-47724500D01*
X85350250Y-47691554D01*
X85293187Y-47658608D01*
X85229539Y-47641554D01*
X85165892Y-47624500D01*
X85034108Y-47624500D01*
X84906812Y-47658608D01*
X84792686Y-47724500D01*
X84792683Y-47724502D01*
X84699502Y-47817683D01*
X84699500Y-47817686D01*
X84633608Y-47931812D01*
X84599500Y-48059108D01*
X83800500Y-48059108D01*
X83766392Y-47931814D01*
X83700500Y-47817686D01*
X83607314Y-47724500D01*
X83550250Y-47691554D01*
X83493187Y-47658608D01*
X83429539Y-47641554D01*
X83365892Y-47624500D01*
X83234108Y-47624500D01*
X83106812Y-47658608D01*
X82992686Y-47724500D01*
X82992683Y-47724502D01*
X82987681Y-47729505D01*
X82926358Y-47762990D01*
X82856666Y-47758006D01*
X82812319Y-47729505D01*
X82807316Y-47724502D01*
X82807314Y-47724500D01*
X82750250Y-47691554D01*
X82693187Y-47658608D01*
X82629539Y-47641554D01*
X82565892Y-47624500D01*
X82434108Y-47624500D01*
X82306812Y-47658608D01*
X82192686Y-47724500D01*
X82192683Y-47724502D01*
X82187681Y-47729505D01*
X82126358Y-47762990D01*
X82056666Y-47758006D01*
X82012319Y-47729505D01*
X82007316Y-47724502D01*
X82007314Y-47724500D01*
X81950250Y-47691554D01*
X81893187Y-47658608D01*
X81829539Y-47641554D01*
X81765892Y-47624500D01*
X81634108Y-47624500D01*
X81506812Y-47658608D01*
X81392686Y-47724500D01*
X81392683Y-47724502D01*
X81299502Y-47817683D01*
X81299500Y-47817686D01*
X81233608Y-47931812D01*
X81199500Y-48059108D01*
X71000500Y-48059108D01*
X71000500Y-46284108D01*
X77149500Y-46284108D01*
X77149500Y-46415891D01*
X77183608Y-46543187D01*
X77216554Y-46600250D01*
X77249500Y-46657314D01*
X77342686Y-46750500D01*
X77456814Y-46816392D01*
X77584108Y-46850500D01*
X77584110Y-46850500D01*
X77715890Y-46850500D01*
X77715892Y-46850500D01*
X77843186Y-46816392D01*
X77957314Y-46750500D01*
X78050500Y-46657314D01*
X78116392Y-46543186D01*
X78150500Y-46415892D01*
X78150500Y-46284108D01*
X78116392Y-46156814D01*
X78050500Y-46042686D01*
X77957314Y-45949500D01*
X77900250Y-45916554D01*
X77843187Y-45883608D01*
X77779539Y-45866554D01*
X77715892Y-45849500D01*
X77584108Y-45849500D01*
X77456812Y-45883608D01*
X77342686Y-45949500D01*
X77342683Y-45949502D01*
X77249502Y-46042683D01*
X77249500Y-46042686D01*
X77183608Y-46156812D01*
X77149500Y-46284108D01*
X71000500Y-46284108D01*
X71000500Y-44004066D01*
X71000765Y-43995956D01*
X71007208Y-43897648D01*
X80699500Y-43897648D01*
X80699500Y-44102351D01*
X80731522Y-44304534D01*
X80794781Y-44499223D01*
X80887715Y-44681613D01*
X81008028Y-44847213D01*
X81152786Y-44991971D01*
X81307749Y-45104556D01*
X81318390Y-45112287D01*
X81434607Y-45171503D01*
X81500776Y-45205218D01*
X81500778Y-45205218D01*
X81500781Y-45205220D01*
X81605137Y-45239127D01*
X81695465Y-45268477D01*
X81796557Y-45284488D01*
X81897648Y-45300500D01*
X81897649Y-45300500D01*
X82102351Y-45300500D01*
X82102352Y-45300500D01*
X82304534Y-45268477D01*
X82499219Y-45205220D01*
X82681610Y-45112287D01*
X82774590Y-45044732D01*
X82847213Y-44991971D01*
X82847215Y-44991968D01*
X82847219Y-44991966D01*
X82991966Y-44847219D01*
X82991968Y-44847215D01*
X82991971Y-44847213D01*
X83044732Y-44774590D01*
X83112287Y-44681610D01*
X83205220Y-44499219D01*
X83268477Y-44304534D01*
X83300500Y-44102352D01*
X83300500Y-43897648D01*
X85699500Y-43897648D01*
X85699500Y-44102351D01*
X85731522Y-44304534D01*
X85794781Y-44499223D01*
X85887715Y-44681613D01*
X86008028Y-44847213D01*
X86152786Y-44991971D01*
X86307749Y-45104556D01*
X86318390Y-45112287D01*
X86434607Y-45171503D01*
X86500776Y-45205218D01*
X86500778Y-45205218D01*
X86500781Y-45205220D01*
X86605137Y-45239127D01*
X86695465Y-45268477D01*
X86796557Y-45284488D01*
X86897648Y-45300500D01*
X86897649Y-45300500D01*
X87102351Y-45300500D01*
X87102352Y-45300500D01*
X87304534Y-45268477D01*
X87499219Y-45205220D01*
X87681610Y-45112287D01*
X87774590Y-45044732D01*
X87847213Y-44991971D01*
X87847215Y-44991968D01*
X87847219Y-44991966D01*
X87991966Y-44847219D01*
X87991968Y-44847215D01*
X87991971Y-44847213D01*
X88044732Y-44774590D01*
X88112287Y-44681610D01*
X88205220Y-44499219D01*
X88268477Y-44304534D01*
X88300500Y-44102352D01*
X88300500Y-43897648D01*
X88268477Y-43695466D01*
X88205220Y-43500781D01*
X88205218Y-43500778D01*
X88205218Y-43500776D01*
X88171503Y-43434607D01*
X88112287Y-43318390D01*
X88057165Y-43242520D01*
X87991971Y-43152786D01*
X87847213Y-43008028D01*
X87681613Y-42887715D01*
X87681612Y-42887714D01*
X87681610Y-42887713D01*
X87624653Y-42858691D01*
X87499223Y-42794781D01*
X87304534Y-42731522D01*
X87129995Y-42703878D01*
X87102352Y-42699500D01*
X86897648Y-42699500D01*
X86873329Y-42703351D01*
X86695465Y-42731522D01*
X86500776Y-42794781D01*
X86318386Y-42887715D01*
X86152786Y-43008028D01*
X86008028Y-43152786D01*
X85887715Y-43318386D01*
X85794781Y-43500776D01*
X85731522Y-43695465D01*
X85699500Y-43897648D01*
X83300500Y-43897648D01*
X83268477Y-43695466D01*
X83205220Y-43500781D01*
X83205218Y-43500778D01*
X83205218Y-43500776D01*
X83171503Y-43434607D01*
X83112287Y-43318390D01*
X83057165Y-43242520D01*
X82991971Y-43152786D01*
X82847213Y-43008028D01*
X82681613Y-42887715D01*
X82681612Y-42887714D01*
X82681610Y-42887713D01*
X82624653Y-42858691D01*
X82499223Y-42794781D01*
X82304534Y-42731522D01*
X82129995Y-42703878D01*
X82102352Y-42699500D01*
X81897648Y-42699500D01*
X81873329Y-42703351D01*
X81695465Y-42731522D01*
X81500776Y-42794781D01*
X81318386Y-42887715D01*
X81152786Y-43008028D01*
X81008028Y-43152786D01*
X80887715Y-43318386D01*
X80794781Y-43500776D01*
X80731522Y-43695465D01*
X80699500Y-43897648D01*
X71007208Y-43897648D01*
X71017075Y-43747102D01*
X71019190Y-43731048D01*
X71067045Y-43490462D01*
X71071243Y-43474797D01*
X71124337Y-43318386D01*
X71150093Y-43242512D01*
X71156291Y-43227547D01*
X71264790Y-43007533D01*
X71272893Y-42993498D01*
X71409182Y-42789527D01*
X71419039Y-42776681D01*
X71580786Y-42592244D01*
X71592244Y-42580786D01*
X71776681Y-42419039D01*
X71789527Y-42409182D01*
X71993498Y-42272893D01*
X72007533Y-42264790D01*
X72227547Y-42156291D01*
X72242512Y-42150093D01*
X72406762Y-42094337D01*
X72474797Y-42071243D01*
X72490464Y-42067045D01*
X72731048Y-42019190D01*
X72747102Y-42017075D01*
X72995957Y-42000765D01*
X73004067Y-42000500D01*
X73092710Y-42000500D01*
X113907290Y-42000500D01*
X113995933Y-42000500D01*
X114004043Y-42000765D01*
G37*
G04 #@! TD.AperFunction*
M02*
